<?xml version="1.0" encoding="UTF-8" standalone="no"?>
<!DOCTYPE svg PUBLIC "-//W3C//DTD SVG 1.1//EN"
 "http://www.w3.org/Graphics/SVG/1.1/DTD/svg11.dtd">
<!-- Generated by graphviz version 2.43.0 (0)
 -->
<!-- Title: include/objects/bounding_box.hpp Pages: 1 -->
<!--zoomable 341 -->
<svg id="main" version="1.1" xmlns="http://www.w3.org/2000/svg" xmlns:xlink="http://www.w3.org/1999/xlink" xml:space="preserve" onload="init(evt)">
<style type="text/css"><![CDATA[
.edge:hover path { stroke: red; }
.edge:hover polygon { stroke: red; fill: red; }
]]></style>
<script type="text/javascript"><![CDATA[
var edges = document.getElementsByTagName('g');
if (edges && edges.length) {
  for (var i=0;i<edges.length;i++) {
    if (edges[i].id.substr(0,4)=='edge') {
      edges[i].setAttribute('class','edge');
    }
  }
}
]]></script>
        <defs>
                <circle id="rim" cx="0" cy="0" r="7"/>
                <circle id="rim2" cx="0" cy="0" r="3.5"/>
                <g id="zoomPlus">
                        <use xlink:href="#rim" fill="#404040">
                                <set attributeName="fill" to="#808080" begin="zoomplus.mouseover" end="zoomplus.mouseout"/>
                        </use>
                        <path d="M-4,0h8M0,-4v8" fill="none" stroke="white" stroke-width="1.5" pointer-events="none"/>
                </g>
                <g id="zoomMin">
                        <use xlink:href="#rim" fill="#404040">
                                <set attributeName="fill" to="#808080" begin="zoomminus.mouseover" end="zoomminus.mouseout"/>
                        </use>
                        <path d="M-4,0h8" fill="none" stroke="white" stroke-width="1.5" pointer-events="none"/>
                </g>
                <g id="dirArrow">
                        <path fill="none" stroke="white" stroke-width="1.5" d="M0,-3.0v7 M-2.5,-0.5L0,-3.0L2.5,-0.5"/>
                </g>
               <g id="resetDef">
                       <use xlink:href="#rim2" fill="#404040">
                               <set attributeName="fill" to="#808080" begin="reset.mouseover" end="reset.mouseout"/>
                       </use>
               </g>
        </defs>

<script type="text/javascript">
var viewWidth = 1265;
var viewHeight = 341;
var sectionId = 'dynsection-1';
</script>
<script xlink:href="svgpan.js"/>
<svg id="graph" class="graph">
<g id="viewport">
<title>include/objects/bounding_box.hpp</title>
<polygon fill="white" stroke="transparent" points="-4,4 -4,-337 1261,-337 1261,4 -4,4"/>
<!-- Node1 -->
<g id="node1" class="node">
<title>Node1</title>
<g id="a_node1"><a xlink:title="Bounding box object, used to compute BVH tree.">
<polygon fill="#bfbfbf" stroke="black" points="300,-302.5 300,-332.5 438,-332.5 438,-302.5 300,-302.5"/>
<text text-anchor="start" x="308" y="-320.5" font-family="Helvetica,sans-Serif" font-size="10.00">include/objects/bounding</text>
<text text-anchor="middle" x="369" y="-309.5" font-family="Helvetica,sans-Serif" font-size="10.00">_box.hpp</text>
</a>
</g>
</g>
<!-- Node2 -->
<g id="node2" class="node">
<title>Node2</title>
<g id="a_node2"><a xlink:href="bvh_8hpp.html" target="_top" xlink:title="Class for our Bounding Volume Hierarchy. Acts as both tree and root.">
<polygon fill="white" stroke="black" points="0,-129 0,-148 132,-148 132,-129 0,-129"/>
<text text-anchor="middle" x="66" y="-136" font-family="Helvetica,sans-Serif" font-size="10.00">include/objects/bvh.hpp</text>
</a>
</g>
</g>
<!-- Node1&#45;&gt;Node2 -->
<g id="edge1" class="edge">
<title>Node1&#45;&gt;Node2</title>
<path fill="none" stroke="midnightblue" d="M336.32,-297.41C271.19,-259.36 127.46,-175.4 80.88,-148.19"/>
<polygon fill="midnightblue" stroke="midnightblue" points="334.57,-300.44 344.97,-302.46 338.1,-294.4 334.57,-300.44"/>
</g>
<!-- Node8 -->
<g id="node8" class="node">
<title>Node8</title>
<g id="a_node8"><a xlink:href="hit_8hpp.html" target="_top" xlink:title="Abstract object that can be hit by a ray.">
<polygon fill="white" stroke="black" points="545.5,-246.5 545.5,-265.5 672.5,-265.5 672.5,-246.5 545.5,-246.5"/>
<text text-anchor="middle" x="609" y="-253.5" font-family="Helvetica,sans-Serif" font-size="10.00">include/objects/hit.hpp</text>
</a>
</g>
</g>
<!-- Node1&#45;&gt;Node8 -->
<g id="edge9" class="edge">
<title>Node1&#45;&gt;Node8</title>
<path fill="none" stroke="midnightblue" d="M435.3,-300.06C480.49,-288.86 538.47,-274.49 574.69,-265.51"/>
<polygon fill="midnightblue" stroke="midnightblue" points="434.44,-296.67 425.57,-302.47 436.12,-303.47 434.44,-296.67"/>
</g>
<!-- Node3 -->
<g id="node3" class="node">
<title>Node3</title>
<g id="a_node3"><a xlink:href="comb__scene_8hpp.html" target="_top" xlink:title="Header file for Combined scene example (unfinished)">
<polygon fill="white" stroke="black" points="631.5,-56.5 631.5,-86.5 750.5,-86.5 750.5,-56.5 631.5,-56.5"/>
<text text-anchor="start" x="639.5" y="-74.5" font-family="Helvetica,sans-Serif" font-size="10.00">include/scenes/comb</text>
<text text-anchor="middle" x="691" y="-63.5" font-family="Helvetica,sans-Serif" font-size="10.00">_scene.hpp</text>
</a>
</g>
</g>
<!-- Node2&#45;&gt;Node3 -->
<g id="edge2" class="edge">
<title>Node2&#45;&gt;Node3</title>
<path fill="none" stroke="midnightblue" d="M115.67,-127.08C124.1,-125.55 132.78,-124.11 141,-123 345.1,-95.41 398.54,-111.76 603,-87 612.22,-85.88 621.96,-84.49 631.45,-83.02"/>
<polygon fill="midnightblue" stroke="midnightblue" points="114.74,-123.69 105.56,-128.98 116.04,-130.57 114.74,-123.69"/>
</g>
<!-- Node4 -->
<g id="node4" class="node">
<title>Node4</title>
<g id="a_node4"><a xlink:href="cornell__box_8hpp.html" target="_top" xlink:title="Header file for cornell box scene examples (unfinished)">
<polygon fill="white" stroke="black" points="469.5,-56.5 469.5,-86.5 594.5,-86.5 594.5,-56.5 469.5,-56.5"/>
<text text-anchor="start" x="477.5" y="-74.5" font-family="Helvetica,sans-Serif" font-size="10.00">include/scenes/cornell</text>
<text text-anchor="middle" x="532" y="-63.5" font-family="Helvetica,sans-Serif" font-size="10.00">_box.hpp</text>
</a>
</g>
</g>
<!-- Node2&#45;&gt;Node4 -->
<g id="edge3" class="edge">
<title>Node2&#45;&gt;Node4</title>
<path fill="none" stroke="midnightblue" d="M117.41,-127.07C125.3,-125.61 133.35,-124.2 141,-123 271.92,-102.41 305.7,-105 437,-87 447.5,-85.56 458.63,-83.94 469.44,-82.33"/>
<polygon fill="midnightblue" stroke="midnightblue" points="116.74,-123.63 107.56,-128.93 118.04,-130.51 116.74,-123.63"/>
</g>
<!-- Node6 -->
<g id="node6" class="node">
<title>Node6</title>
<g id="a_node6"><a xlink:href="light__scene_8hpp.html" target="_top" xlink:title="Header file for light scene example (unfinished)">
<polygon fill="white" stroke="black" points="315.5,-56.5 315.5,-86.5 428.5,-86.5 428.5,-56.5 315.5,-56.5"/>
<text text-anchor="start" x="323.5" y="-74.5" font-family="Helvetica,sans-Serif" font-size="10.00">include/scenes/light</text>
<text text-anchor="middle" x="372" y="-63.5" font-family="Helvetica,sans-Serif" font-size="10.00">_scene.hpp</text>
</a>
</g>
</g>
<!-- Node2&#45;&gt;Node6 -->
<g id="edge5" class="edge">
<title>Node2&#45;&gt;Node6</title>
<path fill="none" stroke="midnightblue" d="M116.14,-126.85C170.88,-115.22 258.32,-96.65 315.46,-84.51"/>
<polygon fill="midnightblue" stroke="midnightblue" points="115.37,-123.43 106.32,-128.94 116.83,-130.28 115.37,-123.43"/>
</g>
<!-- Node7 -->
<g id="node7" class="node">
<title>Node7</title>
<g id="a_node7"><a xlink:href="random__scene_8hpp.html" target="_top" xlink:title="Header file for random scene example (unfinished)">
<polygon fill="white" stroke="black" points="159.5,-56.5 159.5,-86.5 288.5,-86.5 288.5,-56.5 159.5,-56.5"/>
<text text-anchor="start" x="167.5" y="-74.5" font-family="Helvetica,sans-Serif" font-size="10.00">include/scenes/random</text>
<text text-anchor="middle" x="224" y="-63.5" font-family="Helvetica,sans-Serif" font-size="10.00">_scene.hpp</text>
</a>
</g>
</g>
<!-- Node2&#45;&gt;Node7 -->
<g id="edge7" class="edge">
<title>Node2&#45;&gt;Node7</title>
<path fill="none" stroke="midnightblue" d="M96.24,-125.06C123.01,-114.05 162.03,-97.99 189.9,-86.53"/>
<polygon fill="midnightblue" stroke="midnightblue" points="94.9,-121.83 86.98,-128.87 97.56,-128.3 94.9,-121.83"/>
</g>
<!-- Node5 -->
<g id="node5" class="node">
<title>Node5</title>
<g id="a_node5"><a xlink:href="main_8cpp.html" target="_top" xlink:title="Main file for Serial ray tracer project.">
<polygon fill="white" stroke="black" points="409,-0.5 409,-19.5 471,-19.5 471,-0.5 409,-0.5"/>
<text text-anchor="middle" x="440" y="-7.5" font-family="Helvetica,sans-Serif" font-size="10.00">main.cpp</text>
</a>
</g>
</g>
<!-- Node4&#45;&gt;Node5 -->
<g id="edge4" class="edge">
<title>Node4&#45;&gt;Node5</title>
<path fill="none" stroke="midnightblue" d="M501.5,-50.78C485.2,-40.23 465.95,-27.78 453.39,-19.66"/>
<polygon fill="midnightblue" stroke="midnightblue" points="499.9,-53.91 510.2,-56.4 503.7,-48.03 499.9,-53.91"/>
</g>
<!-- Node6&#45;&gt;Node5 -->
<g id="edge6" class="edge">
<title>Node6&#45;&gt;Node5</title>
<path fill="none" stroke="midnightblue" d="M395.89,-49.6C407.64,-39.32 421.16,-27.48 430.11,-19.66"/>
<polygon fill="midnightblue" stroke="midnightblue" points="393.34,-47.18 388.12,-56.4 397.95,-52.45 393.34,-47.18"/>
</g>
<!-- Node7&#45;&gt;Node5 -->
<g id="edge8" class="edge">
<title>Node7&#45;&gt;Node5</title>
<path fill="none" stroke="midnightblue" d="M284.69,-53.78C325.21,-42.62 376.8,-28.41 409.12,-19.51"/>
<polygon fill="midnightblue" stroke="midnightblue" points="283.63,-50.44 274.92,-56.47 285.49,-57.19 283.63,-50.44"/>
</g>
<!-- Node9 -->
<g id="node9" class="node">
<title>Node9</title>
<g id="a_node9"><a xlink:href="rectangle_8hpp.html" target="_top" xlink:title="Rectangular plane object to be rendered.">
<polygon fill="white" stroke="black" points="984,-190.5 984,-209.5 1144,-209.5 1144,-190.5 984,-190.5"/>
<text text-anchor="middle" x="1064" y="-197.5" font-family="Helvetica,sans-Serif" font-size="10.00">include/objects/rectangle.hpp</text>
</a>
</g>
</g>
<!-- Node8&#45;&gt;Node9 -->
<g id="edge10" class="edge">
<title>Node8&#45;&gt;Node9</title>
<path fill="none" stroke="midnightblue" d="M682.87,-246.23C768.18,-236.11 907.58,-219.56 992.06,-209.54"/>
<polygon fill="midnightblue" stroke="midnightblue" points="682.26,-242.78 672.74,-247.43 683.09,-249.73 682.26,-242.78"/>
</g>
<!-- Node11 -->
<g id="node11" class="node">
<title>Node11</title>
<g id="a_node11"><a xlink:href="hit__list_8hpp.html" target="_top" xlink:title="List of hittable objects.">
<polygon fill="white" stroke="black" points="1151,-123.5 1151,-153.5 1257,-153.5 1257,-123.5 1151,-123.5"/>
<text text-anchor="start" x="1159" y="-141.5" font-family="Helvetica,sans-Serif" font-size="10.00">include/objects/hit</text>
<text text-anchor="middle" x="1204" y="-130.5" font-family="Helvetica,sans-Serif" font-size="10.00">_list.hpp</text>
</a>
</g>
</g>
<!-- Node8&#45;&gt;Node11 -->
<g id="edge15" class="edge">
<title>Node8&#45;&gt;Node11</title>
<path fill="none" stroke="midnightblue" d="M682.71,-252.31C821.87,-246.75 1113.01,-232.55 1153,-210 1175.37,-197.38 1190.52,-170.43 1198.17,-153.75"/>
<polygon fill="midnightblue" stroke="midnightblue" points="682.4,-248.82 672.55,-252.72 682.68,-255.82 682.4,-248.82"/>
</g>
<!-- Node12 -->
<g id="node12" class="node">
<title>Node12</title>
<g id="a_node12"><a xlink:href="iso__fog_8hpp.html" target="_top" xlink:title="Isotropically scattering fog object.">
<polygon fill="white" stroke="black" points="502.5,-123.5 502.5,-153.5 609.5,-153.5 609.5,-123.5 502.5,-123.5"/>
<text text-anchor="start" x="510.5" y="-141.5" font-family="Helvetica,sans-Serif" font-size="10.00">include/objects/iso</text>
<text text-anchor="middle" x="556" y="-130.5" font-family="Helvetica,sans-Serif" font-size="10.00">_fog.hpp</text>
</a>
</g>
</g>
<!-- Node8&#45;&gt;Node12 -->
<g id="edge18" class="edge">
<title>Node8&#45;&gt;Node12</title>
<path fill="none" stroke="midnightblue" d="M575.94,-242.01C562.23,-234.78 547.75,-224.3 540,-210 530.26,-192.01 539.41,-168.35 547.34,-153.53"/>
<polygon fill="midnightblue" stroke="midnightblue" points="574.69,-245.29 585.21,-246.5 577.74,-238.99 574.69,-245.29"/>
</g>
<!-- Node13 -->
<g id="node13" class="node">
<title>Node13</title>
<g id="a_node13"><a xlink:href="moving__sphere_8hpp.html" target="_top" xlink:title="Sphere object moving, for motion blur.">
<polygon fill="white" stroke="black" points="150,-123.5 150,-153.5 280,-153.5 280,-123.5 150,-123.5"/>
<text text-anchor="start" x="158" y="-141.5" font-family="Helvetica,sans-Serif" font-size="10.00">include/objects/moving</text>
<text text-anchor="middle" x="215" y="-130.5" font-family="Helvetica,sans-Serif" font-size="10.00">_sphere.hpp</text>
</a>
</g>
</g>
<!-- Node8&#45;&gt;Node13 -->
<g id="edge21" class="edge">
<title>Node8&#45;&gt;Node13</title>
<path fill="none" stroke="midnightblue" d="M570.04,-243.58C497.49,-222.31 341.92,-176.71 263.02,-153.58"/>
<polygon fill="midnightblue" stroke="midnightblue" points="569.13,-246.96 579.71,-246.41 571.1,-240.24 569.13,-246.96"/>
</g>
<!-- Node14 -->
<g id="node14" class="node">
<title>Node14</title>
<g id="a_node14"><a xlink:href="sphere_8hpp.html" target="_top" xlink:title="Sphere object to be rendered.">
<polygon fill="white" stroke="black" points="298.5,-129 298.5,-148 445.5,-148 445.5,-129 298.5,-129"/>
<text text-anchor="middle" x="372" y="-136" font-family="Helvetica,sans-Serif" font-size="10.00">include/objects/sphere.hpp</text>
</a>
</g>
</g>
<!-- Node8&#45;&gt;Node14 -->
<g id="edge26" class="edge">
<title>Node8&#45;&gt;Node14</title>
<path fill="none" stroke="midnightblue" d="M582.15,-241.91C533.24,-218.08 430.86,-168.18 389.7,-148.12"/>
<polygon fill="midnightblue" stroke="midnightblue" points="580.66,-245.08 591.19,-246.32 583.73,-238.79 580.66,-245.08"/>
</g>
<!-- Node15 -->
<g id="node15" class="node">
<title>Node15</title>
<g id="a_node15"><a xlink:href="translation_8hpp.html" target="_top" xlink:title="Class for translation of a hittable object.">
<polygon fill="white" stroke="black" points="627.5,-129 627.5,-148 794.5,-148 794.5,-129 627.5,-129"/>
<text text-anchor="middle" x="711" y="-136" font-family="Helvetica,sans-Serif" font-size="10.00">include/objects/translation.hpp</text>
</a>
</g>
</g>
<!-- Node8&#45;&gt;Node15 -->
<g id="edge31" class="edge">
<title>Node8&#45;&gt;Node15</title>
<path fill="none" stroke="midnightblue" d="M590.41,-239.46C576.54,-225.94 561.78,-206.06 573,-190 588.71,-167.52 615.56,-155.02 641.43,-148.07"/>
<polygon fill="midnightblue" stroke="midnightblue" points="588.1,-242.09 597.85,-246.25 592.82,-236.92 588.1,-242.09"/>
</g>
<!-- Node16 -->
<g id="node16" class="node">
<title>Node16</title>
<g id="a_node16"><a xlink:href="x__rotation_8hpp.html" target="_top" xlink:title="Class for rotation of object around the x axis.">
<polygon fill="white" stroke="black" points="582,-190.5 582,-209.5 746,-209.5 746,-190.5 582,-190.5"/>
<text text-anchor="middle" x="664" y="-197.5" font-family="Helvetica,sans-Serif" font-size="10.00">include/objects/x_rotation.hpp</text>
</a>
</g>
</g>
<!-- Node8&#45;&gt;Node16 -->
<g id="edge34" class="edge">
<title>Node8&#45;&gt;Node16</title>
<path fill="none" stroke="midnightblue" d="M625.29,-239C635.04,-229.43 647.05,-217.64 655.09,-209.75"/>
<polygon fill="midnightblue" stroke="midnightblue" points="622.77,-236.58 618.08,-246.08 627.67,-241.57 622.77,-236.58"/>
</g>
<!-- Node17 -->
<g id="node17" class="node">
<title>Node17</title>
<g id="a_node17"><a xlink:href="y__rotation_8hpp.html" target="_top" xlink:title="Class for rotation of object around the y axis.">
<polygon fill="white" stroke="black" points="813,-129 813,-148 977,-148 977,-129 813,-129"/>
<text text-anchor="middle" x="895" y="-136" font-family="Helvetica,sans-Serif" font-size="10.00">include/objects/y_rotation.hpp</text>
</a>
</g>
</g>
<!-- Node8&#45;&gt;Node17 -->
<g id="edge35" class="edge">
<title>Node8&#45;&gt;Node17</title>
<path fill="none" stroke="midnightblue" d="M652.58,-243.72C681.97,-235.6 721.38,-223.68 755,-210 773.04,-202.66 776.62,-198.8 794,-190 823.38,-175.12 857.7,-158.02 877.82,-148.02"/>
<polygon fill="midnightblue" stroke="midnightblue" points="651.36,-240.43 642.63,-246.44 653.2,-247.18 651.36,-240.43"/>
</g>
<!-- Node18 -->
<g id="node18" class="node">
<title>Node18</title>
<g id="a_node18"><a xlink:href="z__rotation_8hpp.html" target="_top" xlink:title="Class for rotation of object around the z axis.">
<polygon fill="white" stroke="black" points="802.5,-190.5 802.5,-209.5 965.5,-209.5 965.5,-190.5 802.5,-190.5"/>
<text text-anchor="middle" x="884" y="-197.5" font-family="Helvetica,sans-Serif" font-size="10.00">include/objects/z_rotation.hpp</text>
</a>
</g>
</g>
<!-- Node8&#45;&gt;Node18 -->
<g id="edge38" class="edge">
<title>Node8&#45;&gt;Node18</title>
<path fill="none" stroke="midnightblue" d="M662.61,-244.47C714.58,-234.27 792.44,-218.98 840.63,-209.52"/>
<polygon fill="midnightblue" stroke="midnightblue" points="661.71,-241.08 652.57,-246.44 663.06,-247.95 661.71,-241.08"/>
</g>
<!-- Node9&#45;&gt;Node6 -->
<g id="edge14" class="edge">
<title>Node9&#45;&gt;Node6</title>
<path fill="none" stroke="midnightblue" d="M973.73,-189.99C852.57,-181.27 590.19,-192.04 493,-154 472.38,-145.93 472.13,-135.72 454,-123 435.25,-109.84 413.08,-96.31 396.53,-86.56"/>
<polygon fill="midnightblue" stroke="midnightblue" points="973.71,-193.5 983.96,-190.81 974.27,-186.52 973.71,-193.5"/>
</g>
<!-- Node10 -->
<g id="node10" class="node">
<title>Node10</title>
<g id="a_node10"><a xlink:href="cube_8hpp.html" target="_top" xlink:title="Cube object made of rectangles.">
<polygon fill="white" stroke="black" points="995.5,-129 995.5,-148 1132.5,-148 1132.5,-129 995.5,-129"/>
<text text-anchor="middle" x="1064" y="-136" font-family="Helvetica,sans-Serif" font-size="10.00">include/objects/cube.hpp</text>
</a>
</g>
</g>
<!-- Node9&#45;&gt;Node10 -->
<g id="edge11" class="edge">
<title>Node9&#45;&gt;Node10</title>
<path fill="none" stroke="midnightblue" d="M1064,-180.32C1064,-169.5 1064,-156.4 1064,-148.01"/>
<polygon fill="midnightblue" stroke="midnightblue" points="1060.5,-180.48 1064,-190.48 1067.5,-180.48 1060.5,-180.48"/>
</g>
<!-- Node10&#45;&gt;Node3 -->
<g id="edge12" class="edge">
<title>Node10&#45;&gt;Node3</title>
<path fill="none" stroke="midnightblue" d="M1008.72,-127.12C1001.09,-125.72 993.35,-124.31 986,-123 904.54,-108.46 810.27,-92.47 750.65,-82.46"/>
<polygon fill="midnightblue" stroke="midnightblue" points="1008.18,-130.58 1018.65,-128.96 1009.45,-123.7 1008.18,-130.58"/>
</g>
<!-- Node10&#45;&gt;Node4 -->
<g id="edge13" class="edge">
<title>Node10&#45;&gt;Node4</title>
<path fill="none" stroke="midnightblue" d="M1011.69,-127.14C1003.13,-125.63 994.33,-124.18 986,-123 825.05,-100.12 783.21,-107.94 622,-87 613.21,-85.86 603.96,-84.52 594.87,-83.13"/>
<polygon fill="midnightblue" stroke="midnightblue" points="1011.14,-130.6 1021.6,-128.94 1012.39,-123.71 1011.14,-130.6"/>
</g>
<!-- Node11&#45;&gt;Node3 -->
<g id="edge16" class="edge">
<title>Node11&#45;&gt;Node3</title>
<path fill="none" stroke="midnightblue" d="M1140.98,-122.95C995.43,-98.34 835.49,-83.71 750.78,-76.93"/>
<polygon fill="midnightblue" stroke="midnightblue" points="1140.54,-126.43 1150.98,-124.67 1141.72,-119.53 1140.54,-126.43"/>
</g>
<!-- Node11&#45;&gt;Node5 -->
<g id="edge17" class="edge">
<title>Node11&#45;&gt;Node5</title>
<path fill="none" stroke="midnightblue" d="M1140.93,-122.84C971.45,-88.25 927.02,-82.38 760,-56 654.43,-39.32 528.78,-22.55 471.39,-15.06"/>
<polygon fill="midnightblue" stroke="midnightblue" points="1140.44,-126.31 1150.94,-124.89 1141.85,-119.45 1140.44,-126.31"/>
</g>
<!-- Node12&#45;&gt;Node3 -->
<g id="edge19" class="edge">
<title>Node12&#45;&gt;Node3</title>
<path fill="none" stroke="midnightblue" d="M594.44,-118.99C615.84,-108.69 642.05,-96.07 661.76,-86.58"/>
<polygon fill="midnightblue" stroke="midnightblue" points="592.78,-115.9 585.29,-123.4 595.82,-122.21 592.78,-115.9"/>
</g>
<!-- Node12&#45;&gt;Node4 -->
<g id="edge20" class="edge">
<title>Node12&#45;&gt;Node4</title>
<path fill="none" stroke="midnightblue" d="M547.32,-113.99C543.93,-104.8 540.15,-94.58 537.2,-86.58"/>
<polygon fill="midnightblue" stroke="midnightblue" points="544.05,-115.23 550.79,-123.4 550.61,-112.8 544.05,-115.23"/>
</g>
<!-- Node13&#45;&gt;Node3 -->
<g id="edge22" class="edge">
<title>Node13&#45;&gt;Node3</title>
<path fill="none" stroke="midnightblue" d="M290.51,-122.84C429.56,-101.7 467.14,-105.97 603,-87 612.2,-85.72 621.92,-84.24 631.42,-82.72"/>
<polygon fill="midnightblue" stroke="midnightblue" points="289.67,-119.43 280.32,-124.41 290.74,-126.35 289.67,-119.43"/>
</g>
<!-- Node13&#45;&gt;Node4 -->
<g id="edge23" class="edge">
<title>Node13&#45;&gt;Node4</title>
<path fill="none" stroke="midnightblue" d="M290.28,-122.06C344.94,-110.86 418.04,-95.87 469.48,-85.32"/>
<polygon fill="midnightblue" stroke="midnightblue" points="289.39,-118.67 280.3,-124.11 290.8,-125.53 289.39,-118.67"/>
</g>
<!-- Node13&#45;&gt;Node6 -->
<g id="edge24" class="edge">
<title>Node13&#45;&gt;Node6</title>
<path fill="none" stroke="midnightblue" d="M258.37,-119.54C283.49,-109.14 314.66,-96.24 338,-86.58"/>
<polygon fill="midnightblue" stroke="midnightblue" points="256.97,-116.34 249.07,-123.4 259.64,-122.8 256.97,-116.34"/>
</g>
<!-- Node13&#45;&gt;Node7 -->
<g id="edge25" class="edge">
<title>Node13&#45;&gt;Node7</title>
<path fill="none" stroke="midnightblue" d="M218.34,-113.4C219.59,-104.37 220.97,-94.41 222.05,-86.58"/>
<polygon fill="midnightblue" stroke="midnightblue" points="214.86,-113.01 216.95,-123.4 221.79,-113.97 214.86,-113.01"/>
</g>
<!-- Node14&#45;&gt;Node3 -->
<g id="edge27" class="edge">
<title>Node14&#45;&gt;Node3</title>
<path fill="none" stroke="midnightblue" d="M423.89,-126.93C480.74,-115.34 571.77,-96.79 631.48,-84.63"/>
<polygon fill="midnightblue" stroke="midnightblue" points="423.13,-123.51 414.03,-128.94 424.53,-130.37 423.13,-123.51"/>
</g>
<!-- Node14&#45;&gt;Node4 -->
<g id="edge28" class="edge">
<title>Node14&#45;&gt;Node4</title>
<path fill="none" stroke="midnightblue" d="M402.63,-125.06C429.73,-114.05 469.25,-97.99 497.47,-86.53"/>
<polygon fill="midnightblue" stroke="midnightblue" points="401.19,-121.86 393.25,-128.87 403.83,-128.35 401.19,-121.86"/>
</g>
<!-- Node14&#45;&gt;Node6 -->
<g id="edge29" class="edge">
<title>Node14&#45;&gt;Node6</title>
<path fill="none" stroke="midnightblue" d="M372,-118.41C372,-108.22 372,-95.9 372,-86.59"/>
<polygon fill="midnightblue" stroke="midnightblue" points="368.5,-118.73 372,-128.73 375.5,-118.73 368.5,-118.73"/>
</g>
<!-- Node14&#45;&gt;Node7 -->
<g id="edge30" class="edge">
<title>Node14&#45;&gt;Node7</title>
<path fill="none" stroke="midnightblue" d="M343.01,-124.77C317.96,-113.77 281.81,-97.89 255.94,-86.53"/>
<polygon fill="midnightblue" stroke="midnightblue" points="341.78,-128.05 352.35,-128.87 344.6,-121.64 341.78,-128.05"/>
</g>
<!-- Node15&#45;&gt;Node3 -->
<g id="edge32" class="edge">
<title>Node15&#45;&gt;Node3</title>
<path fill="none" stroke="midnightblue" d="M705.33,-119.06C702.15,-108.75 698.26,-96.1 695.34,-86.59"/>
<polygon fill="midnightblue" stroke="midnightblue" points="702.02,-120.21 708.3,-128.73 708.71,-118.15 702.02,-120.21"/>
</g>
<!-- Node15&#45;&gt;Node4 -->
<g id="edge33" class="edge">
<title>Node15&#45;&gt;Node4</title>
<path fill="none" stroke="midnightblue" d="M677.53,-125.35C647.19,-114.33 602.48,-98.09 570.63,-86.53"/>
<polygon fill="midnightblue" stroke="midnightblue" points="676.64,-128.75 687.23,-128.87 679.03,-122.17 676.64,-128.75"/>
</g>
<!-- Node17&#45;&gt;Node3 -->
<g id="edge36" class="edge">
<title>Node17&#45;&gt;Node3</title>
<path fill="none" stroke="midnightblue" d="M858.2,-125.77C823.61,-114.75 771.8,-98.24 735.03,-86.53"/>
<polygon fill="midnightblue" stroke="midnightblue" points="857.32,-129.17 867.91,-128.87 859.44,-122.5 857.32,-129.17"/>
</g>
<!-- Node17&#45;&gt;Node4 -->
<g id="edge37" class="edge">
<title>Node17&#45;&gt;Node4</title>
<path fill="none" stroke="midnightblue" d="M837.31,-127.17C771.07,-115.31 662.78,-95.92 594.55,-83.7"/>
<polygon fill="midnightblue" stroke="midnightblue" points="836.71,-130.62 847.17,-128.94 837.94,-123.73 836.71,-130.62"/>
</g>
</g>
</svg>
        <g id="navigator" transform="translate(0 0)" fill="#404254">
                <rect fill="#f2f5e9" fill-opacity="0.5" stroke="#606060" stroke-width=".5" x="0" y="0" width="60" height="60"/>
                <use id="zoomplus" xlink:href="#zoomPlus" x="17" y="9" onmousedown="handleZoom(evt,'in')"/>
                <use id="zoomminus" xlink:href="#zoomMin" x="42" y="9" onmousedown="handleZoom(evt,'out')"/>
                <use id="reset" xlink:href="#resetDef" x="30" y="36" onmousedown="handleReset()"/>
                <g id="arrowUp" xlink:href="#dirArrow" transform="translate(30 24)" onmousedown="handlePan(0,-1)">
                  <use xlink:href="#rim" fill="#404040">
                        <set attributeName="fill" to="#808080" begin="arrowUp.mouseover" end="arrowUp.mouseout"/>
                  </use>
                  <path fill="none" stroke="white" stroke-width="1.5" d="M0,-3.0v7 M-2.5,-0.5L0,-3.0L2.5,-0.5"/>
                </g>
                <g id="arrowRight" xlink:href="#dirArrow" transform="rotate(90) translate(36 -43)" onmousedown="handlePan(1,0)">
                  <use xlink:href="#rim" fill="#404040">
                        <set attributeName="fill" to="#808080" begin="arrowRight.mouseover" end="arrowRight.mouseout"/>
                  </use>
                  <path fill="none" stroke="white" stroke-width="1.5" d="M0,-3.0v7 M-2.5,-0.5L0,-3.0L2.5,-0.5"/>
                </g>
                <g id="arrowDown" xlink:href="#dirArrow" transform="rotate(180) translate(-30 -48)" onmousedown="handlePan(0,1)">
                  <use xlink:href="#rim" fill="#404040">
                        <set attributeName="fill" to="#808080" begin="arrowDown.mouseover" end="arrowDown.mouseout"/>
                  </use>
                  <path fill="none" stroke="white" stroke-width="1.5" d="M0,-3.0v7 M-2.5,-0.5L0,-3.0L2.5,-0.5"/>
                </g>
                <g id="arrowLeft" xlink:href="#dirArrow" transform="rotate(270) translate(-36 17)" onmousedown="handlePan(-1,0)">
                  <use xlink:href="#rim" fill="#404040">
                        <set attributeName="fill" to="#808080" begin="arrowLeft.mouseover" end="arrowLeft.mouseout"/>
                  </use>
                  <path fill="none" stroke="white" stroke-width="1.5" d="M0,-3.0v7 M-2.5,-0.5L0,-3.0L2.5,-0.5"/>
                </g>
        </g>
        <svg viewBox="0 0 15 15" width="100%" height="30px" preserveAspectRatio="xMaxYMin meet">
         <g id="arrow_out" transform="scale(0.3 0.3)">
          <a xlink:href="bounding__box_8hpp__dep__incl_org.svg" target="_base">
           <rect id="button" ry="5" rx="5" y="6" x="6" height="38" width="38"
                fill="#f2f5e9" fill-opacity="0.5" stroke="#606060" stroke-width="1.0"/>
           <path id="arrow"
             d="M 11.500037,31.436501 C 11.940474,20.09759 22.043105,11.32322 32.158766,21.979434 L 37.068811,17.246167 C 37.068811,17.246167 37.088388,32 37.088388,32 L 22.160133,31.978069 C 22.160133,31.978069 26.997745,27.140456 26.997745,27.140456 C 18.528582,18.264221 13.291696,25.230495 11.500037,31.436501 z"
             style="fill:#404040;"/>
          </a>
         </g>
        </svg>
</svg>
