<?xml version="1.0" encoding="UTF-8" standalone="no"?>
<!DOCTYPE svg PUBLIC "-//W3C//DTD SVG 1.1//EN"
 "http://www.w3.org/Graphics/SVG/1.1/DTD/svg11.dtd">
<!-- Generated by graphviz version 2.43.0 (0)
 -->
<!-- Title: uvTex&lt; T &gt; Pages: 1 -->
<svg width="178pt" height="84pt"
 viewBox="0.00 0.00 177.50 84.00" xmlns="http://www.w3.org/2000/svg" xmlns:xlink="http://www.w3.org/1999/xlink">
<g id="graph0" class="graph" transform="scale(1 1) rotate(0) translate(4 80)">
<title>uvTex&lt; T &gt;</title>
<polygon fill="white" stroke="transparent" points="-4,4 -4,-80 173.5,-80 173.5,4 -4,4"/>
<!-- Node1 -->
<g id="node1" class="node">
<title>Node1</title>
<g id="a_node1"><a xlink:title="Base class for texture objects.">
<polygon fill="#bfbfbf" stroke="black" points="51.5,-56.5 51.5,-75.5 125.5,-75.5 125.5,-56.5 51.5,-56.5"/>
<text text-anchor="middle" x="88.5" y="-63.5" font-family="Helvetica,sans-Serif" font-size="10.00">uvTex&lt; T &gt;</text>
</a>
</g>
</g>
<!-- Node2 -->
<g id="node2" class="node">
<title>Node2</title>
<g id="a_node2"><a xlink:href="classchecker.html" target="_top" xlink:title="Two color checker subclass uvTex.">
<polygon fill="white" stroke="black" points="0,-0.5 0,-19.5 83,-19.5 83,-0.5 0,-0.5"/>
<text text-anchor="middle" x="41.5" y="-7.5" font-family="Helvetica,sans-Serif" font-size="10.00">checker&lt; T &gt;</text>
</a>
</g>
</g>
<!-- Node1&#45;&gt;Node2 -->
<g id="edge1" class="edge">
<title>Node1&#45;&gt;Node2</title>
<path fill="none" stroke="midnightblue" d="M74.08,-48.43C65.84,-38.97 55.85,-27.48 49.12,-19.75"/>
<polygon fill="midnightblue" stroke="midnightblue" points="71.53,-50.84 80.74,-56.08 76.81,-46.24 71.53,-50.84"/>
</g>
<!-- Node3 -->
<g id="node3" class="node">
<title>Node3</title>
<g id="a_node3"><a xlink:href="classsolid.html" target="_top" xlink:title="Solid one color subclass of uvTex.">
<polygon fill="white" stroke="black" points="101.5,-0.5 101.5,-19.5 169.5,-19.5 169.5,-0.5 101.5,-0.5"/>
<text text-anchor="middle" x="135.5" y="-7.5" font-family="Helvetica,sans-Serif" font-size="10.00">solid&lt; T &gt;</text>
</a>
</g>
</g>
<!-- Node1&#45;&gt;Node3 -->
<g id="edge2" class="edge">
<title>Node1&#45;&gt;Node3</title>
<path fill="none" stroke="midnightblue" d="M102.92,-48.43C111.16,-38.97 121.15,-27.48 127.88,-19.75"/>
<polygon fill="midnightblue" stroke="midnightblue" points="100.19,-46.24 96.26,-56.08 105.47,-50.84 100.19,-46.24"/>
</g>
</g>
</svg>
