<?xml version="1.0" encoding="UTF-8" standalone="no"?>
<!DOCTYPE svg PUBLIC "-//W3C//DTD SVG 1.1//EN"
 "http://www.w3.org/Graphics/SVG/1.1/DTD/svg11.dtd">
<!-- Generated by graphviz version 2.43.0 (0)
 -->
<!-- Title: hit&lt; T &gt; Pages: 1 -->
<!--zoomable 484 -->
<svg id="main" version="1.1" xmlns="http://www.w3.org/2000/svg" xmlns:xlink="http://www.w3.org/1999/xlink" xml:space="preserve" onload="init(evt)">
<style type="text/css"><![CDATA[
.edge:hover path { stroke: red; }
.edge:hover polygon { stroke: red; fill: red; }
]]></style>
<script type="text/javascript"><![CDATA[
var edges = document.getElementsByTagName('g');
if (edges && edges.length) {
  for (var i=0;i<edges.length;i++) {
    if (edges[i].id.substr(0,4)=='edge') {
      edges[i].setAttribute('class','edge');
    }
  }
}
]]></script>
        <defs>
                <circle id="rim" cx="0" cy="0" r="7"/>
                <circle id="rim2" cx="0" cy="0" r="3.5"/>
                <g id="zoomPlus">
                        <use xlink:href="#rim" fill="#404040">
                                <set attributeName="fill" to="#808080" begin="zoomplus.mouseover" end="zoomplus.mouseout"/>
                        </use>
                        <path d="M-4,0h8M0,-4v8" fill="none" stroke="white" stroke-width="1.5" pointer-events="none"/>
                </g>
                <g id="zoomMin">
                        <use xlink:href="#rim" fill="#404040">
                                <set attributeName="fill" to="#808080" begin="zoomminus.mouseover" end="zoomminus.mouseout"/>
                        </use>
                        <path d="M-4,0h8" fill="none" stroke="white" stroke-width="1.5" pointer-events="none"/>
                </g>
                <g id="dirArrow">
                        <path fill="none" stroke="white" stroke-width="1.5" d="M0,-3.0v7 M-2.5,-0.5L0,-3.0L2.5,-0.5"/>
                </g>
               <g id="resetDef">
                       <use xlink:href="#rim2" fill="#404040">
                               <set attributeName="fill" to="#808080" begin="reset.mouseover" end="reset.mouseout"/>
                       </use>
               </g>
        </defs>

<script type="text/javascript">
var viewWidth = 222;
var viewHeight = 484;
var sectionId = 'dynsection-0';
</script>
<script xlink:href="svgpan.js"/>
<svg id="graph" class="graph">
<g id="viewport">
<title>hit&lt; T &gt;</title>
<polygon fill="white" stroke="transparent" points="-4,4 -4,-480 218,-480 218,4 -4,4"/>
<!-- Node1 -->
<g id="node1" class="node">
<title>Node1</title>
<g id="a_node1"><a xlink:title="Base class for hittable objects.">
<polygon fill="#bfbfbf" stroke="black" points="0,-228.5 0,-247.5 58,-247.5 58,-228.5 0,-228.5"/>
<text text-anchor="middle" x="29" y="-235.5" font-family="Helvetica,sans-Serif" font-size="10.00">hit&lt; T &gt;</text>
</a>
</g>
</g>
<!-- Node2 -->
<g id="node2" class="node">
<title>Node2</title>
<g id="a_node2"><a xlink:href="classbvh__node.html" target="_top" xlink:title="BVH Node class, these nodes recurse to build a tree.">
<polygon fill="white" stroke="black" points="108,-456.5 108,-475.5 200,-475.5 200,-456.5 108,-456.5"/>
<text text-anchor="middle" x="154" y="-463.5" font-family="Helvetica,sans-Serif" font-size="10.00">bvh_node&lt; T &gt;</text>
</a>
</g>
</g>
<!-- Node1&#45;&gt;Node2 -->
<g id="edge1" class="edge">
<title>Node1&#45;&gt;Node2</title>
<path fill="none" stroke="midnightblue" d="M30.28,-258C31.96,-299.15 41.65,-393.89 94,-447 97.93,-450.99 102.69,-454.14 107.8,-456.63"/>
<polygon fill="midnightblue" stroke="midnightblue" points="33.78,-257.79 29.99,-247.89 26.78,-257.99 33.78,-257.79"/>
</g>
<!-- Node3 -->
<g id="node3" class="node">
<title>Node3</title>
<g id="a_node3"><a xlink:href="classcube.html" target="_top" xlink:title="Cube object made of 6 square sides.">
<polygon fill="white" stroke="black" points="120,-418.5 120,-437.5 188,-437.5 188,-418.5 120,-418.5"/>
<text text-anchor="middle" x="154" y="-425.5" font-family="Helvetica,sans-Serif" font-size="10.00">cube&lt; T &gt;</text>
</a>
</g>
</g>
<!-- Node1&#45;&gt;Node3 -->
<g id="edge2" class="edge">
<title>Node1&#45;&gt;Node3</title>
<path fill="none" stroke="midnightblue" d="M31.85,-257.73C36.22,-293.06 50.34,-367.33 94,-409 101.08,-415.76 110.59,-420.12 119.89,-422.92"/>
<polygon fill="midnightblue" stroke="midnightblue" points="35.32,-257.27 30.75,-247.71 28.37,-258.04 35.32,-257.27"/>
</g>
<!-- Node4 -->
<g id="node4" class="node">
<title>Node4</title>
<g id="a_node4"><a xlink:href="classhit__list.html" target="_top" xlink:title="List of hittable objects.">
<polygon fill="white" stroke="black" points="115,-380.5 115,-399.5 193,-399.5 193,-380.5 115,-380.5"/>
<text text-anchor="middle" x="154" y="-387.5" font-family="Helvetica,sans-Serif" font-size="10.00">hit_list&lt; T &gt;</text>
</a>
</g>
</g>
<!-- Node1&#45;&gt;Node4 -->
<g id="edge3" class="edge">
<title>Node1&#45;&gt;Node4</title>
<path fill="none" stroke="midnightblue" d="M34.26,-257.72C41.53,-286.67 59.04,-340.53 94,-371 99.92,-376.16 107.26,-379.92 114.73,-382.67"/>
<polygon fill="midnightblue" stroke="midnightblue" points="37.58,-256.56 31.89,-247.62 30.77,-258.16 37.58,-256.56"/>
</g>
<!-- Node5 -->
<g id="node5" class="node">
<title>Node5</title>
<g id="a_node5"><a xlink:href="classiso__fog.html" target="_top" xlink:title="Isotropically scattering fog object.">
<polygon fill="white" stroke="black" points="114,-342.5 114,-361.5 194,-361.5 194,-342.5 114,-342.5"/>
<text text-anchor="middle" x="154" y="-349.5" font-family="Helvetica,sans-Serif" font-size="10.00">iso_fog&lt; T &gt;</text>
</a>
</g>
</g>
<!-- Node1&#45;&gt;Node5 -->
<g id="edge4" class="edge">
<title>Node1&#45;&gt;Node5</title>
<path fill="none" stroke="midnightblue" d="M38.1,-257C48.18,-278.46 67.36,-312.97 94,-333 99.85,-337.4 106.75,-340.8 113.74,-343.42"/>
<polygon fill="midnightblue" stroke="midnightblue" points="41.18,-255.33 33.89,-247.64 34.8,-258.2 41.18,-255.33"/>
</g>
<!-- Node6 -->
<g id="node6" class="node">
<title>Node6</title>
<g id="a_node6"><a xlink:href="classmoving__sphere.html" target="_top" xlink:title="Moving sphere object, to render a sphere with motion blur.">
<polygon fill="white" stroke="black" points="94,-304.5 94,-323.5 214,-323.5 214,-304.5 94,-304.5"/>
<text text-anchor="middle" x="154" y="-311.5" font-family="Helvetica,sans-Serif" font-size="10.00">moving_sphere&lt; T &gt;</text>
</a>
</g>
</g>
<!-- Node1&#45;&gt;Node6 -->
<g id="edge5" class="edge">
<title>Node1&#45;&gt;Node6</title>
<path fill="none" stroke="midnightblue" d="M45.67,-255.41C57.79,-267.95 75.57,-284.46 94,-295 100.54,-298.74 107.91,-301.86 115.18,-304.41"/>
<polygon fill="midnightblue" stroke="midnightblue" points="47.97,-252.74 38.58,-247.84 42.86,-257.53 47.97,-252.74"/>
</g>
<!-- Node7 -->
<g id="node7" class="node">
<title>Node7</title>
<g id="a_node7"><a xlink:href="classsphere.html" target="_top" xlink:title="Sphere object to be rendered.">
<polygon fill="white" stroke="black" points="115,-266.5 115,-285.5 193,-285.5 193,-266.5 115,-266.5"/>
<text text-anchor="middle" x="154" y="-273.5" font-family="Helvetica,sans-Serif" font-size="10.00">sphere&lt; T &gt;</text>
</a>
</g>
</g>
<!-- Node1&#45;&gt;Node7 -->
<g id="edge6" class="edge">
<title>Node1&#45;&gt;Node7</title>
<path fill="none" stroke="midnightblue" d="M68.01,-249.74C85.31,-255.09 105.52,-261.33 121.89,-266.39"/>
<polygon fill="midnightblue" stroke="midnightblue" points="68.81,-246.33 58.22,-246.72 66.74,-253.01 68.81,-246.33"/>
</g>
<!-- Node8 -->
<g id="node8" class="node">
<title>Node8</title>
<g id="a_node8"><a xlink:href="classtranslate.html" target="_top" xlink:title="Object for translation of a hittable object.">
<polygon fill="white" stroke="black" points="109.5,-228.5 109.5,-247.5 198.5,-247.5 198.5,-228.5 109.5,-228.5"/>
<text text-anchor="middle" x="154" y="-235.5" font-family="Helvetica,sans-Serif" font-size="10.00">translate&lt; T &gt;</text>
</a>
</g>
</g>
<!-- Node1&#45;&gt;Node8 -->
<g id="edge7" class="edge">
<title>Node1&#45;&gt;Node8</title>
<path fill="none" stroke="midnightblue" d="M68.28,-238C81.34,-238 96.04,-238 109.48,-238"/>
<polygon fill="midnightblue" stroke="midnightblue" points="68.22,-234.5 58.22,-238 68.22,-241.5 68.22,-234.5"/>
</g>
<!-- Node9 -->
<g id="node9" class="node">
<title>Node9</title>
<g id="a_node9"><a xlink:href="classx__rotation.html" target="_top" xlink:title="Object for rotation around the x axis.">
<polygon fill="white" stroke="black" points="106.5,-190.5 106.5,-209.5 201.5,-209.5 201.5,-190.5 106.5,-190.5"/>
<text text-anchor="middle" x="154" y="-197.5" font-family="Helvetica,sans-Serif" font-size="10.00">x_rotation&lt; T &gt;</text>
</a>
</g>
</g>
<!-- Node1&#45;&gt;Node9 -->
<g id="edge8" class="edge">
<title>Node1&#45;&gt;Node9</title>
<path fill="none" stroke="midnightblue" d="M68.01,-226.26C85.31,-220.91 105.52,-214.67 121.89,-209.61"/>
<polygon fill="midnightblue" stroke="midnightblue" points="66.74,-222.99 58.22,-229.28 68.81,-229.67 66.74,-222.99"/>
</g>
<!-- Node10 -->
<g id="node10" class="node">
<title>Node10</title>
<g id="a_node10"><a xlink:href="classxy__rectangle.html" target="_top" xlink:title="Rectangular plane with normal along z.">
<polygon fill="white" stroke="black" points="100,-152.5 100,-171.5 208,-171.5 208,-152.5 100,-152.5"/>
<text text-anchor="middle" x="154" y="-159.5" font-family="Helvetica,sans-Serif" font-size="10.00">xy_rectangle&lt; T &gt;</text>
</a>
</g>
</g>
<!-- Node1&#45;&gt;Node10 -->
<g id="edge9" class="edge">
<title>Node1&#45;&gt;Node10</title>
<path fill="none" stroke="midnightblue" d="M45.67,-220.59C57.79,-208.05 75.57,-191.54 94,-181 100.54,-177.26 107.91,-174.14 115.18,-171.59"/>
<polygon fill="midnightblue" stroke="midnightblue" points="42.86,-218.47 38.58,-228.16 47.97,-223.26 42.86,-218.47"/>
</g>
<!-- Node11 -->
<g id="node11" class="node">
<title>Node11</title>
<g id="a_node11"><a xlink:href="classxz__rectangle.html" target="_top" xlink:title="Rectangular plane with normal along y.">
<polygon fill="white" stroke="black" points="100.5,-114.5 100.5,-133.5 207.5,-133.5 207.5,-114.5 100.5,-114.5"/>
<text text-anchor="middle" x="154" y="-121.5" font-family="Helvetica,sans-Serif" font-size="10.00">xz_rectangle&lt; T &gt;</text>
</a>
</g>
</g>
<!-- Node1&#45;&gt;Node11 -->
<g id="edge10" class="edge">
<title>Node1&#45;&gt;Node11</title>
<path fill="none" stroke="midnightblue" d="M38.1,-219C48.18,-197.54 67.36,-163.03 94,-143 99.16,-139.12 105.14,-136.01 111.28,-133.53"/>
<polygon fill="midnightblue" stroke="midnightblue" points="34.8,-217.8 33.89,-228.36 41.18,-220.67 34.8,-217.8"/>
</g>
<!-- Node12 -->
<g id="node12" class="node">
<title>Node12</title>
<g id="a_node12"><a xlink:href="classy__rotation.html" target="_top" xlink:title="Object for rotation around the y axis.">
<polygon fill="white" stroke="black" points="106.5,-76.5 106.5,-95.5 201.5,-95.5 201.5,-76.5 106.5,-76.5"/>
<text text-anchor="middle" x="154" y="-83.5" font-family="Helvetica,sans-Serif" font-size="10.00">y_rotation&lt; T &gt;</text>
</a>
</g>
</g>
<!-- Node1&#45;&gt;Node12 -->
<g id="edge11" class="edge">
<title>Node1&#45;&gt;Node12</title>
<path fill="none" stroke="midnightblue" d="M34.26,-218.28C41.53,-189.33 59.04,-135.47 94,-105 98.46,-101.11 103.73,-98.02 109.25,-95.55"/>
<polygon fill="midnightblue" stroke="midnightblue" points="30.77,-217.84 31.89,-228.38 37.58,-219.44 30.77,-217.84"/>
</g>
<!-- Node13 -->
<g id="node13" class="node">
<title>Node13</title>
<g id="a_node13"><a xlink:href="classyz__rectangle.html" target="_top" xlink:title="Rectangular plane with normal along x.">
<polygon fill="white" stroke="black" points="100.5,-38.5 100.5,-57.5 207.5,-57.5 207.5,-38.5 100.5,-38.5"/>
<text text-anchor="middle" x="154" y="-45.5" font-family="Helvetica,sans-Serif" font-size="10.00">yz_rectangle&lt; T &gt;</text>
</a>
</g>
</g>
<!-- Node1&#45;&gt;Node13 -->
<g id="edge12" class="edge">
<title>Node1&#45;&gt;Node13</title>
<path fill="none" stroke="midnightblue" d="M31.85,-218.27C36.22,-182.94 50.34,-108.67 94,-67 98.05,-63.14 102.89,-60.06 108.03,-57.61"/>
<polygon fill="midnightblue" stroke="midnightblue" points="28.37,-217.96 30.75,-228.29 35.32,-218.73 28.37,-217.96"/>
</g>
<!-- Node14 -->
<g id="node14" class="node">
<title>Node14</title>
<g id="a_node14"><a xlink:href="classz__rotation.html" target="_top" xlink:title="Object for rotation around the z axis.">
<polygon fill="white" stroke="black" points="107,-0.5 107,-19.5 201,-19.5 201,-0.5 107,-0.5"/>
<text text-anchor="middle" x="154" y="-7.5" font-family="Helvetica,sans-Serif" font-size="10.00">z_rotation&lt; T &gt;</text>
</a>
</g>
</g>
<!-- Node1&#45;&gt;Node14 -->
<g id="edge13" class="edge">
<title>Node1&#45;&gt;Node14</title>
<path fill="none" stroke="midnightblue" d="M30.28,-218C31.96,-176.85 41.65,-82.11 94,-29 97.85,-25.09 102.51,-21.99 107.5,-19.52"/>
<polygon fill="midnightblue" stroke="midnightblue" points="26.78,-218.01 29.99,-228.11 33.78,-218.21 26.78,-218.01"/>
</g>
</g>
</svg>
        <g id="navigator" transform="translate(0 0)" fill="#404254">
                <rect fill="#f2f5e9" fill-opacity="0.5" stroke="#606060" stroke-width=".5" x="0" y="0" width="60" height="60"/>
                <use id="zoomplus" xlink:href="#zoomPlus" x="17" y="9" onmousedown="handleZoom(evt,'in')"/>
                <use id="zoomminus" xlink:href="#zoomMin" x="42" y="9" onmousedown="handleZoom(evt,'out')"/>
                <use id="reset" xlink:href="#resetDef" x="30" y="36" onmousedown="handleReset()"/>
                <g id="arrowUp" xlink:href="#dirArrow" transform="translate(30 24)" onmousedown="handlePan(0,-1)">
                  <use xlink:href="#rim" fill="#404040">
                        <set attributeName="fill" to="#808080" begin="arrowUp.mouseover" end="arrowUp.mouseout"/>
                  </use>
                  <path fill="none" stroke="white" stroke-width="1.5" d="M0,-3.0v7 M-2.5,-0.5L0,-3.0L2.5,-0.5"/>
                </g>
                <g id="arrowRight" xlink:href="#dirArrow" transform="rotate(90) translate(36 -43)" onmousedown="handlePan(1,0)">
                  <use xlink:href="#rim" fill="#404040">
                        <set attributeName="fill" to="#808080" begin="arrowRight.mouseover" end="arrowRight.mouseout"/>
                  </use>
                  <path fill="none" stroke="white" stroke-width="1.5" d="M0,-3.0v7 M-2.5,-0.5L0,-3.0L2.5,-0.5"/>
                </g>
                <g id="arrowDown" xlink:href="#dirArrow" transform="rotate(180) translate(-30 -48)" onmousedown="handlePan(0,1)">
                  <use xlink:href="#rim" fill="#404040">
                        <set attributeName="fill" to="#808080" begin="arrowDown.mouseover" end="arrowDown.mouseout"/>
                  </use>
                  <path fill="none" stroke="white" stroke-width="1.5" d="M0,-3.0v7 M-2.5,-0.5L0,-3.0L2.5,-0.5"/>
                </g>
                <g id="arrowLeft" xlink:href="#dirArrow" transform="rotate(270) translate(-36 17)" onmousedown="handlePan(-1,0)">
                  <use xlink:href="#rim" fill="#404040">
                        <set attributeName="fill" to="#808080" begin="arrowLeft.mouseover" end="arrowLeft.mouseout"/>
                  </use>
                  <path fill="none" stroke="white" stroke-width="1.5" d="M0,-3.0v7 M-2.5,-0.5L0,-3.0L2.5,-0.5"/>
                </g>
        </g>
        <svg viewBox="0 0 15 15" width="100%" height="30px" preserveAspectRatio="xMaxYMin meet">
         <g id="arrow_out" transform="scale(0.3 0.3)">
          <a xlink:href="classhit__inherit__graph_org.svg" target="_base">
           <rect id="button" ry="5" rx="5" y="6" x="6" height="38" width="38"
                fill="#f2f5e9" fill-opacity="0.5" stroke="#606060" stroke-width="1.0"/>
           <path id="arrow"
             d="M 11.500037,31.436501 C 11.940474,20.09759 22.043105,11.32322 32.158766,21.979434 L 37.068811,17.246167 C 37.068811,17.246167 37.088388,32 37.088388,32 L 22.160133,31.978069 C 22.160133,31.978069 26.997745,27.140456 26.997745,27.140456 C 18.528582,18.264221 13.291696,25.230495 11.500037,31.436501 z"
             style="fill:#404040;"/>
          </a>
         </g>
        </svg>
</svg>
