<?xml version="1.0" encoding="UTF-8" standalone="no"?>
<!DOCTYPE svg PUBLIC "-//W3C//DTD SVG 1.1//EN"
 "http://www.w3.org/Graphics/SVG/1.1/DTD/svg11.dtd">
<!-- Generated by graphviz version 2.43.0 (0)
 -->
<!-- Title: material&lt; T &gt; Pages: 1 -->
<svg width="496pt" height="84pt"
 viewBox="0.00 0.00 496.00 84.00" xmlns="http://www.w3.org/2000/svg" xmlns:xlink="http://www.w3.org/1999/xlink">
<g id="graph0" class="graph" transform="scale(1 1) rotate(0) translate(4 80)">
<title>material&lt; T &gt;</title>
<polygon fill="white" stroke="transparent" points="-4,4 -4,-80 492,-80 492,4 -4,4"/>
<!-- Node1 -->
<g id="node1" class="node">
<title>Node1</title>
<g id="a_node1"><a xlink:title="Material base class.">
<polygon fill="#bfbfbf" stroke="black" points="212,-56.5 212,-75.5 298,-75.5 298,-56.5 212,-56.5"/>
<text text-anchor="middle" x="255" y="-63.5" font-family="Helvetica,sans-Serif" font-size="10.00">material&lt; T &gt;</text>
</a>
</g>
</g>
<!-- Node2 -->
<g id="node2" class="node">
<title>Node2</title>
<g id="a_node2"><a xlink:href="classdiffuse.html" target="_top" xlink:title="Object for diffuse reflection of light; subclass of material.">
<polygon fill="white" stroke="black" points="0,-0.5 0,-19.5 78,-19.5 78,-0.5 0,-0.5"/>
<text text-anchor="middle" x="39" y="-7.5" font-family="Helvetica,sans-Serif" font-size="10.00">diffuse&lt; T &gt;</text>
</a>
</g>
</g>
<!-- Node1&#45;&gt;Node2 -->
<g id="edge1" class="edge">
<title>Node1&#45;&gt;Node2</title>
<path fill="none" stroke="midnightblue" d="M210.84,-53.96C170.04,-43.76 110.29,-28.82 73.07,-19.52"/>
<polygon fill="midnightblue" stroke="midnightblue" points="210.22,-57.41 220.77,-56.44 211.92,-50.62 210.22,-57.41"/>
</g>
<!-- Node3 -->
<g id="node3" class="node">
<title>Node3</title>
<g id="a_node3"><a xlink:href="classdiffuse__light.html" target="_top" xlink:title="Emissive diffuse light subclass of material.">
<polygon fill="white" stroke="black" points="96.5,-0.5 96.5,-19.5 201.5,-19.5 201.5,-0.5 96.5,-0.5"/>
<text text-anchor="middle" x="149" y="-7.5" font-family="Helvetica,sans-Serif" font-size="10.00">diffuse_light&lt; T &gt;</text>
</a>
</g>
</g>
<!-- Node1&#45;&gt;Node3 -->
<g id="edge2" class="edge">
<title>Node1&#45;&gt;Node3</title>
<path fill="none" stroke="midnightblue" d="M228.94,-51.73C209.32,-41.73 182.97,-28.31 165.99,-19.65"/>
<polygon fill="midnightblue" stroke="midnightblue" points="227.47,-54.9 237.97,-56.32 230.65,-48.67 227.47,-54.9"/>
</g>
<!-- Node4 -->
<g id="node4" class="node">
<title>Node4</title>
<g id="a_node4"><a xlink:href="classglass.html" target="_top" xlink:title="Glass subclass of material.">
<polygon fill="white" stroke="black" points="219.5,-0.5 219.5,-19.5 290.5,-19.5 290.5,-0.5 219.5,-0.5"/>
<text text-anchor="middle" x="255" y="-7.5" font-family="Helvetica,sans-Serif" font-size="10.00">glass&lt; T &gt;</text>
</a>
</g>
</g>
<!-- Node1&#45;&gt;Node4 -->
<g id="edge3" class="edge">
<title>Node1&#45;&gt;Node4</title>
<path fill="none" stroke="midnightblue" d="M255,-45.8C255,-36.91 255,-26.78 255,-19.75"/>
<polygon fill="midnightblue" stroke="midnightblue" points="251.5,-46.08 255,-56.08 258.5,-46.08 251.5,-46.08"/>
</g>
<!-- Node5 -->
<g id="node5" class="node">
<title>Node5</title>
<g id="a_node5"><a xlink:href="classisotropic.html" target="_top" xlink:title="Fog object for isotropic scattering; subclass of material.">
<polygon fill="white" stroke="black" points="308.5,-0.5 308.5,-19.5 395.5,-19.5 395.5,-0.5 308.5,-0.5"/>
<text text-anchor="middle" x="352" y="-7.5" font-family="Helvetica,sans-Serif" font-size="10.00">isotropic&lt; T &gt;</text>
</a>
</g>
</g>
<!-- Node1&#45;&gt;Node5 -->
<g id="edge4" class="edge">
<title>Node1&#45;&gt;Node5</title>
<path fill="none" stroke="midnightblue" d="M279.34,-51.45C297.24,-41.48 321.05,-28.23 336.45,-19.65"/>
<polygon fill="midnightblue" stroke="midnightblue" points="277.62,-48.4 270.58,-56.32 281.02,-54.52 277.62,-48.4"/>
</g>
<!-- Node6 -->
<g id="node6" class="node">
<title>Node6</title>
<g id="a_node6"><a xlink:href="classmetal.html" target="_top" xlink:title="Reflective metal subclass of material.">
<polygon fill="white" stroke="black" points="414,-0.5 414,-19.5 488,-19.5 488,-0.5 414,-0.5"/>
<text text-anchor="middle" x="451" y="-7.5" font-family="Helvetica,sans-Serif" font-size="10.00">metal&lt; T &gt;</text>
</a>
</g>
</g>
<!-- Node1&#45;&gt;Node6 -->
<g id="edge5" class="edge">
<title>Node1&#45;&gt;Node6</title>
<path fill="none" stroke="midnightblue" d="M296.02,-53.7C333.01,-43.51 386.6,-28.74 420.09,-19.52"/>
<polygon fill="midnightblue" stroke="midnightblue" points="294.77,-50.41 286.06,-56.44 296.63,-57.16 294.77,-50.41"/>
</g>
</g>
</svg>
