<?xml version="1.0" encoding="UTF-8" standalone="no"?>
<!DOCTYPE svg PUBLIC "-//W3C//DTD SVG 1.1//EN"
 "http://www.w3.org/Graphics/SVG/1.1/DTD/svg11.dtd">
<!-- Generated by graphviz version 2.43.0 (0)
 -->
<!-- Title: include/scenes/comb_scene.hpp Pages: 1 -->
<svg width="1375pt" height="487pt"
 viewBox="0.00 0.00 1374.59 487.00" xmlns="http://www.w3.org/2000/svg" xmlns:xlink="http://www.w3.org/1999/xlink">
<g id="graph0" class="graph" transform="scale(1 1) rotate(0) translate(4 483)">
<title>include/scenes/comb_scene.hpp</title>
<polygon fill="white" stroke="transparent" points="-4,4 -4,-483 1370.59,-483 1370.59,4 -4,4"/>
<!-- Node1 -->
<g id="node1" class="node">
<title>Node1</title>
<g id="a_node1"><a xlink:title="Header file for Combined scene example (unfinished)">
<polygon fill="#bfbfbf" stroke="black" points="627,-448.5 627,-478.5 746,-478.5 746,-448.5 627,-448.5"/>
<text text-anchor="start" x="635" y="-466.5" font-family="Helvetica,sans-Serif" font-size="10.00">include/scenes/comb</text>
<text text-anchor="middle" x="686.5" y="-455.5" font-family="Helvetica,sans-Serif" font-size="10.00">_scene.hpp</text>
</a>
</g>
</g>
<!-- Node2 -->
<g id="node2" class="node">
<title>Node2</title>
<g id="a_node2"><a xlink:href="hit__list_8hpp.html" target="_top" xlink:title="List of hittable objects.">
<polygon fill="white" stroke="black" points="1234,-336.5 1234,-355.5 1343,-355.5 1343,-336.5 1234,-336.5"/>
<text text-anchor="middle" x="1288.5" y="-343.5" font-family="Helvetica,sans-Serif" font-size="10.00">objects/hit_list.hpp</text>
</a>
</g>
</g>
<!-- Node1&#45;&gt;Node2 -->
<g id="edge1" class="edge">
<title>Node1&#45;&gt;Node2</title>
<path fill="none" stroke="midnightblue" d="M746.21,-462.33C898.51,-461.29 1292.23,-454.47 1331.5,-412 1345.87,-396.46 1326.63,-375.65 1309.48,-361.8"/>
<polygon fill="midnightblue" stroke="midnightblue" points="1311.46,-358.91 1301.39,-355.62 1307.21,-364.47 1311.46,-358.91"/>
</g>
<!-- Node15 -->
<g id="node15" class="node">
<title>Node15</title>
<g id="a_node15"><a xlink:href="diffuse_8hpp.html" target="_top" xlink:title="Object for diffuse (random) scattering. Subclass of material.">
<polygon fill="white" stroke="black" points="551.5,-336.5 551.5,-355.5 671.5,-355.5 671.5,-336.5 551.5,-336.5"/>
<text text-anchor="middle" x="611.5" y="-343.5" font-family="Helvetica,sans-Serif" font-size="10.00">materials/diffuse.hpp</text>
</a>
</g>
</g>
<!-- Node1&#45;&gt;Node15 -->
<g id="edge14" class="edge">
<title>Node1&#45;&gt;Node15</title>
<path fill="none" stroke="midnightblue" d="M626.68,-454.31C578.05,-446.29 515.04,-432.29 499.5,-412 479.42,-385.78 519.25,-368.25 556.85,-358.07"/>
<polygon fill="midnightblue" stroke="midnightblue" points="558.02,-361.39 566.84,-355.52 556.28,-354.61 558.02,-361.39"/>
</g>
<!-- Node19 -->
<g id="node19" class="node">
<title>Node19</title>
<g id="a_node19"><a xlink:href="diffuse__light_8hpp.html" target="_top" xlink:title="Emissive diffuse light material.">
<polygon fill="white" stroke="black" points="386,-336.5 386,-355.5 533,-355.5 533,-336.5 386,-336.5"/>
<text text-anchor="middle" x="459.5" y="-343.5" font-family="Helvetica,sans-Serif" font-size="10.00">materials/diffuse_light.hpp</text>
</a>
</g>
</g>
<!-- Node1&#45;&gt;Node19 -->
<g id="edge20" class="edge">
<title>Node1&#45;&gt;Node19</title>
<path fill="none" stroke="midnightblue" d="M626.56,-460.42C584.02,-456.04 527.88,-443.98 489.5,-412 475.35,-400.21 467.53,-380.28 463.45,-365.59"/>
<polygon fill="midnightblue" stroke="midnightblue" points="466.78,-364.49 461.02,-355.6 459.98,-366.15 466.78,-364.49"/>
</g>
<!-- Node20 -->
<g id="node20" class="node">
<title>Node20</title>
<g id="a_node20"><a xlink:href="glass_8hpp.html" target="_top" xlink:title="A glass object that refracts/reflects using Snell&#39;s Law.">
<polygon fill="white" stroke="black" points="0,-336.5 0,-355.5 113,-355.5 113,-336.5 0,-336.5"/>
<text text-anchor="middle" x="56.5" y="-343.5" font-family="Helvetica,sans-Serif" font-size="10.00">materials/glass.hpp</text>
</a>
</g>
</g>
<!-- Node1&#45;&gt;Node20 -->
<g id="edge23" class="edge">
<title>Node1&#45;&gt;Node20</title>
<path fill="none" stroke="midnightblue" d="M626.89,-459.92C509.31,-454.31 251.58,-439.24 167.5,-412 132.55,-400.68 96.69,-377.07 75.51,-361.64"/>
<polygon fill="midnightblue" stroke="midnightblue" points="77.49,-358.75 67.38,-355.58 73.31,-364.36 77.49,-358.75"/>
</g>
<!-- Node21 -->
<g id="node21" class="node">
<title>Node21</title>
<g id="a_node21"><a xlink:href="metal_8hpp.html" target="_top" xlink:title="Reflective surface, with additional fuzzy scattering.">
<polygon fill="white" stroke="black" points="251.5,-336.5 251.5,-355.5 367.5,-355.5 367.5,-336.5 251.5,-336.5"/>
<text text-anchor="middle" x="309.5" y="-343.5" font-family="Helvetica,sans-Serif" font-size="10.00">materials/metal.hpp</text>
</a>
</g>
</g>
<!-- Node1&#45;&gt;Node21 -->
<g id="edge25" class="edge">
<title>Node1&#45;&gt;Node21</title>
<path fill="none" stroke="midnightblue" d="M626.88,-451.26C582.89,-442.33 521.85,-428.61 469.5,-412 422.05,-396.94 368.85,-374.08 337.31,-359.86"/>
<polygon fill="midnightblue" stroke="midnightblue" points="338.42,-356.52 327.87,-355.57 335.53,-362.9 338.42,-356.52"/>
</g>
<!-- Node22 -->
<g id="node22" class="node">
<title>Node22</title>
<g id="a_node22"><a xlink:href="bvh_8hpp.html" target="_top" xlink:title="Class for our Bounding Volume Hierarchy. Acts as both tree and root.">
<polygon fill="white" stroke="black" points="176.5,-392.5 176.5,-411.5 270.5,-411.5 270.5,-392.5 176.5,-392.5"/>
<text text-anchor="middle" x="223.5" y="-399.5" font-family="Helvetica,sans-Serif" font-size="10.00">objects/bvh.hpp</text>
</a>
</g>
</g>
<!-- Node1&#45;&gt;Node22 -->
<g id="edge27" class="edge">
<title>Node1&#45;&gt;Node22</title>
<path fill="none" stroke="midnightblue" d="M626.92,-454.84C537.29,-443.33 368.9,-421.69 280.7,-410.35"/>
<polygon fill="midnightblue" stroke="midnightblue" points="280.97,-406.86 270.6,-409.05 280.08,-413.8 280.97,-406.86"/>
</g>
<!-- Node24 -->
<g id="node24" class="node">
<title>Node24</title>
<g id="a_node24"><a xlink:href="cube_8hpp.html" target="_top" xlink:title="Cube object made of rectangles.">
<polygon fill="white" stroke="black" points="637,-392.5 637,-411.5 736,-411.5 736,-392.5 637,-392.5"/>
<text text-anchor="middle" x="686.5" y="-399.5" font-family="Helvetica,sans-Serif" font-size="10.00">objects/cube.hpp</text>
</a>
</g>
</g>
<!-- Node1&#45;&gt;Node24 -->
<g id="edge30" class="edge">
<title>Node1&#45;&gt;Node24</title>
<path fill="none" stroke="midnightblue" d="M686.5,-448.4C686.5,-440.47 686.5,-430.46 686.5,-421.86"/>
<polygon fill="midnightblue" stroke="midnightblue" points="690,-421.66 686.5,-411.66 683,-421.66 690,-421.66"/>
</g>
<!-- Node26 -->
<g id="node26" class="node">
<title>Node26</title>
<g id="a_node26"><a xlink:href="iso__fog_8hpp.html" target="_top" xlink:title="Isotropically scattering fog object.">
<polygon fill="white" stroke="black" points="508,-392.5 508,-411.5 619,-411.5 619,-392.5 508,-392.5"/>
<text text-anchor="middle" x="563.5" y="-399.5" font-family="Helvetica,sans-Serif" font-size="10.00">objects/iso_fog.hpp</text>
</a>
</g>
</g>
<!-- Node1&#45;&gt;Node26 -->
<g id="edge33" class="edge">
<title>Node1&#45;&gt;Node26</title>
<path fill="none" stroke="midnightblue" d="M657.35,-448.4C637.08,-438.59 610.26,-425.62 590.48,-416.05"/>
<polygon fill="midnightblue" stroke="midnightblue" points="591.92,-412.86 581.4,-411.66 588.88,-419.16 591.92,-412.86"/>
</g>
<!-- Node28 -->
<g id="node28" class="node">
<title>Node28</title>
<g id="a_node28"><a xlink:href="moving__sphere_8hpp.html" target="_top" xlink:title="Sphere object moving, for motion blur.">
<polygon fill="white" stroke="black" points="754,-392.5 754,-411.5 905,-411.5 905,-392.5 754,-392.5"/>
<text text-anchor="middle" x="829.5" y="-399.5" font-family="Helvetica,sans-Serif" font-size="10.00">objects/moving_sphere.hpp</text>
</a>
</g>
</g>
<!-- Node1&#45;&gt;Node28 -->
<g id="edge38" class="edge">
<title>Node1&#45;&gt;Node28</title>
<path fill="none" stroke="midnightblue" d="M720.39,-448.4C744.38,-438.42 776.27,-425.15 799.38,-415.53"/>
<polygon fill="midnightblue" stroke="midnightblue" points="800.8,-418.73 808.69,-411.66 798.11,-412.27 800.8,-418.73"/>
</g>
<!-- Node29 -->
<g id="node29" class="node">
<title>Node29</title>
<g id="a_node29"><a xlink:href="sphere_8hpp.html" target="_top" xlink:title="Sphere object to be rendered.">
<polygon fill="white" stroke="black" points="923,-392.5 923,-411.5 1032,-411.5 1032,-392.5 923,-392.5"/>
<text text-anchor="middle" x="977.5" y="-399.5" font-family="Helvetica,sans-Serif" font-size="10.00">objects/sphere.hpp</text>
</a>
</g>
</g>
<!-- Node1&#45;&gt;Node29 -->
<g id="edge40" class="edge">
<title>Node1&#45;&gt;Node29</title>
<path fill="none" stroke="midnightblue" d="M746.09,-450.32C798.98,-439.5 875.47,-423.86 925.82,-413.57"/>
<polygon fill="midnightblue" stroke="midnightblue" points="926.74,-416.95 935.84,-411.52 925.34,-410.09 926.74,-416.95"/>
</g>
<!-- Node30 -->
<g id="node30" class="node">
<title>Node30</title>
<g id="a_node30"><a xlink:href="translation_8hpp.html" target="_top" xlink:title="Class for translation of a hittable object.">
<polygon fill="white" stroke="black" points="1050.5,-392.5 1050.5,-411.5 1178.5,-411.5 1178.5,-392.5 1050.5,-392.5"/>
<text text-anchor="middle" x="1114.5" y="-399.5" font-family="Helvetica,sans-Serif" font-size="10.00">objects/translation.hpp</text>
</a>
</g>
</g>
<!-- Node1&#45;&gt;Node30 -->
<g id="edge42" class="edge">
<title>Node1&#45;&gt;Node30</title>
<path fill="none" stroke="midnightblue" d="M746.01,-454.23C823.74,-443.42 959.68,-424.52 1042.94,-412.95"/>
<polygon fill="midnightblue" stroke="midnightblue" points="1043.65,-416.38 1053.07,-411.54 1042.68,-409.45 1043.65,-416.38"/>
</g>
<!-- Node31 -->
<g id="node31" class="node">
<title>Node31</title>
<g id="a_node31"><a xlink:href="y__rotation_8hpp.html" target="_top" xlink:title="Class for rotation of object around the y axis.">
<polygon fill="white" stroke="black" points="1197,-392.5 1197,-411.5 1322,-411.5 1322,-392.5 1197,-392.5"/>
<text text-anchor="middle" x="1259.5" y="-399.5" font-family="Helvetica,sans-Serif" font-size="10.00">objects/y_rotation.hpp</text>
</a>
</g>
</g>
<!-- Node1&#45;&gt;Node31 -->
<g id="edge44" class="edge">
<title>Node1&#45;&gt;Node31</title>
<path fill="none" stroke="midnightblue" d="M746.32,-456.94C838.39,-448.27 1020.64,-430.71 1186.3,-412.11"/>
<polygon fill="midnightblue" stroke="midnightblue" points="1187.14,-415.54 1196.68,-410.94 1186.35,-408.58 1187.14,-415.54"/>
</g>
<!-- Node32 -->
<g id="node32" class="node">
<title>Node32</title>
<g id="a_node32"><a xlink:href="checker_8hpp.html" target="_top" xlink:title="Two color checkered texture.">
<polygon fill="white" stroke="black" points="1173.5,-280.5 1173.5,-299.5 1291.5,-299.5 1291.5,-280.5 1173.5,-280.5"/>
<text text-anchor="middle" x="1232.5" y="-287.5" font-family="Helvetica,sans-Serif" font-size="10.00">textures/checker.hpp</text>
</a>
</g>
</g>
<!-- Node1&#45;&gt;Node32 -->
<g id="edge46" class="edge">
<title>Node1&#45;&gt;Node32</title>
<path fill="none" stroke="midnightblue" d="M746.06,-462.25C900.57,-461.01 1305.19,-453.77 1347.5,-412 1371.59,-388.22 1371.78,-363.82 1352.5,-336 1340.57,-318.79 1321.2,-308.15 1301.47,-301.58"/>
<polygon fill="midnightblue" stroke="midnightblue" points="1302.37,-298.2 1291.78,-298.67 1300.35,-304.9 1302.37,-298.2"/>
</g>
<!-- Node3 -->
<g id="node3" class="node">
<title>Node3</title>
<g id="a_node3"><a xlink:href="hit_8hpp.html" target="_top" xlink:title="Abstract object that can be hit by a ray.">
<polygon fill="white" stroke="black" points="981.5,-280.5 981.5,-299.5 1031.5,-299.5 1031.5,-280.5 981.5,-280.5"/>
<text text-anchor="middle" x="1006.5" y="-287.5" font-family="Helvetica,sans-Serif" font-size="10.00">hit.hpp</text>
</a>
</g>
</g>
<!-- Node2&#45;&gt;Node3 -->
<g id="edge2" class="edge">
<title>Node2&#45;&gt;Node3</title>
<path fill="none" stroke="midnightblue" d="M1243.82,-336.44C1187.73,-325.7 1092.7,-307.51 1041.57,-297.72"/>
<polygon fill="midnightblue" stroke="midnightblue" points="1042.13,-294.26 1031.65,-295.82 1040.81,-301.13 1042.13,-294.26"/>
</g>
<!-- Node4 -->
<g id="node4" class="node">
<title>Node4</title>
<g id="a_node4"><a xlink:href="bounding__box_8hpp.html" target="_top" xlink:title="Bounding box object, used to compute BVH tree.">
<polygon fill="white" stroke="black" points="487.5,-224.5 487.5,-243.5 593.5,-243.5 593.5,-224.5 487.5,-224.5"/>
<text text-anchor="middle" x="540.5" y="-231.5" font-family="Helvetica,sans-Serif" font-size="10.00">bounding_box.hpp</text>
</a>
</g>
</g>
<!-- Node3&#45;&gt;Node4 -->
<g id="edge3" class="edge">
<title>Node3&#45;&gt;Node4</title>
<path fill="none" stroke="midnightblue" d="M981.47,-286.48C919.55,-280.17 753.98,-262.97 604.07,-244.03"/>
<polygon fill="midnightblue" stroke="midnightblue" points="604.12,-240.51 593.76,-242.73 603.24,-247.46 604.12,-240.51"/>
</g>
<!-- Node5 -->
<g id="node5" class="node">
<title>Node5</title>
<g id="a_node5"><a xlink:title=" ">
<polygon fill="white" stroke="#bfbfbf" points="548,-168.5 548,-187.5 593,-187.5 593,-168.5 548,-168.5"/>
<text text-anchor="middle" x="570.5" y="-175.5" font-family="Helvetica,sans-Serif" font-size="10.00">utility</text>
</a>
</g>
</g>
<!-- Node4&#45;&gt;Node5 -->
<g id="edge4" class="edge">
<title>Node4&#45;&gt;Node5</title>
<path fill="none" stroke="midnightblue" d="M545.45,-224.08C549.6,-216.61 555.65,-205.72 560.77,-196.52"/>
<polygon fill="midnightblue" stroke="midnightblue" points="563.84,-198.19 565.64,-187.75 557.72,-194.79 563.84,-198.19"/>
</g>
<!-- Node6 -->
<g id="node6" class="node">
<title>Node6</title>
<g id="a_node6"><a xlink:href="ray_8hpp.html" target="_top" xlink:title="The ray object for our tracing algorithm.">
<polygon fill="white" stroke="black" points="443.5,-168.5 443.5,-187.5 529.5,-187.5 529.5,-168.5 443.5,-168.5"/>
<text text-anchor="middle" x="486.5" y="-175.5" font-family="Helvetica,sans-Serif" font-size="10.00">render/ray.hpp</text>
</a>
</g>
</g>
<!-- Node4&#45;&gt;Node6 -->
<g id="edge5" class="edge">
<title>Node4&#45;&gt;Node6</title>
<path fill="none" stroke="midnightblue" d="M531.58,-224.08C523.72,-216.22 512.07,-204.57 502.58,-195.08"/>
<polygon fill="midnightblue" stroke="midnightblue" points="504.8,-192.35 495.25,-187.75 499.85,-197.3 504.8,-192.35"/>
</g>
<!-- Node7 -->
<g id="node7" class="node">
<title>Node7</title>
<g id="a_node7"><a xlink:href="vec3_8hpp.html" target="_top" xlink:title="Custom 3D vector class for points, colours and rays.">
<polygon fill="white" stroke="black" points="523,-112.5 523,-131.5 584,-131.5 584,-112.5 523,-112.5"/>
<text text-anchor="middle" x="553.5" y="-119.5" font-family="Helvetica,sans-Serif" font-size="10.00">vec3.hpp</text>
</a>
</g>
</g>
<!-- Node6&#45;&gt;Node7 -->
<g id="edge6" class="edge">
<title>Node6&#45;&gt;Node7</title>
<path fill="none" stroke="midnightblue" d="M497.26,-168.32C507.27,-160.26 522.39,-148.08 534.43,-138.37"/>
<polygon fill="midnightblue" stroke="midnightblue" points="536.95,-140.83 542.54,-131.83 532.56,-135.38 536.95,-140.83"/>
</g>
<!-- Node8 -->
<g id="node8" class="node">
<title>Node8</title>
<g id="a_node8"><a xlink:title=" ">
<polygon fill="white" stroke="#bfbfbf" points="481.5,-56.5 481.5,-75.5 541.5,-75.5 541.5,-56.5 481.5,-56.5"/>
<text text-anchor="middle" x="511.5" y="-63.5" font-family="Helvetica,sans-Serif" font-size="10.00">iostream</text>
</a>
</g>
</g>
<!-- Node7&#45;&gt;Node8 -->
<g id="edge7" class="edge">
<title>Node7&#45;&gt;Node8</title>
<path fill="none" stroke="midnightblue" d="M546.56,-112.08C540.57,-104.38 531.75,-93.03 524.45,-83.65"/>
<polygon fill="midnightblue" stroke="midnightblue" points="527.21,-81.5 518.31,-75.75 521.68,-85.79 527.21,-81.5"/>
</g>
<!-- Node9 -->
<g id="node9" class="node">
<title>Node9</title>
<g id="a_node9"><a xlink:href="utilities_8hpp.html" target="_top" xlink:title="All the random functionality I am too lazy to organize elsewhere.">
<polygon fill="white" stroke="black" points="559.5,-56.5 559.5,-75.5 633.5,-75.5 633.5,-56.5 559.5,-56.5"/>
<text text-anchor="middle" x="596.5" y="-63.5" font-family="Helvetica,sans-Serif" font-size="10.00">utilities.hpp</text>
</a>
</g>
</g>
<!-- Node7&#45;&gt;Node9 -->
<g id="edge8" class="edge">
<title>Node7&#45;&gt;Node9</title>
<path fill="none" stroke="midnightblue" d="M560.6,-112.08C566.74,-104.38 575.77,-93.03 583.24,-83.65"/>
<polygon fill="midnightblue" stroke="midnightblue" points="586.04,-85.75 589.53,-75.75 580.56,-81.39 586.04,-85.75"/>
</g>
<!-- Node10 -->
<g id="node10" class="node">
<title>Node10</title>
<g id="a_node10"><a xlink:title=" ">
<polygon fill="white" stroke="#bfbfbf" points="442,-0.5 442,-19.5 489,-19.5 489,-0.5 442,-0.5"/>
<text text-anchor="middle" x="465.5" y="-7.5" font-family="Helvetica,sans-Serif" font-size="10.00">cmath</text>
</a>
</g>
</g>
<!-- Node9&#45;&gt;Node10 -->
<g id="edge9" class="edge">
<title>Node9&#45;&gt;Node10</title>
<path fill="none" stroke="midnightblue" d="M575.74,-56.44C554.18,-47.56 520.24,-33.56 495.71,-23.45"/>
<polygon fill="midnightblue" stroke="midnightblue" points="496.74,-20.09 486.16,-19.52 494.07,-26.56 496.74,-20.09"/>
</g>
<!-- Node11 -->
<g id="node11" class="node">
<title>Node11</title>
<g id="a_node11"><a xlink:title=" ">
<polygon fill="white" stroke="#bfbfbf" points="507,-0.5 507,-19.5 556,-19.5 556,-0.5 507,-0.5"/>
<text text-anchor="middle" x="531.5" y="-7.5" font-family="Helvetica,sans-Serif" font-size="10.00">cstdlib</text>
</a>
</g>
</g>
<!-- Node9&#45;&gt;Node11 -->
<g id="edge10" class="edge">
<title>Node9&#45;&gt;Node11</title>
<path fill="none" stroke="midnightblue" d="M586.06,-56.32C576.35,-48.26 561.68,-36.08 550,-26.37"/>
<polygon fill="midnightblue" stroke="midnightblue" points="552.06,-23.53 542.13,-19.83 547.59,-28.92 552.06,-23.53"/>
</g>
<!-- Node12 -->
<g id="node12" class="node">
<title>Node12</title>
<g id="a_node12"><a xlink:title=" ">
<polygon fill="white" stroke="#bfbfbf" points="574.5,-0.5 574.5,-19.5 618.5,-19.5 618.5,-0.5 574.5,-0.5"/>
<text text-anchor="middle" x="596.5" y="-7.5" font-family="Helvetica,sans-Serif" font-size="10.00">limits</text>
</a>
</g>
</g>
<!-- Node9&#45;&gt;Node12 -->
<g id="edge11" class="edge">
<title>Node9&#45;&gt;Node12</title>
<path fill="none" stroke="midnightblue" d="M596.5,-56.08C596.5,-49.01 596.5,-38.86 596.5,-29.99"/>
<polygon fill="midnightblue" stroke="midnightblue" points="600,-29.75 596.5,-19.75 593,-29.75 600,-29.75"/>
</g>
<!-- Node13 -->
<g id="node13" class="node">
<title>Node13</title>
<g id="a_node13"><a xlink:title=" ">
<polygon fill="white" stroke="#bfbfbf" points="636.5,-0.5 636.5,-19.5 694.5,-19.5 694.5,-0.5 636.5,-0.5"/>
<text text-anchor="middle" x="665.5" y="-7.5" font-family="Helvetica,sans-Serif" font-size="10.00">memory</text>
</a>
</g>
</g>
<!-- Node9&#45;&gt;Node13 -->
<g id="edge12" class="edge">
<title>Node9&#45;&gt;Node13</title>
<path fill="none" stroke="midnightblue" d="M607.59,-56.32C617.99,-48.18 633.76,-35.84 646.22,-26.09"/>
<polygon fill="midnightblue" stroke="midnightblue" points="648.49,-28.75 654.21,-19.83 644.18,-23.24 648.49,-28.75"/>
</g>
<!-- Node14 -->
<g id="node14" class="node">
<title>Node14</title>
<g id="a_node14"><a xlink:title=" ">
<polygon fill="white" stroke="#bfbfbf" points="713,-0.5 713,-19.5 760,-19.5 760,-0.5 713,-0.5"/>
<text text-anchor="middle" x="736.5" y="-7.5" font-family="Helvetica,sans-Serif" font-size="10.00">vector</text>
</a>
</g>
</g>
<!-- Node9&#45;&gt;Node14 -->
<g id="edge13" class="edge">
<title>Node9&#45;&gt;Node14</title>
<path fill="none" stroke="midnightblue" d="M618.68,-56.44C641.93,-47.48 678.65,-33.31 704.92,-23.18"/>
<polygon fill="midnightblue" stroke="midnightblue" points="706.35,-26.38 714.42,-19.52 703.83,-19.85 706.35,-26.38"/>
</g>
<!-- Node16 -->
<g id="node16" class="node">
<title>Node16</title>
<g id="a_node16"><a xlink:href="material_8hpp.html" target="_top" xlink:title="Base class for materials.">
<polygon fill="white" stroke="black" points="420,-280.5 420,-299.5 499,-299.5 499,-280.5 420,-280.5"/>
<text text-anchor="middle" x="459.5" y="-287.5" font-family="Helvetica,sans-Serif" font-size="10.00">material.hpp</text>
</a>
</g>
</g>
<!-- Node15&#45;&gt;Node16 -->
<g id="edge15" class="edge">
<title>Node15&#45;&gt;Node16</title>
<path fill="none" stroke="midnightblue" d="M587.42,-336.44C561.96,-327.4 521.61,-313.06 493.04,-302.92"/>
<polygon fill="midnightblue" stroke="midnightblue" points="494.07,-299.57 483.47,-299.52 491.72,-306.16 494.07,-299.57"/>
</g>
<!-- Node17 -->
<g id="node17" class="node">
<title>Node17</title>
<g id="a_node17"><a xlink:href="solid_8hpp.html" target="_top" xlink:title="Solid one color texture.">
<polygon fill="white" stroke="black" points="578.5,-280.5 578.5,-299.5 682.5,-299.5 682.5,-280.5 578.5,-280.5"/>
<text text-anchor="middle" x="630.5" y="-287.5" font-family="Helvetica,sans-Serif" font-size="10.00">textures/solid.hpp</text>
</a>
</g>
</g>
<!-- Node15&#45;&gt;Node17 -->
<g id="edge17" class="edge">
<title>Node15&#45;&gt;Node17</title>
<path fill="none" stroke="midnightblue" d="M614.64,-336.08C617.18,-328.85 620.86,-318.41 624.03,-309.4"/>
<polygon fill="midnightblue" stroke="midnightblue" points="627.4,-310.35 627.42,-299.75 620.8,-308.02 627.4,-310.35"/>
</g>
<!-- Node16&#45;&gt;Node6 -->
<g id="edge16" class="edge">
<title>Node16&#45;&gt;Node6</title>
<path fill="none" stroke="midnightblue" d="M461.62,-280.37C465.98,-262.62 476.03,-221.67 481.94,-197.6"/>
<polygon fill="midnightblue" stroke="midnightblue" points="485.41,-198.14 484.39,-187.59 478.61,-196.47 485.41,-198.14"/>
</g>
<!-- Node18 -->
<g id="node18" class="node">
<title>Node18</title>
<g id="a_node18"><a xlink:href="texture_8hpp.html" target="_top" xlink:title="Bass class for textures.">
<polygon fill="white" stroke="black" points="612,-224.5 612,-243.5 685,-243.5 685,-224.5 612,-224.5"/>
<text text-anchor="middle" x="648.5" y="-231.5" font-family="Helvetica,sans-Serif" font-size="10.00">texture.hpp</text>
</a>
</g>
</g>
<!-- Node17&#45;&gt;Node18 -->
<g id="edge18" class="edge">
<title>Node17&#45;&gt;Node18</title>
<path fill="none" stroke="midnightblue" d="M633.47,-280.08C635.88,-272.85 639.36,-262.41 642.37,-253.4"/>
<polygon fill="midnightblue" stroke="midnightblue" points="645.74,-254.34 645.58,-243.75 639.1,-252.13 645.74,-254.34"/>
</g>
<!-- Node18&#45;&gt;Node7 -->
<g id="edge19" class="edge">
<title>Node18&#45;&gt;Node7</title>
<path fill="none" stroke="midnightblue" d="M643.09,-224.15C635.01,-211.22 618.94,-186.68 602.5,-168 593.17,-157.41 581.59,-146.67 572.02,-138.35"/>
<polygon fill="midnightblue" stroke="midnightblue" points="574.12,-135.54 564.24,-131.71 569.58,-140.87 574.12,-135.54"/>
</g>
<!-- Node19&#45;&gt;Node16 -->
<g id="edge21" class="edge">
<title>Node19&#45;&gt;Node16</title>
<path fill="none" stroke="midnightblue" d="M459.5,-336.08C459.5,-329.01 459.5,-318.86 459.5,-309.99"/>
<polygon fill="midnightblue" stroke="midnightblue" points="463,-309.75 459.5,-299.75 456,-309.75 463,-309.75"/>
</g>
<!-- Node19&#45;&gt;Node17 -->
<g id="edge22" class="edge">
<title>Node19&#45;&gt;Node17</title>
<path fill="none" stroke="midnightblue" d="M486.6,-336.44C515.49,-327.32 561.42,-312.81 593.61,-302.65"/>
<polygon fill="midnightblue" stroke="midnightblue" points="595.05,-305.87 603.53,-299.52 592.94,-299.19 595.05,-305.87"/>
</g>
<!-- Node20&#45;&gt;Node16 -->
<g id="edge24" class="edge">
<title>Node20&#45;&gt;Node16</title>
<path fill="none" stroke="midnightblue" d="M113.02,-337.28C116.23,-336.85 119.41,-336.42 122.5,-336 224.53,-322.23 343.96,-306.34 409.73,-297.6"/>
<polygon fill="midnightblue" stroke="midnightblue" points="410.36,-301.05 419.81,-296.26 409.43,-294.11 410.36,-301.05"/>
</g>
<!-- Node21&#45;&gt;Node16 -->
<g id="edge26" class="edge">
<title>Node21&#45;&gt;Node16</title>
<path fill="none" stroke="midnightblue" d="M333.27,-336.44C358.39,-327.4 398.21,-313.06 426.4,-302.92"/>
<polygon fill="midnightblue" stroke="midnightblue" points="427.62,-306.2 435.84,-299.52 425.25,-299.61 427.62,-306.2"/>
</g>
<!-- Node22&#45;&gt;Node4 -->
<g id="edge29" class="edge">
<title>Node22&#45;&gt;Node4</title>
<path fill="none" stroke="midnightblue" d="M223.61,-392.17C224.26,-378.36 227.53,-351.62 242.5,-336 304.7,-271.11 410.06,-247.91 477.4,-239.61"/>
<polygon fill="midnightblue" stroke="midnightblue" points="477.93,-243.08 487.46,-238.45 477.12,-236.12 477.93,-243.08"/>
</g>
<!-- Node23 -->
<g id="node23" class="node">
<title>Node23</title>
<g id="a_node23"><a xlink:title=" ">
<polygon fill="white" stroke="#bfbfbf" points="131.5,-336.5 131.5,-355.5 195.5,-355.5 195.5,-336.5 131.5,-336.5"/>
<text text-anchor="middle" x="163.5" y="-343.5" font-family="Helvetica,sans-Serif" font-size="10.00">algorithm</text>
</a>
</g>
</g>
<!-- Node22&#45;&gt;Node23 -->
<g id="edge28" class="edge">
<title>Node22&#45;&gt;Node23</title>
<path fill="none" stroke="midnightblue" d="M213.86,-392.32C204.99,-384.34 191.63,-372.31 180.89,-362.65"/>
<polygon fill="midnightblue" stroke="midnightblue" points="183.09,-359.92 173.32,-355.83 178.41,-365.13 183.09,-359.92"/>
</g>
<!-- Node25 -->
<g id="node25" class="node">
<title>Node25</title>
<g id="a_node25"><a xlink:href="rectangle_8hpp.html" target="_top" xlink:title="Rectangular plane object to be rendered.">
<polygon fill="white" stroke="black" points="876,-336.5 876,-355.5 959,-355.5 959,-336.5 876,-336.5"/>
<text text-anchor="middle" x="917.5" y="-343.5" font-family="Helvetica,sans-Serif" font-size="10.00">rectangle.hpp</text>
</a>
</g>
</g>
<!-- Node24&#45;&gt;Node25 -->
<g id="edge31" class="edge">
<title>Node24&#45;&gt;Node25</title>
<path fill="none" stroke="midnightblue" d="M723.1,-392.44C763.23,-383.06 827.7,-367.99 871.28,-357.8"/>
<polygon fill="midnightblue" stroke="midnightblue" points="872.13,-361.2 881.07,-355.52 870.53,-354.38 872.13,-361.2"/>
</g>
<!-- Node25&#45;&gt;Node3 -->
<g id="edge32" class="edge">
<title>Node25&#45;&gt;Node3</title>
<path fill="none" stroke="midnightblue" d="M931.8,-336.32C945.68,-327.9 966.99,-314.97 983.3,-305.07"/>
<polygon fill="midnightblue" stroke="midnightblue" points="985.5,-307.83 992.24,-299.65 981.87,-301.85 985.5,-307.83"/>
</g>
<!-- Node26&#45;&gt;Node3 -->
<g id="edge34" class="edge">
<title>Node26&#45;&gt;Node3</title>
<path fill="none" stroke="midnightblue" d="M619.25,-392.46C691.07,-381.32 809.02,-362.48 828.5,-356 846.98,-349.85 849.51,-343.47 867.5,-336 902.13,-321.62 943.13,-308.84 971.58,-300.61"/>
<polygon fill="midnightblue" stroke="midnightblue" points="972.8,-303.9 981.46,-297.79 970.88,-297.17 972.8,-303.9"/>
</g>
<!-- Node27 -->
<g id="node27" class="node">
<title>Node27</title>
<g id="a_node27"><a xlink:href="isotropic_8hpp.html" target="_top" xlink:title="Isotropic fog material.">
<polygon fill="white" stroke="black" points="690,-336.5 690,-355.5 819,-355.5 819,-336.5 690,-336.5"/>
<text text-anchor="middle" x="754.5" y="-343.5" font-family="Helvetica,sans-Serif" font-size="10.00">materials/isotropic.hpp</text>
</a>
</g>
</g>
<!-- Node26&#45;&gt;Node27 -->
<g id="edge35" class="edge">
<title>Node26&#45;&gt;Node27</title>
<path fill="none" stroke="midnightblue" d="M593.76,-392.44C626.46,-383.2 678.68,-368.44 714.68,-358.26"/>
<polygon fill="midnightblue" stroke="midnightblue" points="715.71,-361.61 724.38,-355.52 713.8,-354.87 715.71,-361.61"/>
</g>
<!-- Node27&#45;&gt;Node16 -->
<g id="edge36" class="edge">
<title>Node27&#45;&gt;Node16</title>
<path fill="none" stroke="midnightblue" d="M707.76,-336.44C653.61,-326.53 564.78,-310.27 509.35,-300.12"/>
<polygon fill="midnightblue" stroke="midnightblue" points="509.87,-296.66 499.4,-298.3 508.61,-303.55 509.87,-296.66"/>
</g>
<!-- Node27&#45;&gt;Node17 -->
<g id="edge37" class="edge">
<title>Node27&#45;&gt;Node17</title>
<path fill="none" stroke="midnightblue" d="M734.85,-336.44C714.54,-327.6 682.6,-313.69 659.4,-303.59"/>
<polygon fill="midnightblue" stroke="midnightblue" points="660.62,-300.3 650.06,-299.52 657.83,-306.72 660.62,-300.3"/>
</g>
<!-- Node28&#45;&gt;Node3 -->
<g id="edge39" class="edge">
<title>Node28&#45;&gt;Node3</title>
<path fill="none" stroke="midnightblue" d="M885.77,-392.47C913.03,-386.07 944.88,-375 968.5,-356 983.74,-343.74 994.15,-323.59 1000.17,-308.98"/>
<polygon fill="midnightblue" stroke="midnightblue" points="1003.49,-310.09 1003.78,-299.5 996.95,-307.6 1003.49,-310.09"/>
</g>
<!-- Node29&#45;&gt;Node3 -->
<g id="edge41" class="edge">
<title>Node29&#45;&gt;Node3</title>
<path fill="none" stroke="midnightblue" d="M983.42,-392.5C989.15,-383.78 997.54,-369.6 1001.5,-356 1005.91,-340.87 1007,-322.97 1007.08,-309.79"/>
<polygon fill="midnightblue" stroke="midnightblue" points="1010.58,-309.57 1006.95,-299.61 1003.58,-309.66 1010.58,-309.57"/>
</g>
<!-- Node30&#45;&gt;Node3 -->
<g id="edge43" class="edge">
<title>Node30&#45;&gt;Node3</title>
<path fill="none" stroke="midnightblue" d="M1106.03,-392.37C1087.89,-373.89 1045.08,-330.29 1021.96,-306.74"/>
<polygon fill="midnightblue" stroke="midnightblue" points="1024.44,-304.28 1014.94,-299.59 1019.44,-309.18 1024.44,-304.28"/>
</g>
<!-- Node31&#45;&gt;Node3 -->
<g id="edge45" class="edge">
<title>Node31&#45;&gt;Node3</title>
<path fill="none" stroke="midnightblue" d="M1239.65,-392.37C1195.22,-373.05 1087.6,-326.26 1035.59,-303.65"/>
<polygon fill="midnightblue" stroke="midnightblue" points="1036.83,-300.37 1026.26,-299.59 1034.04,-306.79 1036.83,-300.37"/>
</g>
<!-- Node32&#45;&gt;Node18 -->
<g id="edge47" class="edge">
<title>Node32&#45;&gt;Node18</title>
<path fill="none" stroke="midnightblue" d="M1173.29,-283.53C1056.97,-272.77 800.78,-249.08 695.29,-239.33"/>
<polygon fill="midnightblue" stroke="midnightblue" points="695.55,-235.84 685.27,-238.4 694.9,-242.81 695.55,-235.84"/>
</g>
</g>
</svg>
