<?xml version="1.0" encoding="UTF-8" standalone="no"?>
<!DOCTYPE svg PUBLIC "-//W3C//DTD SVG 1.1//EN"
 "http://www.w3.org/Graphics/SVG/1.1/DTD/svg11.dtd">
<!-- Generated by graphviz version 2.43.0 (0)
 -->
<!-- Title: include/scenes/cornell_box.hpp Pages: 1 -->
<!--zoomable 487 -->
<svg id="main" version="1.1" xmlns="http://www.w3.org/2000/svg" xmlns:xlink="http://www.w3.org/1999/xlink" xml:space="preserve" onload="init(evt)">
<style type="text/css"><![CDATA[
.edge:hover path { stroke: red; }
.edge:hover polygon { stroke: red; fill: red; }
]]></style>
<script type="text/javascript"><![CDATA[
var edges = document.getElementsByTagName('g');
if (edges && edges.length) {
  for (var i=0;i<edges.length;i++) {
    if (edges[i].id.substr(0,4)=='edge') {
      edges[i].setAttribute('class','edge');
    }
  }
}
]]></script>
        <defs>
                <circle id="rim" cx="0" cy="0" r="7"/>
                <circle id="rim2" cx="0" cy="0" r="3.5"/>
                <g id="zoomPlus">
                        <use xlink:href="#rim" fill="#404040">
                                <set attributeName="fill" to="#808080" begin="zoomplus.mouseover" end="zoomplus.mouseout"/>
                        </use>
                        <path d="M-4,0h8M0,-4v8" fill="none" stroke="white" stroke-width="1.5" pointer-events="none"/>
                </g>
                <g id="zoomMin">
                        <use xlink:href="#rim" fill="#404040">
                                <set attributeName="fill" to="#808080" begin="zoomminus.mouseover" end="zoomminus.mouseout"/>
                        </use>
                        <path d="M-4,0h8" fill="none" stroke="white" stroke-width="1.5" pointer-events="none"/>
                </g>
                <g id="dirArrow">
                        <path fill="none" stroke="white" stroke-width="1.5" d="M0,-3.0v7 M-2.5,-0.5L0,-3.0L2.5,-0.5"/>
                </g>
               <g id="resetDef">
                       <use xlink:href="#rim2" fill="#404040">
                               <set attributeName="fill" to="#808080" begin="reset.mouseover" end="reset.mouseout"/>
                       </use>
               </g>
        </defs>

<script type="text/javascript">
var viewWidth = 1265;
var viewHeight = 487;
var sectionId = 'dynsection-0';
</script>
<script xlink:href="svgpan.js"/>
<svg id="graph" class="graph">
<g id="viewport">
<title>include/scenes/cornell_box.hpp</title>
<polygon fill="white" stroke="transparent" points="-4,4 -4,-483 1261,-483 1261,4 -4,4"/>
<!-- Node1 -->
<g id="node1" class="node">
<title>Node1</title>
<g id="a_node1"><a xlink:title="Header file for cornell box scene examples (unfinished)">
<polygon fill="#bfbfbf" stroke="black" points="662.5,-448.5 662.5,-478.5 787.5,-478.5 787.5,-448.5 662.5,-448.5"/>
<text text-anchor="start" x="670.5" y="-466.5" font-family="Helvetica,sans-Serif" font-size="10.00">include/scenes/cornell</text>
<text text-anchor="middle" x="725" y="-455.5" font-family="Helvetica,sans-Serif" font-size="10.00">_box.hpp</text>
</a>
</g>
</g>
<!-- Node2 -->
<g id="node2" class="node">
<title>Node2</title>
<g id="a_node2"><a xlink:href="diffuse_8hpp.html" target="_top" xlink:title="Object for diffuse (random) scattering. Subclass of material.">
<polygon fill="white" stroke="black" points="31,-336.5 31,-355.5 151,-355.5 151,-336.5 31,-336.5"/>
<text text-anchor="middle" x="91" y="-343.5" font-family="Helvetica,sans-Serif" font-size="10.00">materials/diffuse.hpp</text>
</a>
</g>
</g>
<!-- Node1&#45;&gt;Node2 -->
<g id="edge1" class="edge">
<title>Node1&#45;&gt;Node2</title>
<path fill="none" stroke="midnightblue" d="M662.23,-458.85C578.1,-453.12 424.48,-439.67 296,-412 233.25,-398.49 162.32,-373.81 122.5,-359.05"/>
<polygon fill="midnightblue" stroke="midnightblue" points="123.66,-355.75 113.07,-355.53 121.21,-362.31 123.66,-355.75"/>
</g>
<!-- Node15 -->
<g id="node15" class="node">
<title>Node15</title>
<g id="a_node15"><a xlink:href="diffuse__light_8hpp.html" target="_top" xlink:title="Emissive diffuse light material.">
<polygon fill="white" stroke="black" points="169.5,-336.5 169.5,-355.5 316.5,-355.5 316.5,-336.5 169.5,-336.5"/>
<text text-anchor="middle" x="243" y="-343.5" font-family="Helvetica,sans-Serif" font-size="10.00">materials/diffuse_light.hpp</text>
</a>
</g>
</g>
<!-- Node1&#45;&gt;Node15 -->
<g id="edge15" class="edge">
<title>Node1&#45;&gt;Node15</title>
<path fill="none" stroke="midnightblue" d="M662.15,-458.06C567.48,-450.75 393.2,-434.7 335,-412 305.88,-400.64 277.26,-378.12 259.86,-362.81"/>
<polygon fill="midnightblue" stroke="midnightblue" points="262.04,-360.06 252.27,-355.96 257.35,-365.26 262.04,-360.06"/>
</g>
<!-- Node16 -->
<g id="node16" class="node">
<title>Node16</title>
<g id="a_node16"><a xlink:href="glass_8hpp.html" target="_top" xlink:title="A glass object that refracts/reflects using Snell&#39;s Law.">
<polygon fill="white" stroke="black" points="472.5,-392.5 472.5,-411.5 585.5,-411.5 585.5,-392.5 472.5,-392.5"/>
<text text-anchor="middle" x="529" y="-399.5" font-family="Helvetica,sans-Serif" font-size="10.00">materials/glass.hpp</text>
</a>
</g>
</g>
<!-- Node1&#45;&gt;Node16 -->
<g id="edge18" class="edge">
<title>Node1&#45;&gt;Node16</title>
<path fill="none" stroke="midnightblue" d="M678.55,-448.4C644.54,-438.07 598.94,-424.23 567.07,-414.56"/>
<polygon fill="midnightblue" stroke="midnightblue" points="567.82,-411.13 557.23,-411.57 565.79,-417.82 567.82,-411.13"/>
</g>
<!-- Node17 -->
<g id="node17" class="node">
<title>Node17</title>
<g id="a_node17"><a xlink:href="metal_8hpp.html" target="_top" xlink:title="Reflective surface, with additional fuzzy scattering.">
<polygon fill="white" stroke="black" points="604,-392.5 604,-411.5 720,-411.5 720,-392.5 604,-392.5"/>
<text text-anchor="middle" x="662" y="-399.5" font-family="Helvetica,sans-Serif" font-size="10.00">materials/metal.hpp</text>
</a>
</g>
</g>
<!-- Node1&#45;&gt;Node17 -->
<g id="edge20" class="edge">
<title>Node1&#45;&gt;Node17</title>
<path fill="none" stroke="midnightblue" d="M710.07,-448.4C700.63,-439.49 688.42,-427.95 678.67,-418.74"/>
<polygon fill="midnightblue" stroke="midnightblue" points="680.84,-415.98 671.17,-411.66 676.03,-421.07 680.84,-415.98"/>
</g>
<!-- Node18 -->
<g id="node18" class="node">
<title>Node18</title>
<g id="a_node18"><a xlink:href="bvh_8hpp.html" target="_top" xlink:title="Class for our Bounding Volume Hierarchy. Acts as both tree and root.">
<polygon fill="white" stroke="black" points="1163,-392.5 1163,-411.5 1257,-411.5 1257,-392.5 1163,-392.5"/>
<text text-anchor="middle" x="1210" y="-399.5" font-family="Helvetica,sans-Serif" font-size="10.00">objects/bvh.hpp</text>
</a>
</g>
</g>
<!-- Node1&#45;&gt;Node18 -->
<g id="edge22" class="edge">
<title>Node1&#45;&gt;Node18</title>
<path fill="none" stroke="midnightblue" d="M787.51,-455.27C869.43,-445.73 1017.55,-428.24 1144,-412 1146.85,-411.63 1149.77,-411.25 1152.71,-410.87"/>
<polygon fill="midnightblue" stroke="midnightblue" points="1153.33,-414.32 1162.78,-409.53 1152.41,-407.38 1153.33,-414.32"/>
</g>
<!-- Node22 -->
<g id="node22" class="node">
<title>Node22</title>
<g id="a_node22"><a xlink:href="cube_8hpp.html" target="_top" xlink:title="Cube object made of rectangles.">
<polygon fill="white" stroke="black" points="738.5,-392.5 738.5,-411.5 837.5,-411.5 837.5,-392.5 738.5,-392.5"/>
<text text-anchor="middle" x="788" y="-399.5" font-family="Helvetica,sans-Serif" font-size="10.00">objects/cube.hpp</text>
</a>
</g>
</g>
<!-- Node1&#45;&gt;Node22 -->
<g id="edge27" class="edge">
<title>Node1&#45;&gt;Node22</title>
<path fill="none" stroke="midnightblue" d="M739.93,-448.4C749.37,-439.49 761.58,-427.95 771.33,-418.74"/>
<polygon fill="midnightblue" stroke="midnightblue" points="773.97,-421.07 778.83,-411.66 769.16,-415.98 773.97,-421.07"/>
</g>
<!-- Node25 -->
<g id="node25" class="node">
<title>Node25</title>
<g id="a_node25"><a xlink:href="iso__fog_8hpp.html" target="_top" xlink:title="Isotropically scattering fog object.">
<polygon fill="white" stroke="black" points="343.5,-392.5 343.5,-411.5 454.5,-411.5 454.5,-392.5 343.5,-392.5"/>
<text text-anchor="middle" x="399" y="-399.5" font-family="Helvetica,sans-Serif" font-size="10.00">objects/iso_fog.hpp</text>
</a>
</g>
</g>
<!-- Node1&#45;&gt;Node25 -->
<g id="edge31" class="edge">
<title>Node1&#45;&gt;Node25</title>
<path fill="none" stroke="midnightblue" d="M662.14,-451.03C602.45,-440.13 513.5,-423.9 455.87,-413.38"/>
<polygon fill="midnightblue" stroke="midnightblue" points="456.3,-409.9 445.84,-411.55 455.05,-416.79 456.3,-409.9"/>
</g>
<!-- Node27 -->
<g id="node27" class="node">
<title>Node27</title>
<g id="a_node27"><a xlink:href="moving__sphere_8hpp.html" target="_top" xlink:title="Sphere object moving, for motion blur.">
<polygon fill="white" stroke="black" points="697.5,-336.5 697.5,-355.5 848.5,-355.5 848.5,-336.5 697.5,-336.5"/>
<text text-anchor="middle" x="773" y="-343.5" font-family="Helvetica,sans-Serif" font-size="10.00">objects/moving_sphere.hpp</text>
</a>
</g>
</g>
<!-- Node1&#45;&gt;Node27 -->
<g id="edge36" class="edge">
<title>Node1&#45;&gt;Node27</title>
<path fill="none" stroke="midnightblue" d="M787.66,-451.61C810.26,-444.33 833.5,-432.2 847,-412 861.56,-390.22 832.19,-371.23 806.26,-359.49"/>
<polygon fill="midnightblue" stroke="midnightblue" points="807.52,-356.22 796.95,-355.5 804.77,-362.66 807.52,-356.22"/>
</g>
<!-- Node28 -->
<g id="node28" class="node">
<title>Node28</title>
<g id="a_node28"><a xlink:href="sphere_8hpp.html" target="_top" xlink:title="Sphere object to be rendered.">
<polygon fill="white" stroke="black" points="866.5,-336.5 866.5,-355.5 975.5,-355.5 975.5,-336.5 866.5,-336.5"/>
<text text-anchor="middle" x="921" y="-343.5" font-family="Helvetica,sans-Serif" font-size="10.00">objects/sphere.hpp</text>
</a>
</g>
</g>
<!-- Node1&#45;&gt;Node28 -->
<g id="edge38" class="edge">
<title>Node1&#45;&gt;Node28</title>
<path fill="none" stroke="midnightblue" d="M781.23,-448.46C807.21,-440.35 837.62,-428.44 862,-412 881.25,-399.01 898.49,-378.46 909.29,-363.95"/>
<polygon fill="midnightblue" stroke="midnightblue" points="912.14,-365.97 915.14,-355.81 906.46,-361.88 912.14,-365.97"/>
</g>
<!-- Node29 -->
<g id="node29" class="node">
<title>Node29</title>
<g id="a_node29"><a xlink:href="translation_8hpp.html" target="_top" xlink:title="Class for translation of a hittable object.">
<polygon fill="white" stroke="black" points="994,-336.5 994,-355.5 1122,-355.5 1122,-336.5 994,-336.5"/>
<text text-anchor="middle" x="1058" y="-343.5" font-family="Helvetica,sans-Serif" font-size="10.00">objects/translation.hpp</text>
</a>
</g>
</g>
<!-- Node1&#45;&gt;Node29 -->
<g id="edge40" class="edge">
<title>Node1&#45;&gt;Node29</title>
<path fill="none" stroke="midnightblue" d="M772.74,-448.45C805.14,-438.72 848.85,-425.18 887,-412 936.59,-394.86 993.38,-372.78 1027.43,-359.27"/>
<polygon fill="midnightblue" stroke="midnightblue" points="1028.83,-362.48 1036.83,-355.53 1026.24,-355.97 1028.83,-362.48"/>
</g>
<!-- Node30 -->
<g id="node30" class="node">
<title>Node30</title>
<g id="a_node30"><a xlink:href="y__rotation_8hpp.html" target="_top" xlink:title="Class for rotation of object around the y axis.">
<polygon fill="white" stroke="black" points="1009.5,-392.5 1009.5,-411.5 1134.5,-411.5 1134.5,-392.5 1009.5,-392.5"/>
<text text-anchor="middle" x="1072" y="-399.5" font-family="Helvetica,sans-Serif" font-size="10.00">objects/y_rotation.hpp</text>
</a>
</g>
</g>
<!-- Node1&#45;&gt;Node30 -->
<g id="edge42" class="edge">
<title>Node1&#45;&gt;Node30</title>
<path fill="none" stroke="midnightblue" d="M787.84,-451.72C851.57,-440.8 949.5,-424 1012.14,-413.26"/>
<polygon fill="midnightblue" stroke="midnightblue" points="1013,-416.67 1022.26,-411.53 1011.82,-409.77 1013,-416.67"/>
</g>
<!-- Node31 -->
<g id="node31" class="node">
<title>Node31</title>
<g id="a_node31"><a xlink:href="checker_8hpp.html" target="_top" xlink:title="Two color checkered texture.">
<polygon fill="white" stroke="black" points="0,-280.5 0,-299.5 118,-299.5 118,-280.5 0,-280.5"/>
<text text-anchor="middle" x="59" y="-287.5" font-family="Helvetica,sans-Serif" font-size="10.00">textures/checker.hpp</text>
</a>
</g>
</g>
<!-- Node1&#45;&gt;Node31 -->
<g id="edge44" class="edge">
<title>Node1&#45;&gt;Node31</title>
<path fill="none" stroke="midnightblue" d="M662.44,-459.87C566.19,-455.03 376.35,-442.25 218,-412 129.01,-395 76.56,-428.33 22,-356 10.06,-340.17 25.53,-320.09 39.96,-306.47"/>
<polygon fill="midnightblue" stroke="midnightblue" points="42.52,-308.88 47.69,-299.64 37.88,-303.64 42.52,-308.88"/>
</g>
<!-- Node3 -->
<g id="node3" class="node">
<title>Node3</title>
<g id="a_node3"><a xlink:href="material_8hpp.html" target="_top" xlink:title="Base class for materials.">
<polygon fill="white" stroke="black" points="359.5,-280.5 359.5,-299.5 438.5,-299.5 438.5,-280.5 359.5,-280.5"/>
<text text-anchor="middle" x="399" y="-287.5" font-family="Helvetica,sans-Serif" font-size="10.00">material.hpp</text>
</a>
</g>
</g>
<!-- Node2&#45;&gt;Node3 -->
<g id="edge2" class="edge">
<title>Node2&#45;&gt;Node3</title>
<path fill="none" stroke="midnightblue" d="M139.8,-336.44C197.09,-326.4 291.58,-309.83 349.26,-299.72"/>
<polygon fill="midnightblue" stroke="midnightblue" points="349.99,-303.15 359.24,-297.97 348.79,-296.25 349.99,-303.15"/>
</g>
<!-- Node13 -->
<g id="node13" class="node">
<title>Node13</title>
<g id="a_node13"><a xlink:href="solid_8hpp.html" target="_top" xlink:title="Solid one color texture.">
<polygon fill="white" stroke="black" points="191,-280.5 191,-299.5 295,-299.5 295,-280.5 191,-280.5"/>
<text text-anchor="middle" x="243" y="-287.5" font-family="Helvetica,sans-Serif" font-size="10.00">textures/solid.hpp</text>
</a>
</g>
</g>
<!-- Node2&#45;&gt;Node13 -->
<g id="edge12" class="edge">
<title>Node2&#45;&gt;Node13</title>
<path fill="none" stroke="midnightblue" d="M115.08,-336.44C140.54,-327.4 180.89,-313.06 209.46,-302.92"/>
<polygon fill="midnightblue" stroke="midnightblue" points="210.78,-306.16 219.03,-299.52 208.43,-299.57 210.78,-306.16"/>
</g>
<!-- Node4 -->
<g id="node4" class="node">
<title>Node4</title>
<g id="a_node4"><a xlink:href="ray_8hpp.html" target="_top" xlink:title="The ray object for our tracing algorithm.">
<polygon fill="white" stroke="black" points="356,-168.5 356,-187.5 442,-187.5 442,-168.5 356,-168.5"/>
<text text-anchor="middle" x="399" y="-175.5" font-family="Helvetica,sans-Serif" font-size="10.00">render/ray.hpp</text>
</a>
</g>
</g>
<!-- Node3&#45;&gt;Node4 -->
<g id="edge3" class="edge">
<title>Node3&#45;&gt;Node4</title>
<path fill="none" stroke="midnightblue" d="M399,-280.37C399,-262.62 399,-221.67 399,-197.6"/>
<polygon fill="midnightblue" stroke="midnightblue" points="402.5,-197.59 399,-187.59 395.5,-197.59 402.5,-197.59"/>
</g>
<!-- Node5 -->
<g id="node5" class="node">
<title>Node5</title>
<g id="a_node5"><a xlink:href="vec3_8hpp.html" target="_top" xlink:title="Custom 3D vector class for points, colours and rays.">
<polygon fill="white" stroke="black" points="290.5,-112.5 290.5,-131.5 351.5,-131.5 351.5,-112.5 290.5,-112.5"/>
<text text-anchor="middle" x="321" y="-119.5" font-family="Helvetica,sans-Serif" font-size="10.00">vec3.hpp</text>
</a>
</g>
</g>
<!-- Node4&#45;&gt;Node5 -->
<g id="edge4" class="edge">
<title>Node4&#45;&gt;Node5</title>
<path fill="none" stroke="midnightblue" d="M386.47,-168.32C374.41,-159.98 355.97,-147.21 341.73,-137.35"/>
<polygon fill="midnightblue" stroke="midnightblue" points="343.72,-134.47 333.5,-131.65 339.73,-140.22 343.72,-134.47"/>
</g>
<!-- Node6 -->
<g id="node6" class="node">
<title>Node6</title>
<g id="a_node6"><a xlink:title=" ">
<polygon fill="white" stroke="#bfbfbf" points="249,-56.5 249,-75.5 309,-75.5 309,-56.5 249,-56.5"/>
<text text-anchor="middle" x="279" y="-63.5" font-family="Helvetica,sans-Serif" font-size="10.00">iostream</text>
</a>
</g>
</g>
<!-- Node5&#45;&gt;Node6 -->
<g id="edge5" class="edge">
<title>Node5&#45;&gt;Node6</title>
<path fill="none" stroke="midnightblue" d="M314.06,-112.08C308.07,-104.38 299.25,-93.03 291.95,-83.65"/>
<polygon fill="midnightblue" stroke="midnightblue" points="294.71,-81.5 285.81,-75.75 289.18,-85.79 294.71,-81.5"/>
</g>
<!-- Node7 -->
<g id="node7" class="node">
<title>Node7</title>
<g id="a_node7"><a xlink:href="utilities_8hpp.html" target="_top" xlink:title="All the random functionality I am too lazy to organize elsewhere.">
<polygon fill="white" stroke="black" points="327,-56.5 327,-75.5 401,-75.5 401,-56.5 327,-56.5"/>
<text text-anchor="middle" x="364" y="-63.5" font-family="Helvetica,sans-Serif" font-size="10.00">utilities.hpp</text>
</a>
</g>
</g>
<!-- Node5&#45;&gt;Node7 -->
<g id="edge6" class="edge">
<title>Node5&#45;&gt;Node7</title>
<path fill="none" stroke="midnightblue" d="M328.1,-112.08C334.24,-104.38 343.27,-93.03 350.74,-83.65"/>
<polygon fill="midnightblue" stroke="midnightblue" points="353.54,-85.75 357.03,-75.75 348.06,-81.39 353.54,-85.75"/>
</g>
<!-- Node8 -->
<g id="node8" class="node">
<title>Node8</title>
<g id="a_node8"><a xlink:title=" ">
<polygon fill="white" stroke="#bfbfbf" points="209.5,-0.5 209.5,-19.5 256.5,-19.5 256.5,-0.5 209.5,-0.5"/>
<text text-anchor="middle" x="233" y="-7.5" font-family="Helvetica,sans-Serif" font-size="10.00">cmath</text>
</a>
</g>
</g>
<!-- Node7&#45;&gt;Node8 -->
<g id="edge7" class="edge">
<title>Node7&#45;&gt;Node8</title>
<path fill="none" stroke="midnightblue" d="M343.24,-56.44C321.68,-47.56 287.74,-33.56 263.21,-23.45"/>
<polygon fill="midnightblue" stroke="midnightblue" points="264.24,-20.09 253.66,-19.52 261.57,-26.56 264.24,-20.09"/>
</g>
<!-- Node9 -->
<g id="node9" class="node">
<title>Node9</title>
<g id="a_node9"><a xlink:title=" ">
<polygon fill="white" stroke="#bfbfbf" points="274.5,-0.5 274.5,-19.5 323.5,-19.5 323.5,-0.5 274.5,-0.5"/>
<text text-anchor="middle" x="299" y="-7.5" font-family="Helvetica,sans-Serif" font-size="10.00">cstdlib</text>
</a>
</g>
</g>
<!-- Node7&#45;&gt;Node9 -->
<g id="edge8" class="edge">
<title>Node7&#45;&gt;Node9</title>
<path fill="none" stroke="midnightblue" d="M353.56,-56.32C343.85,-48.26 329.18,-36.08 317.5,-26.37"/>
<polygon fill="midnightblue" stroke="midnightblue" points="319.56,-23.53 309.63,-19.83 315.09,-28.92 319.56,-23.53"/>
</g>
<!-- Node10 -->
<g id="node10" class="node">
<title>Node10</title>
<g id="a_node10"><a xlink:title=" ">
<polygon fill="white" stroke="#bfbfbf" points="342,-0.5 342,-19.5 386,-19.5 386,-0.5 342,-0.5"/>
<text text-anchor="middle" x="364" y="-7.5" font-family="Helvetica,sans-Serif" font-size="10.00">limits</text>
</a>
</g>
</g>
<!-- Node7&#45;&gt;Node10 -->
<g id="edge9" class="edge">
<title>Node7&#45;&gt;Node10</title>
<path fill="none" stroke="midnightblue" d="M364,-56.08C364,-49.01 364,-38.86 364,-29.99"/>
<polygon fill="midnightblue" stroke="midnightblue" points="367.5,-29.75 364,-19.75 360.5,-29.75 367.5,-29.75"/>
</g>
<!-- Node11 -->
<g id="node11" class="node">
<title>Node11</title>
<g id="a_node11"><a xlink:title=" ">
<polygon fill="white" stroke="#bfbfbf" points="404,-0.5 404,-19.5 462,-19.5 462,-0.5 404,-0.5"/>
<text text-anchor="middle" x="433" y="-7.5" font-family="Helvetica,sans-Serif" font-size="10.00">memory</text>
</a>
</g>
</g>
<!-- Node7&#45;&gt;Node11 -->
<g id="edge10" class="edge">
<title>Node7&#45;&gt;Node11</title>
<path fill="none" stroke="midnightblue" d="M375.09,-56.32C385.49,-48.18 401.26,-35.84 413.72,-26.09"/>
<polygon fill="midnightblue" stroke="midnightblue" points="415.99,-28.75 421.71,-19.83 411.68,-23.24 415.99,-28.75"/>
</g>
<!-- Node12 -->
<g id="node12" class="node">
<title>Node12</title>
<g id="a_node12"><a xlink:title=" ">
<polygon fill="white" stroke="#bfbfbf" points="480.5,-0.5 480.5,-19.5 527.5,-19.5 527.5,-0.5 480.5,-0.5"/>
<text text-anchor="middle" x="504" y="-7.5" font-family="Helvetica,sans-Serif" font-size="10.00">vector</text>
</a>
</g>
</g>
<!-- Node7&#45;&gt;Node12 -->
<g id="edge11" class="edge">
<title>Node7&#45;&gt;Node12</title>
<path fill="none" stroke="midnightblue" d="M386.18,-56.44C409.43,-47.48 446.15,-33.31 472.42,-23.18"/>
<polygon fill="midnightblue" stroke="midnightblue" points="473.85,-26.38 481.92,-19.52 471.33,-19.85 473.85,-26.38"/>
</g>
<!-- Node14 -->
<g id="node14" class="node">
<title>Node14</title>
<g id="a_node14"><a xlink:href="texture_8hpp.html" target="_top" xlink:title="Bass class for textures.">
<polygon fill="white" stroke="black" points="206.5,-224.5 206.5,-243.5 279.5,-243.5 279.5,-224.5 206.5,-224.5"/>
<text text-anchor="middle" x="243" y="-231.5" font-family="Helvetica,sans-Serif" font-size="10.00">texture.hpp</text>
</a>
</g>
</g>
<!-- Node13&#45;&gt;Node14 -->
<g id="edge13" class="edge">
<title>Node13&#45;&gt;Node14</title>
<path fill="none" stroke="midnightblue" d="M243,-280.08C243,-273.01 243,-262.86 243,-253.99"/>
<polygon fill="midnightblue" stroke="midnightblue" points="246.5,-253.75 243,-243.75 239.5,-253.75 246.5,-253.75"/>
</g>
<!-- Node14&#45;&gt;Node5 -->
<g id="edge14" class="edge">
<title>Node14&#45;&gt;Node5</title>
<path fill="none" stroke="midnightblue" d="M249.12,-224.37C261.99,-206.22 292.07,-163.8 308.95,-139.99"/>
<polygon fill="midnightblue" stroke="midnightblue" points="311.98,-141.77 314.91,-131.59 306.27,-137.72 311.98,-141.77"/>
</g>
<!-- Node15&#45;&gt;Node3 -->
<g id="edge16" class="edge">
<title>Node15&#45;&gt;Node3</title>
<path fill="none" stroke="midnightblue" d="M267.72,-336.44C293.85,-327.4 335.26,-313.06 364.58,-302.92"/>
<polygon fill="midnightblue" stroke="midnightblue" points="366.09,-306.1 374.4,-299.52 363.8,-299.48 366.09,-306.1"/>
</g>
<!-- Node15&#45;&gt;Node13 -->
<g id="edge17" class="edge">
<title>Node15&#45;&gt;Node13</title>
<path fill="none" stroke="midnightblue" d="M243,-336.08C243,-329.01 243,-318.86 243,-309.99"/>
<polygon fill="midnightblue" stroke="midnightblue" points="246.5,-309.75 243,-299.75 239.5,-309.75 246.5,-309.75"/>
</g>
<!-- Node16&#45;&gt;Node3 -->
<g id="edge19" class="edge">
<title>Node16&#45;&gt;Node3</title>
<path fill="none" stroke="midnightblue" d="M522.85,-392.24C513.26,-378.99 493.68,-353.53 473,-336 458.51,-323.72 440.3,-312.6 425.57,-304.49"/>
<polygon fill="midnightblue" stroke="midnightblue" points="426.94,-301.25 416.47,-299.61 423.63,-307.42 426.94,-301.25"/>
</g>
<!-- Node17&#45;&gt;Node3 -->
<g id="edge21" class="edge">
<title>Node17&#45;&gt;Node3</title>
<path fill="none" stroke="midnightblue" d="M641.36,-392.37C595.08,-373.01 482.84,-326.06 428.9,-303.51"/>
<polygon fill="midnightblue" stroke="midnightblue" points="430.12,-300.22 419.54,-299.59 427.42,-306.68 430.12,-300.22"/>
</g>
<!-- Node19 -->
<g id="node19" class="node">
<title>Node19</title>
<g id="a_node19"><a xlink:title=" ">
<polygon fill="white" stroke="#bfbfbf" points="1178,-336.5 1178,-355.5 1242,-355.5 1242,-336.5 1178,-336.5"/>
<text text-anchor="middle" x="1210" y="-343.5" font-family="Helvetica,sans-Serif" font-size="10.00">algorithm</text>
</a>
</g>
</g>
<!-- Node18&#45;&gt;Node19 -->
<g id="edge23" class="edge">
<title>Node18&#45;&gt;Node19</title>
<path fill="none" stroke="midnightblue" d="M1210,-392.08C1210,-385.01 1210,-374.86 1210,-365.99"/>
<polygon fill="midnightblue" stroke="midnightblue" points="1213.5,-365.75 1210,-355.75 1206.5,-365.75 1213.5,-365.75"/>
</g>
<!-- Node20 -->
<g id="node20" class="node">
<title>Node20</title>
<g id="a_node20"><a xlink:href="bounding__box_8hpp.html" target="_top" xlink:title="Bounding box object, used to compute BVH tree.">
<polygon fill="white" stroke="black" points="794,-224.5 794,-243.5 900,-243.5 900,-224.5 794,-224.5"/>
<text text-anchor="middle" x="847" y="-231.5" font-family="Helvetica,sans-Serif" font-size="10.00">bounding_box.hpp</text>
</a>
</g>
</g>
<!-- Node18&#45;&gt;Node20 -->
<g id="edge24" class="edge">
<title>Node18&#45;&gt;Node20</title>
<path fill="none" stroke="midnightblue" d="M1222.32,-392.43C1239.21,-379.65 1265.86,-355.03 1251,-336 1209.39,-282.71 1012.96,-253.38 910.12,-241.44"/>
<polygon fill="midnightblue" stroke="midnightblue" points="910.5,-237.96 900.17,-240.31 909.71,-244.92 910.5,-237.96"/>
</g>
<!-- Node20&#45;&gt;Node4 -->
<g id="edge26" class="edge">
<title>Node20&#45;&gt;Node4</title>
<path fill="none" stroke="midnightblue" d="M793.85,-226.59C707.65,-216.2 538.37,-195.8 452.16,-185.41"/>
<polygon fill="midnightblue" stroke="midnightblue" points="452.42,-181.91 442.07,-184.19 451.58,-188.86 452.42,-181.91"/>
</g>
<!-- Node21 -->
<g id="node21" class="node">
<title>Node21</title>
<g id="a_node21"><a xlink:title=" ">
<polygon fill="white" stroke="#bfbfbf" points="824.5,-168.5 824.5,-187.5 869.5,-187.5 869.5,-168.5 824.5,-168.5"/>
<text text-anchor="middle" x="847" y="-175.5" font-family="Helvetica,sans-Serif" font-size="10.00">utility</text>
</a>
</g>
</g>
<!-- Node20&#45;&gt;Node21 -->
<g id="edge25" class="edge">
<title>Node20&#45;&gt;Node21</title>
<path fill="none" stroke="midnightblue" d="M847,-224.08C847,-217.01 847,-206.86 847,-197.99"/>
<polygon fill="midnightblue" stroke="midnightblue" points="850.5,-197.75 847,-187.75 843.5,-197.75 850.5,-197.75"/>
</g>
<!-- Node23 -->
<g id="node23" class="node">
<title>Node23</title>
<g id="a_node23"><a xlink:href="rectangle_8hpp.html" target="_top" xlink:title="Rectangular plane object to be rendered.">
<polygon fill="white" stroke="black" points="596.5,-336.5 596.5,-355.5 679.5,-355.5 679.5,-336.5 596.5,-336.5"/>
<text text-anchor="middle" x="638" y="-343.5" font-family="Helvetica,sans-Serif" font-size="10.00">rectangle.hpp</text>
</a>
</g>
</g>
<!-- Node22&#45;&gt;Node23 -->
<g id="edge28" class="edge">
<title>Node22&#45;&gt;Node23</title>
<path fill="none" stroke="midnightblue" d="M764.23,-392.44C739.11,-383.4 699.29,-369.06 671.1,-358.92"/>
<polygon fill="midnightblue" stroke="midnightblue" points="672.25,-355.61 661.66,-355.52 669.88,-362.2 672.25,-355.61"/>
</g>
<!-- Node24 -->
<g id="node24" class="node">
<title>Node24</title>
<g id="a_node24"><a xlink:href="hit_8hpp.html" target="_top" xlink:title="Abstract object that can be hit by a ray.">
<polygon fill="white" stroke="black" points="822,-280.5 822,-299.5 872,-299.5 872,-280.5 822,-280.5"/>
<text text-anchor="middle" x="847" y="-287.5" font-family="Helvetica,sans-Serif" font-size="10.00">hit.hpp</text>
</a>
</g>
</g>
<!-- Node23&#45;&gt;Node24 -->
<g id="edge29" class="edge">
<title>Node23&#45;&gt;Node24</title>
<path fill="none" stroke="midnightblue" d="M671.12,-336.44C709.58,-326.51 772.75,-310.18 812,-300.04"/>
<polygon fill="midnightblue" stroke="midnightblue" points="813.1,-303.37 821.91,-297.48 811.35,-296.6 813.1,-303.37"/>
</g>
<!-- Node24&#45;&gt;Node20 -->
<g id="edge30" class="edge">
<title>Node24&#45;&gt;Node20</title>
<path fill="none" stroke="midnightblue" d="M847,-280.08C847,-273.01 847,-262.86 847,-253.99"/>
<polygon fill="midnightblue" stroke="midnightblue" points="850.5,-253.75 847,-243.75 843.5,-253.75 850.5,-253.75"/>
</g>
<!-- Node25&#45;&gt;Node24 -->
<g id="edge32" class="edge">
<title>Node25&#45;&gt;Node24</title>
<path fill="none" stroke="midnightblue" d="M420.2,-392.46C454.81,-378.81 525.83,-351.98 588,-336 666.82,-315.74 761.5,-301.87 811.7,-295.32"/>
<polygon fill="midnightblue" stroke="midnightblue" points="812.24,-298.78 821.72,-294.03 811.35,-291.83 812.24,-298.78"/>
</g>
<!-- Node26 -->
<g id="node26" class="node">
<title>Node26</title>
<g id="a_node26"><a xlink:href="isotropic_8hpp.html" target="_top" xlink:title="Isotropic fog material.">
<polygon fill="white" stroke="black" points="334.5,-336.5 334.5,-355.5 463.5,-355.5 463.5,-336.5 334.5,-336.5"/>
<text text-anchor="middle" x="399" y="-343.5" font-family="Helvetica,sans-Serif" font-size="10.00">materials/isotropic.hpp</text>
</a>
</g>
</g>
<!-- Node25&#45;&gt;Node26 -->
<g id="edge33" class="edge">
<title>Node25&#45;&gt;Node26</title>
<path fill="none" stroke="midnightblue" d="M399,-392.08C399,-385.01 399,-374.86 399,-365.99"/>
<polygon fill="midnightblue" stroke="midnightblue" points="402.5,-365.75 399,-355.75 395.5,-365.75 402.5,-365.75"/>
</g>
<!-- Node26&#45;&gt;Node3 -->
<g id="edge34" class="edge">
<title>Node26&#45;&gt;Node3</title>
<path fill="none" stroke="midnightblue" d="M399,-336.08C399,-329.01 399,-318.86 399,-309.99"/>
<polygon fill="midnightblue" stroke="midnightblue" points="402.5,-309.75 399,-299.75 395.5,-309.75 402.5,-309.75"/>
</g>
<!-- Node26&#45;&gt;Node13 -->
<g id="edge35" class="edge">
<title>Node26&#45;&gt;Node13</title>
<path fill="none" stroke="midnightblue" d="M374.28,-336.44C348.15,-327.4 306.74,-313.06 277.42,-302.92"/>
<polygon fill="midnightblue" stroke="midnightblue" points="278.2,-299.48 267.6,-299.52 275.91,-306.1 278.2,-299.48"/>
</g>
<!-- Node27&#45;&gt;Node24 -->
<g id="edge37" class="edge">
<title>Node27&#45;&gt;Node24</title>
<path fill="none" stroke="midnightblue" d="M784.89,-336.32C796.15,-328.11 813.29,-315.6 826.71,-305.81"/>
<polygon fill="midnightblue" stroke="midnightblue" points="828.88,-308.56 834.89,-299.83 824.75,-302.9 828.88,-308.56"/>
</g>
<!-- Node28&#45;&gt;Node24 -->
<g id="edge39" class="edge">
<title>Node28&#45;&gt;Node24</title>
<path fill="none" stroke="midnightblue" d="M909.11,-336.32C897.85,-328.11 880.71,-315.6 867.29,-305.81"/>
<polygon fill="midnightblue" stroke="midnightblue" points="869.25,-302.9 859.11,-299.83 865.12,-308.56 869.25,-302.9"/>
</g>
<!-- Node29&#45;&gt;Node24 -->
<g id="edge41" class="edge">
<title>Node29&#45;&gt;Node24</title>
<path fill="none" stroke="midnightblue" d="M1024.57,-336.44C985.55,-326.46 921.34,-310.03 881.76,-299.9"/>
<polygon fill="midnightblue" stroke="midnightblue" points="882.57,-296.49 872.02,-297.4 880.84,-303.27 882.57,-296.49"/>
</g>
<!-- Node30&#45;&gt;Node24 -->
<g id="edge43" class="edge">
<title>Node30&#45;&gt;Node24</title>
<path fill="none" stroke="midnightblue" d="M1090,-392.32C1113.21,-380 1148.62,-356.63 1131,-336 1099.46,-299.07 951.78,-292.28 882.74,-291.15"/>
<polygon fill="midnightblue" stroke="midnightblue" points="882.41,-287.65 872.37,-291.01 882.32,-294.64 882.41,-287.65"/>
</g>
<!-- Node31&#45;&gt;Node14 -->
<g id="edge45" class="edge">
<title>Node31&#45;&gt;Node14</title>
<path fill="none" stroke="midnightblue" d="M88.16,-280.44C119.51,-271.24 169.53,-256.56 204.2,-246.39"/>
<polygon fill="midnightblue" stroke="midnightblue" points="205.37,-249.69 213.98,-243.52 203.4,-242.97 205.37,-249.69"/>
</g>
</g>
</svg>
        <g id="navigator" transform="translate(0 0)" fill="#404254">
                <rect fill="#f2f5e9" fill-opacity="0.5" stroke="#606060" stroke-width=".5" x="0" y="0" width="60" height="60"/>
                <use id="zoomplus" xlink:href="#zoomPlus" x="17" y="9" onmousedown="handleZoom(evt,'in')"/>
                <use id="zoomminus" xlink:href="#zoomMin" x="42" y="9" onmousedown="handleZoom(evt,'out')"/>
                <use id="reset" xlink:href="#resetDef" x="30" y="36" onmousedown="handleReset()"/>
                <g id="arrowUp" xlink:href="#dirArrow" transform="translate(30 24)" onmousedown="handlePan(0,-1)">
                  <use xlink:href="#rim" fill="#404040">
                        <set attributeName="fill" to="#808080" begin="arrowUp.mouseover" end="arrowUp.mouseout"/>
                  </use>
                  <path fill="none" stroke="white" stroke-width="1.5" d="M0,-3.0v7 M-2.5,-0.5L0,-3.0L2.5,-0.5"/>
                </g>
                <g id="arrowRight" xlink:href="#dirArrow" transform="rotate(90) translate(36 -43)" onmousedown="handlePan(1,0)">
                  <use xlink:href="#rim" fill="#404040">
                        <set attributeName="fill" to="#808080" begin="arrowRight.mouseover" end="arrowRight.mouseout"/>
                  </use>
                  <path fill="none" stroke="white" stroke-width="1.5" d="M0,-3.0v7 M-2.5,-0.5L0,-3.0L2.5,-0.5"/>
                </g>
                <g id="arrowDown" xlink:href="#dirArrow" transform="rotate(180) translate(-30 -48)" onmousedown="handlePan(0,1)">
                  <use xlink:href="#rim" fill="#404040">
                        <set attributeName="fill" to="#808080" begin="arrowDown.mouseover" end="arrowDown.mouseout"/>
                  </use>
                  <path fill="none" stroke="white" stroke-width="1.5" d="M0,-3.0v7 M-2.5,-0.5L0,-3.0L2.5,-0.5"/>
                </g>
                <g id="arrowLeft" xlink:href="#dirArrow" transform="rotate(270) translate(-36 17)" onmousedown="handlePan(-1,0)">
                  <use xlink:href="#rim" fill="#404040">
                        <set attributeName="fill" to="#808080" begin="arrowLeft.mouseover" end="arrowLeft.mouseout"/>
                  </use>
                  <path fill="none" stroke="white" stroke-width="1.5" d="M0,-3.0v7 M-2.5,-0.5L0,-3.0L2.5,-0.5"/>
                </g>
        </g>
        <svg viewBox="0 0 15 15" width="100%" height="30px" preserveAspectRatio="xMaxYMin meet">
         <g id="arrow_out" transform="scale(0.3 0.3)">
          <a xlink:href="cornell__box_8hpp__incl_org.svg" target="_base">
           <rect id="button" ry="5" rx="5" y="6" x="6" height="38" width="38"
                fill="#f2f5e9" fill-opacity="0.5" stroke="#606060" stroke-width="1.0"/>
           <path id="arrow"
             d="M 11.500037,31.436501 C 11.940474,20.09759 22.043105,11.32322 32.158766,21.979434 L 37.068811,17.246167 C 37.068811,17.246167 37.088388,32 37.088388,32 L 22.160133,31.978069 C 22.160133,31.978069 26.997745,27.140456 26.997745,27.140456 C 18.528582,18.264221 13.291696,25.230495 11.500037,31.436501 z"
             style="fill:#404040;"/>
          </a>
         </g>
        </svg>
</svg>
