<?xml version="1.0" encoding="UTF-8" standalone="no"?>
<!DOCTYPE svg PUBLIC "-//W3C//DTD SVG 1.1//EN"
 "http://www.w3.org/Graphics/SVG/1.1/DTD/svg11.dtd">
<!-- Generated by graphviz version 2.43.0 (0)
 -->
<!-- Title: include/objects/cube.hpp Pages: 1 -->
<svg width="505pt" height="420pt"
 viewBox="0.00 0.00 505.21 420.00" xmlns="http://www.w3.org/2000/svg" xmlns:xlink="http://www.w3.org/1999/xlink">
<g id="graph0" class="graph" transform="scale(1 1) rotate(0) translate(4 416)">
<title>include/objects/cube.hpp</title>
<polygon fill="white" stroke="transparent" points="-4,4 -4,-416 501.21,-416 501.21,4 -4,4"/>
<!-- Node1 -->
<g id="node1" class="node">
<title>Node1</title>
<g id="a_node1"><a xlink:title="Cube object made of rectangles.">
<polygon fill="#bfbfbf" stroke="black" points="109.21,-392.5 109.21,-411.5 246.21,-411.5 246.21,-392.5 109.21,-392.5"/>
<text text-anchor="middle" x="177.71" y="-399.5" font-family="Helvetica,sans-Serif" font-size="10.00">include/objects/cube.hpp</text>
</a>
</g>
</g>
<!-- Node2 -->
<g id="node2" class="node">
<title>Node2</title>
<g id="a_node2"><a xlink:href="vec3_8hpp_source.html" target="_top" xlink:title=" ">
<polygon fill="white" stroke="black" points="181.21,-112.5 181.21,-131.5 242.21,-131.5 242.21,-112.5 181.21,-112.5"/>
<text text-anchor="middle" x="211.71" y="-119.5" font-family="Helvetica,sans-Serif" font-size="10.00">vec3.hpp</text>
</a>
</g>
</g>
<!-- Node1&#45;&gt;Node2 -->
<g id="edge1" class="edge">
<title>Node1&#45;&gt;Node2</title>
<path fill="none" stroke="midnightblue" d="M129.35,-392.49C76.94,-380.16 0.71,-351.78 0.71,-291 0.71,-291 0.71,-291 0.71,-233 0.71,-202.9 -2.14,-188.7 19.71,-168 41.18,-147.67 121.07,-134.29 170.79,-127.73"/>
<polygon fill="midnightblue" stroke="midnightblue" points="171.43,-131.18 180.9,-126.44 170.54,-124.24 171.43,-131.18"/>
</g>
<!-- Node10 -->
<g id="node10" class="node">
<title>Node10</title>
<g id="a_node10"><a xlink:href="bounding__box_8hpp.html" target="_top" xlink:title="Bounding box object, used to compute BVH tree.">
<polygon fill="white" stroke="black" points="82.71,-224.5 82.71,-243.5 188.71,-243.5 188.71,-224.5 82.71,-224.5"/>
<text text-anchor="middle" x="135.71" y="-231.5" font-family="Helvetica,sans-Serif" font-size="10.00">bounding_box.hpp</text>
</a>
</g>
</g>
<!-- Node1&#45;&gt;Node10 -->
<g id="edge10" class="edge">
<title>Node1&#45;&gt;Node10</title>
<path fill="none" stroke="midnightblue" d="M175.45,-392.08C168.84,-365.95 149.43,-289.21 140.41,-253.58"/>
<polygon fill="midnightblue" stroke="midnightblue" points="143.73,-252.4 137.88,-243.57 136.94,-254.12 143.73,-252.4"/>
</g>
<!-- Node13 -->
<g id="node13" class="node">
<title>Node13</title>
<g id="a_node13"><a xlink:href="hit__list_8hpp.html" target="_top" xlink:title="List of hittable objects.">
<polygon fill="white" stroke="black" points="333.21,-336.5 333.21,-355.5 404.21,-355.5 404.21,-336.5 333.21,-336.5"/>
<text text-anchor="middle" x="368.71" y="-343.5" font-family="Helvetica,sans-Serif" font-size="10.00">hit_list.hpp</text>
</a>
</g>
</g>
<!-- Node1&#45;&gt;Node13 -->
<g id="edge16" class="edge">
<title>Node1&#45;&gt;Node13</title>
<path fill="none" stroke="midnightblue" d="M207.98,-392.44C240.67,-383.2 292.89,-368.44 328.9,-358.26"/>
<polygon fill="midnightblue" stroke="midnightblue" points="329.92,-361.61 338.59,-355.52 328.01,-354.87 329.92,-361.61"/>
</g>
<!-- Node15 -->
<g id="node15" class="node">
<title>Node15</title>
<g id="a_node15"><a xlink:href="rectangle_8hpp_source.html" target="_top" xlink:title=" ">
<polygon fill="white" stroke="black" points="175.21,-336.5 175.21,-355.5 258.21,-355.5 258.21,-336.5 175.21,-336.5"/>
<text text-anchor="middle" x="216.71" y="-343.5" font-family="Helvetica,sans-Serif" font-size="10.00">rectangle.hpp</text>
</a>
</g>
</g>
<!-- Node1&#45;&gt;Node15 -->
<g id="edge24" class="edge">
<title>Node1&#45;&gt;Node15</title>
<path fill="none" stroke="midnightblue" d="M184.15,-392.08C189.66,-384.46 197.74,-373.26 204.48,-363.94"/>
<polygon fill="midnightblue" stroke="midnightblue" points="207.37,-365.91 210.39,-355.75 201.7,-361.81 207.37,-365.91"/>
</g>
<!-- Node3 -->
<g id="node3" class="node">
<title>Node3</title>
<g id="a_node3"><a xlink:title=" ">
<polygon fill="white" stroke="#bfbfbf" points="178.21,-0.5 178.21,-19.5 225.21,-19.5 225.21,-0.5 178.21,-0.5"/>
<text text-anchor="middle" x="201.71" y="-7.5" font-family="Helvetica,sans-Serif" font-size="10.00">cmath</text>
</a>
</g>
</g>
<!-- Node2&#45;&gt;Node3 -->
<g id="edge2" class="edge">
<title>Node2&#45;&gt;Node3</title>
<path fill="none" stroke="midnightblue" d="M210.93,-112.37C209.31,-94.62 205.59,-53.67 203.4,-29.6"/>
<polygon fill="midnightblue" stroke="midnightblue" points="206.88,-29.23 202.49,-19.59 199.91,-29.87 206.88,-29.23"/>
</g>
<!-- Node4 -->
<g id="node4" class="node">
<title>Node4</title>
<g id="a_node4"><a xlink:title=" ">
<polygon fill="white" stroke="#bfbfbf" points="130.71,-56.5 130.71,-75.5 190.71,-75.5 190.71,-56.5 130.71,-56.5"/>
<text text-anchor="middle" x="160.71" y="-63.5" font-family="Helvetica,sans-Serif" font-size="10.00">iostream</text>
</a>
</g>
</g>
<!-- Node2&#45;&gt;Node4 -->
<g id="edge3" class="edge">
<title>Node2&#45;&gt;Node4</title>
<path fill="none" stroke="midnightblue" d="M203.29,-112.08C195.86,-104.22 184.86,-92.57 175.9,-83.08"/>
<polygon fill="midnightblue" stroke="midnightblue" points="178.39,-80.62 168.98,-75.75 173.3,-85.42 178.39,-80.62"/>
</g>
<!-- Node5 -->
<g id="node5" class="node">
<title>Node5</title>
<g id="a_node5"><a xlink:href="utilities_8hpp_source.html" target="_top" xlink:title=" ">
<polygon fill="white" stroke="black" points="293.71,-56.5 293.71,-75.5 367.71,-75.5 367.71,-56.5 293.71,-56.5"/>
<text text-anchor="middle" x="330.71" y="-63.5" font-family="Helvetica,sans-Serif" font-size="10.00">utilities.hpp</text>
</a>
</g>
</g>
<!-- Node2&#45;&gt;Node5 -->
<g id="edge4" class="edge">
<title>Node2&#45;&gt;Node5</title>
<path fill="none" stroke="midnightblue" d="M230.57,-112.44C249.98,-103.64 280.44,-89.81 302.68,-79.72"/>
<polygon fill="midnightblue" stroke="midnightblue" points="304.29,-82.84 311.95,-75.52 301.39,-76.46 304.29,-82.84"/>
</g>
<!-- Node5&#45;&gt;Node3 -->
<g id="edge5" class="edge">
<title>Node5&#45;&gt;Node3</title>
<path fill="none" stroke="midnightblue" d="M310.27,-56.44C289.04,-47.56 255.61,-33.56 231.46,-23.45"/>
<polygon fill="midnightblue" stroke="midnightblue" points="232.63,-20.15 222.06,-19.52 229.93,-26.61 232.63,-20.15"/>
</g>
<!-- Node6 -->
<g id="node6" class="node">
<title>Node6</title>
<g id="a_node6"><a xlink:title=" ">
<polygon fill="white" stroke="#bfbfbf" points="306.21,-0.5 306.21,-19.5 355.21,-19.5 355.21,-0.5 306.21,-0.5"/>
<text text-anchor="middle" x="330.71" y="-7.5" font-family="Helvetica,sans-Serif" font-size="10.00">cstdlib</text>
</a>
</g>
</g>
<!-- Node5&#45;&gt;Node6 -->
<g id="edge6" class="edge">
<title>Node5&#45;&gt;Node6</title>
<path fill="none" stroke="midnightblue" d="M330.71,-56.08C330.71,-49.01 330.71,-38.86 330.71,-29.99"/>
<polygon fill="midnightblue" stroke="midnightblue" points="334.21,-29.75 330.71,-19.75 327.21,-29.75 334.21,-29.75"/>
</g>
<!-- Node7 -->
<g id="node7" class="node">
<title>Node7</title>
<g id="a_node7"><a xlink:title=" ">
<polygon fill="white" stroke="#bfbfbf" points="243.71,-0.5 243.71,-19.5 287.71,-19.5 287.71,-0.5 243.71,-0.5"/>
<text text-anchor="middle" x="265.71" y="-7.5" font-family="Helvetica,sans-Serif" font-size="10.00">limits</text>
</a>
</g>
</g>
<!-- Node5&#45;&gt;Node7 -->
<g id="edge7" class="edge">
<title>Node5&#45;&gt;Node7</title>
<path fill="none" stroke="midnightblue" d="M320.27,-56.32C310.57,-48.26 295.9,-36.08 284.21,-26.37"/>
<polygon fill="midnightblue" stroke="midnightblue" points="286.27,-23.53 276.35,-19.83 281.8,-28.92 286.27,-23.53"/>
</g>
<!-- Node8 -->
<g id="node8" class="node">
<title>Node8</title>
<g id="a_node8"><a xlink:title=" ">
<polygon fill="white" stroke="#bfbfbf" points="373.71,-0.5 373.71,-19.5 431.71,-19.5 431.71,-0.5 373.71,-0.5"/>
<text text-anchor="middle" x="402.71" y="-7.5" font-family="Helvetica,sans-Serif" font-size="10.00">memory</text>
</a>
</g>
</g>
<!-- Node5&#45;&gt;Node8 -->
<g id="edge8" class="edge">
<title>Node5&#45;&gt;Node8</title>
<path fill="none" stroke="midnightblue" d="M342.28,-56.32C353.13,-48.18 369.59,-35.84 382.6,-26.09"/>
<polygon fill="midnightblue" stroke="midnightblue" points="385.03,-28.63 390.93,-19.83 380.83,-23.03 385.03,-28.63"/>
</g>
<!-- Node9 -->
<g id="node9" class="node">
<title>Node9</title>
<g id="a_node9"><a xlink:title=" ">
<polygon fill="white" stroke="#bfbfbf" points="450.21,-0.5 450.21,-19.5 497.21,-19.5 497.21,-0.5 450.21,-0.5"/>
<text text-anchor="middle" x="473.71" y="-7.5" font-family="Helvetica,sans-Serif" font-size="10.00">vector</text>
</a>
</g>
</g>
<!-- Node5&#45;&gt;Node9 -->
<g id="edge9" class="edge">
<title>Node5&#45;&gt;Node9</title>
<path fill="none" stroke="midnightblue" d="M353.37,-56.44C377.11,-47.48 414.62,-33.31 441.45,-23.18"/>
<polygon fill="midnightblue" stroke="midnightblue" points="443.04,-26.32 451.16,-19.52 440.57,-19.77 443.04,-26.32"/>
</g>
<!-- Node10&#45;&gt;Node2 -->
<g id="edge15" class="edge">
<title>Node10&#45;&gt;Node2</title>
<path fill="none" stroke="midnightblue" d="M137.45,-224.36C140.38,-211.26 147.25,-186 159.71,-168 167.89,-156.19 179.87,-145.54 190.26,-137.57"/>
<polygon fill="midnightblue" stroke="midnightblue" points="192.51,-140.27 198.51,-131.54 188.37,-134.62 192.51,-140.27"/>
</g>
<!-- Node10&#45;&gt;Node3 -->
<g id="edge11" class="edge">
<title>Node10&#45;&gt;Node3</title>
<path fill="none" stroke="midnightblue" d="M131.85,-224.49C120.27,-197.57 88.57,-112.68 121.71,-56 131.8,-38.75 151.2,-27.6 168.37,-20.72"/>
<polygon fill="midnightblue" stroke="midnightblue" points="169.94,-23.87 178.13,-17.14 167.54,-17.3 169.94,-23.87"/>
</g>
<!-- Node11 -->
<g id="node11" class="node">
<title>Node11</title>
<g id="a_node11"><a xlink:title=" ">
<polygon fill="white" stroke="#bfbfbf" points="29.21,-168.5 29.21,-187.5 74.21,-187.5 74.21,-168.5 29.21,-168.5"/>
<text text-anchor="middle" x="51.71" y="-175.5" font-family="Helvetica,sans-Serif" font-size="10.00">utility</text>
</a>
</g>
</g>
<!-- Node10&#45;&gt;Node11 -->
<g id="edge12" class="edge">
<title>Node10&#45;&gt;Node11</title>
<path fill="none" stroke="midnightblue" d="M122.22,-224.32C109.11,-215.9 89,-202.97 73.61,-193.07"/>
<polygon fill="midnightblue" stroke="midnightblue" points="75.48,-190.12 65.18,-187.65 71.69,-196.01 75.48,-190.12"/>
</g>
<!-- Node12 -->
<g id="node12" class="node">
<title>Node12</title>
<g id="a_node12"><a xlink:href="ray_8hpp.html" target="_top" xlink:title="The ray object for our tracing algorithm.">
<polygon fill="white" stroke="black" points="168.71,-168.5 168.71,-187.5 254.71,-187.5 254.71,-168.5 168.71,-168.5"/>
<text text-anchor="middle" x="211.71" y="-175.5" font-family="Helvetica,sans-Serif" font-size="10.00">render/ray.hpp</text>
</a>
</g>
</g>
<!-- Node10&#45;&gt;Node12 -->
<g id="edge13" class="edge">
<title>Node10&#45;&gt;Node12</title>
<path fill="none" stroke="midnightblue" d="M147.92,-224.32C159.49,-216.11 177.09,-203.6 190.87,-193.81"/>
<polygon fill="midnightblue" stroke="midnightblue" points="193.16,-196.48 199.28,-187.83 189.1,-190.77 193.16,-196.48"/>
</g>
<!-- Node12&#45;&gt;Node2 -->
<g id="edge14" class="edge">
<title>Node12&#45;&gt;Node2</title>
<path fill="none" stroke="midnightblue" d="M211.71,-168.08C211.71,-161.01 211.71,-150.86 211.71,-141.99"/>
<polygon fill="midnightblue" stroke="midnightblue" points="215.21,-141.75 211.71,-131.75 208.21,-141.75 215.21,-141.75"/>
</g>
<!-- Node13&#45;&gt;Node5 -->
<g id="edge23" class="edge">
<title>Node13&#45;&gt;Node5</title>
<path fill="none" stroke="midnightblue" d="M368.71,-336.44C368.71,-317.94 368.71,-272.81 368.71,-235 368.71,-235 368.71,-235 368.71,-177 368.71,-142.81 352.11,-105.76 340.86,-84.57"/>
<polygon fill="midnightblue" stroke="midnightblue" points="343.89,-82.83 336,-75.77 337.77,-86.22 343.89,-82.83"/>
</g>
<!-- Node13&#45;&gt;Node8 -->
<g id="edge17" class="edge">
<title>Node13&#45;&gt;Node8</title>
<path fill="none" stroke="midnightblue" d="M374,-336.23C384.44,-318.04 406.71,-274.6 406.71,-235 406.71,-235 406.71,-235 406.71,-121 406.71,-88.93 404.99,-51.63 403.81,-29.74"/>
<polygon fill="midnightblue" stroke="midnightblue" points="407.29,-29.34 403.24,-19.55 400.3,-29.73 407.29,-29.34"/>
</g>
<!-- Node13&#45;&gt;Node9 -->
<g id="edge18" class="edge">
<title>Node13&#45;&gt;Node9</title>
<path fill="none" stroke="midnightblue" d="M383.17,-336.44C408.61,-320.16 458.71,-282.13 458.71,-235 458.71,-235 458.71,-235 458.71,-121 458.71,-88.5 465.22,-51.1 469.66,-29.34"/>
<polygon fill="midnightblue" stroke="midnightblue" points="473.1,-30.01 471.75,-19.5 466.25,-28.56 473.1,-30.01"/>
</g>
<!-- Node14 -->
<g id="node14" class="node">
<title>Node14</title>
<g id="a_node14"><a xlink:href="hit_8hpp.html" target="_top" xlink:title="Abstract object that can be hit by a ray.">
<polygon fill="white" stroke="black" points="282.71,-280.5 282.71,-299.5 332.71,-299.5 332.71,-280.5 282.71,-280.5"/>
<text text-anchor="middle" x="307.71" y="-287.5" font-family="Helvetica,sans-Serif" font-size="10.00">hit.hpp</text>
</a>
</g>
</g>
<!-- Node13&#45;&gt;Node14 -->
<g id="edge19" class="edge">
<title>Node13&#45;&gt;Node14</title>
<path fill="none" stroke="midnightblue" d="M358.91,-336.32C349.89,-328.34 336.31,-316.31 325.39,-306.65"/>
<polygon fill="midnightblue" stroke="midnightblue" points="327.5,-303.84 317.69,-299.83 322.86,-309.08 327.5,-303.84"/>
</g>
<!-- Node14&#45;&gt;Node5 -->
<g id="edge22" class="edge">
<title>Node14&#45;&gt;Node5</title>
<path fill="none" stroke="midnightblue" d="M308.61,-280.3C312,-247.63 323.99,-131.87 328.75,-85.96"/>
<polygon fill="midnightblue" stroke="midnightblue" points="332.24,-86.19 329.79,-75.88 325.28,-85.47 332.24,-86.19"/>
</g>
<!-- Node14&#45;&gt;Node10 -->
<g id="edge20" class="edge">
<title>Node14&#45;&gt;Node10</title>
<path fill="none" stroke="midnightblue" d="M282.7,-281.15C253.83,-272.08 206.05,-257.08 172.83,-246.65"/>
<polygon fill="midnightblue" stroke="midnightblue" points="173.62,-243.23 163.03,-243.58 171.52,-249.91 173.62,-243.23"/>
</g>
<!-- Node14&#45;&gt;Node12 -->
<g id="edge21" class="edge">
<title>Node14&#45;&gt;Node12</title>
<path fill="none" stroke="midnightblue" d="M300.18,-280.37C284.2,-262.05 246.66,-219.05 225.99,-195.36"/>
<polygon fill="midnightblue" stroke="midnightblue" points="228.42,-192.82 219.21,-187.59 223.15,-197.43 228.42,-192.82"/>
</g>
<!-- Node15&#45;&gt;Node2 -->
<g id="edge28" class="edge">
<title>Node15&#45;&gt;Node2</title>
<path fill="none" stroke="midnightblue" d="M223.14,-336.17C241.59,-309.69 291.6,-229.01 263.71,-168 257.94,-155.36 246.66,-144.91 236.08,-137.27"/>
<polygon fill="midnightblue" stroke="midnightblue" points="237.75,-134.18 227.5,-131.53 233.86,-140 237.75,-134.18"/>
</g>
<!-- Node15&#45;&gt;Node10 -->
<g id="edge25" class="edge">
<title>Node15&#45;&gt;Node10</title>
<path fill="none" stroke="midnightblue" d="M210.36,-336.37C196.93,-318.14 165.48,-275.43 147.99,-251.68"/>
<polygon fill="midnightblue" stroke="midnightblue" points="150.79,-249.57 142.04,-243.59 145.15,-253.72 150.79,-249.57"/>
</g>
<!-- Node15&#45;&gt;Node12 -->
<g id="edge27" class="edge">
<title>Node15&#45;&gt;Node12</title>
<path fill="none" stroke="midnightblue" d="M216.44,-336.08C215.66,-309.95 213.35,-233.21 212.27,-197.58"/>
<polygon fill="midnightblue" stroke="midnightblue" points="215.77,-197.46 211.97,-187.57 208.77,-197.67 215.77,-197.46"/>
</g>
<!-- Node15&#45;&gt;Node14 -->
<g id="edge26" class="edge">
<title>Node15&#45;&gt;Node14</title>
<path fill="none" stroke="midnightblue" d="M231.33,-336.32C245.66,-327.82 267.73,-314.73 284.46,-304.8"/>
<polygon fill="midnightblue" stroke="midnightblue" points="286.31,-307.77 293.13,-299.65 282.74,-301.75 286.31,-307.77"/>
</g>
</g>
</svg>
