<?xml version="1.0" encoding="UTF-8" standalone="no"?>
<!DOCTYPE svg PUBLIC "-//W3C//DTD SVG 1.1//EN"
 "http://www.w3.org/Graphics/SVG/1.1/DTD/svg11.dtd">
<!-- Generated by graphviz version 2.43.0 (0)
 -->
<!-- Title: include/materials/diffuse_light.hpp Pages: 1 -->
<svg width="401pt" height="162pt"
 viewBox="0.00 0.00 401.00 162.00" xmlns="http://www.w3.org/2000/svg" xmlns:xlink="http://www.w3.org/1999/xlink">
<g id="graph0" class="graph" transform="scale(1 1) rotate(0) translate(4 158)">
<title>include/materials/diffuse_light.hpp</title>
<polygon fill="white" stroke="transparent" points="-4,4 -4,-158 397,-158 397,4 -4,4"/>
<!-- Node1 -->
<g id="node1" class="node">
<title>Node1</title>
<g id="a_node1"><a xlink:title="Emissive diffuse light material.">
<polygon fill="#bfbfbf" stroke="black" points="131,-123.5 131,-153.5 268,-153.5 268,-123.5 131,-123.5"/>
<text text-anchor="start" x="139" y="-141.5" font-family="Helvetica,sans-Serif" font-size="10.00">include/materials/diffuse</text>
<text text-anchor="middle" x="199.5" y="-130.5" font-family="Helvetica,sans-Serif" font-size="10.00">_light.hpp</text>
</a>
</g>
</g>
<!-- Node2 -->
<g id="node2" class="node">
<title>Node2</title>
<g id="a_node2"><a xlink:href="comb__scene_8hpp.html" target="_top" xlink:title="Header file for Combined scene example (unfinished)">
<polygon fill="white" stroke="black" points="0,-56.5 0,-86.5 119,-86.5 119,-56.5 0,-56.5"/>
<text text-anchor="start" x="8" y="-74.5" font-family="Helvetica,sans-Serif" font-size="10.00">include/scenes/comb</text>
<text text-anchor="middle" x="59.5" y="-63.5" font-family="Helvetica,sans-Serif" font-size="10.00">_scene.hpp</text>
</a>
</g>
</g>
<!-- Node1&#45;&gt;Node2 -->
<g id="edge1" class="edge">
<title>Node1&#45;&gt;Node2</title>
<path fill="none" stroke="midnightblue" d="M159.93,-119.13C137.69,-108.8 110.35,-96.11 89.82,-86.58"/>
<polygon fill="midnightblue" stroke="midnightblue" points="158.58,-122.36 169.12,-123.4 161.53,-116.01 158.58,-122.36"/>
</g>
<!-- Node3 -->
<g id="node3" class="node">
<title>Node3</title>
<g id="a_node3"><a xlink:href="cornell__box_8hpp.html" target="_top" xlink:title="Header file for cornell box scene examples (unfinished)">
<polygon fill="white" stroke="black" points="137,-56.5 137,-86.5 262,-86.5 262,-56.5 137,-56.5"/>
<text text-anchor="start" x="145" y="-74.5" font-family="Helvetica,sans-Serif" font-size="10.00">include/scenes/cornell</text>
<text text-anchor="middle" x="199.5" y="-63.5" font-family="Helvetica,sans-Serif" font-size="10.00">_box.hpp</text>
</a>
</g>
</g>
<!-- Node1&#45;&gt;Node3 -->
<g id="edge2" class="edge">
<title>Node1&#45;&gt;Node3</title>
<path fill="none" stroke="midnightblue" d="M199.5,-113.11C199.5,-104.15 199.5,-94.32 199.5,-86.58"/>
<polygon fill="midnightblue" stroke="midnightblue" points="196,-113.4 199.5,-123.4 203,-113.4 196,-113.4"/>
</g>
<!-- Node5 -->
<g id="node5" class="node">
<title>Node5</title>
<g id="a_node5"><a xlink:href="light__scene_8hpp.html" target="_top" xlink:title="Header file for light scene example (unfinished)">
<polygon fill="white" stroke="black" points="280,-56.5 280,-86.5 393,-86.5 393,-56.5 280,-56.5"/>
<text text-anchor="start" x="288" y="-74.5" font-family="Helvetica,sans-Serif" font-size="10.00">include/scenes/light</text>
<text text-anchor="middle" x="336.5" y="-63.5" font-family="Helvetica,sans-Serif" font-size="10.00">_scene.hpp</text>
</a>
</g>
</g>
<!-- Node1&#45;&gt;Node5 -->
<g id="edge4" class="edge">
<title>Node1&#45;&gt;Node5</title>
<path fill="none" stroke="midnightblue" d="M238.51,-118.99C260.22,-108.69 286.83,-96.07 306.83,-86.58"/>
<polygon fill="midnightblue" stroke="midnightblue" points="236.76,-115.95 229.23,-123.4 239.76,-122.27 236.76,-115.95"/>
</g>
<!-- Node4 -->
<g id="node4" class="node">
<title>Node4</title>
<g id="a_node4"><a xlink:href="main_8cpp.html" target="_top" xlink:title="Main file for Serial ray tracer project.">
<polygon fill="white" stroke="black" points="236.5,-0.5 236.5,-19.5 298.5,-19.5 298.5,-0.5 236.5,-0.5"/>
<text text-anchor="middle" x="267.5" y="-7.5" font-family="Helvetica,sans-Serif" font-size="10.00">main.cpp</text>
</a>
</g>
</g>
<!-- Node3&#45;&gt;Node4 -->
<g id="edge3" class="edge">
<title>Node3&#45;&gt;Node4</title>
<path fill="none" stroke="midnightblue" d="M223.39,-49.6C235.14,-39.32 248.66,-27.48 257.61,-19.66"/>
<polygon fill="midnightblue" stroke="midnightblue" points="220.84,-47.18 215.62,-56.4 225.45,-52.45 220.84,-47.18"/>
</g>
<!-- Node5&#45;&gt;Node4 -->
<g id="edge5" class="edge">
<title>Node5&#45;&gt;Node4</title>
<path fill="none" stroke="midnightblue" d="M312.26,-49.6C300.34,-39.32 286.61,-27.48 277.54,-19.66"/>
<polygon fill="midnightblue" stroke="midnightblue" points="310.29,-52.52 320.15,-56.4 314.86,-47.22 310.29,-52.52"/>
</g>
</g>
</svg>
