<?xml version="1.0" encoding="UTF-8" standalone="no"?>
<!DOCTYPE svg PUBLIC "-//W3C//DTD SVG 1.1//EN"
 "http://www.w3.org/Graphics/SVG/1.1/DTD/svg11.dtd">
<!-- Generated by graphviz version 2.43.0 (0)
 -->
<!-- Title: include/materials/diffuse.hpp Pages: 1 -->
<svg width="326pt" height="308pt"
 viewBox="0.00 0.00 326.00 308.00" xmlns="http://www.w3.org/2000/svg" xmlns:xlink="http://www.w3.org/1999/xlink">
<g id="graph0" class="graph" transform="scale(1 1) rotate(0) translate(4 304)">
<title>include/materials/diffuse.hpp</title>
<polygon fill="white" stroke="transparent" points="-4,4 -4,-304 322,-304 322,4 -4,4"/>
<!-- Node1 -->
<g id="node1" class="node">
<title>Node1</title>
<g id="a_node1"><a xlink:title="Object for diffuse (random) scattering. Subclass of material.">
<polygon fill="#bfbfbf" stroke="black" points="32.5,-280.5 32.5,-299.5 190.5,-299.5 190.5,-280.5 32.5,-280.5"/>
<text text-anchor="middle" x="111.5" y="-287.5" font-family="Helvetica,sans-Serif" font-size="10.00">include/materials/diffuse.hpp</text>
</a>
</g>
</g>
<!-- Node2 -->
<g id="node2" class="node">
<title>Node2</title>
<g id="a_node2"><a xlink:href="material_8hpp.html" target="_top" xlink:title="Base class for materials.">
<polygon fill="white" stroke="black" points="17,-224.5 17,-243.5 96,-243.5 96,-224.5 17,-224.5"/>
<text text-anchor="middle" x="56.5" y="-231.5" font-family="Helvetica,sans-Serif" font-size="10.00">material.hpp</text>
</a>
</g>
</g>
<!-- Node1&#45;&gt;Node2 -->
<g id="edge1" class="edge">
<title>Node1&#45;&gt;Node2</title>
<path fill="none" stroke="midnightblue" d="M102.42,-280.08C94.33,-272.14 82.3,-260.34 72.59,-250.8"/>
<polygon fill="midnightblue" stroke="midnightblue" points="75,-248.26 65.41,-243.75 70.1,-253.25 75,-248.26"/>
</g>
<!-- Node12 -->
<g id="node12" class="node">
<title>Node12</title>
<g id="a_node12"><a xlink:href="solid_8hpp.html" target="_top" xlink:title="Solid one color texture.">
<polygon fill="white" stroke="black" points="114.5,-224.5 114.5,-243.5 218.5,-243.5 218.5,-224.5 114.5,-224.5"/>
<text text-anchor="middle" x="166.5" y="-231.5" font-family="Helvetica,sans-Serif" font-size="10.00">textures/solid.hpp</text>
</a>
</g>
</g>
<!-- Node1&#45;&gt;Node12 -->
<g id="edge11" class="edge">
<title>Node1&#45;&gt;Node12</title>
<path fill="none" stroke="midnightblue" d="M120.58,-280.08C128.67,-272.14 140.7,-260.34 150.41,-250.8"/>
<polygon fill="midnightblue" stroke="midnightblue" points="152.9,-253.25 157.59,-243.75 148,-248.26 152.9,-253.25"/>
</g>
<!-- Node3 -->
<g id="node3" class="node">
<title>Node3</title>
<g id="a_node3"><a xlink:href="ray_8hpp.html" target="_top" xlink:title="The ray object for our tracing algorithm.">
<polygon fill="white" stroke="black" points="19.5,-168.5 19.5,-187.5 105.5,-187.5 105.5,-168.5 19.5,-168.5"/>
<text text-anchor="middle" x="62.5" y="-175.5" font-family="Helvetica,sans-Serif" font-size="10.00">render/ray.hpp</text>
</a>
</g>
</g>
<!-- Node2&#45;&gt;Node3 -->
<g id="edge2" class="edge">
<title>Node2&#45;&gt;Node3</title>
<path fill="none" stroke="midnightblue" d="M57.49,-224.08C58.29,-216.93 59.43,-206.64 60.42,-197.69"/>
<polygon fill="midnightblue" stroke="midnightblue" points="63.9,-198.08 61.53,-187.75 56.94,-197.3 63.9,-198.08"/>
</g>
<!-- Node4 -->
<g id="node4" class="node">
<title>Node4</title>
<g id="a_node4"><a xlink:href="vec3_8hpp.html" target="_top" xlink:title="Custom 3D vector class for points, colours and rays.">
<polygon fill="white" stroke="black" points="81,-112.5 81,-131.5 142,-131.5 142,-112.5 81,-112.5"/>
<text text-anchor="middle" x="111.5" y="-119.5" font-family="Helvetica,sans-Serif" font-size="10.00">vec3.hpp</text>
</a>
</g>
</g>
<!-- Node3&#45;&gt;Node4 -->
<g id="edge3" class="edge">
<title>Node3&#45;&gt;Node4</title>
<path fill="none" stroke="midnightblue" d="M70.59,-168.08C77.66,-160.3 88.09,-148.8 96.65,-139.37"/>
<polygon fill="midnightblue" stroke="midnightblue" points="99.43,-141.51 103.56,-131.75 94.25,-136.8 99.43,-141.51"/>
</g>
<!-- Node5 -->
<g id="node5" class="node">
<title>Node5</title>
<g id="a_node5"><a xlink:title=" ">
<polygon fill="white" stroke="#bfbfbf" points="39.5,-56.5 39.5,-75.5 99.5,-75.5 99.5,-56.5 39.5,-56.5"/>
<text text-anchor="middle" x="69.5" y="-63.5" font-family="Helvetica,sans-Serif" font-size="10.00">iostream</text>
</a>
</g>
</g>
<!-- Node4&#45;&gt;Node5 -->
<g id="edge4" class="edge">
<title>Node4&#45;&gt;Node5</title>
<path fill="none" stroke="midnightblue" d="M104.56,-112.08C98.57,-104.38 89.75,-93.03 82.45,-83.65"/>
<polygon fill="midnightblue" stroke="midnightblue" points="85.21,-81.5 76.31,-75.75 79.68,-85.79 85.21,-81.5"/>
</g>
<!-- Node6 -->
<g id="node6" class="node">
<title>Node6</title>
<g id="a_node6"><a xlink:href="utilities_8hpp.html" target="_top" xlink:title="All the random functionality I am too lazy to organize elsewhere.">
<polygon fill="white" stroke="black" points="117.5,-56.5 117.5,-75.5 191.5,-75.5 191.5,-56.5 117.5,-56.5"/>
<text text-anchor="middle" x="154.5" y="-63.5" font-family="Helvetica,sans-Serif" font-size="10.00">utilities.hpp</text>
</a>
</g>
</g>
<!-- Node4&#45;&gt;Node6 -->
<g id="edge5" class="edge">
<title>Node4&#45;&gt;Node6</title>
<path fill="none" stroke="midnightblue" d="M118.6,-112.08C124.74,-104.38 133.77,-93.03 141.24,-83.65"/>
<polygon fill="midnightblue" stroke="midnightblue" points="144.04,-85.75 147.53,-75.75 138.56,-81.39 144.04,-85.75"/>
</g>
<!-- Node7 -->
<g id="node7" class="node">
<title>Node7</title>
<g id="a_node7"><a xlink:title=" ">
<polygon fill="white" stroke="#bfbfbf" points="0,-0.5 0,-19.5 47,-19.5 47,-0.5 0,-0.5"/>
<text text-anchor="middle" x="23.5" y="-7.5" font-family="Helvetica,sans-Serif" font-size="10.00">cmath</text>
</a>
</g>
</g>
<!-- Node6&#45;&gt;Node7 -->
<g id="edge6" class="edge">
<title>Node6&#45;&gt;Node7</title>
<path fill="none" stroke="midnightblue" d="M133.74,-56.44C112.18,-47.56 78.24,-33.56 53.71,-23.45"/>
<polygon fill="midnightblue" stroke="midnightblue" points="54.74,-20.09 44.16,-19.52 52.07,-26.56 54.74,-20.09"/>
</g>
<!-- Node8 -->
<g id="node8" class="node">
<title>Node8</title>
<g id="a_node8"><a xlink:title=" ">
<polygon fill="white" stroke="#bfbfbf" points="65,-0.5 65,-19.5 114,-19.5 114,-0.5 65,-0.5"/>
<text text-anchor="middle" x="89.5" y="-7.5" font-family="Helvetica,sans-Serif" font-size="10.00">cstdlib</text>
</a>
</g>
</g>
<!-- Node6&#45;&gt;Node8 -->
<g id="edge7" class="edge">
<title>Node6&#45;&gt;Node8</title>
<path fill="none" stroke="midnightblue" d="M144.06,-56.32C134.35,-48.26 119.68,-36.08 108,-26.37"/>
<polygon fill="midnightblue" stroke="midnightblue" points="110.06,-23.53 100.13,-19.83 105.59,-28.92 110.06,-23.53"/>
</g>
<!-- Node9 -->
<g id="node9" class="node">
<title>Node9</title>
<g id="a_node9"><a xlink:title=" ">
<polygon fill="white" stroke="#bfbfbf" points="132.5,-0.5 132.5,-19.5 176.5,-19.5 176.5,-0.5 132.5,-0.5"/>
<text text-anchor="middle" x="154.5" y="-7.5" font-family="Helvetica,sans-Serif" font-size="10.00">limits</text>
</a>
</g>
</g>
<!-- Node6&#45;&gt;Node9 -->
<g id="edge8" class="edge">
<title>Node6&#45;&gt;Node9</title>
<path fill="none" stroke="midnightblue" d="M154.5,-56.08C154.5,-49.01 154.5,-38.86 154.5,-29.99"/>
<polygon fill="midnightblue" stroke="midnightblue" points="158,-29.75 154.5,-19.75 151,-29.75 158,-29.75"/>
</g>
<!-- Node10 -->
<g id="node10" class="node">
<title>Node10</title>
<g id="a_node10"><a xlink:title=" ">
<polygon fill="white" stroke="#bfbfbf" points="194.5,-0.5 194.5,-19.5 252.5,-19.5 252.5,-0.5 194.5,-0.5"/>
<text text-anchor="middle" x="223.5" y="-7.5" font-family="Helvetica,sans-Serif" font-size="10.00">memory</text>
</a>
</g>
</g>
<!-- Node6&#45;&gt;Node10 -->
<g id="edge9" class="edge">
<title>Node6&#45;&gt;Node10</title>
<path fill="none" stroke="midnightblue" d="M165.59,-56.32C175.99,-48.18 191.76,-35.84 204.22,-26.09"/>
<polygon fill="midnightblue" stroke="midnightblue" points="206.49,-28.75 212.21,-19.83 202.18,-23.24 206.49,-28.75"/>
</g>
<!-- Node11 -->
<g id="node11" class="node">
<title>Node11</title>
<g id="a_node11"><a xlink:title=" ">
<polygon fill="white" stroke="#bfbfbf" points="271,-0.5 271,-19.5 318,-19.5 318,-0.5 271,-0.5"/>
<text text-anchor="middle" x="294.5" y="-7.5" font-family="Helvetica,sans-Serif" font-size="10.00">vector</text>
</a>
</g>
</g>
<!-- Node6&#45;&gt;Node11 -->
<g id="edge10" class="edge">
<title>Node6&#45;&gt;Node11</title>
<path fill="none" stroke="midnightblue" d="M176.68,-56.44C199.93,-47.48 236.65,-33.31 262.92,-23.18"/>
<polygon fill="midnightblue" stroke="midnightblue" points="264.35,-26.38 272.42,-19.52 261.83,-19.85 264.35,-26.38"/>
</g>
<!-- Node13 -->
<g id="node13" class="node">
<title>Node13</title>
<g id="a_node13"><a xlink:href="texture_8hpp.html" target="_top" xlink:title="Bass class for textures.">
<polygon fill="white" stroke="black" points="127,-168.5 127,-187.5 200,-187.5 200,-168.5 127,-168.5"/>
<text text-anchor="middle" x="163.5" y="-175.5" font-family="Helvetica,sans-Serif" font-size="10.00">texture.hpp</text>
</a>
</g>
</g>
<!-- Node12&#45;&gt;Node13 -->
<g id="edge12" class="edge">
<title>Node12&#45;&gt;Node13</title>
<path fill="none" stroke="midnightblue" d="M166,-224.08C165.61,-217.01 165.05,-206.86 164.55,-197.99"/>
<polygon fill="midnightblue" stroke="midnightblue" points="168.04,-197.54 163.99,-187.75 161.05,-197.93 168.04,-197.54"/>
</g>
<!-- Node13&#45;&gt;Node4 -->
<g id="edge13" class="edge">
<title>Node13&#45;&gt;Node4</title>
<path fill="none" stroke="midnightblue" d="M154.91,-168.08C147.34,-160.22 136.12,-148.57 126.99,-139.08"/>
<polygon fill="midnightblue" stroke="midnightblue" points="129.38,-136.53 119.93,-131.75 124.34,-141.38 129.38,-136.53"/>
</g>
</g>
</svg>
