<?xml version="1.0" encoding="UTF-8" standalone="no"?>
<!DOCTYPE svg PUBLIC "-//W3C//DTD SVG 1.1//EN"
 "http://www.w3.org/Graphics/SVG/1.1/DTD/svg11.dtd">
<!-- Generated by graphviz version 2.43.0 (0)
 -->
<!-- Title: include/materials Pages: 1 -->
<svg width="138pt" height="151pt"
 viewBox="0.00 0.00 137.50 151.00" xmlns="http://www.w3.org/2000/svg" xmlns:xlink="http://www.w3.org/1999/xlink">
<g id="graph0" class="graph" transform="scale(1 1) rotate(0) translate(4 147)">
<title>include/materials</title>
<polygon fill="white" stroke="transparent" points="-4,4 -4,-147 133.5,-147 133.5,4 -4,4"/>
<g id="clust1" class="cluster">
<title>clusterdir_d44c64559bbebec7f509842c48db8b23</title>
<g id="a_clust1"><a xlink:href="dir_d44c64559bbebec7f509842c48db8b23.html" target="_top" xlink:title="include">
<polygon fill="#ddddee" stroke="black" points="24,-64 24,-135 104,-135 104,-64 24,-64"/>
<text text-anchor="middle" x="64" y="-123" font-family="Helvetica,sans-Serif" font-size="10.00">include</text>
</a>
</g>
</g>
<!-- dir_e8162cbcd2a0630786d64b00f43c2c71 -->
<g id="node1" class="node">
<title>dir_e8162cbcd2a0630786d64b00f43c2c71</title>
<g id="a_node1"><a xlink:href="dir_e8162cbcd2a0630786d64b00f43c2c71.html" target="_top" xlink:title="materials">
<polygon fill="#eeeeff" stroke="black" points="95.5,-108 32.5,-108 32.5,-72 95.5,-72 95.5,-108"/>
<text text-anchor="middle" x="64" y="-87.5" font-family="Helvetica,sans-Serif" font-size="10.00">materials</text>
</a>
</g>
</g>
<!-- dir_ada157988d47c0ed8971be2c0e2fe61c -->
<g id="node2" class="node">
<title>dir_ada157988d47c0ed8971be2c0e2fe61c</title>
<g id="a_node2"><a xlink:href="dir_ada157988d47c0ed8971be2c0e2fe61c.html" target="_top" xlink:title="render">
<polygon fill="none" stroke="black" points="54,-36 0,-36 0,0 54,0 54,-36"/>
<text text-anchor="middle" x="27" y="-15.5" font-family="Helvetica,sans-Serif" font-size="10.00">render</text>
</a>
</g>
</g>
<!-- dir_e8162cbcd2a0630786d64b00f43c2c71&#45;&gt;dir_ada157988d47c0ed8971be2c0e2fe61c -->
<g id="edge1" class="edge">
<title>dir_e8162cbcd2a0630786d64b00f43c2c71&#45;&gt;dir_ada157988d47c0ed8971be2c0e2fe61c</title>
<path fill="none" stroke="black" d="M54.85,-71.7C50.6,-63.64 45.44,-53.89 40.73,-44.98"/>
<polygon fill="black" stroke="black" points="43.81,-43.31 36.04,-36.1 37.62,-46.58 43.81,-43.31"/>
<g id="a_edge1&#45;headlabel"><a xlink:href="dir_000007_000009.html" target="_top" xlink:title="1">
<text text-anchor="middle" x="48" y="-42.66" font-family="Helvetica,sans-Serif" font-size="10.00">1</text>
</a>
</g>
</g>
<!-- dir_4978cfd6af092697d631a278ad7b02fc -->
<g id="node3" class="node">
<title>dir_4978cfd6af092697d631a278ad7b02fc</title>
<g id="a_node3"><a xlink:href="dir_4978cfd6af092697d631a278ad7b02fc.html" target="_top" xlink:title="textures">
<polygon fill="none" stroke="black" points="129.5,-36 72.5,-36 72.5,0 129.5,0 129.5,-36"/>
<text text-anchor="middle" x="101" y="-15.5" font-family="Helvetica,sans-Serif" font-size="10.00">textures</text>
</a>
</g>
</g>
<!-- dir_e8162cbcd2a0630786d64b00f43c2c71&#45;&gt;dir_4978cfd6af092697d631a278ad7b02fc -->
<g id="edge2" class="edge">
<title>dir_e8162cbcd2a0630786d64b00f43c2c71&#45;&gt;dir_4978cfd6af092697d631a278ad7b02fc</title>
<path fill="none" stroke="black" d="M73.15,-71.7C77.4,-63.64 82.56,-53.89 87.27,-44.98"/>
<polygon fill="black" stroke="black" points="90.38,-46.58 91.96,-36.1 84.19,-43.31 90.38,-46.58"/>
<g id="a_edge2&#45;headlabel"><a xlink:href="dir_000007_000011.html" target="_top" xlink:title="3">
<text text-anchor="middle" x="91.21" y="-48.59" font-family="Helvetica,sans-Serif" font-size="10.00">3</text>
</a>
</g>
</g>
</g>
</svg>
