<?xml version="1.0" encoding="UTF-8" standalone="no"?>
<!DOCTYPE svg PUBLIC "-//W3C//DTD SVG 1.1//EN"
 "http://www.w3.org/Graphics/SVG/1.1/DTD/svg11.dtd">
<!-- Generated by graphviz version 2.43.0 (0)
 -->
<!-- Title: include/scenes Pages: 1 -->
<svg width="133pt" height="295pt"
 viewBox="0.00 0.00 133.00 295.00" xmlns="http://www.w3.org/2000/svg" xmlns:xlink="http://www.w3.org/1999/xlink">
<g id="graph0" class="graph" transform="scale(1 1) rotate(0) translate(4 291)">
<title>include/scenes</title>
<polygon fill="white" stroke="transparent" points="-4,4 -4,-291 129,-291 129,4 -4,4"/>
<g id="clust1" class="cluster">
<title>clusterdir_d44c64559bbebec7f509842c48db8b23</title>
<g id="a_clust1"><a xlink:href="dir_d44c64559bbebec7f509842c48db8b23.html" target="_top" xlink:title="include">
<polygon fill="#ddddee" stroke="black" points="47,-208 47,-279 117,-279 117,-208 47,-208"/>
<text text-anchor="middle" x="82" y="-267" font-family="Helvetica,sans-Serif" font-size="10.00">include</text>
</a>
</g>
</g>
<!-- dir_9551f21d874a3950d142803a40139414 -->
<g id="node1" class="node">
<title>dir_9551f21d874a3950d142803a40139414</title>
<g id="a_node1"><a xlink:href="dir_9551f21d874a3950d142803a40139414.html" target="_top" xlink:title="scenes">
<polygon fill="#eeeeff" stroke="black" points="109,-252 55,-252 55,-216 109,-216 109,-252"/>
<text text-anchor="middle" x="82" y="-231.5" font-family="Helvetica,sans-Serif" font-size="10.00">scenes</text>
</a>
</g>
</g>
<!-- dir_b4adee91cd38b3cdb585612c8d987308 -->
<g id="node2" class="node">
<title>dir_b4adee91cd38b3cdb585612c8d987308</title>
<g id="a_node2"><a xlink:href="dir_b4adee91cd38b3cdb585612c8d987308.html" target="_top" xlink:title="objects">
<polygon fill="none" stroke="black" points="54,-180 0,-180 0,-144 54,-144 54,-180"/>
<text text-anchor="middle" x="27" y="-159.5" font-family="Helvetica,sans-Serif" font-size="10.00">objects</text>
</a>
</g>
</g>
<!-- dir_9551f21d874a3950d142803a40139414&#45;&gt;dir_b4adee91cd38b3cdb585612c8d987308 -->
<g id="edge3" class="edge">
<title>dir_9551f21d874a3950d142803a40139414&#45;&gt;dir_b4adee91cd38b3cdb585612c8d987308</title>
<path fill="none" stroke="black" d="M68.4,-215.7C61.88,-207.39 53.93,-197.28 46.75,-188.14"/>
<polygon fill="black" stroke="black" points="49.37,-185.81 40.44,-180.1 43.87,-190.13 49.37,-185.81"/>
<g id="a_edge3&#45;headlabel"><a xlink:href="dir_000010_000008.html" target="_top" xlink:title="22">
<text text-anchor="middle" x="53.82" y="-184.38" font-family="Helvetica,sans-Serif" font-size="10.00">22</text>
</a>
</g>
</g>
<!-- dir_e8162cbcd2a0630786d64b00f43c2c71 -->
<g id="node3" class="node">
<title>dir_e8162cbcd2a0630786d64b00f43c2c71</title>
<g id="a_node3"><a xlink:href="dir_e8162cbcd2a0630786d64b00f43c2c71.html" target="_top" xlink:title="materials">
<polygon fill="none" stroke="black" points="91.5,-108 28.5,-108 28.5,-72 91.5,-72 91.5,-108"/>
<text text-anchor="middle" x="60" y="-87.5" font-family="Helvetica,sans-Serif" font-size="10.00">materials</text>
</a>
</g>
</g>
<!-- dir_9551f21d874a3950d142803a40139414&#45;&gt;dir_e8162cbcd2a0630786d64b00f43c2c71 -->
<g id="edge4" class="edge">
<title>dir_9551f21d874a3950d142803a40139414&#45;&gt;dir_e8162cbcd2a0630786d64b00f43c2c71</title>
<path fill="none" stroke="black" d="M79.35,-215.87C75.6,-191.67 68.71,-147.21 64.24,-118.39"/>
<polygon fill="black" stroke="black" points="67.65,-117.54 62.66,-108.19 60.74,-118.61 67.65,-117.54"/>
<g id="a_edge4&#45;headlabel"><a xlink:href="dir_000010_000007.html" target="_top" xlink:title="15">
<text text-anchor="middle" x="71.01" y="-118.15" font-family="Helvetica,sans-Serif" font-size="10.00">15</text>
</a>
</g>
</g>
<!-- dir_4978cfd6af092697d631a278ad7b02fc -->
<g id="node4" class="node">
<title>dir_4978cfd6af092697d631a278ad7b02fc</title>
<g id="a_node4"><a xlink:href="dir_4978cfd6af092697d631a278ad7b02fc.html" target="_top" xlink:title="textures">
<polygon fill="none" stroke="black" points="118.5,-36 61.5,-36 61.5,0 118.5,0 118.5,-36"/>
<text text-anchor="middle" x="90" y="-15.5" font-family="Helvetica,sans-Serif" font-size="10.00">textures</text>
</a>
</g>
</g>
<!-- dir_9551f21d874a3950d142803a40139414&#45;&gt;dir_4978cfd6af092697d631a278ad7b02fc -->
<g id="edge5" class="edge">
<title>dir_9551f21d874a3950d142803a40139414&#45;&gt;dir_4978cfd6af092697d631a278ad7b02fc</title>
<path fill="none" stroke="black" d="M86.57,-215.63C93.76,-186.13 106.38,-124.36 101,-72 100.12,-63.46 98.47,-54.26 96.71,-45.96"/>
<polygon fill="black" stroke="black" points="100.08,-45.03 94.46,-36.05 93.26,-46.57 100.08,-45.03"/>
<g id="a_edge5&#45;headlabel"><a xlink:href="dir_000010_000011.html" target="_top" xlink:title="4">
<text text-anchor="middle" x="103.65" y="-45.41" font-family="Helvetica,sans-Serif" font-size="10.00">4</text>
</a>
</g>
</g>
<!-- dir_b4adee91cd38b3cdb585612c8d987308&#45;&gt;dir_e8162cbcd2a0630786d64b00f43c2c71 -->
<g id="edge1" class="edge">
<title>dir_b4adee91cd38b3cdb585612c8d987308&#45;&gt;dir_e8162cbcd2a0630786d64b00f43c2c71</title>
<path fill="none" stroke="black" d="M35.16,-143.7C38.91,-135.73 43.45,-126.1 47.62,-117.26"/>
<polygon fill="black" stroke="black" points="50.84,-118.64 51.94,-108.1 44.51,-115.66 50.84,-118.64"/>
<g id="a_edge1&#45;headlabel"><a xlink:href="dir_000008_000007.html" target="_top" xlink:title="1">
<text text-anchor="middle" x="51.87" y="-120.6" font-family="Helvetica,sans-Serif" font-size="10.00">1</text>
</a>
</g>
</g>
<!-- dir_e8162cbcd2a0630786d64b00f43c2c71&#45;&gt;dir_4978cfd6af092697d631a278ad7b02fc -->
<g id="edge2" class="edge">
<title>dir_e8162cbcd2a0630786d64b00f43c2c71&#45;&gt;dir_4978cfd6af092697d631a278ad7b02fc</title>
<path fill="none" stroke="black" d="M67.42,-71.7C70.79,-63.81 74.87,-54.3 78.62,-45.55"/>
<polygon fill="black" stroke="black" points="81.95,-46.67 82.67,-36.1 75.51,-43.92 81.95,-46.67"/>
<g id="a_edge2&#45;headlabel"><a xlink:href="dir_000007_000011.html" target="_top" xlink:title="3">
<text text-anchor="middle" x="83.14" y="-48.6" font-family="Helvetica,sans-Serif" font-size="10.00">3</text>
</a>
</g>
</g>
</g>
</svg>
