<?xml version="1.0" encoding="UTF-8" standalone="no"?>
<!DOCTYPE svg PUBLIC "-//W3C//DTD SVG 1.1//EN"
 "http://www.w3.org/Graphics/SVG/1.1/DTD/svg11.dtd">
<!-- Generated by graphviz version 2.43.0 (0)
 -->
<!-- Title: include Pages: 1 -->
<svg width="170pt" height="292pt"
 viewBox="0.00 0.00 170.00 292.00" xmlns="http://www.w3.org/2000/svg" xmlns:xlink="http://www.w3.org/1999/xlink">
<g id="graph0" class="graph" transform="scale(1 1) rotate(0) translate(4 288)">
<title>include</title>
<polygon fill="white" stroke="transparent" points="-4,4 -4,-288 166,-288 166,4 -4,4"/>
<g id="clust1" class="cluster">
<title>clusterdir_d44c64559bbebec7f509842c48db8b23</title>
<g id="a_clust1"><a xlink:href="dir_d44c64559bbebec7f509842c48db8b23.html" target="_top">
<polygon fill="#eeeeff" stroke="black" points="8,-8 8,-276 154,-276 154,-8 8,-8"/>
</a>
</g>
</g>
<!-- dir_d44c64559bbebec7f509842c48db8b23 -->
<g id="node1" class="node">
<title>dir_d44c64559bbebec7f509842c48db8b23</title>
<text text-anchor="middle" x="119" y="-247.5" font-family="Helvetica,sans-Serif" font-size="10.00">include</text>
</g>
<!-- dir_e8162cbcd2a0630786d64b00f43c2c71 -->
<g id="node2" class="node">
<title>dir_e8162cbcd2a0630786d64b00f43c2c71</title>
<g id="a_node2"><a xlink:href="dir_e8162cbcd2a0630786d64b00f43c2c71.html" target="_top" xlink:title="materials">
<polygon fill="white" stroke="black" points="109.5,-124 46.5,-124 46.5,-88 109.5,-88 109.5,-124"/>
<text text-anchor="middle" x="78" y="-103.5" font-family="Helvetica,sans-Serif" font-size="10.00">materials</text>
</a>
</g>
</g>
<!-- dir_ada157988d47c0ed8971be2c0e2fe61c -->
<g id="node4" class="node">
<title>dir_ada157988d47c0ed8971be2c0e2fe61c</title>
<g id="a_node4"><a xlink:href="dir_ada157988d47c0ed8971be2c0e2fe61c.html" target="_top" xlink:title="render">
<polygon fill="white" stroke="black" points="70,-52 16,-52 16,-16 70,-16 70,-52"/>
<text text-anchor="middle" x="43" y="-31.5" font-family="Helvetica,sans-Serif" font-size="10.00">render</text>
</a>
</g>
</g>
<!-- dir_e8162cbcd2a0630786d64b00f43c2c71&#45;&gt;dir_ada157988d47c0ed8971be2c0e2fe61c -->
<g id="edge3" class="edge">
<title>dir_e8162cbcd2a0630786d64b00f43c2c71&#45;&gt;dir_ada157988d47c0ed8971be2c0e2fe61c</title>
<path fill="none" stroke="black" d="M69.35,-87.7C65.36,-79.73 60.55,-70.1 56.13,-61.26"/>
<polygon fill="black" stroke="black" points="59.15,-59.48 51.55,-52.1 52.89,-62.61 59.15,-59.48"/>
<g id="a_edge3&#45;headlabel"><a xlink:href="dir_000007_000009.html" target="_top" xlink:title="1">
<text text-anchor="middle" x="63.3" y="-58.93" font-family="Helvetica,sans-Serif" font-size="10.00">1</text>
</a>
</g>
</g>
<!-- dir_4978cfd6af092697d631a278ad7b02fc -->
<g id="node6" class="node">
<title>dir_4978cfd6af092697d631a278ad7b02fc</title>
<g id="a_node6"><a xlink:href="dir_4978cfd6af092697d631a278ad7b02fc.html" target="_top" xlink:title="textures">
<polygon fill="white" stroke="black" points="145.5,-52 88.5,-52 88.5,-16 145.5,-16 145.5,-52"/>
<text text-anchor="middle" x="117" y="-31.5" font-family="Helvetica,sans-Serif" font-size="10.00">textures</text>
</a>
</g>
</g>
<!-- dir_e8162cbcd2a0630786d64b00f43c2c71&#45;&gt;dir_4978cfd6af092697d631a278ad7b02fc -->
<g id="edge4" class="edge">
<title>dir_e8162cbcd2a0630786d64b00f43c2c71&#45;&gt;dir_4978cfd6af092697d631a278ad7b02fc</title>
<path fill="none" stroke="black" d="M87.64,-87.7C92.13,-79.64 97.56,-69.89 102.52,-60.98"/>
<polygon fill="black" stroke="black" points="105.66,-62.54 107.47,-52.1 99.55,-59.14 105.66,-62.54"/>
<g id="a_edge4&#45;headlabel"><a xlink:href="dir_000007_000011.html" target="_top" xlink:title="3">
<text text-anchor="middle" x="106.39" y="-64.57" font-family="Helvetica,sans-Serif" font-size="10.00">3</text>
</a>
</g>
</g>
<!-- dir_b4adee91cd38b3cdb585612c8d987308 -->
<g id="node3" class="node">
<title>dir_b4adee91cd38b3cdb585612c8d987308</title>
<g id="a_node3"><a xlink:href="dir_b4adee91cd38b3cdb585612c8d987308.html" target="_top" xlink:title="objects">
<polygon fill="white" stroke="black" points="70,-196 16,-196 16,-160 70,-160 70,-196"/>
<text text-anchor="middle" x="43" y="-175.5" font-family="Helvetica,sans-Serif" font-size="10.00">objects</text>
</a>
</g>
</g>
<!-- dir_b4adee91cd38b3cdb585612c8d987308&#45;&gt;dir_e8162cbcd2a0630786d64b00f43c2c71 -->
<g id="edge1" class="edge">
<title>dir_b4adee91cd38b3cdb585612c8d987308&#45;&gt;dir_e8162cbcd2a0630786d64b00f43c2c71</title>
<path fill="none" stroke="black" d="M51.65,-159.7C55.64,-151.73 60.45,-142.1 64.87,-133.26"/>
<polygon fill="black" stroke="black" points="68.11,-134.61 69.45,-124.1 61.85,-131.48 68.11,-134.61"/>
<g id="a_edge1&#45;headlabel"><a xlink:href="dir_000008_000007.html" target="_top" xlink:title="1">
<text text-anchor="middle" x="69.04" y="-136.6" font-family="Helvetica,sans-Serif" font-size="10.00">1</text>
</a>
</g>
</g>
<!-- dir_b4adee91cd38b3cdb585612c8d987308&#45;&gt;dir_ada157988d47c0ed8971be2c0e2fe61c -->
<g id="edge2" class="edge">
<title>dir_b4adee91cd38b3cdb585612c8d987308&#45;&gt;dir_ada157988d47c0ed8971be2c0e2fe61c</title>
<path fill="none" stroke="black" d="M40.56,-159.86C39.21,-149.5 37.68,-136.02 37,-124 36.1,-108.03 36.1,-103.97 37,-88 37.48,-79.55 38.38,-70.38 39.34,-62.07"/>
<polygon fill="black" stroke="black" points="42.81,-62.5 40.56,-52.14 35.87,-61.64 42.81,-62.5"/>
<g id="a_edge2&#45;headlabel"><a xlink:href="dir_000008_000009.html" target="_top" xlink:title="1">
<text text-anchor="middle" x="45.19" y="-63.91" font-family="Helvetica,sans-Serif" font-size="10.00">1</text>
</a>
</g>
</g>
<!-- dir_9551f21d874a3950d142803a40139414 -->
<g id="node5" class="node">
<title>dir_9551f21d874a3950d142803a40139414</title>
<g id="a_node5"><a xlink:href="dir_9551f21d874a3950d142803a40139414.html" target="_top" xlink:title="scenes">
<polygon fill="white" stroke="black" points="74,-268 20,-268 20,-232 74,-232 74,-268"/>
<text text-anchor="middle" x="47" y="-247.5" font-family="Helvetica,sans-Serif" font-size="10.00">scenes</text>
</a>
</g>
</g>
<!-- dir_9551f21d874a3950d142803a40139414&#45;&gt;dir_e8162cbcd2a0630786d64b00f43c2c71 -->
<g id="edge6" class="edge">
<title>dir_9551f21d874a3950d142803a40139414&#45;&gt;dir_e8162cbcd2a0630786d64b00f43c2c71</title>
<path fill="none" stroke="black" d="M60.56,-231.97C67.56,-222.09 75.37,-209.05 79,-196 84.62,-175.81 84.01,-152.04 82.18,-134.14"/>
<polygon fill="black" stroke="black" points="85.65,-133.61 80.98,-124.1 78.7,-134.44 85.65,-133.61"/>
<g id="a_edge6&#45;headlabel"><a xlink:href="dir_000010_000007.html" target="_top" xlink:title="15">
<text text-anchor="middle" x="88.89" y="-134.34" font-family="Helvetica,sans-Serif" font-size="10.00">15</text>
</a>
</g>
</g>
<!-- dir_9551f21d874a3950d142803a40139414&#45;&gt;dir_b4adee91cd38b3cdb585612c8d987308 -->
<g id="edge5" class="edge">
<title>dir_9551f21d874a3950d142803a40139414&#45;&gt;dir_b4adee91cd38b3cdb585612c8d987308</title>
<path fill="none" stroke="black" d="M46.01,-231.7C45.57,-223.98 45.04,-214.71 44.55,-206.11"/>
<polygon fill="black" stroke="black" points="48.04,-205.89 43.98,-196.1 41.05,-206.29 48.04,-205.89"/>
<g id="a_edge5&#45;headlabel"><a xlink:href="dir_000010_000008.html" target="_top" xlink:title="22">
<text text-anchor="middle" x="51.08" y="-206.82" font-family="Helvetica,sans-Serif" font-size="10.00">22</text>
</a>
</g>
</g>
<!-- dir_9551f21d874a3950d142803a40139414&#45;&gt;dir_4978cfd6af092697d631a278ad7b02fc -->
<g id="edge7" class="edge">
<title>dir_9551f21d874a3950d142803a40139414&#45;&gt;dir_4978cfd6af092697d631a278ad7b02fc</title>
<path fill="none" stroke="black" d="M61.57,-231.85C79.79,-209.02 109.71,-166.57 119,-124 123.44,-103.65 122.65,-80.05 120.91,-62.27"/>
<polygon fill="black" stroke="black" points="124.38,-61.83 119.77,-52.29 117.43,-62.62 124.38,-61.83"/>
<g id="a_edge7&#45;headlabel"><a xlink:href="dir_000010_000011.html" target="_top" xlink:title="4">
<text text-anchor="middle" x="127.61" y="-62.58" font-family="Helvetica,sans-Serif" font-size="10.00">4</text>
</a>
</g>
</g>
</g>
</svg>
