<?xml version="1.0" encoding="UTF-8" standalone="no"?>
<!DOCTYPE svg PUBLIC "-//W3C//DTD SVG 1.1//EN"
 "http://www.w3.org/Graphics/SVG/1.1/DTD/svg11.dtd">
<!-- Generated by graphviz version 2.43.0 (0)
 -->
<!-- Title: include/objects/hit.hpp Pages: 1 -->
<!--zoomable 274 -->
<svg id="main" version="1.1" xmlns="http://www.w3.org/2000/svg" xmlns:xlink="http://www.w3.org/1999/xlink" xml:space="preserve" onload="init(evt)">
<style type="text/css"><![CDATA[
.edge:hover path { stroke: red; }
.edge:hover polygon { stroke: red; fill: red; }
]]></style>
<script type="text/javascript"><![CDATA[
var edges = document.getElementsByTagName('g');
if (edges && edges.length) {
  for (var i=0;i<edges.length;i++) {
    if (edges[i].id.substr(0,4)=='edge') {
      edges[i].setAttribute('class','edge');
    }
  }
}
]]></script>
        <defs>
                <circle id="rim" cx="0" cy="0" r="7"/>
                <circle id="rim2" cx="0" cy="0" r="3.5"/>
                <g id="zoomPlus">
                        <use xlink:href="#rim" fill="#404040">
                                <set attributeName="fill" to="#808080" begin="zoomplus.mouseover" end="zoomplus.mouseout"/>
                        </use>
                        <path d="M-4,0h8M0,-4v8" fill="none" stroke="white" stroke-width="1.5" pointer-events="none"/>
                </g>
                <g id="zoomMin">
                        <use xlink:href="#rim" fill="#404040">
                                <set attributeName="fill" to="#808080" begin="zoomminus.mouseover" end="zoomminus.mouseout"/>
                        </use>
                        <path d="M-4,0h8" fill="none" stroke="white" stroke-width="1.5" pointer-events="none"/>
                </g>
                <g id="dirArrow">
                        <path fill="none" stroke="white" stroke-width="1.5" d="M0,-3.0v7 M-2.5,-0.5L0,-3.0L2.5,-0.5"/>
                </g>
               <g id="resetDef">
                       <use xlink:href="#rim2" fill="#404040">
                               <set attributeName="fill" to="#808080" begin="reset.mouseover" end="reset.mouseout"/>
                       </use>
               </g>
        </defs>

<script type="text/javascript">
var viewWidth = 1092;
var viewHeight = 274;
var sectionId = 'dynsection-1';
</script>
<script xlink:href="svgpan.js"/>
<svg id="graph" class="graph">
<g id="viewport">
<title>include/objects/hit.hpp</title>
<polygon fill="white" stroke="transparent" points="-4,4 -4,-270 1087.99,-270 1087.99,4 -4,4"/>
<!-- Node1 -->
<g id="node1" class="node">
<title>Node1</title>
<g id="a_node1"><a xlink:title="Abstract object that can be hit by a ray.">
<polygon fill="#bfbfbf" stroke="black" points="535.5,-246.5 535.5,-265.5 662.5,-265.5 662.5,-246.5 535.5,-246.5"/>
<text text-anchor="middle" x="599" y="-253.5" font-family="Helvetica,sans-Serif" font-size="10.00">include/objects/hit.hpp</text>
</a>
</g>
</g>
<!-- Node2 -->
<g id="node2" class="node">
<title>Node2</title>
<g id="a_node2"><a xlink:href="rectangle_8hpp.html" target="_top" xlink:title="Rectangular plane object to be rendered.">
<polygon fill="white" stroke="black" points="335,-190.5 335,-209.5 495,-209.5 495,-190.5 335,-190.5"/>
<text text-anchor="middle" x="415" y="-197.5" font-family="Helvetica,sans-Serif" font-size="10.00">include/objects/rectangle.hpp</text>
</a>
</g>
</g>
<!-- Node1&#45;&gt;Node2 -->
<g id="edge1" class="edge">
<title>Node1&#45;&gt;Node2</title>
<path fill="none" stroke="midnightblue" d="M560.05,-243.57C525.34,-233.38 475.32,-218.7 444.02,-209.52"/>
<polygon fill="midnightblue" stroke="midnightblue" points="559.26,-246.99 569.84,-246.44 561.23,-240.27 559.26,-246.99"/>
</g>
<!-- Node8 -->
<g id="node8" class="node">
<title>Node8</title>
<g id="a_node8"><a xlink:href="hit__list_8hpp.html" target="_top" xlink:title="List of hittable objects.">
<polygon fill="white" stroke="black" points="0,-123.5 0,-153.5 106,-153.5 106,-123.5 0,-123.5"/>
<text text-anchor="start" x="8" y="-141.5" font-family="Helvetica,sans-Serif" font-size="10.00">include/objects/hit</text>
<text text-anchor="middle" x="53" y="-130.5" font-family="Helvetica,sans-Serif" font-size="10.00">_list.hpp</text>
</a>
</g>
</g>
<!-- Node1&#45;&gt;Node8 -->
<g id="edge8" class="edge">
<title>Node1&#45;&gt;Node8</title>
<path fill="none" stroke="midnightblue" d="M527.67,-245.03C472.4,-236.87 394.03,-224.36 326,-210 246.97,-193.32 156.41,-168.85 102.01,-153.57"/>
<polygon fill="midnightblue" stroke="midnightblue" points="527.32,-248.51 537.72,-246.5 528.33,-241.59 527.32,-248.51"/>
</g>
<!-- Node9 -->
<g id="node9" class="node">
<title>Node9</title>
<g id="a_node9"><a xlink:href="iso__fog_8hpp.html" target="_top" xlink:title="Isotropically scattering fog object.">
<polygon fill="white" stroke="black" points="279.5,-123.5 279.5,-153.5 386.5,-153.5 386.5,-123.5 279.5,-123.5"/>
<text text-anchor="start" x="287.5" y="-141.5" font-family="Helvetica,sans-Serif" font-size="10.00">include/objects/iso</text>
<text text-anchor="middle" x="333" y="-130.5" font-family="Helvetica,sans-Serif" font-size="10.00">_fog.hpp</text>
</a>
</g>
</g>
<!-- Node1&#45;&gt;Node9 -->
<g id="edge11" class="edge">
<title>Node1&#45;&gt;Node9</title>
<path fill="none" stroke="midnightblue" d="M579.34,-240.46C556.31,-223.64 519.36,-197.3 504,-190 483.17,-180.1 428.66,-164.62 386.73,-153.4"/>
<polygon fill="midnightblue" stroke="midnightblue" points="577.27,-243.29 587.41,-246.39 581.41,-237.65 577.27,-243.29"/>
</g>
<!-- Node10 -->
<g id="node10" class="node">
<title>Node10</title>
<g id="a_node10"><a xlink:href="moving__sphere_8hpp.html" target="_top" xlink:title="Sphere object moving, for motion blur.">
<polygon fill="white" stroke="black" points="772,-123.5 772,-153.5 902,-153.5 902,-123.5 772,-123.5"/>
<text text-anchor="start" x="780" y="-141.5" font-family="Helvetica,sans-Serif" font-size="10.00">include/objects/moving</text>
<text text-anchor="middle" x="837" y="-130.5" font-family="Helvetica,sans-Serif" font-size="10.00">_sphere.hpp</text>
</a>
</g>
</g>
<!-- Node1&#45;&gt;Node10 -->
<g id="edge14" class="edge">
<title>Node1&#45;&gt;Node10</title>
<path fill="none" stroke="midnightblue" d="M610.89,-238.2C622.18,-223.44 640.45,-202.44 661,-190 680.38,-178.27 732.72,-163.95 775.32,-153.56"/>
<polygon fill="midnightblue" stroke="midnightblue" points="607.93,-236.32 604.81,-246.45 613.56,-240.48 607.93,-236.32"/>
</g>
<!-- Node12 -->
<g id="node12" class="node">
<title>Node12</title>
<g id="a_node12"><a xlink:href="sphere_8hpp.html" target="_top" xlink:title="Sphere object to be rendered.">
<polygon fill="white" stroke="black" points="920.5,-129 920.5,-148 1067.5,-148 1067.5,-129 920.5,-129"/>
<text text-anchor="middle" x="994" y="-136" font-family="Helvetica,sans-Serif" font-size="10.00">include/objects/sphere.hpp</text>
</a>
</g>
</g>
<!-- Node1&#45;&gt;Node12 -->
<g id="edge20" class="edge">
<title>Node1&#45;&gt;Node12</title>
<path fill="none" stroke="midnightblue" d="M619.32,-240.4C644.74,-222.25 685.91,-193.25 694,-190 784.71,-153.54 814.62,-170.41 911,-154 922.25,-152.08 934.35,-149.99 945.73,-148"/>
<polygon fill="midnightblue" stroke="midnightblue" points="617.17,-237.64 611.07,-246.31 621.24,-243.33 617.17,-237.64"/>
</g>
<!-- Node13 -->
<g id="node13" class="node">
<title>Node13</title>
<g id="a_node13"><a xlink:href="translation_8hpp.html" target="_top" xlink:title="Class for translation of a hittable object.">
<polygon fill="white" stroke="black" points="404.5,-129 404.5,-148 571.5,-148 571.5,-129 404.5,-129"/>
<text text-anchor="middle" x="488" y="-136" font-family="Helvetica,sans-Serif" font-size="10.00">include/objects/translation.hpp</text>
</a>
</g>
</g>
<!-- Node1&#45;&gt;Node13 -->
<g id="edge25" class="edge">
<title>Node1&#45;&gt;Node13</title>
<path fill="none" stroke="midnightblue" d="M583.6,-238.78C571.08,-225.61 552.94,-206.57 537,-190 522.77,-175.21 506.12,-158.08 496.35,-148.06"/>
<polygon fill="midnightblue" stroke="midnightblue" points="581.17,-241.31 590.6,-246.15 586.25,-236.49 581.17,-241.31"/>
</g>
<!-- Node14 -->
<g id="node14" class="node">
<title>Node14</title>
<g id="a_node14"><a xlink:href="x__rotation_8hpp.html" target="_top" xlink:title="Class for rotation of object around the x axis.">
<polygon fill="white" stroke="black" points="703,-190.5 703,-209.5 867,-209.5 867,-190.5 703,-190.5"/>
<text text-anchor="middle" x="785" y="-197.5" font-family="Helvetica,sans-Serif" font-size="10.00">include/objects/x_rotation.hpp</text>
</a>
</g>
</g>
<!-- Node1&#45;&gt;Node14 -->
<g id="edge28" class="edge">
<title>Node1&#45;&gt;Node14</title>
<path fill="none" stroke="midnightblue" d="M638.38,-243.57C673.47,-233.38 724.02,-218.7 755.67,-209.52"/>
<polygon fill="midnightblue" stroke="midnightblue" points="637.1,-240.29 628.47,-246.44 639.05,-247.02 637.1,-240.29"/>
</g>
<!-- Node15 -->
<g id="node15" class="node">
<title>Node15</title>
<g id="a_node15"><a xlink:href="y__rotation_8hpp.html" target="_top" xlink:title="Class for rotation of object around the y axis.">
<polygon fill="white" stroke="black" points="590,-129 590,-148 754,-148 754,-129 590,-129"/>
<text text-anchor="middle" x="672" y="-136" font-family="Helvetica,sans-Serif" font-size="10.00">include/objects/y_rotation.hpp</text>
</a>
</g>
</g>
<!-- Node1&#45;&gt;Node15 -->
<g id="edge29" class="edge">
<title>Node1&#45;&gt;Node15</title>
<path fill="none" stroke="midnightblue" d="M603.61,-236.46C607.49,-222.92 613.89,-204.47 623,-190 633.55,-173.25 650.37,-157.48 661.3,-148.15"/>
<polygon fill="midnightblue" stroke="midnightblue" points="600.13,-235.93 600.93,-246.49 606.89,-237.73 600.13,-235.93"/>
</g>
<!-- Node16 -->
<g id="node16" class="node">
<title>Node16</title>
<g id="a_node16"><a xlink:href="z__rotation_8hpp.html" target="_top" xlink:title="Class for rotation of object around the z axis.">
<polygon fill="white" stroke="black" points="885.5,-190.5 885.5,-209.5 1048.5,-209.5 1048.5,-190.5 885.5,-190.5"/>
<text text-anchor="middle" x="967" y="-197.5" font-family="Helvetica,sans-Serif" font-size="10.00">include/objects/z_rotation.hpp</text>
</a>
</g>
</g>
<!-- Node1&#45;&gt;Node16 -->
<g id="edge32" class="edge">
<title>Node1&#45;&gt;Node16</title>
<path fill="none" stroke="midnightblue" d="M667.29,-244.98C736.8,-234.78 843.4,-219.14 908.96,-209.52"/>
<polygon fill="midnightblue" stroke="midnightblue" points="666.7,-241.53 657.31,-246.44 667.71,-248.45 666.7,-241.53"/>
</g>
<!-- Node3 -->
<g id="node3" class="node">
<title>Node3</title>
<g id="a_node3"><a xlink:href="cube_8hpp.html" target="_top" xlink:title="Cube object made of rectangles.">
<polygon fill="white" stroke="black" points="124.5,-129 124.5,-148 261.5,-148 261.5,-129 124.5,-129"/>
<text text-anchor="middle" x="193" y="-136" font-family="Helvetica,sans-Serif" font-size="10.00">include/objects/cube.hpp</text>
</a>
</g>
</g>
<!-- Node2&#45;&gt;Node3 -->
<g id="edge2" class="edge">
<title>Node2&#45;&gt;Node3</title>
<path fill="none" stroke="midnightblue" d="M373.3,-187.82C330.17,-176.26 263.79,-158.47 224.75,-148.01"/>
<polygon fill="midnightblue" stroke="midnightblue" points="372.63,-191.27 383.19,-190.48 374.44,-184.51 372.63,-191.27"/>
</g>
<!-- Node7 -->
<g id="node7" class="node">
<title>Node7</title>
<g id="a_node7"><a xlink:href="light__scene_8hpp.html" target="_top" xlink:title="Header file for light scene example (unfinished)">
<polygon fill="white" stroke="black" points="928.5,-56.5 928.5,-86.5 1041.5,-86.5 1041.5,-56.5 928.5,-56.5"/>
<text text-anchor="start" x="936.5" y="-74.5" font-family="Helvetica,sans-Serif" font-size="10.00">include/scenes/light</text>
<text text-anchor="middle" x="985" y="-63.5" font-family="Helvetica,sans-Serif" font-size="10.00">_scene.hpp</text>
</a>
</g>
</g>
<!-- Node2&#45;&gt;Node7 -->
<g id="edge6" class="edge">
<title>Node2&#45;&gt;Node7</title>
<path fill="none" stroke="midnightblue" d="M505.34,-196.09C682.01,-189.96 1057.79,-174.57 1077,-154 1100.89,-128.43 1056.41,-102.17 1021.36,-86.6"/>
<polygon fill="midnightblue" stroke="midnightblue" points="505.16,-192.59 495.28,-196.44 505.4,-199.59 505.16,-192.59"/>
</g>
<!-- Node4 -->
<g id="node4" class="node">
<title>Node4</title>
<g id="a_node4"><a xlink:href="comb__scene_8hpp.html" target="_top" xlink:title="Header file for Combined scene example (unfinished)">
<polygon fill="white" stroke="black" points="428.5,-56.5 428.5,-86.5 547.5,-86.5 547.5,-56.5 428.5,-56.5"/>
<text text-anchor="start" x="436.5" y="-74.5" font-family="Helvetica,sans-Serif" font-size="10.00">include/scenes/comb</text>
<text text-anchor="middle" x="488" y="-63.5" font-family="Helvetica,sans-Serif" font-size="10.00">_scene.hpp</text>
</a>
</g>
</g>
<!-- Node3&#45;&gt;Node4 -->
<g id="edge3" class="edge">
<title>Node3&#45;&gt;Node4</title>
<path fill="none" stroke="midnightblue" d="M241.7,-126.77C292.87,-115.5 373.41,-97.75 428.35,-85.64"/>
<polygon fill="midnightblue" stroke="midnightblue" points="240.88,-123.37 231.87,-128.94 242.39,-130.2 240.88,-123.37"/>
</g>
<!-- Node5 -->
<g id="node5" class="node">
<title>Node5</title>
<g id="a_node5"><a xlink:href="cornell__box_8hpp.html" target="_top" xlink:title="Header file for cornell box scene examples (unfinished)">
<polygon fill="white" stroke="black" points="609.5,-56.5 609.5,-86.5 734.5,-86.5 734.5,-56.5 609.5,-56.5"/>
<text text-anchor="start" x="617.5" y="-74.5" font-family="Helvetica,sans-Serif" font-size="10.00">include/scenes/cornell</text>
<text text-anchor="middle" x="672" y="-63.5" font-family="Helvetica,sans-Serif" font-size="10.00">_box.hpp</text>
</a>
</g>
</g>
<!-- Node3&#45;&gt;Node5 -->
<g id="edge4" class="edge">
<title>Node3&#45;&gt;Node5</title>
<path fill="none" stroke="midnightblue" d="M245.53,-127.16C253.7,-125.68 262.07,-124.24 270,-123 397,-103.1 429.45,-103.04 557,-87 573.97,-84.87 592.35,-82.55 609.33,-80.41"/>
<polygon fill="midnightblue" stroke="midnightblue" points="244.88,-123.72 235.68,-128.98 246.15,-130.61 244.88,-123.72"/>
</g>
<!-- Node6 -->
<g id="node6" class="node">
<title>Node6</title>
<g id="a_node6"><a xlink:href="main_8cpp.html" target="_top" xlink:title="Main file for Serial ray tracer project.">
<polygon fill="white" stroke="black" points="723,-0.5 723,-19.5 785,-19.5 785,-0.5 723,-0.5"/>
<text text-anchor="middle" x="754" y="-7.5" font-family="Helvetica,sans-Serif" font-size="10.00">main.cpp</text>
</a>
</g>
</g>
<!-- Node5&#45;&gt;Node6 -->
<g id="edge5" class="edge">
<title>Node5&#45;&gt;Node6</title>
<path fill="none" stroke="midnightblue" d="M699.59,-50.48C714.03,-40 730.97,-27.71 742.07,-19.66"/>
<polygon fill="midnightblue" stroke="midnightblue" points="697.47,-47.69 691.43,-56.4 701.58,-53.36 697.47,-47.69"/>
</g>
<!-- Node7&#45;&gt;Node6 -->
<g id="edge7" class="edge">
<title>Node7&#45;&gt;Node6</title>
<path fill="none" stroke="midnightblue" d="M920.74,-53.95C876.47,-42.55 819.61,-27.9 785.03,-18.99"/>
<polygon fill="midnightblue" stroke="midnightblue" points="919.99,-57.37 930.55,-56.47 921.74,-50.59 919.99,-57.37"/>
</g>
<!-- Node8&#45;&gt;Node4 -->
<g id="edge9" class="edge">
<title>Node8&#45;&gt;Node4</title>
<path fill="none" stroke="midnightblue" d="M116.15,-122.89C232.19,-101.87 356.5,-86.79 428.29,-78.81"/>
<polygon fill="midnightblue" stroke="midnightblue" points="115.24,-119.5 106.03,-124.75 116.5,-126.39 115.24,-119.5"/>
</g>
<!-- Node8&#45;&gt;Node6 -->
<g id="edge10" class="edge">
<title>Node8&#45;&gt;Node6</title>
<path fill="none" stroke="midnightblue" d="M116.05,-122.77C251.95,-91.73 286.54,-79.61 420,-56 530.62,-36.43 663.19,-20.9 722.55,-14.36"/>
<polygon fill="midnightblue" stroke="midnightblue" points="115.06,-119.4 106.09,-125.03 116.62,-126.23 115.06,-119.4"/>
</g>
<!-- Node9&#45;&gt;Node4 -->
<g id="edge12" class="edge">
<title>Node9&#45;&gt;Node4</title>
<path fill="none" stroke="midnightblue" d="M376.15,-119.41C400.89,-109.03 431.5,-96.2 454.43,-86.58"/>
<polygon fill="midnightblue" stroke="midnightblue" points="374.5,-116.3 366.63,-123.4 377.21,-122.76 374.5,-116.3"/>
</g>
<!-- Node9&#45;&gt;Node5 -->
<g id="edge13" class="edge">
<title>Node9&#45;&gt;Node5</title>
<path fill="none" stroke="midnightblue" d="M396.73,-122.91C475.86,-106.7 555.62,-92.44 609.36,-83.13"/>
<polygon fill="midnightblue" stroke="midnightblue" points="395.67,-119.55 386.58,-124.99 397.08,-126.41 395.67,-119.55"/>
</g>
<!-- Node10&#45;&gt;Node4 -->
<g id="edge15" class="edge">
<title>Node10&#45;&gt;Node4</title>
<path fill="none" stroke="midnightblue" d="M761.44,-122.72C681.88,-107.65 601.02,-92.9 547.58,-83.23"/>
<polygon fill="midnightblue" stroke="midnightblue" points="761.16,-126.22 771.64,-124.65 762.47,-119.35 761.16,-126.22"/>
</g>
<!-- Node10&#45;&gt;Node5 -->
<g id="edge16" class="edge">
<title>Node10&#45;&gt;Node5</title>
<path fill="none" stroke="midnightblue" d="M791.77,-119.68C765.31,-109.26 732.37,-96.28 707.73,-86.58"/>
<polygon fill="midnightblue" stroke="midnightblue" points="790.61,-122.99 801.2,-123.4 793.18,-116.47 790.61,-122.99"/>
</g>
<!-- Node10&#45;&gt;Node7 -->
<g id="edge17" class="edge">
<title>Node10&#45;&gt;Node7</title>
<path fill="none" stroke="midnightblue" d="M878.51,-119.27C902.08,-108.92 931.14,-96.15 952.95,-86.58"/>
<polygon fill="midnightblue" stroke="midnightblue" points="876.86,-116.17 869.11,-123.4 879.68,-122.58 876.86,-116.17"/>
</g>
<!-- Node11 -->
<g id="node11" class="node">
<title>Node11</title>
<g id="a_node11"><a xlink:href="random__scene_8hpp.html" target="_top" xlink:title="Header file for random scene example (unfinished)">
<polygon fill="white" stroke="black" points="772.5,-56.5 772.5,-86.5 901.5,-86.5 901.5,-56.5 772.5,-56.5"/>
<text text-anchor="start" x="780.5" y="-74.5" font-family="Helvetica,sans-Serif" font-size="10.00">include/scenes/random</text>
<text text-anchor="middle" x="837" y="-63.5" font-family="Helvetica,sans-Serif" font-size="10.00">_scene.hpp</text>
</a>
</g>
</g>
<!-- Node10&#45;&gt;Node11 -->
<g id="edge18" class="edge">
<title>Node10&#45;&gt;Node11</title>
<path fill="none" stroke="midnightblue" d="M837,-113.11C837,-104.15 837,-94.32 837,-86.58"/>
<polygon fill="midnightblue" stroke="midnightblue" points="833.5,-113.4 837,-123.4 840.5,-113.4 833.5,-113.4"/>
</g>
<!-- Node11&#45;&gt;Node6 -->
<g id="edge19" class="edge">
<title>Node11&#45;&gt;Node6</title>
<path fill="none" stroke="midnightblue" d="M809.08,-50.48C794.46,-40 777.31,-27.71 766.08,-19.66"/>
<polygon fill="midnightblue" stroke="midnightblue" points="807.16,-53.42 817.33,-56.4 811.24,-47.73 807.16,-53.42"/>
</g>
<!-- Node12&#45;&gt;Node4 -->
<g id="edge21" class="edge">
<title>Node12&#45;&gt;Node4</title>
<path fill="none" stroke="midnightblue" d="M937.95,-127.26C928.95,-125.74 919.73,-124.27 911,-123 773.74,-103.06 738.68,-103.83 601,-87 583.62,-84.88 564.76,-82.49 547.51,-80.27"/>
<polygon fill="midnightblue" stroke="midnightblue" points="937.53,-130.74 947.98,-128.98 938.71,-123.84 937.53,-130.74"/>
</g>
<!-- Node12&#45;&gt;Node5 -->
<g id="edge22" class="edge">
<title>Node12&#45;&gt;Node5</title>
<path fill="none" stroke="midnightblue" d="M941.77,-126.96C885.22,-115.54 795.06,-97.34 734.72,-85.16"/>
<polygon fill="midnightblue" stroke="midnightblue" points="941.08,-130.39 951.57,-128.94 942.46,-123.53 941.08,-130.39"/>
</g>
<!-- Node12&#45;&gt;Node7 -->
<g id="edge23" class="edge">
<title>Node12&#45;&gt;Node7</title>
<path fill="none" stroke="midnightblue" d="M991.4,-118.74C989.98,-108.49 988.25,-96 986.95,-86.59"/>
<polygon fill="midnightblue" stroke="midnightblue" points="987.95,-119.31 992.79,-128.73 994.88,-118.35 987.95,-119.31"/>
</g>
<!-- Node12&#45;&gt;Node11 -->
<g id="edge24" class="edge">
<title>Node12&#45;&gt;Node11</title>
<path fill="none" stroke="midnightblue" d="M963.6,-124.91C937.01,-113.91 898.45,-97.94 870.88,-86.53"/>
<polygon fill="midnightblue" stroke="midnightblue" points="962.57,-128.28 973.15,-128.87 965.25,-121.81 962.57,-128.28"/>
</g>
<!-- Node13&#45;&gt;Node4 -->
<g id="edge26" class="edge">
<title>Node13&#45;&gt;Node4</title>
<path fill="none" stroke="midnightblue" d="M488,-118.41C488,-108.22 488,-95.9 488,-86.59"/>
<polygon fill="midnightblue" stroke="midnightblue" points="484.5,-118.73 488,-128.73 491.5,-118.73 484.5,-118.73"/>
</g>
<!-- Node13&#45;&gt;Node5 -->
<g id="edge27" class="edge">
<title>Node13&#45;&gt;Node5</title>
<path fill="none" stroke="midnightblue" d="M522,-125.49C553.19,-114.47 599.41,-98.14 632.29,-86.53"/>
<polygon fill="midnightblue" stroke="midnightblue" points="520.7,-122.24 512.43,-128.87 523.03,-128.84 520.7,-122.24"/>
</g>
<!-- Node15&#45;&gt;Node4 -->
<g id="edge30" class="edge">
<title>Node15&#45;&gt;Node4</title>
<path fill="none" stroke="midnightblue" d="M638,-125.49C606.81,-114.47 560.59,-98.14 527.71,-86.53"/>
<polygon fill="midnightblue" stroke="midnightblue" points="636.97,-128.84 647.57,-128.87 639.3,-122.24 636.97,-128.84"/>
</g>
<!-- Node15&#45;&gt;Node5 -->
<g id="edge31" class="edge">
<title>Node15&#45;&gt;Node5</title>
<path fill="none" stroke="midnightblue" d="M672,-118.41C672,-108.22 672,-95.9 672,-86.59"/>
<polygon fill="midnightblue" stroke="midnightblue" points="668.5,-118.73 672,-128.73 675.5,-118.73 668.5,-118.73"/>
</g>
</g>
</svg>
        <g id="navigator" transform="translate(0 0)" fill="#404254">
                <rect fill="#f2f5e9" fill-opacity="0.5" stroke="#606060" stroke-width=".5" x="0" y="0" width="60" height="60"/>
                <use id="zoomplus" xlink:href="#zoomPlus" x="17" y="9" onmousedown="handleZoom(evt,'in')"/>
                <use id="zoomminus" xlink:href="#zoomMin" x="42" y="9" onmousedown="handleZoom(evt,'out')"/>
                <use id="reset" xlink:href="#resetDef" x="30" y="36" onmousedown="handleReset()"/>
                <g id="arrowUp" xlink:href="#dirArrow" transform="translate(30 24)" onmousedown="handlePan(0,-1)">
                  <use xlink:href="#rim" fill="#404040">
                        <set attributeName="fill" to="#808080" begin="arrowUp.mouseover" end="arrowUp.mouseout"/>
                  </use>
                  <path fill="none" stroke="white" stroke-width="1.5" d="M0,-3.0v7 M-2.5,-0.5L0,-3.0L2.5,-0.5"/>
                </g>
                <g id="arrowRight" xlink:href="#dirArrow" transform="rotate(90) translate(36 -43)" onmousedown="handlePan(1,0)">
                  <use xlink:href="#rim" fill="#404040">
                        <set attributeName="fill" to="#808080" begin="arrowRight.mouseover" end="arrowRight.mouseout"/>
                  </use>
                  <path fill="none" stroke="white" stroke-width="1.5" d="M0,-3.0v7 M-2.5,-0.5L0,-3.0L2.5,-0.5"/>
                </g>
                <g id="arrowDown" xlink:href="#dirArrow" transform="rotate(180) translate(-30 -48)" onmousedown="handlePan(0,1)">
                  <use xlink:href="#rim" fill="#404040">
                        <set attributeName="fill" to="#808080" begin="arrowDown.mouseover" end="arrowDown.mouseout"/>
                  </use>
                  <path fill="none" stroke="white" stroke-width="1.5" d="M0,-3.0v7 M-2.5,-0.5L0,-3.0L2.5,-0.5"/>
                </g>
                <g id="arrowLeft" xlink:href="#dirArrow" transform="rotate(270) translate(-36 17)" onmousedown="handlePan(-1,0)">
                  <use xlink:href="#rim" fill="#404040">
                        <set attributeName="fill" to="#808080" begin="arrowLeft.mouseover" end="arrowLeft.mouseout"/>
                  </use>
                  <path fill="none" stroke="white" stroke-width="1.5" d="M0,-3.0v7 M-2.5,-0.5L0,-3.0L2.5,-0.5"/>
                </g>
        </g>
        <svg viewBox="0 0 15 15" width="100%" height="30px" preserveAspectRatio="xMaxYMin meet">
         <g id="arrow_out" transform="scale(0.3 0.3)">
          <a xlink:href="hit_8hpp__dep__incl_org.svg" target="_base">
           <rect id="button" ry="5" rx="5" y="6" x="6" height="38" width="38"
                fill="#f2f5e9" fill-opacity="0.5" stroke="#606060" stroke-width="1.0"/>
           <path id="arrow"
             d="M 11.500037,31.436501 C 11.940474,20.09759 22.043105,11.32322 32.158766,21.979434 L 37.068811,17.246167 C 37.068811,17.246167 37.088388,32 37.088388,32 L 22.160133,31.978069 C 22.160133,31.978069 26.997745,27.140456 26.997745,27.140456 C 18.528582,18.264221 13.291696,25.230495 11.500037,31.436501 z"
             style="fill:#404040;"/>
          </a>
         </g>
        </svg>
</svg>
