<?xml version="1.0" encoding="UTF-8" standalone="no"?>
<!DOCTYPE svg PUBLIC "-//W3C//DTD SVG 1.1//EN"
 "http://www.w3.org/Graphics/SVG/1.1/DTD/svg11.dtd">
<!-- Generated by graphviz version 2.43.0 (0)
 -->
<!-- Title: include/objects/hit_list.hpp Pages: 1 -->
<svg width="523pt" height="173pt"
 viewBox="0.00 0.00 523.00 173.00" xmlns="http://www.w3.org/2000/svg" xmlns:xlink="http://www.w3.org/1999/xlink">
<g id="graph0" class="graph" transform="scale(1 1) rotate(0) translate(4 169)">
<title>include/objects/hit_list.hpp</title>
<polygon fill="white" stroke="transparent" points="-4,4 -4,-169 519,-169 519,4 -4,4"/>
<!-- Node1 -->
<g id="node1" class="node">
<title>Node1</title>
<g id="a_node1"><a xlink:title="List of hittable objects.">
<polygon fill="#bfbfbf" stroke="black" points="173.5,-134.5 173.5,-164.5 279.5,-164.5 279.5,-134.5 173.5,-134.5"/>
<text text-anchor="start" x="181.5" y="-152.5" font-family="Helvetica,sans-Serif" font-size="10.00">include/objects/hit</text>
<text text-anchor="middle" x="226.5" y="-141.5" font-family="Helvetica,sans-Serif" font-size="10.00">_list.hpp</text>
</a>
</g>
</g>
<!-- Node2 -->
<g id="node2" class="node">
<title>Node2</title>
<g id="a_node2"><a xlink:href="cube_8hpp.html" target="_top" xlink:title="Cube object made of rectangles.">
<polygon fill="white" stroke="black" points="61,-73 61,-92 198,-92 198,-73 61,-73"/>
<text text-anchor="middle" x="129.5" y="-80" font-family="Helvetica,sans-Serif" font-size="10.00">include/objects/cube.hpp</text>
</a>
</g>
</g>
<!-- Node1&#45;&gt;Node2 -->
<g id="edge1" class="edge">
<title>Node1&#45;&gt;Node2</title>
<path fill="none" stroke="midnightblue" d="M196.86,-128.64C178.56,-116.37 156.01,-101.26 142.2,-92.01"/>
<polygon fill="midnightblue" stroke="midnightblue" points="195.2,-131.74 205.45,-134.4 199.09,-125.92 195.2,-131.74"/>
</g>
<!-- Node3 -->
<g id="node3" class="node">
<title>Node3</title>
<g id="a_node3"><a xlink:href="comb__scene_8hpp.html" target="_top" xlink:title="Header file for Combined scene example (unfinished)">
<polygon fill="white" stroke="black" points="0,-0.5 0,-30.5 119,-30.5 119,-0.5 0,-0.5"/>
<text text-anchor="start" x="8" y="-18.5" font-family="Helvetica,sans-Serif" font-size="10.00">include/scenes/comb</text>
<text text-anchor="middle" x="59.5" y="-7.5" font-family="Helvetica,sans-Serif" font-size="10.00">_scene.hpp</text>
</a>
</g>
</g>
<!-- Node1&#45;&gt;Node3 -->
<g id="edge4" class="edge">
<title>Node1&#45;&gt;Node3</title>
<path fill="none" stroke="midnightblue" d="M163.27,-138.43C118.92,-129.92 65.2,-116.21 51.5,-98 36.8,-78.46 45.46,-48.39 52.73,-30.75"/>
<polygon fill="midnightblue" stroke="midnightblue" points="162.68,-141.88 173.15,-140.27 163.96,-134.99 162.68,-141.88"/>
</g>
<!-- Node4 -->
<g id="node4" class="node">
<title>Node4</title>
<g id="a_node4"><a xlink:href="cornell__box_8hpp.html" target="_top" xlink:title="Header file for cornell box scene examples (unfinished)">
<polygon fill="white" stroke="black" points="150,-0.5 150,-30.5 275,-30.5 275,-0.5 150,-0.5"/>
<text text-anchor="start" x="158" y="-18.5" font-family="Helvetica,sans-Serif" font-size="10.00">include/scenes/cornell</text>
<text text-anchor="middle" x="212.5" y="-7.5" font-family="Helvetica,sans-Serif" font-size="10.00">_box.hpp</text>
</a>
</g>
</g>
<!-- Node1&#45;&gt;Node4 -->
<g id="edge5" class="edge">
<title>Node1&#45;&gt;Node4</title>
<path fill="none" stroke="midnightblue" d="M223.94,-124.39C221.03,-96.9 216.36,-52.89 213.99,-30.52"/>
<polygon fill="midnightblue" stroke="midnightblue" points="220.47,-124.8 225,-134.37 227.43,-124.06 220.47,-124.8"/>
</g>
<!-- Node5 -->
<g id="node5" class="node">
<title>Node5</title>
<g id="a_node5"><a xlink:href="light__scene_8hpp.html" target="_top" xlink:title="Header file for light scene example (unfinished)">
<polygon fill="white" stroke="black" points="255,-67.5 255,-97.5 368,-97.5 368,-67.5 255,-67.5"/>
<text text-anchor="start" x="263" y="-85.5" font-family="Helvetica,sans-Serif" font-size="10.00">include/scenes/light</text>
<text text-anchor="middle" x="311.5" y="-74.5" font-family="Helvetica,sans-Serif" font-size="10.00">_scene.hpp</text>
</a>
</g>
</g>
<!-- Node1&#45;&gt;Node5 -->
<g id="edge6" class="edge">
<title>Node1&#45;&gt;Node5</title>
<path fill="none" stroke="midnightblue" d="M253.09,-128.17C266.09,-118.23 281.4,-106.51 293.09,-97.58"/>
<polygon fill="midnightblue" stroke="midnightblue" points="250.76,-125.54 244.94,-134.4 255.01,-131.1 250.76,-125.54"/>
</g>
<!-- Node6 -->
<g id="node6" class="node">
<title>Node6</title>
<g id="a_node6"><a xlink:href="random__scene_8hpp.html" target="_top" xlink:title="Header file for random scene example (unfinished)">
<polygon fill="white" stroke="black" points="386,-67.5 386,-97.5 515,-97.5 515,-67.5 386,-67.5"/>
<text text-anchor="start" x="394" y="-85.5" font-family="Helvetica,sans-Serif" font-size="10.00">include/scenes/random</text>
<text text-anchor="middle" x="450.5" y="-74.5" font-family="Helvetica,sans-Serif" font-size="10.00">_scene.hpp</text>
</a>
</g>
</g>
<!-- Node1&#45;&gt;Node6 -->
<g id="edge7" class="edge">
<title>Node1&#45;&gt;Node6</title>
<path fill="none" stroke="midnightblue" d="M284.81,-131.58C321.19,-121.02 367.47,-107.59 401.87,-97.61"/>
<polygon fill="midnightblue" stroke="midnightblue" points="283.46,-128.33 274.83,-134.48 285.41,-135.05 283.46,-128.33"/>
</g>
<!-- Node2&#45;&gt;Node3 -->
<g id="edge2" class="edge">
<title>Node2&#45;&gt;Node3</title>
<path fill="none" stroke="midnightblue" d="M112.73,-65.93C101.15,-55.18 85.89,-41 74.67,-30.59"/>
<polygon fill="midnightblue" stroke="midnightblue" points="110.35,-68.49 120.06,-72.73 115.11,-63.36 110.35,-68.49"/>
</g>
<!-- Node2&#45;&gt;Node4 -->
<g id="edge3" class="edge">
<title>Node2&#45;&gt;Node4</title>
<path fill="none" stroke="midnightblue" d="M148.6,-66.54C162.41,-55.73 180.96,-41.2 194.51,-30.59"/>
<polygon fill="midnightblue" stroke="midnightblue" points="146.41,-63.81 140.69,-72.73 150.72,-69.32 146.41,-63.81"/>
</g>
</g>
</svg>
