<?xml version="1.0" encoding="UTF-8" standalone="no"?>
<!DOCTYPE svg PUBLIC "-//W3C//DTD SVG 1.1//EN"
 "http://www.w3.org/Graphics/SVG/1.1/DTD/svg11.dtd">
<!-- Generated by graphviz version 2.43.0 (0)
 -->
<!-- Title: Graphical Class Hierarchy Pages: 1 -->
<svg width="222pt" height="484pt"
 viewBox="0.00 0.00 222.00 484.00" xmlns="http://www.w3.org/2000/svg" xmlns:xlink="http://www.w3.org/1999/xlink">
<g id="graph0" class="graph" transform="scale(1 1) rotate(0) translate(4 480)">
<title>Graphical Class Hierarchy</title>
<polygon fill="white" stroke="transparent" points="-4,4 -4,-480 218,-480 218,4 -4,4"/>
<!-- Node0 -->
<g id="node1" class="node">
<title>Node0</title>
<g id="a_node1"><a xlink:href="classhit.html" target="_top" xlink:title="Base class for hittable objects.">
<polygon fill="white" stroke="black" points="0,-228.5 0,-247.5 58,-247.5 58,-228.5 0,-228.5"/>
<text text-anchor="middle" x="29" y="-235.5" font-family="Helvetica,sans-Serif" font-size="10.00">hit&lt; T &gt;</text>
</a>
</g>
</g>
<!-- Node1 -->
<g id="node2" class="node">
<title>Node1</title>
<g id="a_node2"><a xlink:href="classbvh__node.html" target="_top" xlink:title="BVH Node class, these nodes recurse to build a tree.">
<polygon fill="white" stroke="black" points="108,-456.5 108,-475.5 200,-475.5 200,-456.5 108,-456.5"/>
<text text-anchor="middle" x="154" y="-463.5" font-family="Helvetica,sans-Serif" font-size="10.00">bvh_node&lt; T &gt;</text>
</a>
</g>
</g>
<!-- Node0&#45;&gt;Node1 -->
<g id="edge1" class="edge">
<title>Node0&#45;&gt;Node1</title>
<path fill="none" stroke="midnightblue" d="M30.28,-258C31.96,-299.15 41.65,-393.89 94,-447 97.93,-450.99 102.69,-454.14 107.8,-456.63"/>
<polygon fill="midnightblue" stroke="midnightblue" points="33.78,-257.79 29.99,-247.89 26.78,-257.99 33.78,-257.79"/>
</g>
<!-- Node2 -->
<g id="node3" class="node">
<title>Node2</title>
<g id="a_node3"><a xlink:href="classcube.html" target="_top" xlink:title="Cube object made of 6 square sides.">
<polygon fill="white" stroke="black" points="120,-418.5 120,-437.5 188,-437.5 188,-418.5 120,-418.5"/>
<text text-anchor="middle" x="154" y="-425.5" font-family="Helvetica,sans-Serif" font-size="10.00">cube&lt; T &gt;</text>
</a>
</g>
</g>
<!-- Node0&#45;&gt;Node2 -->
<g id="edge2" class="edge">
<title>Node0&#45;&gt;Node2</title>
<path fill="none" stroke="midnightblue" d="M31.85,-257.73C36.22,-293.06 50.34,-367.33 94,-409 101.08,-415.76 110.59,-420.12 119.89,-422.92"/>
<polygon fill="midnightblue" stroke="midnightblue" points="35.32,-257.27 30.75,-247.71 28.37,-258.04 35.32,-257.27"/>
</g>
<!-- Node3 -->
<g id="node4" class="node">
<title>Node3</title>
<g id="a_node4"><a xlink:href="classhit__list.html" target="_top" xlink:title="List of hittable objects.">
<polygon fill="white" stroke="black" points="115,-380.5 115,-399.5 193,-399.5 193,-380.5 115,-380.5"/>
<text text-anchor="middle" x="154" y="-387.5" font-family="Helvetica,sans-Serif" font-size="10.00">hit_list&lt; T &gt;</text>
</a>
</g>
</g>
<!-- Node0&#45;&gt;Node3 -->
<g id="edge3" class="edge">
<title>Node0&#45;&gt;Node3</title>
<path fill="none" stroke="midnightblue" d="M34.26,-257.72C41.53,-286.67 59.04,-340.53 94,-371 99.92,-376.16 107.26,-379.92 114.73,-382.67"/>
<polygon fill="midnightblue" stroke="midnightblue" points="37.58,-256.56 31.89,-247.62 30.77,-258.16 37.58,-256.56"/>
</g>
<!-- Node4 -->
<g id="node5" class="node">
<title>Node4</title>
<g id="a_node5"><a xlink:href="classiso__fog.html" target="_top" xlink:title="Isotropically scattering fog object.">
<polygon fill="white" stroke="black" points="114,-342.5 114,-361.5 194,-361.5 194,-342.5 114,-342.5"/>
<text text-anchor="middle" x="154" y="-349.5" font-family="Helvetica,sans-Serif" font-size="10.00">iso_fog&lt; T &gt;</text>
</a>
</g>
</g>
<!-- Node0&#45;&gt;Node4 -->
<g id="edge4" class="edge">
<title>Node0&#45;&gt;Node4</title>
<path fill="none" stroke="midnightblue" d="M38.1,-257C48.18,-278.46 67.36,-312.97 94,-333 99.85,-337.4 106.75,-340.8 113.74,-343.42"/>
<polygon fill="midnightblue" stroke="midnightblue" points="41.18,-255.33 33.89,-247.64 34.8,-258.2 41.18,-255.33"/>
</g>
<!-- Node5 -->
<g id="node6" class="node">
<title>Node5</title>
<g id="a_node6"><a xlink:href="classmoving__sphere.html" target="_top" xlink:title="Moving sphere object, to render a sphere with motion blur.">
<polygon fill="white" stroke="black" points="94,-304.5 94,-323.5 214,-323.5 214,-304.5 94,-304.5"/>
<text text-anchor="middle" x="154" y="-311.5" font-family="Helvetica,sans-Serif" font-size="10.00">moving_sphere&lt; T &gt;</text>
</a>
</g>
</g>
<!-- Node0&#45;&gt;Node5 -->
<g id="edge5" class="edge">
<title>Node0&#45;&gt;Node5</title>
<path fill="none" stroke="midnightblue" d="M45.67,-255.41C57.79,-267.95 75.57,-284.46 94,-295 100.54,-298.74 107.91,-301.86 115.18,-304.41"/>
<polygon fill="midnightblue" stroke="midnightblue" points="47.97,-252.74 38.58,-247.84 42.86,-257.53 47.97,-252.74"/>
</g>
<!-- Node6 -->
<g id="node7" class="node">
<title>Node6</title>
<g id="a_node7"><a xlink:href="classsphere.html" target="_top" xlink:title="Sphere object to be rendered.">
<polygon fill="white" stroke="black" points="115,-266.5 115,-285.5 193,-285.5 193,-266.5 115,-266.5"/>
<text text-anchor="middle" x="154" y="-273.5" font-family="Helvetica,sans-Serif" font-size="10.00">sphere&lt; T &gt;</text>
</a>
</g>
</g>
<!-- Node0&#45;&gt;Node6 -->
<g id="edge6" class="edge">
<title>Node0&#45;&gt;Node6</title>
<path fill="none" stroke="midnightblue" d="M68.01,-249.74C85.31,-255.09 105.52,-261.33 121.89,-266.39"/>
<polygon fill="midnightblue" stroke="midnightblue" points="68.81,-246.33 58.22,-246.72 66.74,-253.01 68.81,-246.33"/>
</g>
<!-- Node7 -->
<g id="node8" class="node">
<title>Node7</title>
<g id="a_node8"><a xlink:href="classtranslate.html" target="_top" xlink:title="Object for translation of a hittable object.">
<polygon fill="white" stroke="black" points="109.5,-228.5 109.5,-247.5 198.5,-247.5 198.5,-228.5 109.5,-228.5"/>
<text text-anchor="middle" x="154" y="-235.5" font-family="Helvetica,sans-Serif" font-size="10.00">translate&lt; T &gt;</text>
</a>
</g>
</g>
<!-- Node0&#45;&gt;Node7 -->
<g id="edge7" class="edge">
<title>Node0&#45;&gt;Node7</title>
<path fill="none" stroke="midnightblue" d="M68.28,-238C81.34,-238 96.04,-238 109.48,-238"/>
<polygon fill="midnightblue" stroke="midnightblue" points="68.22,-234.5 58.22,-238 68.22,-241.5 68.22,-234.5"/>
</g>
<!-- Node8 -->
<g id="node9" class="node">
<title>Node8</title>
<g id="a_node9"><a xlink:href="classx__rotation.html" target="_top" xlink:title="Object for rotation around the x axis.">
<polygon fill="white" stroke="black" points="106.5,-190.5 106.5,-209.5 201.5,-209.5 201.5,-190.5 106.5,-190.5"/>
<text text-anchor="middle" x="154" y="-197.5" font-family="Helvetica,sans-Serif" font-size="10.00">x_rotation&lt; T &gt;</text>
</a>
</g>
</g>
<!-- Node0&#45;&gt;Node8 -->
<g id="edge8" class="edge">
<title>Node0&#45;&gt;Node8</title>
<path fill="none" stroke="midnightblue" d="M68.01,-226.26C85.31,-220.91 105.52,-214.67 121.89,-209.61"/>
<polygon fill="midnightblue" stroke="midnightblue" points="66.74,-222.99 58.22,-229.28 68.81,-229.67 66.74,-222.99"/>
</g>
<!-- Node9 -->
<g id="node10" class="node">
<title>Node9</title>
<g id="a_node10"><a xlink:href="classxy__rectangle.html" target="_top" xlink:title="Rectangular plane with normal along z.">
<polygon fill="white" stroke="black" points="100,-152.5 100,-171.5 208,-171.5 208,-152.5 100,-152.5"/>
<text text-anchor="middle" x="154" y="-159.5" font-family="Helvetica,sans-Serif" font-size="10.00">xy_rectangle&lt; T &gt;</text>
</a>
</g>
</g>
<!-- Node0&#45;&gt;Node9 -->
<g id="edge9" class="edge">
<title>Node0&#45;&gt;Node9</title>
<path fill="none" stroke="midnightblue" d="M45.67,-220.59C57.79,-208.05 75.57,-191.54 94,-181 100.54,-177.26 107.91,-174.14 115.18,-171.59"/>
<polygon fill="midnightblue" stroke="midnightblue" points="42.86,-218.47 38.58,-228.16 47.97,-223.26 42.86,-218.47"/>
</g>
<!-- Node10 -->
<g id="node11" class="node">
<title>Node10</title>
<g id="a_node11"><a xlink:href="classxz__rectangle.html" target="_top" xlink:title="Rectangular plane with normal along y.">
<polygon fill="white" stroke="black" points="100.5,-114.5 100.5,-133.5 207.5,-133.5 207.5,-114.5 100.5,-114.5"/>
<text text-anchor="middle" x="154" y="-121.5" font-family="Helvetica,sans-Serif" font-size="10.00">xz_rectangle&lt; T &gt;</text>
</a>
</g>
</g>
<!-- Node0&#45;&gt;Node10 -->
<g id="edge10" class="edge">
<title>Node0&#45;&gt;Node10</title>
<path fill="none" stroke="midnightblue" d="M38.1,-219C48.18,-197.54 67.36,-163.03 94,-143 99.16,-139.12 105.14,-136.01 111.28,-133.53"/>
<polygon fill="midnightblue" stroke="midnightblue" points="34.8,-217.8 33.89,-228.36 41.18,-220.67 34.8,-217.8"/>
</g>
<!-- Node11 -->
<g id="node12" class="node">
<title>Node11</title>
<g id="a_node12"><a xlink:href="classy__rotation.html" target="_top" xlink:title="Object for rotation around the y axis.">
<polygon fill="white" stroke="black" points="106.5,-76.5 106.5,-95.5 201.5,-95.5 201.5,-76.5 106.5,-76.5"/>
<text text-anchor="middle" x="154" y="-83.5" font-family="Helvetica,sans-Serif" font-size="10.00">y_rotation&lt; T &gt;</text>
</a>
</g>
</g>
<!-- Node0&#45;&gt;Node11 -->
<g id="edge11" class="edge">
<title>Node0&#45;&gt;Node11</title>
<path fill="none" stroke="midnightblue" d="M34.26,-218.28C41.53,-189.33 59.04,-135.47 94,-105 98.46,-101.11 103.73,-98.02 109.25,-95.55"/>
<polygon fill="midnightblue" stroke="midnightblue" points="30.77,-217.84 31.89,-228.38 37.58,-219.44 30.77,-217.84"/>
</g>
<!-- Node12 -->
<g id="node13" class="node">
<title>Node12</title>
<g id="a_node13"><a xlink:href="classyz__rectangle.html" target="_top" xlink:title="Rectangular plane with normal along x.">
<polygon fill="white" stroke="black" points="100.5,-38.5 100.5,-57.5 207.5,-57.5 207.5,-38.5 100.5,-38.5"/>
<text text-anchor="middle" x="154" y="-45.5" font-family="Helvetica,sans-Serif" font-size="10.00">yz_rectangle&lt; T &gt;</text>
</a>
</g>
</g>
<!-- Node0&#45;&gt;Node12 -->
<g id="edge12" class="edge">
<title>Node0&#45;&gt;Node12</title>
<path fill="none" stroke="midnightblue" d="M31.85,-218.27C36.22,-182.94 50.34,-108.67 94,-67 98.05,-63.14 102.89,-60.06 108.03,-57.61"/>
<polygon fill="midnightblue" stroke="midnightblue" points="28.37,-217.96 30.75,-228.29 35.32,-218.73 28.37,-217.96"/>
</g>
<!-- Node13 -->
<g id="node14" class="node">
<title>Node13</title>
<g id="a_node14"><a xlink:href="classz__rotation.html" target="_top" xlink:title="Object for rotation around the z axis.">
<polygon fill="white" stroke="black" points="107,-0.5 107,-19.5 201,-19.5 201,-0.5 107,-0.5"/>
<text text-anchor="middle" x="154" y="-7.5" font-family="Helvetica,sans-Serif" font-size="10.00">z_rotation&lt; T &gt;</text>
</a>
</g>
</g>
<!-- Node0&#45;&gt;Node13 -->
<g id="edge13" class="edge">
<title>Node0&#45;&gt;Node13</title>
<path fill="none" stroke="midnightblue" d="M30.28,-218C31.96,-176.85 41.65,-82.11 94,-29 97.85,-25.09 102.51,-21.99 107.5,-19.52"/>
<polygon fill="midnightblue" stroke="midnightblue" points="26.78,-218.01 29.99,-228.11 33.78,-218.21 26.78,-218.01"/>
</g>
</g>
</svg>
