<?xml version="1.0" encoding="UTF-8" standalone="no"?>
<!DOCTYPE svg PUBLIC "-//W3C//DTD SVG 1.1//EN"
 "http://www.w3.org/Graphics/SVG/1.1/DTD/svg11.dtd">
<!-- Generated by graphviz version 2.43.0 (0)
 -->
<!-- Title: Graphical Class Hierarchy Pages: 1 -->
<svg width="235pt" height="180pt"
 viewBox="0.00 0.00 235.00 180.00" xmlns="http://www.w3.org/2000/svg" xmlns:xlink="http://www.w3.org/1999/xlink">
<g id="graph0" class="graph" transform="scale(1 1) rotate(0) translate(4 176)">
<title>Graphical Class Hierarchy</title>
<polygon fill="white" stroke="transparent" points="-4,4 -4,-176 231,-176 231,4 -4,4"/>
<!-- Node0 -->
<g id="node1" class="node">
<title>Node0</title>
<g id="a_node1"><a xlink:href="classmaterial.html" target="_top" xlink:title="Material base class.">
<polygon fill="white" stroke="black" points="0,-76.5 0,-95.5 86,-95.5 86,-76.5 0,-76.5"/>
<text text-anchor="middle" x="43" y="-83.5" font-family="Helvetica,sans-Serif" font-size="10.00">material&lt; T &gt;</text>
</a>
</g>
</g>
<!-- Node1 -->
<g id="node2" class="node">
<title>Node1</title>
<g id="a_node2"><a xlink:href="classdiffuse.html" target="_top" xlink:title="Object for diffuse reflection of light; subclass of material.">
<polygon fill="white" stroke="black" points="135.5,-152.5 135.5,-171.5 213.5,-171.5 213.5,-152.5 135.5,-152.5"/>
<text text-anchor="middle" x="174.5" y="-159.5" font-family="Helvetica,sans-Serif" font-size="10.00">diffuse&lt; T &gt;</text>
</a>
</g>
</g>
<!-- Node0&#45;&gt;Node1 -->
<g id="edge1" class="edge">
<title>Node0&#45;&gt;Node1</title>
<path fill="none" stroke="midnightblue" d="M63.05,-102.26C78.25,-114.64 100.5,-131.47 122,-143 128.63,-146.56 136.08,-149.73 143.2,-152.41"/>
<polygon fill="midnightblue" stroke="midnightblue" points="64.9,-99.24 54.97,-95.55 60.43,-104.63 64.9,-99.24"/>
</g>
<!-- Node2 -->
<g id="node3" class="node">
<title>Node2</title>
<g id="a_node3"><a xlink:href="classdiffuse__light.html" target="_top" xlink:title="Emissive diffuse light subclass of material.">
<polygon fill="white" stroke="black" points="122,-114.5 122,-133.5 227,-133.5 227,-114.5 122,-114.5"/>
<text text-anchor="middle" x="174.5" y="-121.5" font-family="Helvetica,sans-Serif" font-size="10.00">diffuse_light&lt; T &gt;</text>
</a>
</g>
</g>
<!-- Node0&#45;&gt;Node2 -->
<g id="edge2" class="edge">
<title>Node0&#45;&gt;Node2</title>
<path fill="none" stroke="midnightblue" d="M86.72,-98.54C104.34,-103.7 124.42,-109.6 140.83,-114.41"/>
<polygon fill="midnightblue" stroke="midnightblue" points="87.26,-95.05 76.68,-95.59 85.29,-101.76 87.26,-95.05"/>
</g>
<!-- Node3 -->
<g id="node4" class="node">
<title>Node3</title>
<g id="a_node4"><a xlink:href="classglass.html" target="_top" xlink:title="Glass subclass of material.">
<polygon fill="white" stroke="black" points="139,-76.5 139,-95.5 210,-95.5 210,-76.5 139,-76.5"/>
<text text-anchor="middle" x="174.5" y="-83.5" font-family="Helvetica,sans-Serif" font-size="10.00">glass&lt; T &gt;</text>
</a>
</g>
</g>
<!-- Node0&#45;&gt;Node3 -->
<g id="edge3" class="edge">
<title>Node0&#45;&gt;Node3</title>
<path fill="none" stroke="midnightblue" d="M96.23,-86C110.48,-86 125.57,-86 138.59,-86"/>
<polygon fill="midnightblue" stroke="midnightblue" points="96.04,-82.5 86.04,-86 96.04,-89.5 96.04,-82.5"/>
</g>
<!-- Node4 -->
<g id="node5" class="node">
<title>Node4</title>
<g id="a_node5"><a xlink:href="classisotropic.html" target="_top" xlink:title="Fog object for isotropic scattering; subclass of material.">
<polygon fill="white" stroke="black" points="131,-38.5 131,-57.5 218,-57.5 218,-38.5 131,-38.5"/>
<text text-anchor="middle" x="174.5" y="-45.5" font-family="Helvetica,sans-Serif" font-size="10.00">isotropic&lt; T &gt;</text>
</a>
</g>
</g>
<!-- Node0&#45;&gt;Node4 -->
<g id="edge4" class="edge">
<title>Node0&#45;&gt;Node4</title>
<path fill="none" stroke="midnightblue" d="M86.72,-73.46C104.34,-68.3 124.42,-62.4 140.83,-57.59"/>
<polygon fill="midnightblue" stroke="midnightblue" points="85.29,-70.24 76.68,-76.41 87.26,-76.95 85.29,-70.24"/>
</g>
<!-- Node5 -->
<g id="node6" class="node">
<title>Node5</title>
<g id="a_node6"><a xlink:href="classmetal.html" target="_top" xlink:title="Reflective metal subclass of material.">
<polygon fill="white" stroke="black" points="137.5,-0.5 137.5,-19.5 211.5,-19.5 211.5,-0.5 137.5,-0.5"/>
<text text-anchor="middle" x="174.5" y="-7.5" font-family="Helvetica,sans-Serif" font-size="10.00">metal&lt; T &gt;</text>
</a>
</g>
</g>
<!-- Node0&#45;&gt;Node5 -->
<g id="edge5" class="edge">
<title>Node0&#45;&gt;Node5</title>
<path fill="none" stroke="midnightblue" d="M63.05,-69.74C78.25,-57.36 100.5,-40.53 122,-29 128.63,-25.44 136.08,-22.27 143.2,-19.59"/>
<polygon fill="midnightblue" stroke="midnightblue" points="60.43,-67.37 54.97,-76.45 64.9,-72.76 60.43,-67.37"/>
</g>
</g>
</svg>
