<?xml version="1.0" encoding="UTF-8" standalone="no"?>
<!DOCTYPE svg PUBLIC "-//W3C//DTD SVG 1.1//EN"
 "http://www.w3.org/Graphics/SVG/1.1/DTD/svg11.dtd">
<!-- Generated by graphviz version 2.43.0 (0)
 -->
<!-- Title: Graphical Class Hierarchy Pages: 1 -->
<svg width="201pt" height="66pt"
 viewBox="0.00 0.00 201.00 66.00" xmlns="http://www.w3.org/2000/svg" xmlns:xlink="http://www.w3.org/1999/xlink">
<g id="graph0" class="graph" transform="scale(1 1) rotate(0) translate(4 62)">
<title>Graphical Class Hierarchy</title>
<polygon fill="white" stroke="transparent" points="-4,4 -4,-62 197,-62 197,4 -4,4"/>
<!-- Node0 -->
<g id="node1" class="node">
<title>Node0</title>
<g id="a_node1"><a xlink:href="classuv_tex.html" target="_top" xlink:title="Base class for texture objects.">
<polygon fill="white" stroke="black" points="0,-19.5 0,-38.5 74,-38.5 74,-19.5 0,-19.5"/>
<text text-anchor="middle" x="37" y="-26.5" font-family="Helvetica,sans-Serif" font-size="10.00">uvTex&lt; T &gt;</text>
</a>
</g>
</g>
<!-- Node1 -->
<g id="node2" class="node">
<title>Node1</title>
<g id="a_node2"><a xlink:href="classchecker.html" target="_top" xlink:title="Two color checker subclass uvTex.">
<polygon fill="white" stroke="black" points="110,-38.5 110,-57.5 193,-57.5 193,-38.5 110,-38.5"/>
<text text-anchor="middle" x="151.5" y="-45.5" font-family="Helvetica,sans-Serif" font-size="10.00">checker&lt; T &gt;</text>
</a>
</g>
</g>
<!-- Node0&#45;&gt;Node1 -->
<g id="edge1" class="edge">
<title>Node0&#45;&gt;Node1</title>
<path fill="none" stroke="midnightblue" d="M84.28,-36.82C92.69,-38.24 101.42,-39.71 109.67,-41.1"/>
<polygon fill="midnightblue" stroke="midnightblue" points="84.66,-33.33 74.21,-35.12 83.49,-40.23 84.66,-33.33"/>
</g>
<!-- Node2 -->
<g id="node3" class="node">
<title>Node2</title>
<g id="a_node3"><a xlink:href="classsolid.html" target="_top" xlink:title="Solid one color subclass of uvTex.">
<polygon fill="white" stroke="black" points="117.5,-0.5 117.5,-19.5 185.5,-19.5 185.5,-0.5 117.5,-0.5"/>
<text text-anchor="middle" x="151.5" y="-7.5" font-family="Helvetica,sans-Serif" font-size="10.00">solid&lt; T &gt;</text>
</a>
</g>
</g>
<!-- Node0&#45;&gt;Node2 -->
<g id="edge2" class="edge">
<title>Node0&#45;&gt;Node2</title>
<path fill="none" stroke="midnightblue" d="M84.23,-21.19C95.35,-19.31 107.01,-17.34 117.4,-15.59"/>
<polygon fill="midnightblue" stroke="midnightblue" points="83.49,-17.77 74.21,-22.88 84.66,-24.67 83.49,-17.77"/>
</g>
</g>
</svg>
