<?xml version="1.0" encoding="UTF-8" standalone="no"?>
<!DOCTYPE svg PUBLIC "-//W3C//DTD SVG 1.1//EN"
 "http://www.w3.org/Graphics/SVG/1.1/DTD/svg11.dtd">
<!-- Generated by graphviz version 2.43.0 (0)
 -->
<!-- Title: include/objects/iso_fog.hpp Pages: 1 -->
<svg width="428pt" height="375pt"
 viewBox="0.00 0.00 427.50 375.00" xmlns="http://www.w3.org/2000/svg" xmlns:xlink="http://www.w3.org/1999/xlink">
<g id="graph0" class="graph" transform="scale(1 1) rotate(0) translate(4 371)">
<title>include/objects/iso_fog.hpp</title>
<polygon fill="white" stroke="transparent" points="-4,4 -4,-371 423.5,-371 423.5,4 -4,4"/>
<!-- Node1 -->
<g id="node1" class="node">
<title>Node1</title>
<g id="a_node1"><a xlink:title="Isotropically scattering fog object.">
<polygon fill="#bfbfbf" stroke="black" points="55.5,-336.5 55.5,-366.5 162.5,-366.5 162.5,-336.5 55.5,-336.5"/>
<text text-anchor="start" x="63.5" y="-354.5" font-family="Helvetica,sans-Serif" font-size="10.00">include/objects/iso</text>
<text text-anchor="middle" x="109" y="-343.5" font-family="Helvetica,sans-Serif" font-size="10.00">_fog.hpp</text>
</a>
</g>
</g>
<!-- Node2 -->
<g id="node2" class="node">
<title>Node2</title>
<g id="a_node2"><a xlink:href="hit_8hpp.html" target="_top" xlink:title="Abstract object that can be hit by a ray.">
<polygon fill="white" stroke="black" points="30,-280.5 30,-299.5 80,-299.5 80,-280.5 30,-280.5"/>
<text text-anchor="middle" x="55" y="-287.5" font-family="Helvetica,sans-Serif" font-size="10.00">hit.hpp</text>
</a>
</g>
</g>
<!-- Node1&#45;&gt;Node2 -->
<g id="edge1" class="edge">
<title>Node1&#45;&gt;Node2</title>
<path fill="none" stroke="midnightblue" d="M96.2,-336.4C88.28,-327.66 78.06,-316.41 69.79,-307.3"/>
<polygon fill="midnightblue" stroke="midnightblue" points="72.17,-304.71 62.86,-299.66 66.99,-309.42 72.17,-304.71"/>
</g>
<!-- Node14 -->
<g id="node14" class="node">
<title>Node14</title>
<g id="a_node14"><a xlink:href="isotropic_8hpp.html" target="_top" xlink:title="Isotropic fog material.">
<polygon fill="white" stroke="black" points="99.5,-280.5 99.5,-299.5 228.5,-299.5 228.5,-280.5 99.5,-280.5"/>
<text text-anchor="middle" x="164" y="-287.5" font-family="Helvetica,sans-Serif" font-size="10.00">materials/isotropic.hpp</text>
</a>
</g>
</g>
<!-- Node1&#45;&gt;Node14 -->
<g id="edge13" class="edge">
<title>Node1&#45;&gt;Node14</title>
<path fill="none" stroke="midnightblue" d="M122.03,-336.4C130.19,-327.58 140.72,-316.18 149.19,-307.02"/>
<polygon fill="midnightblue" stroke="midnightblue" points="151.78,-309.38 156,-299.66 146.64,-304.63 151.78,-309.38"/>
</g>
<!-- Node3 -->
<g id="node3" class="node">
<title>Node3</title>
<g id="a_node3"><a xlink:href="bounding__box_8hpp.html" target="_top" xlink:title="Bounding box object, used to compute BVH tree.">
<polygon fill="white" stroke="black" points="0,-224.5 0,-243.5 106,-243.5 106,-224.5 0,-224.5"/>
<text text-anchor="middle" x="53" y="-231.5" font-family="Helvetica,sans-Serif" font-size="10.00">bounding_box.hpp</text>
</a>
</g>
</g>
<!-- Node2&#45;&gt;Node3 -->
<g id="edge2" class="edge">
<title>Node2&#45;&gt;Node3</title>
<path fill="none" stroke="midnightblue" d="M54.67,-280.08C54.41,-273.01 54.03,-262.86 53.7,-253.99"/>
<polygon fill="midnightblue" stroke="midnightblue" points="57.19,-253.61 53.32,-243.75 50.2,-253.87 57.19,-253.61"/>
</g>
<!-- Node4 -->
<g id="node4" class="node">
<title>Node4</title>
<g id="a_node4"><a xlink:title=" ">
<polygon fill="white" stroke="#bfbfbf" points="30.5,-168.5 30.5,-187.5 75.5,-187.5 75.5,-168.5 30.5,-168.5"/>
<text text-anchor="middle" x="53" y="-175.5" font-family="Helvetica,sans-Serif" font-size="10.00">utility</text>
</a>
</g>
</g>
<!-- Node3&#45;&gt;Node4 -->
<g id="edge3" class="edge">
<title>Node3&#45;&gt;Node4</title>
<path fill="none" stroke="midnightblue" d="M53,-224.08C53,-217.01 53,-206.86 53,-197.99"/>
<polygon fill="midnightblue" stroke="midnightblue" points="56.5,-197.75 53,-187.75 49.5,-197.75 56.5,-197.75"/>
</g>
<!-- Node5 -->
<g id="node5" class="node">
<title>Node5</title>
<g id="a_node5"><a xlink:href="ray_8hpp.html" target="_top" xlink:title="The ray object for our tracing algorithm.">
<polygon fill="white" stroke="black" points="121,-168.5 121,-187.5 207,-187.5 207,-168.5 121,-168.5"/>
<text text-anchor="middle" x="164" y="-175.5" font-family="Helvetica,sans-Serif" font-size="10.00">render/ray.hpp</text>
</a>
</g>
</g>
<!-- Node3&#45;&gt;Node5 -->
<g id="edge4" class="edge">
<title>Node3&#45;&gt;Node5</title>
<path fill="none" stroke="midnightblue" d="M70.83,-224.32C88.72,-215.62 116.48,-202.12 137.05,-192.11"/>
<polygon fill="midnightblue" stroke="midnightblue" points="138.75,-195.18 146.21,-187.65 135.69,-188.88 138.75,-195.18"/>
</g>
<!-- Node6 -->
<g id="node6" class="node">
<title>Node6</title>
<g id="a_node6"><a xlink:href="vec3_8hpp.html" target="_top" xlink:title="Custom 3D vector class for points, colours and rays.">
<polygon fill="white" stroke="black" points="182.5,-112.5 182.5,-131.5 243.5,-131.5 243.5,-112.5 182.5,-112.5"/>
<text text-anchor="middle" x="213" y="-119.5" font-family="Helvetica,sans-Serif" font-size="10.00">vec3.hpp</text>
</a>
</g>
</g>
<!-- Node5&#45;&gt;Node6 -->
<g id="edge5" class="edge">
<title>Node5&#45;&gt;Node6</title>
<path fill="none" stroke="midnightblue" d="M172.09,-168.08C179.16,-160.3 189.59,-148.8 198.15,-139.37"/>
<polygon fill="midnightblue" stroke="midnightblue" points="200.93,-141.51 205.06,-131.75 195.75,-136.8 200.93,-141.51"/>
</g>
<!-- Node7 -->
<g id="node7" class="node">
<title>Node7</title>
<g id="a_node7"><a xlink:title=" ">
<polygon fill="white" stroke="#bfbfbf" points="141,-56.5 141,-75.5 201,-75.5 201,-56.5 141,-56.5"/>
<text text-anchor="middle" x="171" y="-63.5" font-family="Helvetica,sans-Serif" font-size="10.00">iostream</text>
</a>
</g>
</g>
<!-- Node6&#45;&gt;Node7 -->
<g id="edge6" class="edge">
<title>Node6&#45;&gt;Node7</title>
<path fill="none" stroke="midnightblue" d="M206.06,-112.08C200.07,-104.38 191.25,-93.03 183.95,-83.65"/>
<polygon fill="midnightblue" stroke="midnightblue" points="186.71,-81.5 177.81,-75.75 181.18,-85.79 186.71,-81.5"/>
</g>
<!-- Node8 -->
<g id="node8" class="node">
<title>Node8</title>
<g id="a_node8"><a xlink:href="utilities_8hpp.html" target="_top" xlink:title="All the random functionality I am too lazy to organize elsewhere.">
<polygon fill="white" stroke="black" points="219,-56.5 219,-75.5 293,-75.5 293,-56.5 219,-56.5"/>
<text text-anchor="middle" x="256" y="-63.5" font-family="Helvetica,sans-Serif" font-size="10.00">utilities.hpp</text>
</a>
</g>
</g>
<!-- Node6&#45;&gt;Node8 -->
<g id="edge7" class="edge">
<title>Node6&#45;&gt;Node8</title>
<path fill="none" stroke="midnightblue" d="M220.1,-112.08C226.24,-104.38 235.27,-93.03 242.74,-83.65"/>
<polygon fill="midnightblue" stroke="midnightblue" points="245.54,-85.75 249.03,-75.75 240.06,-81.39 245.54,-85.75"/>
</g>
<!-- Node9 -->
<g id="node9" class="node">
<title>Node9</title>
<g id="a_node9"><a xlink:title=" ">
<polygon fill="white" stroke="#bfbfbf" points="101.5,-0.5 101.5,-19.5 148.5,-19.5 148.5,-0.5 101.5,-0.5"/>
<text text-anchor="middle" x="125" y="-7.5" font-family="Helvetica,sans-Serif" font-size="10.00">cmath</text>
</a>
</g>
</g>
<!-- Node8&#45;&gt;Node9 -->
<g id="edge8" class="edge">
<title>Node8&#45;&gt;Node9</title>
<path fill="none" stroke="midnightblue" d="M235.24,-56.44C213.68,-47.56 179.74,-33.56 155.21,-23.45"/>
<polygon fill="midnightblue" stroke="midnightblue" points="156.24,-20.09 145.66,-19.52 153.57,-26.56 156.24,-20.09"/>
</g>
<!-- Node10 -->
<g id="node10" class="node">
<title>Node10</title>
<g id="a_node10"><a xlink:title=" ">
<polygon fill="white" stroke="#bfbfbf" points="166.5,-0.5 166.5,-19.5 215.5,-19.5 215.5,-0.5 166.5,-0.5"/>
<text text-anchor="middle" x="191" y="-7.5" font-family="Helvetica,sans-Serif" font-size="10.00">cstdlib</text>
</a>
</g>
</g>
<!-- Node8&#45;&gt;Node10 -->
<g id="edge9" class="edge">
<title>Node8&#45;&gt;Node10</title>
<path fill="none" stroke="midnightblue" d="M245.56,-56.32C235.85,-48.26 221.18,-36.08 209.5,-26.37"/>
<polygon fill="midnightblue" stroke="midnightblue" points="211.56,-23.53 201.63,-19.83 207.09,-28.92 211.56,-23.53"/>
</g>
<!-- Node11 -->
<g id="node11" class="node">
<title>Node11</title>
<g id="a_node11"><a xlink:title=" ">
<polygon fill="white" stroke="#bfbfbf" points="234,-0.5 234,-19.5 278,-19.5 278,-0.5 234,-0.5"/>
<text text-anchor="middle" x="256" y="-7.5" font-family="Helvetica,sans-Serif" font-size="10.00">limits</text>
</a>
</g>
</g>
<!-- Node8&#45;&gt;Node11 -->
<g id="edge10" class="edge">
<title>Node8&#45;&gt;Node11</title>
<path fill="none" stroke="midnightblue" d="M256,-56.08C256,-49.01 256,-38.86 256,-29.99"/>
<polygon fill="midnightblue" stroke="midnightblue" points="259.5,-29.75 256,-19.75 252.5,-29.75 259.5,-29.75"/>
</g>
<!-- Node12 -->
<g id="node12" class="node">
<title>Node12</title>
<g id="a_node12"><a xlink:title=" ">
<polygon fill="white" stroke="#bfbfbf" points="296,-0.5 296,-19.5 354,-19.5 354,-0.5 296,-0.5"/>
<text text-anchor="middle" x="325" y="-7.5" font-family="Helvetica,sans-Serif" font-size="10.00">memory</text>
</a>
</g>
</g>
<!-- Node8&#45;&gt;Node12 -->
<g id="edge11" class="edge">
<title>Node8&#45;&gt;Node12</title>
<path fill="none" stroke="midnightblue" d="M267.09,-56.32C277.49,-48.18 293.26,-35.84 305.72,-26.09"/>
<polygon fill="midnightblue" stroke="midnightblue" points="307.99,-28.75 313.71,-19.83 303.68,-23.24 307.99,-28.75"/>
</g>
<!-- Node13 -->
<g id="node13" class="node">
<title>Node13</title>
<g id="a_node13"><a xlink:title=" ">
<polygon fill="white" stroke="#bfbfbf" points="372.5,-0.5 372.5,-19.5 419.5,-19.5 419.5,-0.5 372.5,-0.5"/>
<text text-anchor="middle" x="396" y="-7.5" font-family="Helvetica,sans-Serif" font-size="10.00">vector</text>
</a>
</g>
</g>
<!-- Node8&#45;&gt;Node13 -->
<g id="edge12" class="edge">
<title>Node8&#45;&gt;Node13</title>
<path fill="none" stroke="midnightblue" d="M278.18,-56.44C301.43,-47.48 338.15,-33.31 364.42,-23.18"/>
<polygon fill="midnightblue" stroke="midnightblue" points="365.85,-26.38 373.92,-19.52 363.33,-19.85 365.85,-26.38"/>
</g>
<!-- Node15 -->
<g id="node15" class="node">
<title>Node15</title>
<g id="a_node15"><a xlink:href="material_8hpp.html" target="_top" xlink:title="Base class for materials.">
<polygon fill="white" stroke="black" points="124.5,-224.5 124.5,-243.5 203.5,-243.5 203.5,-224.5 124.5,-224.5"/>
<text text-anchor="middle" x="164" y="-231.5" font-family="Helvetica,sans-Serif" font-size="10.00">material.hpp</text>
</a>
</g>
</g>
<!-- Node14&#45;&gt;Node15 -->
<g id="edge14" class="edge">
<title>Node14&#45;&gt;Node15</title>
<path fill="none" stroke="midnightblue" d="M164,-280.08C164,-273.01 164,-262.86 164,-253.99"/>
<polygon fill="midnightblue" stroke="midnightblue" points="167.5,-253.75 164,-243.75 160.5,-253.75 167.5,-253.75"/>
</g>
<!-- Node16 -->
<g id="node16" class="node">
<title>Node16</title>
<g id="a_node16"><a xlink:href="solid_8hpp.html" target="_top" xlink:title="Solid one color texture.">
<polygon fill="white" stroke="black" points="222,-224.5 222,-243.5 326,-243.5 326,-224.5 222,-224.5"/>
<text text-anchor="middle" x="274" y="-231.5" font-family="Helvetica,sans-Serif" font-size="10.00">textures/solid.hpp</text>
</a>
</g>
</g>
<!-- Node14&#45;&gt;Node16 -->
<g id="edge16" class="edge">
<title>Node14&#45;&gt;Node16</title>
<path fill="none" stroke="midnightblue" d="M181.67,-280.32C199.39,-271.62 226.9,-258.12 247.29,-248.11"/>
<polygon fill="midnightblue" stroke="midnightblue" points="248.94,-251.2 256.37,-243.65 245.85,-244.92 248.94,-251.2"/>
</g>
<!-- Node15&#45;&gt;Node5 -->
<g id="edge15" class="edge">
<title>Node15&#45;&gt;Node5</title>
<path fill="none" stroke="midnightblue" d="M164,-224.08C164,-217.01 164,-206.86 164,-197.99"/>
<polygon fill="midnightblue" stroke="midnightblue" points="167.5,-197.75 164,-187.75 160.5,-197.75 167.5,-197.75"/>
</g>
<!-- Node17 -->
<g id="node17" class="node">
<title>Node17</title>
<g id="a_node17"><a xlink:href="texture_8hpp.html" target="_top" xlink:title="Bass class for textures.">
<polygon fill="white" stroke="black" points="231.5,-168.5 231.5,-187.5 304.5,-187.5 304.5,-168.5 231.5,-168.5"/>
<text text-anchor="middle" x="268" y="-175.5" font-family="Helvetica,sans-Serif" font-size="10.00">texture.hpp</text>
</a>
</g>
</g>
<!-- Node16&#45;&gt;Node17 -->
<g id="edge17" class="edge">
<title>Node16&#45;&gt;Node17</title>
<path fill="none" stroke="midnightblue" d="M273.01,-224.08C272.21,-216.93 271.07,-206.64 270.08,-197.69"/>
<polygon fill="midnightblue" stroke="midnightblue" points="273.56,-197.3 268.97,-187.75 266.6,-198.08 273.56,-197.3"/>
</g>
<!-- Node17&#45;&gt;Node6 -->
<g id="edge18" class="edge">
<title>Node17&#45;&gt;Node6</title>
<path fill="none" stroke="midnightblue" d="M258.92,-168.08C250.83,-160.14 238.8,-148.34 229.09,-138.8"/>
<polygon fill="midnightblue" stroke="midnightblue" points="231.5,-136.26 221.91,-131.75 226.6,-141.25 231.5,-136.26"/>
</g>
</g>
</svg>
