<?xml version="1.0" encoding="UTF-8" standalone="no"?>
<!DOCTYPE svg PUBLIC "-//W3C//DTD SVG 1.1//EN"
 "http://www.w3.org/Graphics/SVG/1.1/DTD/svg11.dtd">
<!-- Generated by graphviz version 2.43.0 (0)
 -->
<!-- Title: include/materials/isotropic.hpp Pages: 1 -->
<svg width="270pt" height="218pt"
 viewBox="0.00 0.00 270.00 218.00" xmlns="http://www.w3.org/2000/svg" xmlns:xlink="http://www.w3.org/1999/xlink">
<g id="graph0" class="graph" transform="scale(1 1) rotate(0) translate(4 214)">
<title>include/materials/isotropic.hpp</title>
<polygon fill="white" stroke="transparent" points="-4,4 -4,-214 266,-214 266,4 -4,4"/>
<!-- Node1 -->
<g id="node1" class="node">
<title>Node1</title>
<g id="a_node1"><a xlink:title="Isotropic fog material.">
<polygon fill="#bfbfbf" stroke="black" points="46,-190.5 46,-209.5 213,-209.5 213,-190.5 46,-190.5"/>
<text text-anchor="middle" x="129.5" y="-197.5" font-family="Helvetica,sans-Serif" font-size="10.00">include/materials/isotropic.hpp</text>
</a>
</g>
</g>
<!-- Node2 -->
<g id="node2" class="node">
<title>Node2</title>
<g id="a_node2"><a xlink:href="iso__fog_8hpp.html" target="_top" xlink:title="Isotropically scattering fog object.">
<polygon fill="white" stroke="black" points="76,-123.5 76,-153.5 183,-153.5 183,-123.5 76,-123.5"/>
<text text-anchor="start" x="84" y="-141.5" font-family="Helvetica,sans-Serif" font-size="10.00">include/objects/iso</text>
<text text-anchor="middle" x="129.5" y="-130.5" font-family="Helvetica,sans-Serif" font-size="10.00">_fog.hpp</text>
</a>
</g>
</g>
<!-- Node1&#45;&gt;Node2 -->
<g id="edge1" class="edge">
<title>Node1&#45;&gt;Node2</title>
<path fill="none" stroke="midnightblue" d="M129.5,-180.23C129.5,-171.59 129.5,-161.5 129.5,-153.52"/>
<polygon fill="midnightblue" stroke="midnightblue" points="126,-180.48 129.5,-190.48 133,-180.48 126,-180.48"/>
</g>
<!-- Node3 -->
<g id="node3" class="node">
<title>Node3</title>
<g id="a_node3"><a xlink:href="comb__scene_8hpp.html" target="_top" xlink:title="Header file for Combined scene example (unfinished)">
<polygon fill="white" stroke="black" points="0,-56.5 0,-86.5 119,-86.5 119,-56.5 0,-56.5"/>
<text text-anchor="start" x="8" y="-74.5" font-family="Helvetica,sans-Serif" font-size="10.00">include/scenes/comb</text>
<text text-anchor="middle" x="59.5" y="-63.5" font-family="Helvetica,sans-Serif" font-size="10.00">_scene.hpp</text>
</a>
</g>
</g>
<!-- Node2&#45;&gt;Node3 -->
<g id="edge2" class="edge">
<title>Node2&#45;&gt;Node3</title>
<path fill="none" stroke="midnightblue" d="M106.68,-116.31C96.18,-106.56 84.01,-95.26 74.66,-86.58"/>
<polygon fill="midnightblue" stroke="midnightblue" points="104.6,-119.16 114.31,-123.4 109.36,-114.03 104.6,-119.16"/>
</g>
<!-- Node4 -->
<g id="node4" class="node">
<title>Node4</title>
<g id="a_node4"><a xlink:href="cornell__box_8hpp.html" target="_top" xlink:title="Header file for cornell box scene examples (unfinished)">
<polygon fill="white" stroke="black" points="137,-56.5 137,-86.5 262,-86.5 262,-56.5 137,-56.5"/>
<text text-anchor="start" x="145" y="-74.5" font-family="Helvetica,sans-Serif" font-size="10.00">include/scenes/cornell</text>
<text text-anchor="middle" x="199.5" y="-63.5" font-family="Helvetica,sans-Serif" font-size="10.00">_box.hpp</text>
</a>
</g>
</g>
<!-- Node2&#45;&gt;Node4 -->
<g id="edge3" class="edge">
<title>Node2&#45;&gt;Node4</title>
<path fill="none" stroke="midnightblue" d="M152.32,-116.31C162.82,-106.56 174.99,-95.26 184.34,-86.58"/>
<polygon fill="midnightblue" stroke="midnightblue" points="149.64,-114.03 144.69,-123.4 154.4,-119.16 149.64,-114.03"/>
</g>
<!-- Node5 -->
<g id="node5" class="node">
<title>Node5</title>
<g id="a_node5"><a xlink:href="main_8cpp.html" target="_top" xlink:title="Main file for Serial ray tracer project.">
<polygon fill="white" stroke="black" points="168.5,-0.5 168.5,-19.5 230.5,-19.5 230.5,-0.5 168.5,-0.5"/>
<text text-anchor="middle" x="199.5" y="-7.5" font-family="Helvetica,sans-Serif" font-size="10.00">main.cpp</text>
</a>
</g>
</g>
<!-- Node4&#45;&gt;Node5 -->
<g id="edge4" class="edge">
<title>Node4&#45;&gt;Node5</title>
<path fill="none" stroke="midnightblue" d="M199.5,-46.29C199.5,-36.86 199.5,-26.65 199.5,-19.66"/>
<polygon fill="midnightblue" stroke="midnightblue" points="196,-46.4 199.5,-56.4 203,-46.4 196,-46.4"/>
</g>
</g>
</svg>
