<?xml version="1.0" encoding="UTF-8" standalone="no"?>
<!DOCTYPE svg PUBLIC "-//W3C//DTD SVG 1.1//EN"
 "http://www.w3.org/Graphics/SVG/1.1/DTD/svg11.dtd">
<!-- Generated by graphviz version 2.43.0 (0)
 -->
<!-- Title: include/scenes/light_scene.hpp Pages: 1 -->
<!--zoomable 431 -->
<svg id="main" version="1.1" xmlns="http://www.w3.org/2000/svg" xmlns:xlink="http://www.w3.org/1999/xlink" xml:space="preserve" onload="init(evt)">
<style type="text/css"><![CDATA[
.edge:hover path { stroke: red; }
.edge:hover polygon { stroke: red; fill: red; }
]]></style>
<script type="text/javascript"><![CDATA[
var edges = document.getElementsByTagName('g');
if (edges && edges.length) {
  for (var i=0;i<edges.length;i++) {
    if (edges[i].id.substr(0,4)=='edge') {
      edges[i].setAttribute('class','edge');
    }
  }
}
]]></script>
        <defs>
                <circle id="rim" cx="0" cy="0" r="7"/>
                <circle id="rim2" cx="0" cy="0" r="3.5"/>
                <g id="zoomPlus">
                        <use xlink:href="#rim" fill="#404040">
                                <set attributeName="fill" to="#808080" begin="zoomplus.mouseover" end="zoomplus.mouseout"/>
                        </use>
                        <path d="M-4,0h8M0,-4v8" fill="none" stroke="white" stroke-width="1.5" pointer-events="none"/>
                </g>
                <g id="zoomMin">
                        <use xlink:href="#rim" fill="#404040">
                                <set attributeName="fill" to="#808080" begin="zoomminus.mouseover" end="zoomminus.mouseout"/>
                        </use>
                        <path d="M-4,0h8" fill="none" stroke="white" stroke-width="1.5" pointer-events="none"/>
                </g>
                <g id="dirArrow">
                        <path fill="none" stroke="white" stroke-width="1.5" d="M0,-3.0v7 M-2.5,-0.5L0,-3.0L2.5,-0.5"/>
                </g>
               <g id="resetDef">
                       <use xlink:href="#rim2" fill="#404040">
                               <set attributeName="fill" to="#808080" begin="reset.mouseover" end="reset.mouseout"/>
                       </use>
               </g>
        </defs>

<script type="text/javascript">
var viewWidth = 1165;
var viewHeight = 431;
var sectionId = 'dynsection-0';
</script>
<script xlink:href="svgpan.js"/>
<svg id="graph" class="graph">
<g id="viewport">
<title>include/scenes/light_scene.hpp</title>
<polygon fill="white" stroke="transparent" points="-4,4 -4,-427 1160.5,-427 1160.5,4 -4,4"/>
<!-- Node1 -->
<g id="node1" class="node">
<title>Node1</title>
<g id="a_node1"><a xlink:title="Header file for light scene example (unfinished)">
<polygon fill="#bfbfbf" stroke="black" points="493.5,-392.5 493.5,-422.5 606.5,-422.5 606.5,-392.5 493.5,-392.5"/>
<text text-anchor="start" x="501.5" y="-410.5" font-family="Helvetica,sans-Serif" font-size="10.00">include/scenes/light</text>
<text text-anchor="middle" x="550" y="-399.5" font-family="Helvetica,sans-Serif" font-size="10.00">_scene.hpp</text>
</a>
</g>
</g>
<!-- Node2 -->
<g id="node2" class="node">
<title>Node2</title>
<g id="a_node2"><a xlink:href="diffuse_8hpp.html" target="_top" xlink:title="Object for diffuse (random) scattering. Subclass of material.">
<polygon fill="white" stroke="black" points="221,-336.5 221,-355.5 341,-355.5 341,-336.5 221,-336.5"/>
<text text-anchor="middle" x="281" y="-343.5" font-family="Helvetica,sans-Serif" font-size="10.00">materials/diffuse.hpp</text>
</a>
</g>
</g>
<!-- Node1&#45;&gt;Node2 -->
<g id="edge1" class="edge">
<title>Node1&#45;&gt;Node2</title>
<path fill="none" stroke="midnightblue" d="M493.28,-393.95C444.7,-383.21 375.49,-367.9 329.46,-357.72"/>
<polygon fill="midnightblue" stroke="midnightblue" points="329.95,-354.24 319.43,-355.5 328.44,-361.08 329.95,-354.24"/>
</g>
<!-- Node15 -->
<g id="node15" class="node">
<title>Node15</title>
<g id="a_node15"><a xlink:href="diffuse__light_8hpp.html" target="_top" xlink:title="Emissive diffuse light material.">
<polygon fill="white" stroke="black" points="55.5,-336.5 55.5,-355.5 202.5,-355.5 202.5,-336.5 55.5,-336.5"/>
<text text-anchor="middle" x="129" y="-343.5" font-family="Helvetica,sans-Serif" font-size="10.00">materials/diffuse_light.hpp</text>
</a>
</g>
</g>
<!-- Node1&#45;&gt;Node15 -->
<g id="edge15" class="edge">
<title>Node1&#45;&gt;Node15</title>
<path fill="none" stroke="midnightblue" d="M493.22,-398.48C417.06,-387.71 281.86,-368.6 199.34,-356.94"/>
<polygon fill="midnightblue" stroke="midnightblue" points="199.68,-353.46 189.29,-355.52 198.7,-360.39 199.68,-353.46"/>
</g>
<!-- Node16 -->
<g id="node16" class="node">
<title>Node16</title>
<g id="a_node16"><a xlink:href="glass_8hpp.html" target="_top" xlink:title="A glass object that refracts/reflects using Snell&#39;s Law.">
<polygon fill="white" stroke="black" points="493.5,-336.5 493.5,-355.5 606.5,-355.5 606.5,-336.5 493.5,-336.5"/>
<text text-anchor="middle" x="550" y="-343.5" font-family="Helvetica,sans-Serif" font-size="10.00">materials/glass.hpp</text>
</a>
</g>
</g>
<!-- Node1&#45;&gt;Node16 -->
<g id="edge18" class="edge">
<title>Node1&#45;&gt;Node16</title>
<path fill="none" stroke="midnightblue" d="M550,-392.4C550,-384.47 550,-374.46 550,-365.86"/>
<polygon fill="midnightblue" stroke="midnightblue" points="553.5,-365.66 550,-355.66 546.5,-365.66 553.5,-365.66"/>
</g>
<!-- Node17 -->
<g id="node17" class="node">
<title>Node17</title>
<g id="a_node17"><a xlink:href="metal_8hpp.html" target="_top" xlink:title="Reflective surface, with additional fuzzy scattering.">
<polygon fill="white" stroke="black" points="359,-336.5 359,-355.5 475,-355.5 475,-336.5 359,-336.5"/>
<text text-anchor="middle" x="417" y="-343.5" font-family="Helvetica,sans-Serif" font-size="10.00">materials/metal.hpp</text>
</a>
</g>
</g>
<!-- Node1&#45;&gt;Node17 -->
<g id="edge20" class="edge">
<title>Node1&#45;&gt;Node17</title>
<path fill="none" stroke="midnightblue" d="M518.48,-392.4C496.36,-382.51 467.03,-369.38 445.59,-359.79"/>
<polygon fill="midnightblue" stroke="midnightblue" points="446.91,-356.55 436.35,-355.66 444.05,-362.94 446.91,-356.55"/>
</g>
<!-- Node18 -->
<g id="node18" class="node">
<title>Node18</title>
<g id="a_node18"><a xlink:href="bvh_8hpp.html" target="_top" xlink:title="Class for our Bounding Volume Hierarchy. Acts as both tree and root.">
<polygon fill="white" stroke="black" points="625,-336.5 625,-355.5 719,-355.5 719,-336.5 625,-336.5"/>
<text text-anchor="middle" x="672" y="-343.5" font-family="Helvetica,sans-Serif" font-size="10.00">objects/bvh.hpp</text>
</a>
</g>
</g>
<!-- Node1&#45;&gt;Node18 -->
<g id="edge22" class="edge">
<title>Node1&#45;&gt;Node18</title>
<path fill="none" stroke="midnightblue" d="M578.91,-392.4C599.02,-382.59 625.62,-369.62 645.24,-360.05"/>
<polygon fill="midnightblue" stroke="midnightblue" points="646.79,-363.19 654.25,-355.66 643.73,-356.9 646.79,-363.19"/>
</g>
<!-- Node22 -->
<g id="node22" class="node">
<title>Node22</title>
<g id="a_node22"><a xlink:href="moving__sphere_8hpp.html" target="_top" xlink:title="Sphere object moving, for motion blur.">
<polygon fill="white" stroke="black" points="737.5,-336.5 737.5,-355.5 888.5,-355.5 888.5,-336.5 737.5,-336.5"/>
<text text-anchor="middle" x="813" y="-343.5" font-family="Helvetica,sans-Serif" font-size="10.00">objects/moving_sphere.hpp</text>
</a>
</g>
</g>
<!-- Node1&#45;&gt;Node22 -->
<g id="edge27" class="edge">
<title>Node1&#45;&gt;Node22</title>
<path fill="none" stroke="midnightblue" d="M606.74,-393.66C654.09,-382.95 720.81,-367.86 765.41,-357.77"/>
<polygon fill="midnightblue" stroke="midnightblue" points="766.43,-361.12 775.41,-355.5 764.89,-354.3 766.43,-361.12"/>
</g>
<!-- Node24 -->
<g id="node24" class="node">
<title>Node24</title>
<g id="a_node24"><a xlink:href="rectangle_8hpp.html" target="_top" xlink:title="Rectangular plane object to be rendered.">
<polygon fill="white" stroke="black" points="907,-336.5 907,-355.5 1029,-355.5 1029,-336.5 907,-336.5"/>
<text text-anchor="middle" x="968" y="-343.5" font-family="Helvetica,sans-Serif" font-size="10.00">objects/rectangle.hpp</text>
</a>
</g>
</g>
<!-- Node1&#45;&gt;Node24 -->
<g id="edge30" class="edge">
<title>Node1&#45;&gt;Node24</title>
<path fill="none" stroke="midnightblue" d="M606.81,-398.41C682.56,-387.63 816.56,-368.56 898.32,-356.92"/>
<polygon fill="midnightblue" stroke="midnightblue" points="898.87,-360.38 908.27,-355.5 897.88,-353.45 898.87,-360.38"/>
</g>
<!-- Node25 -->
<g id="node25" class="node">
<title>Node25</title>
<g id="a_node25"><a xlink:href="sphere_8hpp.html" target="_top" xlink:title="Sphere object to be rendered.">
<polygon fill="white" stroke="black" points="1047.5,-336.5 1047.5,-355.5 1156.5,-355.5 1156.5,-336.5 1047.5,-336.5"/>
<text text-anchor="middle" x="1102" y="-343.5" font-family="Helvetica,sans-Serif" font-size="10.00">objects/sphere.hpp</text>
</a>
</g>
</g>
<!-- Node1&#45;&gt;Node25 -->
<g id="edge32" class="edge">
<title>Node1&#45;&gt;Node25</title>
<path fill="none" stroke="midnightblue" d="M606.8,-401.3C696.02,-392.99 874.7,-375.73 1037.03,-356.08"/>
<polygon fill="midnightblue" stroke="midnightblue" points="1037.7,-359.52 1047.2,-354.84 1036.86,-352.57 1037.7,-359.52"/>
</g>
<!-- Node26 -->
<g id="node26" class="node">
<title>Node26</title>
<g id="a_node26"><a xlink:href="checker_8hpp.html" target="_top" xlink:title="Two color checkered texture.">
<polygon fill="white" stroke="black" points="0,-280.5 0,-299.5 118,-299.5 118,-280.5 0,-280.5"/>
<text text-anchor="middle" x="59" y="-287.5" font-family="Helvetica,sans-Serif" font-size="10.00">textures/checker.hpp</text>
</a>
</g>
</g>
<!-- Node1&#45;&gt;Node26 -->
<g id="edge34" class="edge">
<title>Node1&#45;&gt;Node26</title>
<path fill="none" stroke="midnightblue" d="M493.38,-405.02C367.98,-401.15 75.57,-388.69 46,-356 34.46,-343.24 40.83,-323.22 48.13,-308.76"/>
<polygon fill="midnightblue" stroke="midnightblue" points="51.31,-310.25 53.12,-299.81 45.2,-306.84 51.31,-310.25"/>
</g>
<!-- Node3 -->
<g id="node3" class="node">
<title>Node3</title>
<g id="a_node3"><a xlink:href="material_8hpp.html" target="_top" xlink:title="Base class for materials.">
<polygon fill="white" stroke="black" points="333.5,-280.5 333.5,-299.5 412.5,-299.5 412.5,-280.5 333.5,-280.5"/>
<text text-anchor="middle" x="373" y="-287.5" font-family="Helvetica,sans-Serif" font-size="10.00">material.hpp</text>
</a>
</g>
</g>
<!-- Node2&#45;&gt;Node3 -->
<g id="edge2" class="edge">
<title>Node2&#45;&gt;Node3</title>
<path fill="none" stroke="midnightblue" d="M295.78,-336.32C310.27,-327.82 332.57,-314.73 349.49,-304.8"/>
<polygon fill="midnightblue" stroke="midnightblue" points="351.4,-307.74 358.26,-299.65 347.86,-301.7 351.4,-307.74"/>
</g>
<!-- Node13 -->
<g id="node13" class="node">
<title>Node13</title>
<g id="a_node13"><a xlink:href="solid_8hpp.html" target="_top" xlink:title="Solid one color texture.">
<polygon fill="white" stroke="black" points="198,-280.5 198,-299.5 302,-299.5 302,-280.5 198,-280.5"/>
<text text-anchor="middle" x="250" y="-287.5" font-family="Helvetica,sans-Serif" font-size="10.00">textures/solid.hpp</text>
</a>
</g>
</g>
<!-- Node2&#45;&gt;Node13 -->
<g id="edge12" class="edge">
<title>Node2&#45;&gt;Node13</title>
<path fill="none" stroke="midnightblue" d="M275.88,-336.08C271.59,-328.61 265.34,-317.72 260.06,-308.52"/>
<polygon fill="midnightblue" stroke="midnightblue" points="263.04,-306.68 255.02,-299.75 256.97,-310.17 263.04,-306.68"/>
</g>
<!-- Node4 -->
<g id="node4" class="node">
<title>Node4</title>
<g id="a_node4"><a xlink:href="ray_8hpp.html" target="_top" xlink:title="The ray object for our tracing algorithm.">
<polygon fill="white" stroke="black" points="330,-168.5 330,-187.5 416,-187.5 416,-168.5 330,-168.5"/>
<text text-anchor="middle" x="373" y="-175.5" font-family="Helvetica,sans-Serif" font-size="10.00">render/ray.hpp</text>
</a>
</g>
</g>
<!-- Node3&#45;&gt;Node4 -->
<g id="edge3" class="edge">
<title>Node3&#45;&gt;Node4</title>
<path fill="none" stroke="midnightblue" d="M373,-280.37C373,-262.62 373,-221.67 373,-197.6"/>
<polygon fill="midnightblue" stroke="midnightblue" points="376.5,-197.59 373,-187.59 369.5,-197.59 376.5,-197.59"/>
</g>
<!-- Node5 -->
<g id="node5" class="node">
<title>Node5</title>
<g id="a_node5"><a xlink:href="vec3_8hpp.html" target="_top" xlink:title="Custom 3D vector class for points, colours and rays.">
<polygon fill="white" stroke="black" points="287.5,-112.5 287.5,-131.5 348.5,-131.5 348.5,-112.5 287.5,-112.5"/>
<text text-anchor="middle" x="318" y="-119.5" font-family="Helvetica,sans-Serif" font-size="10.00">vec3.hpp</text>
</a>
</g>
</g>
<!-- Node4&#45;&gt;Node5 -->
<g id="edge4" class="edge">
<title>Node4&#45;&gt;Node5</title>
<path fill="none" stroke="midnightblue" d="M363.92,-168.08C355.83,-160.14 343.8,-148.34 334.09,-138.8"/>
<polygon fill="midnightblue" stroke="midnightblue" points="336.5,-136.26 326.91,-131.75 331.6,-141.25 336.5,-136.26"/>
</g>
<!-- Node6 -->
<g id="node6" class="node">
<title>Node6</title>
<g id="a_node6"><a xlink:title=" ">
<polygon fill="white" stroke="#bfbfbf" points="246,-56.5 246,-75.5 306,-75.5 306,-56.5 246,-56.5"/>
<text text-anchor="middle" x="276" y="-63.5" font-family="Helvetica,sans-Serif" font-size="10.00">iostream</text>
</a>
</g>
</g>
<!-- Node5&#45;&gt;Node6 -->
<g id="edge5" class="edge">
<title>Node5&#45;&gt;Node6</title>
<path fill="none" stroke="midnightblue" d="M311.06,-112.08C305.07,-104.38 296.25,-93.03 288.95,-83.65"/>
<polygon fill="midnightblue" stroke="midnightblue" points="291.71,-81.5 282.81,-75.75 286.18,-85.79 291.71,-81.5"/>
</g>
<!-- Node7 -->
<g id="node7" class="node">
<title>Node7</title>
<g id="a_node7"><a xlink:href="utilities_8hpp.html" target="_top" xlink:title="All the random functionality I am too lazy to organize elsewhere.">
<polygon fill="white" stroke="black" points="324,-56.5 324,-75.5 398,-75.5 398,-56.5 324,-56.5"/>
<text text-anchor="middle" x="361" y="-63.5" font-family="Helvetica,sans-Serif" font-size="10.00">utilities.hpp</text>
</a>
</g>
</g>
<!-- Node5&#45;&gt;Node7 -->
<g id="edge6" class="edge">
<title>Node5&#45;&gt;Node7</title>
<path fill="none" stroke="midnightblue" d="M325.1,-112.08C331.24,-104.38 340.27,-93.03 347.74,-83.65"/>
<polygon fill="midnightblue" stroke="midnightblue" points="350.54,-85.75 354.03,-75.75 345.06,-81.39 350.54,-85.75"/>
</g>
<!-- Node8 -->
<g id="node8" class="node">
<title>Node8</title>
<g id="a_node8"><a xlink:title=" ">
<polygon fill="white" stroke="#bfbfbf" points="206.5,-0.5 206.5,-19.5 253.5,-19.5 253.5,-0.5 206.5,-0.5"/>
<text text-anchor="middle" x="230" y="-7.5" font-family="Helvetica,sans-Serif" font-size="10.00">cmath</text>
</a>
</g>
</g>
<!-- Node7&#45;&gt;Node8 -->
<g id="edge7" class="edge">
<title>Node7&#45;&gt;Node8</title>
<path fill="none" stroke="midnightblue" d="M340.24,-56.44C318.68,-47.56 284.74,-33.56 260.21,-23.45"/>
<polygon fill="midnightblue" stroke="midnightblue" points="261.24,-20.09 250.66,-19.52 258.57,-26.56 261.24,-20.09"/>
</g>
<!-- Node9 -->
<g id="node9" class="node">
<title>Node9</title>
<g id="a_node9"><a xlink:title=" ">
<polygon fill="white" stroke="#bfbfbf" points="271.5,-0.5 271.5,-19.5 320.5,-19.5 320.5,-0.5 271.5,-0.5"/>
<text text-anchor="middle" x="296" y="-7.5" font-family="Helvetica,sans-Serif" font-size="10.00">cstdlib</text>
</a>
</g>
</g>
<!-- Node7&#45;&gt;Node9 -->
<g id="edge8" class="edge">
<title>Node7&#45;&gt;Node9</title>
<path fill="none" stroke="midnightblue" d="M350.56,-56.32C340.85,-48.26 326.18,-36.08 314.5,-26.37"/>
<polygon fill="midnightblue" stroke="midnightblue" points="316.56,-23.53 306.63,-19.83 312.09,-28.92 316.56,-23.53"/>
</g>
<!-- Node10 -->
<g id="node10" class="node">
<title>Node10</title>
<g id="a_node10"><a xlink:title=" ">
<polygon fill="white" stroke="#bfbfbf" points="339,-0.5 339,-19.5 383,-19.5 383,-0.5 339,-0.5"/>
<text text-anchor="middle" x="361" y="-7.5" font-family="Helvetica,sans-Serif" font-size="10.00">limits</text>
</a>
</g>
</g>
<!-- Node7&#45;&gt;Node10 -->
<g id="edge9" class="edge">
<title>Node7&#45;&gt;Node10</title>
<path fill="none" stroke="midnightblue" d="M361,-56.08C361,-49.01 361,-38.86 361,-29.99"/>
<polygon fill="midnightblue" stroke="midnightblue" points="364.5,-29.75 361,-19.75 357.5,-29.75 364.5,-29.75"/>
</g>
<!-- Node11 -->
<g id="node11" class="node">
<title>Node11</title>
<g id="a_node11"><a xlink:title=" ">
<polygon fill="white" stroke="#bfbfbf" points="401,-0.5 401,-19.5 459,-19.5 459,-0.5 401,-0.5"/>
<text text-anchor="middle" x="430" y="-7.5" font-family="Helvetica,sans-Serif" font-size="10.00">memory</text>
</a>
</g>
</g>
<!-- Node7&#45;&gt;Node11 -->
<g id="edge10" class="edge">
<title>Node7&#45;&gt;Node11</title>
<path fill="none" stroke="midnightblue" d="M372.09,-56.32C382.49,-48.18 398.26,-35.84 410.72,-26.09"/>
<polygon fill="midnightblue" stroke="midnightblue" points="412.99,-28.75 418.71,-19.83 408.68,-23.24 412.99,-28.75"/>
</g>
<!-- Node12 -->
<g id="node12" class="node">
<title>Node12</title>
<g id="a_node12"><a xlink:title=" ">
<polygon fill="white" stroke="#bfbfbf" points="477.5,-0.5 477.5,-19.5 524.5,-19.5 524.5,-0.5 477.5,-0.5"/>
<text text-anchor="middle" x="501" y="-7.5" font-family="Helvetica,sans-Serif" font-size="10.00">vector</text>
</a>
</g>
</g>
<!-- Node7&#45;&gt;Node12 -->
<g id="edge11" class="edge">
<title>Node7&#45;&gt;Node12</title>
<path fill="none" stroke="midnightblue" d="M383.18,-56.44C406.43,-47.48 443.15,-33.31 469.42,-23.18"/>
<polygon fill="midnightblue" stroke="midnightblue" points="470.85,-26.38 478.92,-19.52 468.33,-19.85 470.85,-26.38"/>
</g>
<!-- Node14 -->
<g id="node14" class="node">
<title>Node14</title>
<g id="a_node14"><a xlink:href="texture_8hpp.html" target="_top" xlink:title="Bass class for textures.">
<polygon fill="white" stroke="black" points="213.5,-224.5 213.5,-243.5 286.5,-243.5 286.5,-224.5 213.5,-224.5"/>
<text text-anchor="middle" x="250" y="-231.5" font-family="Helvetica,sans-Serif" font-size="10.00">texture.hpp</text>
</a>
</g>
</g>
<!-- Node13&#45;&gt;Node14 -->
<g id="edge13" class="edge">
<title>Node13&#45;&gt;Node14</title>
<path fill="none" stroke="midnightblue" d="M250,-280.08C250,-273.01 250,-262.86 250,-253.99"/>
<polygon fill="midnightblue" stroke="midnightblue" points="253.5,-253.75 250,-243.75 246.5,-253.75 253.5,-253.75"/>
</g>
<!-- Node14&#45;&gt;Node5 -->
<g id="edge14" class="edge">
<title>Node14&#45;&gt;Node5</title>
<path fill="none" stroke="midnightblue" d="M255.34,-224.37C266.51,-206.3 292.55,-164.18 307.3,-140.31"/>
<polygon fill="midnightblue" stroke="midnightblue" points="310.41,-141.94 312.69,-131.59 304.45,-138.26 310.41,-141.94"/>
</g>
<!-- Node15&#45;&gt;Node3 -->
<g id="edge16" class="edge">
<title>Node15&#45;&gt;Node3</title>
<path fill="none" stroke="midnightblue" d="M167.66,-336.44C210.14,-327.04 278.43,-311.93 324.47,-301.74"/>
<polygon fill="midnightblue" stroke="midnightblue" points="325.51,-305.09 334.52,-299.52 324,-298.26 325.51,-305.09"/>
</g>
<!-- Node15&#45;&gt;Node13 -->
<g id="edge17" class="edge">
<title>Node15&#45;&gt;Node13</title>
<path fill="none" stroke="midnightblue" d="M148.17,-336.44C167.91,-327.64 198.89,-313.81 221.49,-303.72"/>
<polygon fill="midnightblue" stroke="midnightblue" points="223.21,-306.79 230.92,-299.52 220.36,-300.4 223.21,-306.79"/>
</g>
<!-- Node16&#45;&gt;Node3 -->
<g id="edge19" class="edge">
<title>Node16&#45;&gt;Node3</title>
<path fill="none" stroke="midnightblue" d="M521.95,-336.44C491.92,-327.28 444.09,-312.69 410.76,-302.52"/>
<polygon fill="midnightblue" stroke="midnightblue" points="411.5,-299.09 400.91,-299.52 409.46,-305.78 411.5,-299.09"/>
</g>
<!-- Node17&#45;&gt;Node3 -->
<g id="edge21" class="edge">
<title>Node17&#45;&gt;Node3</title>
<path fill="none" stroke="midnightblue" d="M409.73,-336.08C403.46,-328.38 394.21,-317.03 386.57,-307.65"/>
<polygon fill="midnightblue" stroke="midnightblue" points="389.16,-305.29 380.13,-299.75 383.73,-309.71 389.16,-305.29"/>
</g>
<!-- Node19 -->
<g id="node19" class="node">
<title>Node19</title>
<g id="a_node19"><a xlink:title=" ">
<polygon fill="white" stroke="#bfbfbf" points="610,-280.5 610,-299.5 674,-299.5 674,-280.5 610,-280.5"/>
<text text-anchor="middle" x="642" y="-287.5" font-family="Helvetica,sans-Serif" font-size="10.00">algorithm</text>
</a>
</g>
</g>
<!-- Node18&#45;&gt;Node19 -->
<g id="edge23" class="edge">
<title>Node18&#45;&gt;Node19</title>
<path fill="none" stroke="midnightblue" d="M667.05,-336.08C662.9,-328.61 656.85,-317.72 651.73,-308.52"/>
<polygon fill="midnightblue" stroke="midnightblue" points="654.78,-306.79 646.86,-299.75 648.66,-310.19 654.78,-306.79"/>
</g>
<!-- Node20 -->
<g id="node20" class="node">
<title>Node20</title>
<g id="a_node20"><a xlink:href="bounding__box_8hpp.html" target="_top" xlink:title="Bounding box object, used to compute BVH tree.">
<polygon fill="white" stroke="black" points="649,-224.5 649,-243.5 755,-243.5 755,-224.5 649,-224.5"/>
<text text-anchor="middle" x="702" y="-231.5" font-family="Helvetica,sans-Serif" font-size="10.00">bounding_box.hpp</text>
</a>
</g>
</g>
<!-- Node18&#45;&gt;Node20 -->
<g id="edge24" class="edge">
<title>Node18&#45;&gt;Node20</title>
<path fill="none" stroke="midnightblue" d="M674.35,-336.37C679.22,-318.54 690.46,-277.3 697.02,-253.27"/>
<polygon fill="midnightblue" stroke="midnightblue" points="700.4,-254.16 699.66,-243.59 693.65,-252.32 700.4,-254.16"/>
</g>
<!-- Node20&#45;&gt;Node4 -->
<g id="edge26" class="edge">
<title>Node20&#45;&gt;Node4</title>
<path fill="none" stroke="midnightblue" d="M649.87,-224.44C588.68,-214.4 487.76,-197.84 426.14,-187.72"/>
<polygon fill="midnightblue" stroke="midnightblue" points="426.66,-184.26 416.23,-186.1 425.53,-191.17 426.66,-184.26"/>
</g>
<!-- Node21 -->
<g id="node21" class="node">
<title>Node21</title>
<g id="a_node21"><a xlink:title=" ">
<polygon fill="white" stroke="#bfbfbf" points="679.5,-168.5 679.5,-187.5 724.5,-187.5 724.5,-168.5 679.5,-168.5"/>
<text text-anchor="middle" x="702" y="-175.5" font-family="Helvetica,sans-Serif" font-size="10.00">utility</text>
</a>
</g>
</g>
<!-- Node20&#45;&gt;Node21 -->
<g id="edge25" class="edge">
<title>Node20&#45;&gt;Node21</title>
<path fill="none" stroke="midnightblue" d="M702,-224.08C702,-217.01 702,-206.86 702,-197.99"/>
<polygon fill="midnightblue" stroke="midnightblue" points="705.5,-197.75 702,-187.75 698.5,-197.75 705.5,-197.75"/>
</g>
<!-- Node23 -->
<g id="node23" class="node">
<title>Node23</title>
<g id="a_node23"><a xlink:href="hit_8hpp.html" target="_top" xlink:title="Abstract object that can be hit by a ray.">
<polygon fill="white" stroke="black" points="865,-280.5 865,-299.5 915,-299.5 915,-280.5 865,-280.5"/>
<text text-anchor="middle" x="890" y="-287.5" font-family="Helvetica,sans-Serif" font-size="10.00">hit.hpp</text>
</a>
</g>
</g>
<!-- Node22&#45;&gt;Node23 -->
<g id="edge28" class="edge">
<title>Node22&#45;&gt;Node23</title>
<path fill="none" stroke="midnightblue" d="M825.37,-336.32C837.16,-328.06 855.13,-315.45 869.14,-305.63"/>
<polygon fill="midnightblue" stroke="midnightblue" points="871.48,-308.26 877.66,-299.65 867.46,-302.53 871.48,-308.26"/>
</g>
<!-- Node23&#45;&gt;Node20 -->
<g id="edge29" class="edge">
<title>Node23&#45;&gt;Node20</title>
<path fill="none" stroke="midnightblue" d="M864.65,-281.72C833.13,-272.67 778.98,-257.11 741.88,-246.46"/>
<polygon fill="midnightblue" stroke="midnightblue" points="742.48,-242.99 731.91,-243.59 740.55,-249.71 742.48,-242.99"/>
</g>
<!-- Node24&#45;&gt;Node23 -->
<g id="edge31" class="edge">
<title>Node24&#45;&gt;Node23</title>
<path fill="none" stroke="midnightblue" d="M955.47,-336.32C943.41,-327.98 924.97,-315.21 910.73,-305.35"/>
<polygon fill="midnightblue" stroke="midnightblue" points="912.72,-302.47 902.5,-299.65 908.73,-308.22 912.72,-302.47"/>
</g>
<!-- Node25&#45;&gt;Node23 -->
<g id="edge33" class="edge">
<title>Node25&#45;&gt;Node23</title>
<path fill="none" stroke="midnightblue" d="M1068.41,-336.44C1029.21,-326.46 964.69,-310.03 924.93,-299.9"/>
<polygon fill="midnightblue" stroke="midnightblue" points="925.69,-296.48 915.14,-297.4 923.96,-303.26 925.69,-296.48"/>
</g>
<!-- Node26&#45;&gt;Node14 -->
<g id="edge35" class="edge">
<title>Node26&#45;&gt;Node14</title>
<path fill="none" stroke="midnightblue" d="M89.26,-280.44C121.96,-271.2 174.18,-256.44 210.18,-246.26"/>
<polygon fill="midnightblue" stroke="midnightblue" points="211.21,-249.61 219.88,-243.52 209.3,-242.87 211.21,-249.61"/>
</g>
</g>
</svg>
        <g id="navigator" transform="translate(0 0)" fill="#404254">
                <rect fill="#f2f5e9" fill-opacity="0.5" stroke="#606060" stroke-width=".5" x="0" y="0" width="60" height="60"/>
                <use id="zoomplus" xlink:href="#zoomPlus" x="17" y="9" onmousedown="handleZoom(evt,'in')"/>
                <use id="zoomminus" xlink:href="#zoomMin" x="42" y="9" onmousedown="handleZoom(evt,'out')"/>
                <use id="reset" xlink:href="#resetDef" x="30" y="36" onmousedown="handleReset()"/>
                <g id="arrowUp" xlink:href="#dirArrow" transform="translate(30 24)" onmousedown="handlePan(0,-1)">
                  <use xlink:href="#rim" fill="#404040">
                        <set attributeName="fill" to="#808080" begin="arrowUp.mouseover" end="arrowUp.mouseout"/>
                  </use>
                  <path fill="none" stroke="white" stroke-width="1.5" d="M0,-3.0v7 M-2.5,-0.5L0,-3.0L2.5,-0.5"/>
                </g>
                <g id="arrowRight" xlink:href="#dirArrow" transform="rotate(90) translate(36 -43)" onmousedown="handlePan(1,0)">
                  <use xlink:href="#rim" fill="#404040">
                        <set attributeName="fill" to="#808080" begin="arrowRight.mouseover" end="arrowRight.mouseout"/>
                  </use>
                  <path fill="none" stroke="white" stroke-width="1.5" d="M0,-3.0v7 M-2.5,-0.5L0,-3.0L2.5,-0.5"/>
                </g>
                <g id="arrowDown" xlink:href="#dirArrow" transform="rotate(180) translate(-30 -48)" onmousedown="handlePan(0,1)">
                  <use xlink:href="#rim" fill="#404040">
                        <set attributeName="fill" to="#808080" begin="arrowDown.mouseover" end="arrowDown.mouseout"/>
                  </use>
                  <path fill="none" stroke="white" stroke-width="1.5" d="M0,-3.0v7 M-2.5,-0.5L0,-3.0L2.5,-0.5"/>
                </g>
                <g id="arrowLeft" xlink:href="#dirArrow" transform="rotate(270) translate(-36 17)" onmousedown="handlePan(-1,0)">
                  <use xlink:href="#rim" fill="#404040">
                        <set attributeName="fill" to="#808080" begin="arrowLeft.mouseover" end="arrowLeft.mouseout"/>
                  </use>
                  <path fill="none" stroke="white" stroke-width="1.5" d="M0,-3.0v7 M-2.5,-0.5L0,-3.0L2.5,-0.5"/>
                </g>
        </g>
        <svg viewBox="0 0 15 15" width="100%" height="30px" preserveAspectRatio="xMaxYMin meet">
         <g id="arrow_out" transform="scale(0.3 0.3)">
          <a xlink:href="light__scene_8hpp__incl_org.svg" target="_base">
           <rect id="button" ry="5" rx="5" y="6" x="6" height="38" width="38"
                fill="#f2f5e9" fill-opacity="0.5" stroke="#606060" stroke-width="1.0"/>
           <path id="arrow"
             d="M 11.500037,31.436501 C 11.940474,20.09759 22.043105,11.32322 32.158766,21.979434 L 37.068811,17.246167 C 37.068811,17.246167 37.088388,32 37.088388,32 L 22.160133,31.978069 C 22.160133,31.978069 26.997745,27.140456 26.997745,27.140456 C 18.528582,18.264221 13.291696,25.230495 11.500037,31.436501 z"
             style="fill:#404040;"/>
          </a>
         </g>
        </svg>
</svg>
