<?xml version="1.0" encoding="UTF-8" standalone="no"?>
<!DOCTYPE svg PUBLIC "-//W3C//DTD SVG 1.1//EN"
 "http://www.w3.org/Graphics/SVG/1.1/DTD/svg11.dtd">
<!-- Generated by graphviz version 2.43.0 (0)
 -->
<!-- Title: include/materials/material.hpp Pages: 1 -->
<svg width="788pt" height="274pt"
 viewBox="0.00 0.00 787.50 274.00" xmlns="http://www.w3.org/2000/svg" xmlns:xlink="http://www.w3.org/1999/xlink">
<g id="graph0" class="graph" transform="scale(1 1) rotate(0) translate(4 270)">
<title>include/materials/material.hpp</title>
<polygon fill="white" stroke="transparent" points="-4,4 -4,-270 783.5,-270 783.5,4 -4,4"/>
<!-- Node1 -->
<g id="node1" class="node">
<title>Node1</title>
<g id="a_node1"><a xlink:title="Base class for materials.">
<polygon fill="#bfbfbf" stroke="black" points="340.5,-246.5 340.5,-265.5 507.5,-265.5 507.5,-246.5 340.5,-246.5"/>
<text text-anchor="middle" x="424" y="-253.5" font-family="Helvetica,sans-Serif" font-size="10.00">include/materials/material.hpp</text>
</a>
</g>
</g>
<!-- Node2 -->
<g id="node2" class="node">
<title>Node2</title>
<g id="a_node2"><a xlink:href="diffuse_8hpp.html" target="_top" xlink:title="Object for diffuse (random) scattering. Subclass of material.">
<polygon fill="white" stroke="black" points="172,-129 172,-148 330,-148 330,-129 172,-129"/>
<text text-anchor="middle" x="251" y="-136" font-family="Helvetica,sans-Serif" font-size="10.00">include/materials/diffuse.hpp</text>
</a>
</g>
</g>
<!-- Node1&#45;&gt;Node2 -->
<g id="edge1" class="edge">
<title>Node1&#45;&gt;Node2</title>
<path fill="none" stroke="midnightblue" d="M402.61,-240.72C366.34,-216.51 293.86,-168.11 264.15,-148.28"/>
<polygon fill="midnightblue" stroke="midnightblue" points="400.74,-243.68 411,-246.32 404.62,-237.86 400.74,-243.68"/>
</g>
<!-- Node8 -->
<g id="node8" class="node">
<title>Node8</title>
<g id="a_node8"><a xlink:href="diffuse__light_8hpp.html" target="_top" xlink:title="Emissive diffuse light material.">
<polygon fill="white" stroke="black" points="517.5,-123.5 517.5,-153.5 654.5,-153.5 654.5,-123.5 517.5,-123.5"/>
<text text-anchor="start" x="525.5" y="-141.5" font-family="Helvetica,sans-Serif" font-size="10.00">include/materials/diffuse</text>
<text text-anchor="middle" x="586" y="-130.5" font-family="Helvetica,sans-Serif" font-size="10.00">_light.hpp</text>
</a>
</g>
</g>
<!-- Node1&#45;&gt;Node8 -->
<g id="edge9" class="edge">
<title>Node1&#45;&gt;Node8</title>
<path fill="none" stroke="midnightblue" d="M444.6,-240.31C476,-217.92 535.44,-175.54 566.3,-153.55"/>
<polygon fill="midnightblue" stroke="midnightblue" points="442.29,-237.66 436.18,-246.32 446.35,-243.36 442.29,-237.66"/>
</g>
<!-- Node9 -->
<g id="node9" class="node">
<title>Node9</title>
<g id="a_node9"><a xlink:href="glass_8hpp.html" target="_top" xlink:title="A glass object that refracts/reflects using Snell&#39;s Law.">
<polygon fill="white" stroke="black" points="348.5,-129 348.5,-148 499.5,-148 499.5,-129 348.5,-129"/>
<text text-anchor="middle" x="424" y="-136" font-family="Helvetica,sans-Serif" font-size="10.00">include/materials/glass.hpp</text>
</a>
</g>
</g>
<!-- Node1&#45;&gt;Node9 -->
<g id="edge13" class="edge">
<title>Node1&#45;&gt;Node9</title>
<path fill="none" stroke="midnightblue" d="M424,-236.16C424,-210.87 424,-166.94 424,-148.28"/>
<polygon fill="midnightblue" stroke="midnightblue" points="420.5,-236.32 424,-246.32 427.5,-236.32 420.5,-236.32"/>
</g>
<!-- Node10 -->
<g id="node10" class="node">
<title>Node10</title>
<g id="a_node10"><a xlink:href="isotropic_8hpp.html" target="_top" xlink:title="Isotropic fog material.">
<polygon fill="white" stroke="black" points="596.5,-190.5 596.5,-209.5 763.5,-209.5 763.5,-190.5 596.5,-190.5"/>
<text text-anchor="middle" x="680" y="-197.5" font-family="Helvetica,sans-Serif" font-size="10.00">include/materials/isotropic.hpp</text>
</a>
</g>
</g>
<!-- Node1&#45;&gt;Node10 -->
<g id="edge18" class="edge">
<title>Node1&#45;&gt;Node10</title>
<path fill="none" stroke="midnightblue" d="M474.51,-244.35C522.89,-234.14 594.95,-218.94 639.63,-209.52"/>
<polygon fill="midnightblue" stroke="midnightblue" points="473.63,-240.95 464.56,-246.44 475.07,-247.8 473.63,-240.95"/>
</g>
<!-- Node12 -->
<g id="node12" class="node">
<title>Node12</title>
<g id="a_node12"><a xlink:href="metal_8hpp.html" target="_top" xlink:title="Reflective surface, with additional fuzzy scattering.">
<polygon fill="white" stroke="black" points="0,-129 0,-148 154,-148 154,-129 0,-129"/>
<text text-anchor="middle" x="77" y="-136" font-family="Helvetica,sans-Serif" font-size="10.00">include/materials/metal.hpp</text>
</a>
</g>
</g>
<!-- Node1&#45;&gt;Node12 -->
<g id="edge22" class="edge">
<title>Node1&#45;&gt;Node12</title>
<path fill="none" stroke="midnightblue" d="M388.51,-243.19C318.57,-219.91 164.37,-168.58 102.97,-148.14"/>
<polygon fill="midnightblue" stroke="midnightblue" points="387.61,-246.58 398.2,-246.41 389.82,-239.93 387.61,-246.58"/>
</g>
<!-- Node3 -->
<g id="node3" class="node">
<title>Node3</title>
<g id="a_node3"><a xlink:href="comb__scene_8hpp.html" target="_top" xlink:title="Header file for Combined scene example (unfinished)">
<polygon fill="white" stroke="black" points="364.5,-56.5 364.5,-86.5 483.5,-86.5 483.5,-56.5 364.5,-56.5"/>
<text text-anchor="start" x="372.5" y="-74.5" font-family="Helvetica,sans-Serif" font-size="10.00">include/scenes/comb</text>
<text text-anchor="middle" x="424" y="-63.5" font-family="Helvetica,sans-Serif" font-size="10.00">_scene.hpp</text>
</a>
</g>
</g>
<!-- Node2&#45;&gt;Node3 -->
<g id="edge2" class="edge">
<title>Node2&#45;&gt;Node3</title>
<path fill="none" stroke="midnightblue" d="M283.35,-125.35C312.67,-114.33 355.88,-98.09 386.66,-86.53"/>
<polygon fill="midnightblue" stroke="midnightblue" points="282.1,-122.07 273.97,-128.87 284.57,-128.63 282.1,-122.07"/>
</g>
<!-- Node4 -->
<g id="node4" class="node">
<title>Node4</title>
<g id="a_node4"><a xlink:href="cornell__box_8hpp.html" target="_top" xlink:title="Header file for cornell box scene examples (unfinished)">
<polygon fill="white" stroke="black" points="501.5,-56.5 501.5,-86.5 626.5,-86.5 626.5,-56.5 501.5,-56.5"/>
<text text-anchor="start" x="509.5" y="-74.5" font-family="Helvetica,sans-Serif" font-size="10.00">include/scenes/cornell</text>
<text text-anchor="middle" x="564" y="-63.5" font-family="Helvetica,sans-Serif" font-size="10.00">_box.hpp</text>
</a>
</g>
</g>
<!-- Node2&#45;&gt;Node4 -->
<g id="edge3" class="edge">
<title>Node2&#45;&gt;Node4</title>
<path fill="none" stroke="midnightblue" d="M302.36,-126.83C356.82,-115.53 442.87,-97.65 501.3,-85.52"/>
<polygon fill="midnightblue" stroke="midnightblue" points="301.32,-123.48 292.24,-128.94 302.74,-130.33 301.32,-123.48"/>
</g>
<!-- Node6 -->
<g id="node6" class="node">
<title>Node6</title>
<g id="a_node6"><a xlink:href="light__scene_8hpp.html" target="_top" xlink:title="Header file for light scene example (unfinished)">
<polygon fill="white" stroke="black" points="233.5,-56.5 233.5,-86.5 346.5,-86.5 346.5,-56.5 233.5,-56.5"/>
<text text-anchor="start" x="241.5" y="-74.5" font-family="Helvetica,sans-Serif" font-size="10.00">include/scenes/light</text>
<text text-anchor="middle" x="290" y="-63.5" font-family="Helvetica,sans-Serif" font-size="10.00">_scene.hpp</text>
</a>
</g>
</g>
<!-- Node2&#45;&gt;Node6 -->
<g id="edge5" class="edge">
<title>Node2&#45;&gt;Node6</title>
<path fill="none" stroke="midnightblue" d="M261.48,-120.03C267.77,-109.56 275.66,-96.4 281.55,-86.59"/>
<polygon fill="midnightblue" stroke="midnightblue" points="258.4,-118.36 256.26,-128.73 264.41,-121.96 258.4,-118.36"/>
</g>
<!-- Node7 -->
<g id="node7" class="node">
<title>Node7</title>
<g id="a_node7"><a xlink:href="random__scene_8hpp.html" target="_top" xlink:title="Header file for random scene example (unfinished)">
<polygon fill="white" stroke="black" points="86.5,-56.5 86.5,-86.5 215.5,-86.5 215.5,-56.5 86.5,-56.5"/>
<text text-anchor="start" x="94.5" y="-74.5" font-family="Helvetica,sans-Serif" font-size="10.00">include/scenes/random</text>
<text text-anchor="middle" x="151" y="-63.5" font-family="Helvetica,sans-Serif" font-size="10.00">_scene.hpp</text>
</a>
</g>
</g>
<!-- Node2&#45;&gt;Node7 -->
<g id="edge7" class="edge">
<title>Node2&#45;&gt;Node7</title>
<path fill="none" stroke="midnightblue" d="M228.93,-123.15C212.19,-112.27 189.31,-97.4 172.68,-86.59"/>
<polygon fill="midnightblue" stroke="midnightblue" points="227.22,-126.22 237.51,-128.73 231.04,-120.35 227.22,-126.22"/>
</g>
<!-- Node5 -->
<g id="node5" class="node">
<title>Node5</title>
<g id="a_node5"><a xlink:href="main_8cpp.html" target="_top" xlink:title="Main file for Serial ray tracer project.">
<polygon fill="white" stroke="black" points="259,-0.5 259,-19.5 321,-19.5 321,-0.5 259,-0.5"/>
<text text-anchor="middle" x="290" y="-7.5" font-family="Helvetica,sans-Serif" font-size="10.00">main.cpp</text>
</a>
</g>
</g>
<!-- Node4&#45;&gt;Node5 -->
<g id="edge4" class="edge">
<title>Node4&#45;&gt;Node5</title>
<path fill="none" stroke="midnightblue" d="M491.71,-54.8C436.28,-42.76 362.5,-26.74 321.27,-17.79"/>
<polygon fill="midnightblue" stroke="midnightblue" points="490.97,-58.22 501.48,-56.92 492.45,-51.38 490.97,-58.22"/>
</g>
<!-- Node6&#45;&gt;Node5 -->
<g id="edge6" class="edge">
<title>Node6&#45;&gt;Node5</title>
<path fill="none" stroke="midnightblue" d="M290,-46.29C290,-36.86 290,-26.65 290,-19.66"/>
<polygon fill="midnightblue" stroke="midnightblue" points="286.5,-46.4 290,-56.4 293.5,-46.4 286.5,-46.4"/>
</g>
<!-- Node7&#45;&gt;Node5 -->
<g id="edge8" class="edge">
<title>Node7&#45;&gt;Node5</title>
<path fill="none" stroke="midnightblue" d="M193.35,-52.37C218.72,-41.51 249.83,-28.2 269.77,-19.66"/>
<polygon fill="midnightblue" stroke="midnightblue" points="191.76,-49.25 183.94,-56.4 194.51,-55.68 191.76,-49.25"/>
</g>
<!-- Node8&#45;&gt;Node3 -->
<g id="edge10" class="edge">
<title>Node8&#45;&gt;Node3</title>
<path fill="none" stroke="midnightblue" d="M541.25,-119.54C515.33,-109.14 483.16,-96.24 459.08,-86.58"/>
<polygon fill="midnightblue" stroke="midnightblue" points="540.26,-122.92 550.85,-123.4 542.87,-116.42 540.26,-122.92"/>
</g>
<!-- Node8&#45;&gt;Node4 -->
<g id="edge11" class="edge">
<title>Node8&#45;&gt;Node4</title>
<path fill="none" stroke="midnightblue" d="M577.94,-113.7C574.86,-104.59 571.44,-94.49 568.76,-86.58"/>
<polygon fill="midnightblue" stroke="midnightblue" points="574.71,-115.05 581.23,-123.4 581.34,-112.8 574.71,-115.05"/>
</g>
<!-- Node8&#45;&gt;Node6 -->
<g id="edge12" class="edge">
<title>Node8&#45;&gt;Node6</title>
<path fill="none" stroke="midnightblue" d="M511.24,-121.24C466.01,-111.38 407.17,-98.52 355,-87 352.29,-86.4 349.52,-85.79 346.72,-85.17"/>
<polygon fill="midnightblue" stroke="midnightblue" points="510.75,-124.72 521.26,-123.42 512.24,-117.88 510.75,-124.72"/>
</g>
<!-- Node9&#45;&gt;Node3 -->
<g id="edge14" class="edge">
<title>Node9&#45;&gt;Node3</title>
<path fill="none" stroke="midnightblue" d="M424,-118.41C424,-108.22 424,-95.9 424,-86.59"/>
<polygon fill="midnightblue" stroke="midnightblue" points="420.5,-118.73 424,-128.73 427.5,-118.73 420.5,-118.73"/>
</g>
<!-- Node9&#45;&gt;Node4 -->
<g id="edge15" class="edge">
<title>Node9&#45;&gt;Node4</title>
<path fill="none" stroke="midnightblue" d="M451.74,-124.62C475.42,-113.63 509.42,-97.84 533.79,-86.53"/>
<polygon fill="midnightblue" stroke="midnightblue" points="450.19,-121.48 442.59,-128.87 453.13,-127.83 450.19,-121.48"/>
</g>
<!-- Node9&#45;&gt;Node6 -->
<g id="edge16" class="edge">
<title>Node9&#45;&gt;Node6</title>
<path fill="none" stroke="midnightblue" d="M397.15,-124.47C374.49,-113.49 342.14,-97.79 318.92,-86.53"/>
<polygon fill="midnightblue" stroke="midnightblue" points="395.68,-127.65 406.21,-128.87 398.74,-121.35 395.68,-127.65"/>
</g>
<!-- Node9&#45;&gt;Node7 -->
<g id="edge17" class="edge">
<title>Node9&#45;&gt;Node7</title>
<path fill="none" stroke="midnightblue" d="M378.29,-126.62C332.09,-115.62 260.52,-98.58 210.05,-86.56"/>
<polygon fill="midnightblue" stroke="midnightblue" points="377.49,-130.02 388.03,-128.94 379.11,-123.21 377.49,-130.02"/>
</g>
<!-- Node11 -->
<g id="node11" class="node">
<title>Node11</title>
<g id="a_node11"><a xlink:href="iso__fog_8hpp.html" target="_top" xlink:title="Isotropically scattering fog object.">
<polygon fill="white" stroke="black" points="672.5,-123.5 672.5,-153.5 779.5,-153.5 779.5,-123.5 672.5,-123.5"/>
<text text-anchor="start" x="680.5" y="-141.5" font-family="Helvetica,sans-Serif" font-size="10.00">include/objects/iso</text>
<text text-anchor="middle" x="726" y="-130.5" font-family="Helvetica,sans-Serif" font-size="10.00">_fog.hpp</text>
</a>
</g>
</g>
<!-- Node10&#45;&gt;Node11 -->
<g id="edge19" class="edge">
<title>Node10&#45;&gt;Node11</title>
<path fill="none" stroke="midnightblue" d="M692.73,-182.53C699.78,-173.42 708.44,-162.21 715.16,-153.52"/>
<polygon fill="midnightblue" stroke="midnightblue" points="689.94,-180.42 686.59,-190.48 695.48,-184.7 689.94,-180.42"/>
</g>
<!-- Node11&#45;&gt;Node3 -->
<g id="edge20" class="edge">
<title>Node11&#45;&gt;Node3</title>
<path fill="none" stroke="midnightblue" d="M662.17,-122.62C586.07,-105.84 565.28,-102.48 492,-87 489.28,-86.43 486.51,-85.84 483.7,-85.24"/>
<polygon fill="midnightblue" stroke="midnightblue" points="661.73,-126.11 672.25,-124.85 663.24,-119.27 661.73,-126.11"/>
</g>
<!-- Node11&#45;&gt;Node4 -->
<g id="edge21" class="edge">
<title>Node11&#45;&gt;Node4</title>
<path fill="none" stroke="midnightblue" d="M681.25,-119.54C655.33,-109.14 623.16,-96.24 599.08,-86.58"/>
<polygon fill="midnightblue" stroke="midnightblue" points="680.26,-122.92 690.85,-123.4 682.87,-116.42 680.26,-122.92"/>
</g>
<!-- Node12&#45;&gt;Node3 -->
<g id="edge23" class="edge">
<title>Node12&#45;&gt;Node3</title>
<path fill="none" stroke="midnightblue" d="M136.45,-127.19C192.79,-117.3 279.77,-101.73 355,-87 358,-86.41 361.08,-85.8 364.18,-85.18"/>
<polygon fill="midnightblue" stroke="midnightblue" points="135.54,-123.79 126.29,-128.97 136.74,-130.69 135.54,-123.79"/>
</g>
<!-- Node12&#45;&gt;Node4 -->
<g id="edge24" class="edge">
<title>Node12&#45;&gt;Node4</title>
<path fill="none" stroke="midnightblue" d="M134.78,-127.29C144.19,-125.76 153.86,-124.27 163,-123 308.7,-102.76 346.64,-109.54 492,-87 495.02,-86.53 498.11,-86.02 501.23,-85.49"/>
<polygon fill="midnightblue" stroke="midnightblue" points="133.98,-123.87 124.69,-128.95 135.12,-130.78 133.98,-123.87"/>
</g>
<!-- Node12&#45;&gt;Node6 -->
<g id="edge25" class="edge">
<title>Node12&#45;&gt;Node6</title>
<path fill="none" stroke="midnightblue" d="M114.96,-125.92C151.07,-114.9 205.48,-98.29 244.03,-86.53"/>
<polygon fill="midnightblue" stroke="midnightblue" points="113.83,-122.6 105.28,-128.87 115.87,-129.3 113.83,-122.6"/>
</g>
<!-- Node12&#45;&gt;Node7 -->
<g id="edge26" class="edge">
<title>Node12&#45;&gt;Node7</title>
<path fill="none" stroke="midnightblue" d="M94.73,-121.93C106.97,-111.18 123.1,-97 134.96,-86.59"/>
<polygon fill="midnightblue" stroke="midnightblue" points="92.18,-119.5 86.98,-128.73 96.8,-124.76 92.18,-119.5"/>
</g>
</g>
</svg>
