<?xml version="1.0" encoding="UTF-8" standalone="no"?>
<!DOCTYPE svg PUBLIC "-//W3C//DTD SVG 1.1//EN"
 "http://www.w3.org/Graphics/SVG/1.1/DTD/svg11.dtd">
<!-- Generated by graphviz version 2.43.0 (0)
 -->
<!-- Title: include/render/ray.hpp Pages: 1 -->
<svg width="1943pt" height="397pt"
 viewBox="0.00 0.00 1943.04 397.00" xmlns="http://www.w3.org/2000/svg" xmlns:xlink="http://www.w3.org/1999/xlink">
<g id="graph0" class="graph" transform="scale(1 1) rotate(0) translate(4 393)">
<title>include/render/ray.hpp</title>
<polygon fill="white" stroke="transparent" points="-4,4 -4,-393 1939.04,-393 1939.04,4 -4,4"/>
<!-- Node1 -->
<g id="node1" class="node">
<title>Node1</title>
<g id="a_node1"><a xlink:title="The ray object for our tracing algorithm.">
<polygon fill="#bfbfbf" stroke="black" points="845.54,-369.5 845.54,-388.5 970.54,-388.5 970.54,-369.5 845.54,-369.5"/>
<text text-anchor="middle" x="908.04" y="-376.5" font-family="Helvetica,sans-Serif" font-size="10.00">include/render/ray.hpp</text>
</a>
</g>
</g>
<!-- Node2 -->
<g id="node2" class="node">
<title>Node2</title>
<g id="a_node2"><a xlink:href="material_8hpp.html" target="_top" xlink:title="Base class for materials.">
<polygon fill="white" stroke="black" points="410.54,-246.5 410.54,-265.5 577.54,-265.5 577.54,-246.5 410.54,-246.5"/>
<text text-anchor="middle" x="494.04" y="-253.5" font-family="Helvetica,sans-Serif" font-size="10.00">include/materials/material.hpp</text>
</a>
</g>
</g>
<!-- Node1&#45;&gt;Node2 -->
<g id="edge1" class="edge">
<title>Node1&#45;&gt;Node2</title>
<path fill="none" stroke="midnightblue" d="M869.21,-366.65C786.92,-342.6 596.54,-286.96 523.39,-265.58"/>
<polygon fill="midnightblue" stroke="midnightblue" points="868.34,-370.05 878.92,-369.49 870.31,-363.33 868.34,-370.05"/>
</g>
<!-- Node14 -->
<g id="node14" class="node">
<title>Node14</title>
<g id="a_node14"><a xlink:href="bounding__box_8hpp.html" target="_top" xlink:title="Bounding box object, used to compute BVH tree.">
<polygon fill="white" stroke="black" points="839.04,-302.5 839.04,-332.5 977.04,-332.5 977.04,-302.5 839.04,-302.5"/>
<text text-anchor="start" x="847.04" y="-320.5" font-family="Helvetica,sans-Serif" font-size="10.00">include/objects/bounding</text>
<text text-anchor="middle" x="908.04" y="-309.5" font-family="Helvetica,sans-Serif" font-size="10.00">_box.hpp</text>
</a>
</g>
</g>
<!-- Node1&#45;&gt;Node14 -->
<g id="edge28" class="edge">
<title>Node1&#45;&gt;Node14</title>
<path fill="none" stroke="midnightblue" d="M908.04,-359.23C908.04,-350.59 908.04,-340.5 908.04,-332.52"/>
<polygon fill="midnightblue" stroke="midnightblue" points="904.54,-359.48 908.04,-369.48 911.54,-359.48 904.54,-359.48"/>
</g>
<!-- Node26 -->
<g id="node26" class="node">
<title>Node26</title>
<g id="a_node26"><a xlink:href="camera_8hpp.html" target="_top" xlink:title="Camera object to render scene from.">
<polygon fill="white" stroke="black" points="1582.54,-308 1582.54,-327 1729.54,-327 1729.54,-308 1582.54,-308"/>
<text text-anchor="middle" x="1656.04" y="-315" font-family="Helvetica,sans-Serif" font-size="10.00">include/render/camera.hpp</text>
</a>
</g>
</g>
<!-- Node1&#45;&gt;Node26 -->
<g id="edge62" class="edge">
<title>Node1&#45;&gt;Node26</title>
<path fill="none" stroke="midnightblue" d="M980.82,-372.21C1123.58,-360.85 1438.88,-335.77 1582.36,-324.36"/>
<polygon fill="midnightblue" stroke="midnightblue" points="980.53,-368.72 970.84,-373 981.09,-375.7 980.53,-368.72"/>
</g>
<!-- Node3 -->
<g id="node3" class="node">
<title>Node3</title>
<g id="a_node3"><a xlink:href="diffuse_8hpp.html" target="_top" xlink:title="Object for diffuse (random) scattering. Subclass of material.">
<polygon fill="white" stroke="black" points="186.04,-129 186.04,-148 344.04,-148 344.04,-129 186.04,-129"/>
<text text-anchor="middle" x="265.04" y="-136" font-family="Helvetica,sans-Serif" font-size="10.00">include/materials/diffuse.hpp</text>
</a>
</g>
</g>
<!-- Node2&#45;&gt;Node3 -->
<g id="edge2" class="edge">
<title>Node2&#45;&gt;Node3</title>
<path fill="none" stroke="midnightblue" d="M467.8,-241.77C420.42,-217.87 321.82,-168.14 282.14,-148.12"/>
<polygon fill="midnightblue" stroke="midnightblue" points="466.32,-244.94 476.82,-246.32 469.47,-238.69 466.32,-244.94"/>
</g>
<!-- Node9 -->
<g id="node9" class="node">
<title>Node9</title>
<g id="a_node9"><a xlink:href="diffuse__light_8hpp.html" target="_top" xlink:title="Emissive diffuse light material.">
<polygon fill="white" stroke="black" points="998.54,-123.5 998.54,-153.5 1135.54,-153.5 1135.54,-123.5 998.54,-123.5"/>
<text text-anchor="start" x="1006.54" y="-141.5" font-family="Helvetica,sans-Serif" font-size="10.00">include/materials/diffuse</text>
<text text-anchor="middle" x="1067.04" y="-130.5" font-family="Helvetica,sans-Serif" font-size="10.00">_light.hpp</text>
</a>
</g>
</g>
<!-- Node2&#45;&gt;Node9 -->
<g id="edge10" class="edge">
<title>Node2&#45;&gt;Node9</title>
<path fill="none" stroke="midnightblue" d="M528.47,-243.25C572.1,-228.77 649.84,-204.34 718.04,-190 836.94,-165 869.05,-173.11 989.04,-154 992.03,-153.52 995.08,-153.02 998.17,-152.5"/>
<polygon fill="midnightblue" stroke="midnightblue" points="527.29,-239.95 518.92,-246.44 529.51,-246.59 527.29,-239.95"/>
</g>
<!-- Node10 -->
<g id="node10" class="node">
<title>Node10</title>
<g id="a_node10"><a xlink:href="glass_8hpp.html" target="_top" xlink:title="A glass object that refracts/reflects using Snell&#39;s Law.">
<polygon fill="white" stroke="black" points="16.54,-129 16.54,-148 167.54,-148 167.54,-129 16.54,-129"/>
<text text-anchor="middle" x="92.04" y="-136" font-family="Helvetica,sans-Serif" font-size="10.00">include/materials/glass.hpp</text>
</a>
</g>
</g>
<!-- Node2&#45;&gt;Node10 -->
<g id="edge14" class="edge">
<title>Node2&#45;&gt;Node10</title>
<path fill="none" stroke="midnightblue" d="M454.4,-243.61C373.97,-220.5 193.23,-168.57 121.85,-148.06"/>
<polygon fill="midnightblue" stroke="midnightblue" points="453.57,-247.02 464.15,-246.41 455.5,-240.29 453.57,-247.02"/>
</g>
<!-- Node11 -->
<g id="node11" class="node">
<title>Node11</title>
<g id="a_node11"><a xlink:href="isotropic_8hpp.html" target="_top" xlink:title="Isotropic fog material.">
<polygon fill="white" stroke="black" points="942.54,-190.5 942.54,-209.5 1109.54,-209.5 1109.54,-190.5 942.54,-190.5"/>
<text text-anchor="middle" x="1026.04" y="-197.5" font-family="Helvetica,sans-Serif" font-size="10.00">include/materials/isotropic.hpp</text>
</a>
</g>
</g>
<!-- Node2&#45;&gt;Node11 -->
<g id="edge19" class="edge">
<title>Node2&#45;&gt;Node11</title>
<path fill="none" stroke="midnightblue" d="M587.88,-245.47C688.29,-235.28 846.07,-219.27 942.38,-209.49"/>
<polygon fill="midnightblue" stroke="midnightblue" points="587.34,-242.01 577.75,-246.5 588.05,-248.98 587.34,-242.01"/>
</g>
<!-- Node13 -->
<g id="node13" class="node">
<title>Node13</title>
<g id="a_node13"><a xlink:href="metal_8hpp.html" target="_top" xlink:title="Reflective surface, with additional fuzzy scattering.">
<polygon fill="white" stroke="black" points="362.04,-129 362.04,-148 516.04,-148 516.04,-129 362.04,-129"/>
<text text-anchor="middle" x="439.04" y="-136" font-family="Helvetica,sans-Serif" font-size="10.00">include/materials/metal.hpp</text>
</a>
</g>
</g>
<!-- Node2&#45;&gt;Node13 -->
<g id="edge23" class="edge">
<title>Node2&#45;&gt;Node13</title>
<path fill="none" stroke="midnightblue" d="M485.55,-237.18C473.59,-212.06 452.22,-167.19 443.22,-148.28"/>
<polygon fill="midnightblue" stroke="midnightblue" points="482.44,-238.79 489.9,-246.32 488.76,-235.79 482.44,-238.79"/>
</g>
<!-- Node4 -->
<g id="node4" class="node">
<title>Node4</title>
<g id="a_node4"><a xlink:href="comb__scene_8hpp.html" target="_top" xlink:title="Header file for Combined scene example (unfinished)">
<polygon fill="white" stroke="black" points="1001.54,-56.5 1001.54,-86.5 1120.54,-86.5 1120.54,-56.5 1001.54,-56.5"/>
<text text-anchor="start" x="1009.54" y="-74.5" font-family="Helvetica,sans-Serif" font-size="10.00">include/scenes/comb</text>
<text text-anchor="middle" x="1061.04" y="-63.5" font-family="Helvetica,sans-Serif" font-size="10.00">_scene.hpp</text>
</a>
</g>
</g>
<!-- Node3&#45;&gt;Node4 -->
<g id="edge3" class="edge">
<title>Node3&#45;&gt;Node4</title>
<path fill="none" stroke="midnightblue" d="M321.04,-127.36C331.64,-125.7 342.66,-124.15 353.04,-123 633.56,-92.01 707.01,-122.22 987.04,-87 991.71,-86.41 996.54,-85.7 1001.37,-84.92"/>
<polygon fill="midnightblue" stroke="midnightblue" points="320.35,-123.92 311.04,-128.97 321.47,-130.83 320.35,-123.92"/>
</g>
<!-- Node5 -->
<g id="node5" class="node">
<title>Node5</title>
<g id="a_node5"><a xlink:href="cornell__box_8hpp.html" target="_top" xlink:title="Header file for cornell box scene examples (unfinished)">
<polygon fill="white" stroke="black" points="852.54,-56.5 852.54,-86.5 977.54,-86.5 977.54,-56.5 852.54,-56.5"/>
<text text-anchor="start" x="860.54" y="-74.5" font-family="Helvetica,sans-Serif" font-size="10.00">include/scenes/cornell</text>
<text text-anchor="middle" x="915.04" y="-63.5" font-family="Helvetica,sans-Serif" font-size="10.00">_box.hpp</text>
</a>
</g>
</g>
<!-- Node3&#45;&gt;Node5 -->
<g id="edge4" class="edge">
<title>Node3&#45;&gt;Node5</title>
<path fill="none" stroke="midnightblue" d="M322.81,-127.36C332.87,-125.77 343.24,-124.24 353.04,-123 401.53,-116.83 716.13,-89.58 852.33,-77.87"/>
<polygon fill="midnightblue" stroke="midnightblue" points="322.21,-123.91 312.9,-128.96 323.33,-130.82 322.21,-123.91"/>
</g>
<!-- Node7 -->
<g id="node7" class="node">
<title>Node7</title>
<g id="a_node7"><a xlink:href="light__scene_8hpp.html" target="_top" xlink:title="Header file for light scene example (unfinished)">
<polygon fill="white" stroke="black" points="474.54,-56.5 474.54,-86.5 587.54,-86.5 587.54,-56.5 474.54,-56.5"/>
<text text-anchor="start" x="482.54" y="-74.5" font-family="Helvetica,sans-Serif" font-size="10.00">include/scenes/light</text>
<text text-anchor="middle" x="531.04" y="-63.5" font-family="Helvetica,sans-Serif" font-size="10.00">_scene.hpp</text>
</a>
</g>
</g>
<!-- Node3&#45;&gt;Node7 -->
<g id="edge6" class="edge">
<title>Node3&#45;&gt;Node7</title>
<path fill="none" stroke="midnightblue" d="M309.92,-126.53C355.26,-115.45 425.41,-98.31 474.51,-86.31"/>
<polygon fill="midnightblue" stroke="midnightblue" points="308.97,-123.16 300.08,-128.94 310.63,-129.96 308.97,-123.16"/>
</g>
<!-- Node8 -->
<g id="node8" class="node">
<title>Node8</title>
<g id="a_node8"><a xlink:href="random__scene_8hpp.html" target="_top" xlink:title="Header file for random scene example (unfinished)">
<polygon fill="white" stroke="black" points="605.54,-56.5 605.54,-86.5 734.54,-86.5 734.54,-56.5 605.54,-56.5"/>
<text text-anchor="start" x="613.54" y="-74.5" font-family="Helvetica,sans-Serif" font-size="10.00">include/scenes/random</text>
<text text-anchor="middle" x="670.04" y="-63.5" font-family="Helvetica,sans-Serif" font-size="10.00">_scene.hpp</text>
</a>
</g>
</g>
<!-- Node3&#45;&gt;Node8 -->
<g id="edge8" class="edge">
<title>Node3&#45;&gt;Node8</title>
<path fill="none" stroke="midnightblue" d="M326.24,-127.28C335.22,-125.82 344.37,-124.36 353.04,-123 460.9,-106.12 488.44,-105.5 596.04,-87 599.13,-86.47 602.3,-85.91 605.49,-85.33"/>
<polygon fill="midnightblue" stroke="midnightblue" points="325.5,-123.86 316.2,-128.93 326.63,-130.77 325.5,-123.86"/>
</g>
<!-- Node6 -->
<g id="node6" class="node">
<title>Node6</title>
<g id="a_node6"><a xlink:href="main_8cpp.html" target="_top" xlink:title="Main file for Serial ray tracer project.">
<polygon fill="white" stroke="black" points="884.04,-0.5 884.04,-19.5 946.04,-19.5 946.04,-0.5 884.04,-0.5"/>
<text text-anchor="middle" x="915.04" y="-7.5" font-family="Helvetica,sans-Serif" font-size="10.00">main.cpp</text>
</a>
</g>
</g>
<!-- Node5&#45;&gt;Node6 -->
<g id="edge5" class="edge">
<title>Node5&#45;&gt;Node6</title>
<path fill="none" stroke="midnightblue" d="M915.04,-46.29C915.04,-36.86 915.04,-26.65 915.04,-19.66"/>
<polygon fill="midnightblue" stroke="midnightblue" points="911.54,-46.4 915.04,-56.4 918.54,-46.4 911.54,-46.4"/>
</g>
<!-- Node7&#45;&gt;Node6 -->
<g id="edge7" class="edge">
<title>Node7&#45;&gt;Node6</title>
<path fill="none" stroke="midnightblue" d="M597.68,-55.78C708.16,-36.04 828,-21.13 883.66,-14.59"/>
<polygon fill="midnightblue" stroke="midnightblue" points="596.92,-52.36 587.7,-57.58 598.16,-59.25 596.92,-52.36"/>
</g>
<!-- Node8&#45;&gt;Node6 -->
<g id="edge9" class="edge">
<title>Node8&#45;&gt;Node6</title>
<path fill="none" stroke="midnightblue" d="M737.75,-54.05C785.5,-42.46 847.25,-27.46 883.85,-18.57"/>
<polygon fill="midnightblue" stroke="midnightblue" points="736.68,-50.71 727.79,-56.47 738.33,-57.52 736.68,-50.71"/>
</g>
<!-- Node9&#45;&gt;Node4 -->
<g id="edge11" class="edge">
<title>Node9&#45;&gt;Node4</title>
<path fill="none" stroke="midnightblue" d="M1064.81,-113.4C1063.98,-104.37 1063.06,-94.41 1062.34,-86.58"/>
<polygon fill="midnightblue" stroke="midnightblue" points="1061.33,-113.76 1065.73,-123.4 1068.3,-113.12 1061.33,-113.76"/>
</g>
<!-- Node9&#45;&gt;Node5 -->
<g id="edge12" class="edge">
<title>Node9&#45;&gt;Node5</title>
<path fill="none" stroke="midnightblue" d="M1024.72,-119.41C1000.46,-109.03 970.45,-96.2 947.95,-86.58"/>
<polygon fill="midnightblue" stroke="midnightblue" points="1023.48,-122.68 1034.05,-123.4 1026.24,-116.25 1023.48,-122.68"/>
</g>
<!-- Node9&#45;&gt;Node7 -->
<g id="edge13" class="edge">
<title>Node9&#45;&gt;Node7</title>
<path fill="none" stroke="midnightblue" d="M988.15,-122.97C813.54,-99.5 766.1,-113.65 596.04,-87 593.29,-86.57 590.5,-86.09 587.67,-85.58"/>
<polygon fill="midnightblue" stroke="midnightblue" points="987.81,-126.46 998.19,-124.34 988.75,-119.52 987.81,-126.46"/>
</g>
<!-- Node10&#45;&gt;Node4 -->
<g id="edge15" class="edge">
<title>Node10&#45;&gt;Node4</title>
<path fill="none" stroke="midnightblue" d="M146.08,-127.24C156.33,-125.59 166.99,-124.08 177.04,-123 535.34,-84.63 629.23,-129.76 987.04,-87 991.72,-86.44 996.54,-85.75 1001.38,-84.98"/>
<polygon fill="midnightblue" stroke="midnightblue" points="145.29,-123.83 136.01,-128.93 146.45,-130.73 145.29,-123.83"/>
</g>
<!-- Node10&#45;&gt;Node5 -->
<g id="edge16" class="edge">
<title>Node10&#45;&gt;Node5</title>
<path fill="none" stroke="midnightblue" d="M146.78,-127.29C156.82,-125.66 167.22,-124.15 177.04,-123 427.84,-93.73 492.22,-105.67 744.04,-87 779.99,-84.33 820.16,-80.95 852.52,-78.12"/>
<polygon fill="midnightblue" stroke="midnightblue" points="146.19,-123.84 136.9,-128.94 147.34,-130.74 146.19,-123.84"/>
</g>
<!-- Node10&#45;&gt;Node7 -->
<g id="edge17" class="edge">
<title>Node10&#45;&gt;Node7</title>
<path fill="none" stroke="midnightblue" d="M150.47,-127.32C159.36,-125.83 168.44,-124.35 177.04,-123 281.76,-106.6 404.27,-89.61 474.25,-80.11"/>
<polygon fill="midnightblue" stroke="midnightblue" points="149.82,-123.88 140.54,-128.99 150.99,-130.78 149.82,-123.88"/>
</g>
<!-- Node10&#45;&gt;Node8 -->
<g id="edge18" class="edge">
<title>Node10&#45;&gt;Node8</title>
<path fill="none" stroke="midnightblue" d="M147.8,-127.31C157.52,-125.72 167.56,-124.21 177.04,-123 362.43,-99.26 410.95,-113.01 596.04,-87 599.15,-86.56 602.33,-86.08 605.53,-85.56"/>
<polygon fill="midnightblue" stroke="midnightblue" points="147.1,-123.87 137.81,-128.97 148.25,-130.78 147.1,-123.87"/>
</g>
<!-- Node12 -->
<g id="node12" class="node">
<title>Node12</title>
<g id="a_node12"><a xlink:href="iso__fog_8hpp.html" target="_top" xlink:title="Isotropically scattering fog object.">
<polygon fill="white" stroke="black" points="1308.54,-123.5 1308.54,-153.5 1415.54,-153.5 1415.54,-123.5 1308.54,-123.5"/>
<text text-anchor="start" x="1316.54" y="-141.5" font-family="Helvetica,sans-Serif" font-size="10.00">include/objects/iso</text>
<text text-anchor="middle" x="1362.04" y="-130.5" font-family="Helvetica,sans-Serif" font-size="10.00">_fog.hpp</text>
</a>
</g>
</g>
<!-- Node11&#45;&gt;Node12 -->
<g id="edge20" class="edge">
<title>Node11&#45;&gt;Node12</title>
<path fill="none" stroke="midnightblue" d="M1095.11,-188.96C1150.66,-180.58 1230.6,-167.81 1300.04,-154 1302.75,-153.46 1305.52,-152.89 1308.31,-152.3"/>
<polygon fill="midnightblue" stroke="midnightblue" points="1094.4,-185.53 1085.04,-190.48 1095.44,-192.45 1094.4,-185.53"/>
</g>
<!-- Node12&#45;&gt;Node4 -->
<g id="edge21" class="edge">
<title>Node12&#45;&gt;Node4</title>
<path fill="none" stroke="midnightblue" d="M1298.16,-122.6C1232.42,-108.04 1167.05,-94.33 1121.03,-84.8"/>
<polygon fill="midnightblue" stroke="midnightblue" points="1297.76,-126.1 1308.28,-124.85 1299.28,-119.27 1297.76,-126.1"/>
</g>
<!-- Node12&#45;&gt;Node5 -->
<g id="edge22" class="edge">
<title>Node12&#45;&gt;Node5</title>
<path fill="none" stroke="midnightblue" d="M1298.42,-122.83C1162.98,-99.69 1125.68,-107.08 993.04,-87 988,-86.24 982.79,-85.39 977.56,-84.5"/>
<polygon fill="midnightblue" stroke="midnightblue" points="1297.89,-126.29 1308.34,-124.55 1299.09,-119.4 1297.89,-126.29"/>
</g>
<!-- Node13&#45;&gt;Node4 -->
<g id="edge24" class="edge">
<title>Node13&#45;&gt;Node4</title>
<path fill="none" stroke="midnightblue" d="M494.79,-127.35C504.84,-125.74 515.23,-124.21 525.04,-123 729.45,-97.85 782.97,-114.85 987.04,-87 991.71,-86.36 996.53,-85.62 1001.36,-84.81"/>
<polygon fill="midnightblue" stroke="midnightblue" points="494.19,-123.91 484.9,-128.99 495.33,-130.81 494.19,-123.91"/>
</g>
<!-- Node13&#45;&gt;Node5 -->
<g id="edge25" class="edge">
<title>Node13&#45;&gt;Node5</title>
<path fill="none" stroke="midnightblue" d="M497.52,-127.33C506.72,-125.82 516.13,-124.33 525.04,-123 640.34,-105.82 775.33,-89.09 852.45,-79.86"/>
<polygon fill="midnightblue" stroke="midnightblue" points="496.94,-123.88 487.65,-128.97 498.09,-130.78 496.94,-123.88"/>
</g>
<!-- Node13&#45;&gt;Node7 -->
<g id="edge26" class="edge">
<title>Node13&#45;&gt;Node7</title>
<path fill="none" stroke="midnightblue" d="M459.77,-122.85C475.13,-112 495.93,-97.3 511.09,-86.59"/>
<polygon fill="midnightblue" stroke="midnightblue" points="457.59,-120.1 451.44,-128.73 461.63,-125.82 457.59,-120.1"/>
</g>
<!-- Node13&#45;&gt;Node8 -->
<g id="edge27" class="edge">
<title>Node13&#45;&gt;Node8</title>
<path fill="none" stroke="midnightblue" d="M479.45,-126.13C518.61,-115.11 578.1,-98.37 620.18,-86.53"/>
<polygon fill="midnightblue" stroke="midnightblue" points="478.39,-122.79 469.71,-128.87 480.28,-129.53 478.39,-122.79"/>
</g>
<!-- Node15 -->
<g id="node15" class="node">
<title>Node15</title>
<g id="a_node15"><a xlink:href="bvh_8hpp.html" target="_top" xlink:title="Class for our Bounding Volume Hierarchy. Acts as both tree and root.">
<polygon fill="white" stroke="black" points="534.04,-129 534.04,-148 666.04,-148 666.04,-129 534.04,-129"/>
<text text-anchor="middle" x="600.04" y="-136" font-family="Helvetica,sans-Serif" font-size="10.00">include/objects/bvh.hpp</text>
</a>
</g>
</g>
<!-- Node14&#45;&gt;Node15 -->
<g id="edge29" class="edge">
<title>Node14&#45;&gt;Node15</title>
<path fill="none" stroke="midnightblue" d="M870.78,-297.92C830.2,-277.39 763.65,-242.87 708.04,-210 672.57,-189.04 632.29,-161.79 612.44,-148.12"/>
<polygon fill="midnightblue" stroke="midnightblue" points="869.27,-301.08 879.78,-302.46 872.42,-294.83 869.27,-301.08"/>
</g>
<!-- Node16 -->
<g id="node16" class="node">
<title>Node16</title>
<g id="a_node16"><a xlink:href="hit_8hpp.html" target="_top" xlink:title="Abstract object that can be hit by a ray.">
<polygon fill="white" stroke="black" points="1237.54,-246.5 1237.54,-265.5 1364.54,-265.5 1364.54,-246.5 1237.54,-246.5"/>
<text text-anchor="middle" x="1301.04" y="-253.5" font-family="Helvetica,sans-Serif" font-size="10.00">include/objects/hit.hpp</text>
</a>
</g>
</g>
<!-- Node14&#45;&gt;Node16 -->
<g id="edge34" class="edge">
<title>Node14&#45;&gt;Node16</title>
<path fill="none" stroke="midnightblue" d="M987.45,-304.48C1063.81,-292.92 1177.31,-275.73 1244.77,-265.52"/>
<polygon fill="midnightblue" stroke="midnightblue" points="986.75,-301.04 977.39,-306 987.8,-307.96 986.75,-301.04"/>
</g>
<!-- Node15&#45;&gt;Node4 -->
<g id="edge30" class="edge">
<title>Node15&#45;&gt;Node4</title>
<path fill="none" stroke="midnightblue" d="M651.16,-127.08C659.13,-125.61 667.29,-124.19 675.04,-123 812.99,-101.74 849.1,-108.44 987.04,-87 991.69,-86.28 996.5,-85.47 1001.33,-84.62"/>
<polygon fill="midnightblue" stroke="midnightblue" points="650.38,-123.66 641.2,-128.96 651.68,-130.54 650.38,-123.66"/>
</g>
<!-- Node15&#45;&gt;Node5 -->
<g id="edge31" class="edge">
<title>Node15&#45;&gt;Node5</title>
<path fill="none" stroke="midnightblue" d="M651.41,-126.9C706.38,-115.56 793.6,-97.56 852.51,-85.4"/>
<polygon fill="midnightblue" stroke="midnightblue" points="650.63,-123.49 641.54,-128.94 652.04,-130.34 650.63,-123.49"/>
</g>
<!-- Node15&#45;&gt;Node7 -->
<g id="edge32" class="edge">
<title>Node15&#45;&gt;Node7</title>
<path fill="none" stroke="midnightblue" d="M583.18,-121.62C571.81,-110.91 556.94,-96.9 545.99,-86.59"/>
<polygon fill="midnightblue" stroke="midnightblue" points="581.05,-124.42 590.73,-128.73 585.85,-119.33 581.05,-124.42"/>
</g>
<!-- Node15&#45;&gt;Node8 -->
<g id="edge33" class="edge">
<title>Node15&#45;&gt;Node8</title>
<path fill="none" stroke="midnightblue" d="M616.81,-121.93C628.38,-111.18 643.65,-97 654.86,-86.59"/>
<polygon fill="midnightblue" stroke="midnightblue" points="614.42,-119.36 609.48,-128.73 619.19,-124.49 614.42,-119.36"/>
</g>
<!-- Node16&#45;&gt;Node12 -->
<g id="edge43" class="edge">
<title>Node16&#45;&gt;Node12</title>
<path fill="none" stroke="midnightblue" d="M1374.78,-246.05C1419.08,-238.99 1469.42,-227.39 1483.04,-210 1488.52,-203 1487.96,-197.4 1483.04,-190 1474.36,-176.98 1440.1,-163.37 1410.24,-153.57"/>
<polygon fill="midnightblue" stroke="midnightblue" points="1374.21,-242.6 1364.85,-247.58 1375.27,-249.52 1374.21,-242.6"/>
</g>
<!-- Node17 -->
<g id="node17" class="node">
<title>Node17</title>
<g id="a_node17"><a xlink:href="rectangle_8hpp.html" target="_top" xlink:title="Rectangular plane object to be rendered.">
<polygon fill="white" stroke="black" points="727.04,-190.5 727.04,-209.5 887.04,-209.5 887.04,-190.5 727.04,-190.5"/>
<text text-anchor="middle" x="807.04" y="-197.5" font-family="Helvetica,sans-Serif" font-size="10.00">include/objects/rectangle.hpp</text>
</a>
</g>
</g>
<!-- Node16&#45;&gt;Node17 -->
<g id="edge35" class="edge">
<title>Node16&#45;&gt;Node17</title>
<path fill="none" stroke="midnightblue" d="M1227.41,-246.95C1135.47,-236.9 978.91,-219.79 885,-209.52"/>
<polygon fill="midnightblue" stroke="midnightblue" points="1227.14,-250.44 1237.47,-248.05 1227.9,-243.48 1227.14,-250.44"/>
</g>
<!-- Node19 -->
<g id="node19" class="node">
<title>Node19</title>
<g id="a_node19"><a xlink:href="hit__list_8hpp.html" target="_top" xlink:title="List of hittable objects.">
<polygon fill="white" stroke="black" points="1801.04,-123.5 1801.04,-153.5 1907.04,-153.5 1907.04,-123.5 1801.04,-123.5"/>
<text text-anchor="start" x="1809.04" y="-141.5" font-family="Helvetica,sans-Serif" font-size="10.00">include/objects/hit</text>
<text text-anchor="middle" x="1854.04" y="-130.5" font-family="Helvetica,sans-Serif" font-size="10.00">_list.hpp</text>
</a>
</g>
</g>
<!-- Node16&#45;&gt;Node19 -->
<g id="edge40" class="edge">
<title>Node16&#45;&gt;Node19</title>
<path fill="none" stroke="midnightblue" d="M1365.72,-244.86C1418.03,-236.38 1493.5,-223.53 1559.04,-210 1644.13,-192.43 1742.08,-168.22 1800.96,-153.23"/>
<polygon fill="midnightblue" stroke="midnightblue" points="1364.9,-241.44 1355.58,-246.49 1366.01,-248.36 1364.9,-241.44"/>
</g>
<!-- Node20 -->
<g id="node20" class="node">
<title>Node20</title>
<g id="a_node20"><a xlink:href="moving__sphere_8hpp.html" target="_top" xlink:title="Sphere object moving, for motion blur.">
<polygon fill="white" stroke="black" points="850.04,-123.5 850.04,-153.5 980.04,-153.5 980.04,-123.5 850.04,-123.5"/>
<text text-anchor="start" x="858.04" y="-141.5" font-family="Helvetica,sans-Serif" font-size="10.00">include/objects/moving</text>
<text text-anchor="middle" x="915.04" y="-130.5" font-family="Helvetica,sans-Serif" font-size="10.00">_sphere.hpp</text>
</a>
</g>
</g>
<!-- Node16&#45;&gt;Node20 -->
<g id="edge44" class="edge">
<title>Node16&#45;&gt;Node20</title>
<path fill="none" stroke="midnightblue" d="M1227.38,-255.4C1133.02,-254.36 976.54,-246.89 934.04,-210 917.86,-195.96 914.76,-169.73 914.52,-153.53"/>
<polygon fill="midnightblue" stroke="midnightblue" points="1227.41,-258.9 1237.44,-255.49 1227.48,-251.9 1227.41,-258.9"/>
</g>
<!-- Node21 -->
<g id="node21" class="node">
<title>Node21</title>
<g id="a_node21"><a xlink:href="sphere_8hpp.html" target="_top" xlink:title="Sphere object to be rendered.">
<polygon fill="white" stroke="black" points="684.54,-129 684.54,-148 831.54,-148 831.54,-129 684.54,-129"/>
<text text-anchor="middle" x="758.04" y="-136" font-family="Helvetica,sans-Serif" font-size="10.00">include/objects/sphere.hpp</text>
</a>
</g>
</g>
<!-- Node16&#45;&gt;Node21 -->
<g id="edge49" class="edge">
<title>Node16&#45;&gt;Node21</title>
<path fill="none" stroke="midnightblue" d="M1227.04,-254.77C1077.79,-253.53 751.94,-246.62 718.04,-210 700.25,-190.79 729.43,-162.28 746.71,-148.12"/>
<polygon fill="midnightblue" stroke="midnightblue" points="1227.45,-258.27 1237.47,-254.85 1227.5,-251.27 1227.45,-258.27"/>
</g>
<!-- Node22 -->
<g id="node22" class="node">
<title>Node22</title>
<g id="a_node22"><a xlink:href="translation_8hpp.html" target="_top" xlink:title="Class for translation of a hittable object.">
<polygon fill="white" stroke="black" points="1616.54,-129 1616.54,-148 1783.54,-148 1783.54,-129 1616.54,-129"/>
<text text-anchor="middle" x="1700.04" y="-136" font-family="Helvetica,sans-Serif" font-size="10.00">include/objects/translation.hpp</text>
</a>
</g>
</g>
<!-- Node16&#45;&gt;Node22 -->
<g id="edge54" class="edge">
<title>Node16&#45;&gt;Node22</title>
<path fill="none" stroke="midnightblue" d="M1364.17,-244.75C1407.83,-236.97 1467.03,-225.06 1518.04,-210 1578.97,-192.01 1648.28,-162.56 1681.01,-148.08"/>
<polygon fill="midnightblue" stroke="midnightblue" points="1363.5,-241.31 1354.26,-246.49 1364.71,-248.21 1363.5,-241.31"/>
</g>
<!-- Node23 -->
<g id="node23" class="node">
<title>Node23</title>
<g id="a_node23"><a xlink:href="x__rotation_8hpp.html" target="_top" xlink:title="Class for rotation of object around the x axis.">
<polygon fill="white" stroke="black" points="1128.04,-190.5 1128.04,-209.5 1292.04,-209.5 1292.04,-190.5 1128.04,-190.5"/>
<text text-anchor="middle" x="1210.04" y="-197.5" font-family="Helvetica,sans-Serif" font-size="10.00">include/objects/x_rotation.hpp</text>
</a>
</g>
</g>
<!-- Node16&#45;&gt;Node23 -->
<g id="edge57" class="edge">
<title>Node16&#45;&gt;Node23</title>
<path fill="none" stroke="midnightblue" d="M1277.74,-241.18C1261,-231.24 1238.94,-218.15 1224.62,-209.65"/>
<polygon fill="midnightblue" stroke="midnightblue" points="1276.03,-244.23 1286.41,-246.32 1279.6,-238.21 1276.03,-244.23"/>
</g>
<!-- Node24 -->
<g id="node24" class="node">
<title>Node24</title>
<g id="a_node24"><a xlink:href="y__rotation_8hpp.html" target="_top" xlink:title="Class for rotation of object around the y axis.">
<polygon fill="white" stroke="black" points="1434.04,-129 1434.04,-148 1598.04,-148 1598.04,-129 1434.04,-129"/>
<text text-anchor="middle" x="1516.04" y="-136" font-family="Helvetica,sans-Serif" font-size="10.00">include/objects/y_rotation.hpp</text>
</a>
</g>
</g>
<!-- Node16&#45;&gt;Node24 -->
<g id="edge58" class="edge">
<title>Node16&#45;&gt;Node24</title>
<path fill="none" stroke="midnightblue" d="M1374.85,-246.22C1423.15,-239 1480.45,-227.15 1498.04,-210 1515.04,-193.42 1516.78,-163.17 1516.5,-148.27"/>
<polygon fill="midnightblue" stroke="midnightblue" points="1374.1,-242.79 1364.7,-247.69 1375.1,-249.72 1374.1,-242.79"/>
</g>
<!-- Node25 -->
<g id="node25" class="node">
<title>Node25</title>
<g id="a_node25"><a xlink:href="z__rotation_8hpp.html" target="_top" xlink:title="Class for rotation of object around the z axis.">
<polygon fill="white" stroke="black" points="1310.54,-190.5 1310.54,-209.5 1473.54,-209.5 1473.54,-190.5 1310.54,-190.5"/>
<text text-anchor="middle" x="1392.04" y="-197.5" font-family="Helvetica,sans-Serif" font-size="10.00">include/objects/z_rotation.hpp</text>
</a>
</g>
</g>
<!-- Node16&#45;&gt;Node25 -->
<g id="edge61" class="edge">
<title>Node16&#45;&gt;Node25</title>
<path fill="none" stroke="midnightblue" d="M1324.33,-241.18C1341.07,-231.24 1363.14,-218.15 1377.45,-209.65"/>
<polygon fill="midnightblue" stroke="midnightblue" points="1322.47,-238.21 1315.66,-246.32 1326.04,-244.23 1322.47,-238.21"/>
</g>
<!-- Node17&#45;&gt;Node7 -->
<g id="edge39" class="edge">
<title>Node17&#45;&gt;Node7</title>
<path fill="none" stroke="midnightblue" d="M716.89,-197.21C512.79,-192.72 31.1,-179.46 7.04,-154 -2.43,-143.99 -2.23,-133.2 7.04,-123 37.99,-88.92 344.85,-77.2 474.11,-73.76"/>
<polygon fill="midnightblue" stroke="midnightblue" points="716.91,-200.71 726.99,-197.43 717.07,-193.71 716.91,-200.71"/>
</g>
<!-- Node18 -->
<g id="node18" class="node">
<title>Node18</title>
<g id="a_node18"><a xlink:href="cube_8hpp.html" target="_top" xlink:title="Cube object made of rectangles.">
<polygon fill="white" stroke="black" points="1153.54,-129 1153.54,-148 1290.54,-148 1290.54,-129 1153.54,-129"/>
<text text-anchor="middle" x="1222.04" y="-136" font-family="Helvetica,sans-Serif" font-size="10.00">include/objects/cube.hpp</text>
</a>
</g>
</g>
<!-- Node17&#45;&gt;Node18 -->
<g id="edge36" class="edge">
<title>Node17&#45;&gt;Node18</title>
<path fill="none" stroke="midnightblue" d="M890.03,-189.21C958.56,-180.83 1058.31,-167.93 1145.04,-154 1156.05,-152.23 1167.91,-150.11 1178.94,-148.04"/>
<polygon fill="midnightblue" stroke="midnightblue" points="889.23,-185.78 879.73,-190.47 890.08,-192.73 889.23,-185.78"/>
</g>
<!-- Node18&#45;&gt;Node4 -->
<g id="edge37" class="edge">
<title>Node18&#45;&gt;Node4</title>
<path fill="none" stroke="midnightblue" d="M1191.22,-125.06C1163.94,-114.05 1124.18,-97.99 1095.78,-86.53"/>
<polygon fill="midnightblue" stroke="midnightblue" points="1190.07,-128.37 1200.66,-128.87 1192.69,-121.88 1190.07,-128.37"/>
</g>
<!-- Node18&#45;&gt;Node5 -->
<g id="edge38" class="edge">
<title>Node18&#45;&gt;Node5</title>
<path fill="none" stroke="midnightblue" d="M1171.72,-126.85C1118.67,-115.61 1034.98,-97.9 977.68,-85.76"/>
<polygon fill="midnightblue" stroke="midnightblue" points="1171.08,-130.29 1181.59,-128.94 1172.53,-123.44 1171.08,-130.29"/>
</g>
<!-- Node19&#45;&gt;Node4 -->
<g id="edge41" class="edge">
<title>Node19&#45;&gt;Node4</title>
<path fill="none" stroke="midnightblue" d="M1790.77,-122.8C1537.4,-85.02 1244.32,-75.67 1120.7,-73.3"/>
<polygon fill="midnightblue" stroke="midnightblue" points="1790.5,-126.3 1800.91,-124.33 1791.54,-119.37 1790.5,-126.3"/>
</g>
<!-- Node19&#45;&gt;Node6 -->
<g id="edge42" class="edge">
<title>Node19&#45;&gt;Node6</title>
<path fill="none" stroke="midnightblue" d="M1790.99,-122.72C1456.36,-62.36 1059.25,-24.04 946.33,-13.77"/>
<polygon fill="midnightblue" stroke="midnightblue" points="1790.41,-126.17 1800.88,-124.51 1791.66,-119.28 1790.41,-126.17"/>
</g>
<!-- Node20&#45;&gt;Node4 -->
<g id="edge45" class="edge">
<title>Node20&#45;&gt;Node4</title>
<path fill="none" stroke="midnightblue" d="M955.99,-119.27C979.24,-108.92 1007.91,-96.15 1029.42,-86.58"/>
<polygon fill="midnightblue" stroke="midnightblue" points="954.43,-116.13 946.72,-123.4 957.27,-122.53 954.43,-116.13"/>
</g>
<!-- Node20&#45;&gt;Node5 -->
<g id="edge46" class="edge">
<title>Node20&#45;&gt;Node5</title>
<path fill="none" stroke="midnightblue" d="M915.04,-113.11C915.04,-104.15 915.04,-94.32 915.04,-86.58"/>
<polygon fill="midnightblue" stroke="midnightblue" points="911.54,-113.4 915.04,-123.4 918.54,-113.4 911.54,-113.4"/>
</g>
<!-- Node20&#45;&gt;Node7 -->
<g id="edge47" class="edge">
<title>Node20&#45;&gt;Node7</title>
<path fill="none" stroke="midnightblue" d="M839.63,-122.81C730.83,-104.55 701.09,-106.41 596.04,-87 593.31,-86.5 590.52,-85.96 587.71,-85.4"/>
<polygon fill="midnightblue" stroke="midnightblue" points="839.25,-126.3 849.7,-124.52 840.42,-119.4 839.25,-126.3"/>
</g>
<!-- Node20&#45;&gt;Node8 -->
<g id="edge48" class="edge">
<title>Node20&#45;&gt;Node8</title>
<path fill="none" stroke="midnightblue" d="M852.28,-120.85C812.33,-110.25 761.17,-96.68 723.22,-86.61"/>
<polygon fill="midnightblue" stroke="midnightblue" points="851.61,-124.29 862.18,-123.48 853.41,-117.53 851.61,-124.29"/>
</g>
<!-- Node21&#45;&gt;Node4 -->
<g id="edge50" class="edge">
<title>Node21&#45;&gt;Node4</title>
<path fill="none" stroke="midnightblue" d="M807.82,-126.82C860.89,-115.44 944.91,-97.41 1001.46,-85.28"/>
<polygon fill="midnightblue" stroke="midnightblue" points="807,-123.42 797.96,-128.94 808.47,-130.26 807,-123.42"/>
</g>
<!-- Node21&#45;&gt;Node5 -->
<g id="edge51" class="edge">
<title>Node21&#45;&gt;Node5</title>
<path fill="none" stroke="midnightblue" d="M788.44,-124.91C815.02,-113.91 853.58,-97.94 881.15,-86.53"/>
<polygon fill="midnightblue" stroke="midnightblue" points="786.78,-121.81 778.88,-128.87 789.46,-128.28 786.78,-121.81"/>
</g>
<!-- Node21&#45;&gt;Node7 -->
<g id="edge52" class="edge">
<title>Node21&#45;&gt;Node7</title>
<path fill="none" stroke="midnightblue" d="M718.07,-126.06C679.59,-115.04 621.29,-98.34 580.03,-86.53"/>
<polygon fill="midnightblue" stroke="midnightblue" points="717.31,-129.48 727.89,-128.87 719.24,-122.75 717.31,-129.48"/>
</g>
<!-- Node21&#45;&gt;Node8 -->
<g id="edge53" class="edge">
<title>Node21&#45;&gt;Node8</title>
<path fill="none" stroke="midnightblue" d="M737.79,-122.54C723.14,-111.73 703.48,-97.2 689.11,-86.59"/>
<polygon fill="midnightblue" stroke="midnightblue" points="736.04,-125.61 746.17,-128.73 740.2,-119.98 736.04,-125.61"/>
</g>
<!-- Node22&#45;&gt;Node4 -->
<g id="edge55" class="edge">
<title>Node22&#45;&gt;Node4</title>
<path fill="none" stroke="midnightblue" d="M1638.91,-127.41C1628.3,-125.82 1617.36,-124.28 1607.04,-123 1430.61,-101.11 1221.03,-84.28 1120.55,-76.78"/>
<polygon fill="midnightblue" stroke="midnightblue" points="1638.54,-130.9 1648.95,-128.95 1639.59,-123.98 1638.54,-130.9"/>
</g>
<!-- Node22&#45;&gt;Node5 -->
<g id="edge56" class="edge">
<title>Node22&#45;&gt;Node5</title>
<path fill="none" stroke="midnightblue" d="M1640.8,-127.39C1629.61,-125.73 1617.98,-124.17 1607.04,-123 1335.23,-93.91 1264.39,-120.05 993.04,-87 988.11,-86.4 983.03,-85.68 977.94,-84.89"/>
<polygon fill="midnightblue" stroke="midnightblue" points="1640.51,-130.89 1650.92,-128.94 1641.57,-123.97 1640.51,-130.89"/>
</g>
<!-- Node24&#45;&gt;Node4 -->
<g id="edge59" class="edge">
<title>Node24&#45;&gt;Node4</title>
<path fill="none" stroke="midnightblue" d="M1453.71,-127.4C1444.11,-125.89 1434.31,-124.38 1425.04,-123 1317.92,-107.04 1192.81,-90.04 1120.67,-80.4"/>
<polygon fill="midnightblue" stroke="midnightblue" points="1453.19,-130.86 1463.61,-128.96 1454.28,-123.94 1453.19,-130.86"/>
</g>
<!-- Node24&#45;&gt;Node5 -->
<g id="edge60" class="edge">
<title>Node24&#45;&gt;Node5</title>
<path fill="none" stroke="midnightblue" d="M1456.98,-127.43C1446.36,-125.81 1435.39,-124.25 1425.04,-123 1233.77,-99.83 1183.99,-112.64 993.04,-87 988.12,-86.34 983.05,-85.58 977.95,-84.76"/>
<polygon fill="midnightblue" stroke="midnightblue" points="1456.59,-130.91 1467.01,-129 1457.67,-124 1456.59,-130.91"/>
</g>
<!-- Node26&#45;&gt;Node6 -->
<g id="edge63" class="edge">
<title>Node26&#45;&gt;Node6</title>
<path fill="none" stroke="midnightblue" d="M1739.82,-315.67C1821.99,-309.9 1935.04,-286.43 1935.04,-201 1935.04,-201 1935.04,-201 1935.04,-137.5 1935.04,-35.23 1117.06,-14.68 946.12,-11.51"/>
<polygon fill="midnightblue" stroke="midnightblue" points="1739.47,-312.19 1729.7,-316.31 1739.9,-319.17 1739.47,-312.19"/>
</g>
</g>
</svg>
