<?xml version="1.0" encoding="UTF-8" standalone="no"?>
<!DOCTYPE svg PUBLIC "-//W3C//DTD SVG 1.1//EN"
 "http://www.w3.org/Graphics/SVG/1.1/DTD/svg11.dtd">
<!-- Generated by graphviz version 2.43.0 (0)
 -->
<!-- Title: include/objects/rectangle.hpp Pages: 1 -->
<svg width="337pt" height="364pt"
 viewBox="0.00 0.00 336.50 364.00" xmlns="http://www.w3.org/2000/svg" xmlns:xlink="http://www.w3.org/1999/xlink">
<g id="graph0" class="graph" transform="scale(1 1) rotate(0) translate(4 360)">
<title>include/objects/rectangle.hpp</title>
<polygon fill="white" stroke="transparent" points="-4,4 -4,-360 332.5,-360 332.5,4 -4,4"/>
<!-- Node1 -->
<g id="node1" class="node">
<title>Node1</title>
<g id="a_node1"><a xlink:title="Rectangular plane object to be rendered.">
<polygon fill="#bfbfbf" stroke="black" points="0,-336.5 0,-355.5 160,-355.5 160,-336.5 0,-336.5"/>
<text text-anchor="middle" x="80" y="-343.5" font-family="Helvetica,sans-Serif" font-size="10.00">include/objects/rectangle.hpp</text>
</a>
</g>
</g>
<!-- Node2 -->
<g id="node2" class="node">
<title>Node2</title>
<g id="a_node2"><a xlink:href="hit_8hpp.html" target="_top" xlink:title="Abstract object that can be hit by a ray.">
<polygon fill="white" stroke="black" points="55,-280.5 55,-299.5 105,-299.5 105,-280.5 55,-280.5"/>
<text text-anchor="middle" x="80" y="-287.5" font-family="Helvetica,sans-Serif" font-size="10.00">hit.hpp</text>
</a>
</g>
</g>
<!-- Node1&#45;&gt;Node2 -->
<g id="edge1" class="edge">
<title>Node1&#45;&gt;Node2</title>
<path fill="none" stroke="midnightblue" d="M80,-336.08C80,-329.01 80,-318.86 80,-309.99"/>
<polygon fill="midnightblue" stroke="midnightblue" points="83.5,-309.75 80,-299.75 76.5,-309.75 83.5,-309.75"/>
</g>
<!-- Node3 -->
<g id="node3" class="node">
<title>Node3</title>
<g id="a_node3"><a xlink:href="bounding__box_8hpp.html" target="_top" xlink:title="Bounding box object, used to compute BVH tree.">
<polygon fill="white" stroke="black" points="27,-224.5 27,-243.5 133,-243.5 133,-224.5 27,-224.5"/>
<text text-anchor="middle" x="80" y="-231.5" font-family="Helvetica,sans-Serif" font-size="10.00">bounding_box.hpp</text>
</a>
</g>
</g>
<!-- Node2&#45;&gt;Node3 -->
<g id="edge2" class="edge">
<title>Node2&#45;&gt;Node3</title>
<path fill="none" stroke="midnightblue" d="M80,-280.08C80,-273.01 80,-262.86 80,-253.99"/>
<polygon fill="midnightblue" stroke="midnightblue" points="83.5,-253.75 80,-243.75 76.5,-253.75 83.5,-253.75"/>
</g>
<!-- Node4 -->
<g id="node4" class="node">
<title>Node4</title>
<g id="a_node4"><a xlink:title=" ">
<polygon fill="white" stroke="#bfbfbf" points="15.5,-168.5 15.5,-187.5 60.5,-187.5 60.5,-168.5 15.5,-168.5"/>
<text text-anchor="middle" x="38" y="-175.5" font-family="Helvetica,sans-Serif" font-size="10.00">utility</text>
</a>
</g>
</g>
<!-- Node3&#45;&gt;Node4 -->
<g id="edge3" class="edge">
<title>Node3&#45;&gt;Node4</title>
<path fill="none" stroke="midnightblue" d="M73.06,-224.08C67.07,-216.38 58.25,-205.03 50.95,-195.65"/>
<polygon fill="midnightblue" stroke="midnightblue" points="53.71,-193.5 44.81,-187.75 48.18,-197.79 53.71,-193.5"/>
</g>
<!-- Node5 -->
<g id="node5" class="node">
<title>Node5</title>
<g id="a_node5"><a xlink:href="ray_8hpp.html" target="_top" xlink:title="The ray object for our tracing algorithm.">
<polygon fill="white" stroke="black" points="79,-168.5 79,-187.5 165,-187.5 165,-168.5 79,-168.5"/>
<text text-anchor="middle" x="122" y="-175.5" font-family="Helvetica,sans-Serif" font-size="10.00">render/ray.hpp</text>
</a>
</g>
</g>
<!-- Node3&#45;&gt;Node5 -->
<g id="edge4" class="edge">
<title>Node3&#45;&gt;Node5</title>
<path fill="none" stroke="midnightblue" d="M86.94,-224.08C92.93,-216.38 101.75,-205.03 109.05,-195.65"/>
<polygon fill="midnightblue" stroke="midnightblue" points="111.82,-197.79 115.19,-187.75 106.29,-193.5 111.82,-197.79"/>
</g>
<!-- Node6 -->
<g id="node6" class="node">
<title>Node6</title>
<g id="a_node6"><a xlink:href="vec3_8hpp.html" target="_top" xlink:title="Custom 3D vector class for points, colours and rays.">
<polygon fill="white" stroke="black" points="91.5,-112.5 91.5,-131.5 152.5,-131.5 152.5,-112.5 91.5,-112.5"/>
<text text-anchor="middle" x="122" y="-119.5" font-family="Helvetica,sans-Serif" font-size="10.00">vec3.hpp</text>
</a>
</g>
</g>
<!-- Node5&#45;&gt;Node6 -->
<g id="edge5" class="edge">
<title>Node5&#45;&gt;Node6</title>
<path fill="none" stroke="midnightblue" d="M122,-168.08C122,-161.01 122,-150.86 122,-141.99"/>
<polygon fill="midnightblue" stroke="midnightblue" points="125.5,-141.75 122,-131.75 118.5,-141.75 125.5,-141.75"/>
</g>
<!-- Node7 -->
<g id="node7" class="node">
<title>Node7</title>
<g id="a_node7"><a xlink:title=" ">
<polygon fill="white" stroke="#bfbfbf" points="50,-56.5 50,-75.5 110,-75.5 110,-56.5 50,-56.5"/>
<text text-anchor="middle" x="80" y="-63.5" font-family="Helvetica,sans-Serif" font-size="10.00">iostream</text>
</a>
</g>
</g>
<!-- Node6&#45;&gt;Node7 -->
<g id="edge6" class="edge">
<title>Node6&#45;&gt;Node7</title>
<path fill="none" stroke="midnightblue" d="M115.06,-112.08C109.07,-104.38 100.25,-93.03 92.95,-83.65"/>
<polygon fill="midnightblue" stroke="midnightblue" points="95.71,-81.5 86.81,-75.75 90.18,-85.79 95.71,-81.5"/>
</g>
<!-- Node8 -->
<g id="node8" class="node">
<title>Node8</title>
<g id="a_node8"><a xlink:href="utilities_8hpp.html" target="_top" xlink:title="All the random functionality I am too lazy to organize elsewhere.">
<polygon fill="white" stroke="black" points="128,-56.5 128,-75.5 202,-75.5 202,-56.5 128,-56.5"/>
<text text-anchor="middle" x="165" y="-63.5" font-family="Helvetica,sans-Serif" font-size="10.00">utilities.hpp</text>
</a>
</g>
</g>
<!-- Node6&#45;&gt;Node8 -->
<g id="edge7" class="edge">
<title>Node6&#45;&gt;Node8</title>
<path fill="none" stroke="midnightblue" d="M129.1,-112.08C135.24,-104.38 144.27,-93.03 151.74,-83.65"/>
<polygon fill="midnightblue" stroke="midnightblue" points="154.54,-85.75 158.03,-75.75 149.06,-81.39 154.54,-85.75"/>
</g>
<!-- Node9 -->
<g id="node9" class="node">
<title>Node9</title>
<g id="a_node9"><a xlink:title=" ">
<polygon fill="white" stroke="#bfbfbf" points="10.5,-0.5 10.5,-19.5 57.5,-19.5 57.5,-0.5 10.5,-0.5"/>
<text text-anchor="middle" x="34" y="-7.5" font-family="Helvetica,sans-Serif" font-size="10.00">cmath</text>
</a>
</g>
</g>
<!-- Node8&#45;&gt;Node9 -->
<g id="edge8" class="edge">
<title>Node8&#45;&gt;Node9</title>
<path fill="none" stroke="midnightblue" d="M144.24,-56.44C122.68,-47.56 88.74,-33.56 64.21,-23.45"/>
<polygon fill="midnightblue" stroke="midnightblue" points="65.24,-20.09 54.66,-19.52 62.57,-26.56 65.24,-20.09"/>
</g>
<!-- Node10 -->
<g id="node10" class="node">
<title>Node10</title>
<g id="a_node10"><a xlink:title=" ">
<polygon fill="white" stroke="#bfbfbf" points="75.5,-0.5 75.5,-19.5 124.5,-19.5 124.5,-0.5 75.5,-0.5"/>
<text text-anchor="middle" x="100" y="-7.5" font-family="Helvetica,sans-Serif" font-size="10.00">cstdlib</text>
</a>
</g>
</g>
<!-- Node8&#45;&gt;Node10 -->
<g id="edge9" class="edge">
<title>Node8&#45;&gt;Node10</title>
<path fill="none" stroke="midnightblue" d="M154.56,-56.32C144.85,-48.26 130.18,-36.08 118.5,-26.37"/>
<polygon fill="midnightblue" stroke="midnightblue" points="120.56,-23.53 110.63,-19.83 116.09,-28.92 120.56,-23.53"/>
</g>
<!-- Node11 -->
<g id="node11" class="node">
<title>Node11</title>
<g id="a_node11"><a xlink:title=" ">
<polygon fill="white" stroke="#bfbfbf" points="143,-0.5 143,-19.5 187,-19.5 187,-0.5 143,-0.5"/>
<text text-anchor="middle" x="165" y="-7.5" font-family="Helvetica,sans-Serif" font-size="10.00">limits</text>
</a>
</g>
</g>
<!-- Node8&#45;&gt;Node11 -->
<g id="edge10" class="edge">
<title>Node8&#45;&gt;Node11</title>
<path fill="none" stroke="midnightblue" d="M165,-56.08C165,-49.01 165,-38.86 165,-29.99"/>
<polygon fill="midnightblue" stroke="midnightblue" points="168.5,-29.75 165,-19.75 161.5,-29.75 168.5,-29.75"/>
</g>
<!-- Node12 -->
<g id="node12" class="node">
<title>Node12</title>
<g id="a_node12"><a xlink:title=" ">
<polygon fill="white" stroke="#bfbfbf" points="205,-0.5 205,-19.5 263,-19.5 263,-0.5 205,-0.5"/>
<text text-anchor="middle" x="234" y="-7.5" font-family="Helvetica,sans-Serif" font-size="10.00">memory</text>
</a>
</g>
</g>
<!-- Node8&#45;&gt;Node12 -->
<g id="edge11" class="edge">
<title>Node8&#45;&gt;Node12</title>
<path fill="none" stroke="midnightblue" d="M176.09,-56.32C186.49,-48.18 202.26,-35.84 214.72,-26.09"/>
<polygon fill="midnightblue" stroke="midnightblue" points="216.99,-28.75 222.71,-19.83 212.68,-23.24 216.99,-28.75"/>
</g>
<!-- Node13 -->
<g id="node13" class="node">
<title>Node13</title>
<g id="a_node13"><a xlink:title=" ">
<polygon fill="white" stroke="#bfbfbf" points="281.5,-0.5 281.5,-19.5 328.5,-19.5 328.5,-0.5 281.5,-0.5"/>
<text text-anchor="middle" x="305" y="-7.5" font-family="Helvetica,sans-Serif" font-size="10.00">vector</text>
</a>
</g>
</g>
<!-- Node8&#45;&gt;Node13 -->
<g id="edge12" class="edge">
<title>Node8&#45;&gt;Node13</title>
<path fill="none" stroke="midnightblue" d="M187.18,-56.44C210.43,-47.48 247.15,-33.31 273.42,-23.18"/>
<polygon fill="midnightblue" stroke="midnightblue" points="274.85,-26.38 282.92,-19.52 272.33,-19.85 274.85,-26.38"/>
</g>
</g>
</svg>
