<?xml version="1.0" encoding="UTF-8" standalone="no"?>
<!DOCTYPE svg PUBLIC "-//W3C//DTD SVG 1.1//EN"
 "http://www.w3.org/Graphics/SVG/1.1/DTD/svg11.dtd">
<!-- Generated by graphviz version 2.43.0 (0)
 -->
<!-- Title: include/objects/rectangle.hpp Pages: 1 -->
<svg width="355pt" height="218pt"
 viewBox="0.00 0.00 355.00 218.00" xmlns="http://www.w3.org/2000/svg" xmlns:xlink="http://www.w3.org/1999/xlink">
<g id="graph0" class="graph" transform="scale(1 1) rotate(0) translate(4 214)">
<title>include/objects/rectangle.hpp</title>
<polygon fill="white" stroke="transparent" points="-4,4 -4,-214 351,-214 351,4 -4,4"/>
<!-- Node1 -->
<g id="node1" class="node">
<title>Node1</title>
<g id="a_node1"><a xlink:title="Rectangular plane object to be rendered.">
<polygon fill="#bfbfbf" stroke="black" points="138.5,-190.5 138.5,-209.5 298.5,-209.5 298.5,-190.5 138.5,-190.5"/>
<text text-anchor="middle" x="218.5" y="-197.5" font-family="Helvetica,sans-Serif" font-size="10.00">include/objects/rectangle.hpp</text>
</a>
</g>
</g>
<!-- Node2 -->
<g id="node2" class="node">
<title>Node2</title>
<g id="a_node2"><a xlink:href="cube_8hpp.html" target="_top" xlink:title="Cube object made of rectangles.">
<polygon fill="white" stroke="black" points="79,-129 79,-148 216,-148 216,-129 79,-129"/>
<text text-anchor="middle" x="147.5" y="-136" font-family="Helvetica,sans-Serif" font-size="10.00">include/objects/cube.hpp</text>
</a>
</g>
</g>
<!-- Node1&#45;&gt;Node2 -->
<g id="edge1" class="edge">
<title>Node1&#45;&gt;Node2</title>
<path fill="none" stroke="midnightblue" d="M200.57,-183.97C186.99,-172.59 168.82,-157.37 157.65,-148.01"/>
<polygon fill="midnightblue" stroke="midnightblue" points="198.41,-186.73 208.33,-190.48 202.91,-181.37 198.41,-186.73"/>
</g>
<!-- Node6 -->
<g id="node6" class="node">
<title>Node6</title>
<g id="a_node6"><a xlink:href="light__scene_8hpp.html" target="_top" xlink:title="Header file for light scene example (unfinished)">
<polygon fill="white" stroke="black" points="234,-123.5 234,-153.5 347,-153.5 347,-123.5 234,-123.5"/>
<text text-anchor="start" x="242" y="-141.5" font-family="Helvetica,sans-Serif" font-size="10.00">include/scenes/light</text>
<text text-anchor="middle" x="290.5" y="-130.5" font-family="Helvetica,sans-Serif" font-size="10.00">_scene.hpp</text>
</a>
</g>
</g>
<!-- Node1&#45;&gt;Node6 -->
<g id="edge5" class="edge">
<title>Node1&#45;&gt;Node6</title>
<path fill="none" stroke="midnightblue" d="M236.75,-183.92C248.05,-174.58 262.47,-162.66 273.53,-153.52"/>
<polygon fill="midnightblue" stroke="midnightblue" points="234.29,-181.41 228.82,-190.48 238.75,-186.8 234.29,-181.41"/>
</g>
<!-- Node3 -->
<g id="node3" class="node">
<title>Node3</title>
<g id="a_node3"><a xlink:href="comb__scene_8hpp.html" target="_top" xlink:title="Header file for Combined scene example (unfinished)">
<polygon fill="white" stroke="black" points="0,-56.5 0,-86.5 119,-86.5 119,-56.5 0,-56.5"/>
<text text-anchor="start" x="8" y="-74.5" font-family="Helvetica,sans-Serif" font-size="10.00">include/scenes/comb</text>
<text text-anchor="middle" x="59.5" y="-63.5" font-family="Helvetica,sans-Serif" font-size="10.00">_scene.hpp</text>
</a>
</g>
</g>
<!-- Node2&#45;&gt;Node3 -->
<g id="edge2" class="edge">
<title>Node2&#45;&gt;Node3</title>
<path fill="none" stroke="midnightblue" d="M127.25,-122.54C112.61,-111.73 92.94,-97.2 78.57,-86.59"/>
<polygon fill="midnightblue" stroke="midnightblue" points="125.51,-125.61 135.63,-128.73 129.67,-119.98 125.51,-125.61"/>
</g>
<!-- Node4 -->
<g id="node4" class="node">
<title>Node4</title>
<g id="a_node4"><a xlink:href="cornell__box_8hpp.html" target="_top" xlink:title="Header file for cornell box scene examples (unfinished)">
<polygon fill="white" stroke="black" points="137,-56.5 137,-86.5 262,-86.5 262,-56.5 137,-56.5"/>
<text text-anchor="start" x="145" y="-74.5" font-family="Helvetica,sans-Serif" font-size="10.00">include/scenes/cornell</text>
<text text-anchor="middle" x="199.5" y="-63.5" font-family="Helvetica,sans-Serif" font-size="10.00">_box.hpp</text>
</a>
</g>
</g>
<!-- Node2&#45;&gt;Node4 -->
<g id="edge3" class="edge">
<title>Node2&#45;&gt;Node4</title>
<path fill="none" stroke="midnightblue" d="M160.96,-120.67C169.42,-110.09 180.22,-96.6 188.23,-86.59"/>
<polygon fill="midnightblue" stroke="midnightblue" points="158.03,-118.74 154.51,-128.73 163.49,-123.11 158.03,-118.74"/>
</g>
<!-- Node5 -->
<g id="node5" class="node">
<title>Node5</title>
<g id="a_node5"><a xlink:href="main_8cpp.html" target="_top" xlink:title="Main file for Serial ray tracer project.">
<polygon fill="white" stroke="black" points="213.5,-0.5 213.5,-19.5 275.5,-19.5 275.5,-0.5 213.5,-0.5"/>
<text text-anchor="middle" x="244.5" y="-7.5" font-family="Helvetica,sans-Serif" font-size="10.00">main.cpp</text>
</a>
</g>
</g>
<!-- Node4&#45;&gt;Node5 -->
<g id="edge4" class="edge">
<title>Node4&#45;&gt;Node5</title>
<path fill="none" stroke="midnightblue" d="M216.21,-48.4C223.77,-38.41 232.26,-27.18 237.95,-19.66"/>
<polygon fill="midnightblue" stroke="midnightblue" points="213.4,-46.31 210.16,-56.4 218.99,-50.53 213.4,-46.31"/>
</g>
<!-- Node6&#45;&gt;Node5 -->
<g id="edge6" class="edge">
<title>Node6&#45;&gt;Node5</title>
<path fill="none" stroke="midnightblue" d="M286.44,-113.34C283.21,-96.82 277.99,-74.63 270.5,-56 265.11,-42.61 256.3,-28.38 250.45,-19.59"/>
<polygon fill="midnightblue" stroke="midnightblue" points="283.01,-114.08 288.27,-123.28 289.9,-112.81 283.01,-114.08"/>
</g>
</g>
</svg>
