<?xml version="1.0" encoding="UTF-8" standalone="no"?>
<!DOCTYPE svg PUBLIC "-//W3C//DTD SVG 1.1//EN"
 "http://www.w3.org/Graphics/SVG/1.1/DTD/svg11.dtd">
<!-- Generated by graphviz version 2.43.0 (0)
 -->
<!-- Title: include/textures/solid.hpp Pages: 1 -->
<!--zoomable 274 -->
<svg id="main" version="1.1" xmlns="http://www.w3.org/2000/svg" xmlns:xlink="http://www.w3.org/1999/xlink" xml:space="preserve" onload="init(evt)">
<style type="text/css"><![CDATA[
.edge:hover path { stroke: red; }
.edge:hover polygon { stroke: red; fill: red; }
]]></style>
<script type="text/javascript"><![CDATA[
var edges = document.getElementsByTagName('g');
if (edges && edges.length) {
  for (var i=0;i<edges.length;i++) {
    if (edges[i].id.substr(0,4)=='edge') {
      edges[i].setAttribute('class','edge');
    }
  }
}
]]></script>
        <defs>
                <circle id="rim" cx="0" cy="0" r="7"/>
                <circle id="rim2" cx="0" cy="0" r="3.5"/>
                <g id="zoomPlus">
                        <use xlink:href="#rim" fill="#404040">
                                <set attributeName="fill" to="#808080" begin="zoomplus.mouseover" end="zoomplus.mouseout"/>
                        </use>
                        <path d="M-4,0h8M0,-4v8" fill="none" stroke="white" stroke-width="1.5" pointer-events="none"/>
                </g>
                <g id="zoomMin">
                        <use xlink:href="#rim" fill="#404040">
                                <set attributeName="fill" to="#808080" begin="zoomminus.mouseover" end="zoomminus.mouseout"/>
                        </use>
                        <path d="M-4,0h8" fill="none" stroke="white" stroke-width="1.5" pointer-events="none"/>
                </g>
                <g id="dirArrow">
                        <path fill="none" stroke="white" stroke-width="1.5" d="M0,-3.0v7 M-2.5,-0.5L0,-3.0L2.5,-0.5"/>
                </g>
               <g id="resetDef">
                       <use xlink:href="#rim2" fill="#404040">
                               <set attributeName="fill" to="#808080" begin="reset.mouseover" end="reset.mouseout"/>
                       </use>
               </g>
        </defs>

<script type="text/javascript">
var viewWidth = 557;
var viewHeight = 274;
var sectionId = 'dynsection-1';
</script>
<script xlink:href="svgpan.js"/>
<svg id="graph" class="graph">
<g id="viewport">
<title>include/textures/solid.hpp</title>
<polygon fill="white" stroke="transparent" points="-4,4 -4,-270 553,-270 553,4 -4,4"/>
<!-- Node1 -->
<g id="node1" class="node">
<title>Node1</title>
<g id="a_node1"><a xlink:title="Solid one color texture.">
<polygon fill="#bfbfbf" stroke="black" points="137,-246.5 137,-265.5 280,-265.5 280,-246.5 137,-246.5"/>
<text text-anchor="middle" x="208.5" y="-253.5" font-family="Helvetica,sans-Serif" font-size="10.00">include/textures/solid.hpp</text>
</a>
</g>
</g>
<!-- Node2 -->
<g id="node2" class="node">
<title>Node2</title>
<g id="a_node2"><a xlink:href="diffuse_8hpp.html" target="_top" xlink:title="Object for diffuse (random) scattering. Subclass of material.">
<polygon fill="white" stroke="black" points="295.5,-129 295.5,-148 453.5,-148 453.5,-129 295.5,-129"/>
<text text-anchor="middle" x="374.5" y="-136" font-family="Helvetica,sans-Serif" font-size="10.00">include/materials/diffuse.hpp</text>
</a>
</g>
</g>
<!-- Node1&#45;&gt;Node2 -->
<g id="edge1" class="edge">
<title>Node1&#45;&gt;Node2</title>
<path fill="none" stroke="midnightblue" d="M229.47,-240.41C264.41,-216.1 333.5,-168.03 361.88,-148.28"/>
<polygon fill="midnightblue" stroke="midnightblue" points="227.19,-237.73 220.98,-246.32 231.18,-243.48 227.19,-237.73"/>
</g>
<!-- Node8 -->
<g id="node8" class="node">
<title>Node8</title>
<g id="a_node8"><a xlink:href="diffuse__light_8hpp.html" target="_top" xlink:title="Emissive diffuse light material.">
<polygon fill="white" stroke="black" points="140,-123.5 140,-153.5 277,-153.5 277,-123.5 140,-123.5"/>
<text text-anchor="start" x="148" y="-141.5" font-family="Helvetica,sans-Serif" font-size="10.00">include/materials/diffuse</text>
<text text-anchor="middle" x="208.5" y="-130.5" font-family="Helvetica,sans-Serif" font-size="10.00">_light.hpp</text>
</a>
</g>
</g>
<!-- Node1&#45;&gt;Node8 -->
<g id="edge9" class="edge">
<title>Node1&#45;&gt;Node8</title>
<path fill="none" stroke="midnightblue" d="M208.5,-236.07C208.5,-212.9 208.5,-174.22 208.5,-153.55"/>
<polygon fill="midnightblue" stroke="midnightblue" points="205,-236.32 208.5,-246.32 212,-236.32 205,-236.32"/>
</g>
<!-- Node9 -->
<g id="node9" class="node">
<title>Node9</title>
<g id="a_node9"><a xlink:href="isotropic_8hpp.html" target="_top" xlink:title="Isotropic fog material.">
<polygon fill="white" stroke="black" points="0,-190.5 0,-209.5 167,-209.5 167,-190.5 0,-190.5"/>
<text text-anchor="middle" x="83.5" y="-197.5" font-family="Helvetica,sans-Serif" font-size="10.00">include/materials/isotropic.hpp</text>
</a>
</g>
</g>
<!-- Node1&#45;&gt;Node9 -->
<g id="edge13" class="edge">
<title>Node1&#45;&gt;Node9</title>
<path fill="none" stroke="midnightblue" d="M179.26,-242.37C155.85,-232.26 123.66,-218.35 103.21,-209.52"/>
<polygon fill="midnightblue" stroke="midnightblue" points="178.13,-245.69 188.69,-246.44 180.9,-239.26 178.13,-245.69"/>
</g>
<!-- Node3 -->
<g id="node3" class="node">
<title>Node3</title>
<g id="a_node3"><a xlink:href="comb__scene_8hpp.html" target="_top" xlink:title="Header file for Combined scene example (unfinished)">
<polygon fill="white" stroke="black" points="9,-56.5 9,-86.5 128,-86.5 128,-56.5 9,-56.5"/>
<text text-anchor="start" x="17" y="-74.5" font-family="Helvetica,sans-Serif" font-size="10.00">include/scenes/comb</text>
<text text-anchor="middle" x="68.5" y="-63.5" font-family="Helvetica,sans-Serif" font-size="10.00">_scene.hpp</text>
</a>
</g>
</g>
<!-- Node2&#45;&gt;Node3 -->
<g id="edge2" class="edge">
<title>Node2&#45;&gt;Node3</title>
<path fill="none" stroke="midnightblue" d="M324.19,-126.81C270.42,-115.39 185.21,-97.29 128.11,-85.16"/>
<polygon fill="midnightblue" stroke="midnightblue" points="323.67,-130.28 334.18,-128.94 325.13,-123.43 323.67,-130.28"/>
</g>
<!-- Node4 -->
<g id="node4" class="node">
<title>Node4</title>
<g id="a_node4"><a xlink:href="cornell__box_8hpp.html" target="_top" xlink:title="Header file for cornell box scene examples (unfinished)">
<polygon fill="white" stroke="black" points="146,-56.5 146,-86.5 271,-86.5 271,-56.5 146,-56.5"/>
<text text-anchor="start" x="154" y="-74.5" font-family="Helvetica,sans-Serif" font-size="10.00">include/scenes/cornell</text>
<text text-anchor="middle" x="208.5" y="-63.5" font-family="Helvetica,sans-Serif" font-size="10.00">_box.hpp</text>
</a>
</g>
</g>
<!-- Node2&#45;&gt;Node4 -->
<g id="edge3" class="edge">
<title>Node2&#45;&gt;Node4</title>
<path fill="none" stroke="midnightblue" d="M343.09,-125.2C314.96,-114.19 273.73,-98.04 244.33,-86.53"/>
<polygon fill="midnightblue" stroke="midnightblue" points="341.87,-128.48 352.46,-128.87 344.42,-121.96 341.87,-128.48"/>
</g>
<!-- Node6 -->
<g id="node6" class="node">
<title>Node6</title>
<g id="a_node6"><a xlink:href="light__scene_8hpp.html" target="_top" xlink:title="Header file for light scene example (unfinished)">
<polygon fill="white" stroke="black" points="289,-56.5 289,-86.5 402,-86.5 402,-56.5 289,-56.5"/>
<text text-anchor="start" x="297" y="-74.5" font-family="Helvetica,sans-Serif" font-size="10.00">include/scenes/light</text>
<text text-anchor="middle" x="345.5" y="-63.5" font-family="Helvetica,sans-Serif" font-size="10.00">_scene.hpp</text>
</a>
</g>
</g>
<!-- Node2&#45;&gt;Node6 -->
<g id="edge5" class="edge">
<title>Node2&#45;&gt;Node6</title>
<path fill="none" stroke="midnightblue" d="M366.42,-119.39C361.79,-109.02 356.07,-96.2 351.79,-86.59"/>
<polygon fill="midnightblue" stroke="midnightblue" points="363.32,-121.03 370.59,-128.73 369.71,-118.18 363.32,-121.03"/>
</g>
<!-- Node7 -->
<g id="node7" class="node">
<title>Node7</title>
<g id="a_node7"><a xlink:href="random__scene_8hpp.html" target="_top" xlink:title="Header file for random scene example (unfinished)">
<polygon fill="white" stroke="black" points="420,-56.5 420,-86.5 549,-86.5 549,-56.5 420,-56.5"/>
<text text-anchor="start" x="428" y="-74.5" font-family="Helvetica,sans-Serif" font-size="10.00">include/scenes/random</text>
<text text-anchor="middle" x="484.5" y="-63.5" font-family="Helvetica,sans-Serif" font-size="10.00">_scene.hpp</text>
</a>
</g>
</g>
<!-- Node2&#45;&gt;Node7 -->
<g id="edge7" class="edge">
<title>Node2&#45;&gt;Node7</title>
<path fill="none" stroke="midnightblue" d="M398.02,-123.6C416.49,-112.69 442.1,-97.55 460.66,-86.59"/>
<polygon fill="midnightblue" stroke="midnightblue" points="396.16,-120.63 389.34,-128.73 399.72,-126.66 396.16,-120.63"/>
</g>
<!-- Node5 -->
<g id="node5" class="node">
<title>Node5</title>
<g id="a_node5"><a xlink:href="main_8cpp.html" target="_top" xlink:title="Main file for Serial ray tracer project.">
<polygon fill="white" stroke="black" points="314.5,-0.5 314.5,-19.5 376.5,-19.5 376.5,-0.5 314.5,-0.5"/>
<text text-anchor="middle" x="345.5" y="-7.5" font-family="Helvetica,sans-Serif" font-size="10.00">main.cpp</text>
</a>
</g>
</g>
<!-- Node4&#45;&gt;Node5 -->
<g id="edge4" class="edge">
<title>Node4&#45;&gt;Node5</title>
<path fill="none" stroke="midnightblue" d="M250.24,-52.37C275.25,-41.51 305.9,-28.2 325.57,-19.66"/>
<polygon fill="midnightblue" stroke="midnightblue" points="248.75,-49.21 240.97,-56.4 251.53,-55.63 248.75,-49.21"/>
</g>
<!-- Node6&#45;&gt;Node5 -->
<g id="edge6" class="edge">
<title>Node6&#45;&gt;Node5</title>
<path fill="none" stroke="midnightblue" d="M345.5,-46.29C345.5,-36.86 345.5,-26.65 345.5,-19.66"/>
<polygon fill="midnightblue" stroke="midnightblue" points="342,-46.4 345.5,-56.4 349,-46.4 342,-46.4"/>
</g>
<!-- Node7&#45;&gt;Node5 -->
<g id="edge8" class="edge">
<title>Node7&#45;&gt;Node5</title>
<path fill="none" stroke="midnightblue" d="M442.15,-52.37C416.78,-41.51 385.67,-28.2 365.73,-19.66"/>
<polygon fill="midnightblue" stroke="midnightblue" points="440.99,-55.68 451.56,-56.4 443.74,-49.25 440.99,-55.68"/>
</g>
<!-- Node8&#45;&gt;Node3 -->
<g id="edge10" class="edge">
<title>Node8&#45;&gt;Node3</title>
<path fill="none" stroke="midnightblue" d="M168.93,-119.13C146.69,-108.8 119.35,-96.11 98.82,-86.58"/>
<polygon fill="midnightblue" stroke="midnightblue" points="167.58,-122.36 178.12,-123.4 170.53,-116.01 167.58,-122.36"/>
</g>
<!-- Node8&#45;&gt;Node4 -->
<g id="edge11" class="edge">
<title>Node8&#45;&gt;Node4</title>
<path fill="none" stroke="midnightblue" d="M208.5,-113.11C208.5,-104.15 208.5,-94.32 208.5,-86.58"/>
<polygon fill="midnightblue" stroke="midnightblue" points="205,-113.4 208.5,-123.4 212,-113.4 205,-113.4"/>
</g>
<!-- Node8&#45;&gt;Node6 -->
<g id="edge12" class="edge">
<title>Node8&#45;&gt;Node6</title>
<path fill="none" stroke="midnightblue" d="M247.51,-118.99C269.22,-108.69 295.83,-96.07 315.83,-86.58"/>
<polygon fill="midnightblue" stroke="midnightblue" points="245.76,-115.95 238.23,-123.4 248.76,-122.27 245.76,-115.95"/>
</g>
<!-- Node10 -->
<g id="node10" class="node">
<title>Node10</title>
<g id="a_node10"><a xlink:href="iso__fog_8hpp.html" target="_top" xlink:title="Isotropically scattering fog object.">
<polygon fill="white" stroke="black" points="15,-123.5 15,-153.5 122,-153.5 122,-123.5 15,-123.5"/>
<text text-anchor="start" x="23" y="-141.5" font-family="Helvetica,sans-Serif" font-size="10.00">include/objects/iso</text>
<text text-anchor="middle" x="68.5" y="-130.5" font-family="Helvetica,sans-Serif" font-size="10.00">_fog.hpp</text>
</a>
</g>
</g>
<!-- Node9&#45;&gt;Node10 -->
<g id="edge14" class="edge">
<title>Node9&#45;&gt;Node10</title>
<path fill="none" stroke="midnightblue" d="M78.84,-180.53C76.65,-171.81 74.07,-161.59 72.04,-153.52"/>
<polygon fill="midnightblue" stroke="midnightblue" points="75.51,-181.63 81.35,-190.48 82.3,-179.92 75.51,-181.63"/>
</g>
<!-- Node10&#45;&gt;Node3 -->
<g id="edge15" class="edge">
<title>Node10&#45;&gt;Node3</title>
<path fill="none" stroke="midnightblue" d="M68.5,-113.11C68.5,-104.15 68.5,-94.32 68.5,-86.58"/>
<polygon fill="midnightblue" stroke="midnightblue" points="65,-113.4 68.5,-123.4 72,-113.4 65,-113.4"/>
</g>
<!-- Node10&#45;&gt;Node4 -->
<g id="edge16" class="edge">
<title>Node10&#45;&gt;Node4</title>
<path fill="none" stroke="midnightblue" d="M108.07,-119.13C130.31,-108.8 157.65,-96.11 178.18,-86.58"/>
<polygon fill="midnightblue" stroke="midnightblue" points="106.47,-116.01 98.88,-123.4 109.42,-122.36 106.47,-116.01"/>
</g>
</g>
</svg>
        <g id="navigator" transform="translate(0 0)" fill="#404254">
                <rect fill="#f2f5e9" fill-opacity="0.5" stroke="#606060" stroke-width=".5" x="0" y="0" width="60" height="60"/>
                <use id="zoomplus" xlink:href="#zoomPlus" x="17" y="9" onmousedown="handleZoom(evt,'in')"/>
                <use id="zoomminus" xlink:href="#zoomMin" x="42" y="9" onmousedown="handleZoom(evt,'out')"/>
                <use id="reset" xlink:href="#resetDef" x="30" y="36" onmousedown="handleReset()"/>
                <g id="arrowUp" xlink:href="#dirArrow" transform="translate(30 24)" onmousedown="handlePan(0,-1)">
                  <use xlink:href="#rim" fill="#404040">
                        <set attributeName="fill" to="#808080" begin="arrowUp.mouseover" end="arrowUp.mouseout"/>
                  </use>
                  <path fill="none" stroke="white" stroke-width="1.5" d="M0,-3.0v7 M-2.5,-0.5L0,-3.0L2.5,-0.5"/>
                </g>
                <g id="arrowRight" xlink:href="#dirArrow" transform="rotate(90) translate(36 -43)" onmousedown="handlePan(1,0)">
                  <use xlink:href="#rim" fill="#404040">
                        <set attributeName="fill" to="#808080" begin="arrowRight.mouseover" end="arrowRight.mouseout"/>
                  </use>
                  <path fill="none" stroke="white" stroke-width="1.5" d="M0,-3.0v7 M-2.5,-0.5L0,-3.0L2.5,-0.5"/>
                </g>
                <g id="arrowDown" xlink:href="#dirArrow" transform="rotate(180) translate(-30 -48)" onmousedown="handlePan(0,1)">
                  <use xlink:href="#rim" fill="#404040">
                        <set attributeName="fill" to="#808080" begin="arrowDown.mouseover" end="arrowDown.mouseout"/>
                  </use>
                  <path fill="none" stroke="white" stroke-width="1.5" d="M0,-3.0v7 M-2.5,-0.5L0,-3.0L2.5,-0.5"/>
                </g>
                <g id="arrowLeft" xlink:href="#dirArrow" transform="rotate(270) translate(-36 17)" onmousedown="handlePan(-1,0)">
                  <use xlink:href="#rim" fill="#404040">
                        <set attributeName="fill" to="#808080" begin="arrowLeft.mouseover" end="arrowLeft.mouseout"/>
                  </use>
                  <path fill="none" stroke="white" stroke-width="1.5" d="M0,-3.0v7 M-2.5,-0.5L0,-3.0L2.5,-0.5"/>
                </g>
        </g>
        <svg viewBox="0 0 15 15" width="100%" height="30px" preserveAspectRatio="xMaxYMin meet">
         <g id="arrow_out" transform="scale(0.3 0.3)">
          <a xlink:href="solid_8hpp__dep__incl_org.svg" target="_base">
           <rect id="button" ry="5" rx="5" y="6" x="6" height="38" width="38"
                fill="#f2f5e9" fill-opacity="0.5" stroke="#606060" stroke-width="1.0"/>
           <path id="arrow"
             d="M 11.500037,31.436501 C 11.940474,20.09759 22.043105,11.32322 32.158766,21.979434 L 37.068811,17.246167 C 37.068811,17.246167 37.088388,32 37.088388,32 L 22.160133,31.978069 C 22.160133,31.978069 26.997745,27.140456 26.997745,27.140456 C 18.528582,18.264221 13.291696,25.230495 11.500037,31.436501 z"
             style="fill:#404040;"/>
          </a>
         </g>
        </svg>
</svg>
