<?xml version="1.0" encoding="UTF-8" standalone="no"?>
<!DOCTYPE svg PUBLIC "-//W3C//DTD SVG 1.1//EN"
 "http://www.w3.org/Graphics/SVG/1.1/DTD/svg11.dtd">
<!-- Generated by graphviz version 2.43.0 (0)
 -->
<!-- Title: include/objects/sphere.hpp Pages: 1 -->
<svg width="548pt" height="151pt"
 viewBox="0.00 0.00 548.00 151.00" xmlns="http://www.w3.org/2000/svg" xmlns:xlink="http://www.w3.org/1999/xlink">
<g id="graph0" class="graph" transform="scale(1 1) rotate(0) translate(4 147)">
<title>include/objects/sphere.hpp</title>
<polygon fill="white" stroke="transparent" points="-4,4 -4,-147 544,-147 544,4 -4,4"/>
<!-- Node1 -->
<g id="node1" class="node">
<title>Node1</title>
<g id="a_node1"><a xlink:title="Sphere object to be rendered.">
<polygon fill="#bfbfbf" stroke="black" points="194,-123.5 194,-142.5 341,-142.5 341,-123.5 194,-123.5"/>
<text text-anchor="middle" x="267.5" y="-130.5" font-family="Helvetica,sans-Serif" font-size="10.00">include/objects/sphere.hpp</text>
</a>
</g>
</g>
<!-- Node2 -->
<g id="node2" class="node">
<title>Node2</title>
<g id="a_node2"><a xlink:href="comb__scene_8hpp.html" target="_top" xlink:title="Header file for Combined scene example (unfinished)">
<polygon fill="white" stroke="black" points="0,-56.5 0,-86.5 119,-86.5 119,-56.5 0,-56.5"/>
<text text-anchor="start" x="8" y="-74.5" font-family="Helvetica,sans-Serif" font-size="10.00">include/scenes/comb</text>
<text text-anchor="middle" x="59.5" y="-63.5" font-family="Helvetica,sans-Serif" font-size="10.00">_scene.hpp</text>
</a>
</g>
</g>
<!-- Node1&#45;&gt;Node2 -->
<g id="edge1" class="edge">
<title>Node1&#45;&gt;Node2</title>
<path fill="none" stroke="midnightblue" d="M227.68,-120.61C193.75,-110.9 144.85,-96.92 108.52,-86.52"/>
<polygon fill="midnightblue" stroke="midnightblue" points="227.12,-124.09 237.7,-123.48 229.05,-117.36 227.12,-124.09"/>
</g>
<!-- Node3 -->
<g id="node3" class="node">
<title>Node3</title>
<g id="a_node3"><a xlink:href="cornell__box_8hpp.html" target="_top" xlink:title="Header file for cornell box scene examples (unfinished)">
<polygon fill="white" stroke="black" points="137,-56.5 137,-86.5 262,-86.5 262,-56.5 137,-56.5"/>
<text text-anchor="start" x="145" y="-74.5" font-family="Helvetica,sans-Serif" font-size="10.00">include/scenes/cornell</text>
<text text-anchor="middle" x="199.5" y="-63.5" font-family="Helvetica,sans-Serif" font-size="10.00">_box.hpp</text>
</a>
</g>
</g>
<!-- Node1&#45;&gt;Node3 -->
<g id="edge2" class="edge">
<title>Node1&#45;&gt;Node3</title>
<path fill="none" stroke="midnightblue" d="M249.95,-116.65C239.32,-107.35 225.87,-95.57 215.53,-86.52"/>
<polygon fill="midnightblue" stroke="midnightblue" points="247.93,-119.52 257.76,-123.48 252.54,-114.26 247.93,-119.52"/>
</g>
<!-- Node5 -->
<g id="node5" class="node">
<title>Node5</title>
<g id="a_node5"><a xlink:href="light__scene_8hpp.html" target="_top" xlink:title="Header file for light scene example (unfinished)">
<polygon fill="white" stroke="black" points="280,-56.5 280,-86.5 393,-86.5 393,-56.5 280,-56.5"/>
<text text-anchor="start" x="288" y="-74.5" font-family="Helvetica,sans-Serif" font-size="10.00">include/scenes/light</text>
<text text-anchor="middle" x="336.5" y="-63.5" font-family="Helvetica,sans-Serif" font-size="10.00">_scene.hpp</text>
</a>
</g>
</g>
<!-- Node1&#45;&gt;Node5 -->
<g id="edge4" class="edge">
<title>Node1&#45;&gt;Node5</title>
<path fill="none" stroke="midnightblue" d="M284.99,-116.92C295.82,-107.58 309.64,-95.66 320.24,-86.52"/>
<polygon fill="midnightblue" stroke="midnightblue" points="282.67,-114.29 277.39,-123.48 287.24,-119.6 282.67,-114.29"/>
</g>
<!-- Node6 -->
<g id="node6" class="node">
<title>Node6</title>
<g id="a_node6"><a xlink:href="random__scene_8hpp.html" target="_top" xlink:title="Header file for random scene example (unfinished)">
<polygon fill="white" stroke="black" points="411,-56.5 411,-86.5 540,-86.5 540,-56.5 411,-56.5"/>
<text text-anchor="start" x="419" y="-74.5" font-family="Helvetica,sans-Serif" font-size="10.00">include/scenes/random</text>
<text text-anchor="middle" x="475.5" y="-63.5" font-family="Helvetica,sans-Serif" font-size="10.00">_scene.hpp</text>
</a>
</g>
</g>
<!-- Node1&#45;&gt;Node6 -->
<g id="edge6" class="edge">
<title>Node1&#45;&gt;Node6</title>
<path fill="none" stroke="midnightblue" d="M307.32,-120.61C341.25,-110.9 390.15,-96.92 426.48,-86.52"/>
<polygon fill="midnightblue" stroke="midnightblue" points="305.95,-117.36 297.3,-123.48 307.88,-124.09 305.95,-117.36"/>
</g>
<!-- Node4 -->
<g id="node4" class="node">
<title>Node4</title>
<g id="a_node4"><a xlink:href="main_8cpp.html" target="_top" xlink:title="Main file for Serial ray tracer project.">
<polygon fill="white" stroke="black" points="305.5,-0.5 305.5,-19.5 367.5,-19.5 367.5,-0.5 305.5,-0.5"/>
<text text-anchor="middle" x="336.5" y="-7.5" font-family="Helvetica,sans-Serif" font-size="10.00">main.cpp</text>
</a>
</g>
</g>
<!-- Node3&#45;&gt;Node4 -->
<g id="edge3" class="edge">
<title>Node3&#45;&gt;Node4</title>
<path fill="none" stroke="midnightblue" d="M241.24,-52.37C266.25,-41.51 296.9,-28.2 316.57,-19.66"/>
<polygon fill="midnightblue" stroke="midnightblue" points="239.75,-49.21 231.97,-56.4 242.53,-55.63 239.75,-49.21"/>
</g>
<!-- Node5&#45;&gt;Node4 -->
<g id="edge5" class="edge">
<title>Node5&#45;&gt;Node4</title>
<path fill="none" stroke="midnightblue" d="M336.5,-46.29C336.5,-36.86 336.5,-26.65 336.5,-19.66"/>
<polygon fill="midnightblue" stroke="midnightblue" points="333,-46.4 336.5,-56.4 340,-46.4 333,-46.4"/>
</g>
<!-- Node6&#45;&gt;Node4 -->
<g id="edge7" class="edge">
<title>Node6&#45;&gt;Node4</title>
<path fill="none" stroke="midnightblue" d="M433.15,-52.37C407.78,-41.51 376.67,-28.2 356.73,-19.66"/>
<polygon fill="midnightblue" stroke="midnightblue" points="431.99,-55.68 442.56,-56.4 434.74,-49.25 431.99,-55.68"/>
</g>
</g>
</svg>
