<?xml version="1.0" encoding="UTF-8" standalone="no"?>
<!DOCTYPE svg PUBLIC "-//W3C//DTD SVG 1.1//EN"
 "http://www.w3.org/Graphics/SVG/1.1/DTD/svg11.dtd">
<!-- Generated by graphviz version 2.43.0 (0)
 -->
<!-- Title: include/textures/texture.hpp Pages: 1 -->
<svg width="621pt" height="330pt"
 viewBox="0.00 0.00 620.50 330.00" xmlns="http://www.w3.org/2000/svg" xmlns:xlink="http://www.w3.org/1999/xlink">
<g id="graph0" class="graph" transform="scale(1 1) rotate(0) translate(4 326)">
<title>include/textures/texture.hpp</title>
<polygon fill="white" stroke="transparent" points="-4,4 -4,-326 616.5,-326 616.5,4 -4,4"/>
<!-- Node1 -->
<g id="node1" class="node">
<title>Node1</title>
<g id="a_node1"><a xlink:title="Bass class for textures.">
<polygon fill="#bfbfbf" stroke="black" points="253,-302.5 253,-321.5 408,-321.5 408,-302.5 253,-302.5"/>
<text text-anchor="middle" x="330.5" y="-309.5" font-family="Helvetica,sans-Serif" font-size="10.00">include/textures/texture.hpp</text>
</a>
</g>
</g>
<!-- Node2 -->
<g id="node2" class="node">
<title>Node2</title>
<g id="a_node2"><a xlink:href="checker_8hpp.html" target="_top" xlink:title="Two color checkered texture.">
<polygon fill="white" stroke="black" points="456.5,-129 456.5,-148 612.5,-148 612.5,-129 456.5,-129"/>
<text text-anchor="middle" x="534.5" y="-136" font-family="Helvetica,sans-Serif" font-size="10.00">include/textures/checker.hpp</text>
</a>
</g>
</g>
<!-- Node1&#45;&gt;Node2 -->
<g id="edge1" class="edge">
<title>Node1&#45;&gt;Node2</title>
<path fill="none" stroke="midnightblue" d="M348.28,-296.05C389.73,-261.2 491.74,-175.45 524.32,-148.06"/>
<polygon fill="midnightblue" stroke="midnightblue" points="346.02,-293.38 340.62,-302.5 350.52,-298.74 346.02,-293.38"/>
</g>
<!-- Node8 -->
<g id="node8" class="node">
<title>Node8</title>
<g id="a_node8"><a xlink:href="solid_8hpp.html" target="_top" xlink:title="Solid one color texture.">
<polygon fill="white" stroke="black" points="209,-246.5 209,-265.5 352,-265.5 352,-246.5 209,-246.5"/>
<text text-anchor="middle" x="280.5" y="-253.5" font-family="Helvetica,sans-Serif" font-size="10.00">include/textures/solid.hpp</text>
</a>
</g>
</g>
<!-- Node1&#45;&gt;Node8 -->
<g id="edge9" class="edge">
<title>Node1&#45;&gt;Node8</title>
<path fill="none" stroke="midnightblue" d="M315.42,-294.72C306.61,-285.2 295.83,-273.56 288.6,-265.75"/>
<polygon fill="midnightblue" stroke="midnightblue" points="312.88,-297.12 322.24,-302.08 318.02,-292.37 312.88,-297.12"/>
</g>
<!-- Node3 -->
<g id="node3" class="node">
<title>Node3</title>
<g id="a_node3"><a xlink:href="comb__scene_8hpp.html" target="_top" xlink:title="Header file for Combined scene example (unfinished)">
<polygon fill="white" stroke="black" points="202,-56.5 202,-86.5 321,-86.5 321,-56.5 202,-56.5"/>
<text text-anchor="start" x="210" y="-74.5" font-family="Helvetica,sans-Serif" font-size="10.00">include/scenes/comb</text>
<text text-anchor="middle" x="261.5" y="-63.5" font-family="Helvetica,sans-Serif" font-size="10.00">_scene.hpp</text>
</a>
</g>
</g>
<!-- Node2&#45;&gt;Node3 -->
<g id="edge2" class="edge">
<title>Node2&#45;&gt;Node3</title>
<path fill="none" stroke="midnightblue" d="M488.79,-126.62C442.59,-115.62 371.02,-98.58 320.55,-86.56"/>
<polygon fill="midnightblue" stroke="midnightblue" points="487.99,-130.02 498.53,-128.94 489.61,-123.21 487.99,-130.02"/>
</g>
<!-- Node4 -->
<g id="node4" class="node">
<title>Node4</title>
<g id="a_node4"><a xlink:href="cornell__box_8hpp.html" target="_top" xlink:title="Header file for cornell box scene examples (unfinished)">
<polygon fill="white" stroke="black" points="59,-56.5 59,-86.5 184,-86.5 184,-56.5 59,-56.5"/>
<text text-anchor="start" x="67" y="-74.5" font-family="Helvetica,sans-Serif" font-size="10.00">include/scenes/cornell</text>
<text text-anchor="middle" x="121.5" y="-63.5" font-family="Helvetica,sans-Serif" font-size="10.00">_box.hpp</text>
</a>
</g>
</g>
<!-- Node2&#45;&gt;Node4 -->
<g id="edge3" class="edge">
<title>Node2&#45;&gt;Node4</title>
<path fill="none" stroke="midnightblue" d="M474.34,-127.27C465.35,-125.8 456.19,-124.34 447.5,-123 334.37,-105.59 305.29,-106.46 192.5,-87 189.77,-86.53 186.99,-86.03 184.18,-85.52"/>
<polygon fill="midnightblue" stroke="midnightblue" points="473.95,-130.76 484.39,-128.93 475.09,-123.85 473.95,-130.76"/>
</g>
<!-- Node6 -->
<g id="node6" class="node">
<title>Node6</title>
<g id="a_node6"><a xlink:href="light__scene_8hpp.html" target="_top" xlink:title="Header file for light scene example (unfinished)">
<polygon fill="white" stroke="black" points="339,-56.5 339,-86.5 452,-86.5 452,-56.5 339,-56.5"/>
<text text-anchor="start" x="347" y="-74.5" font-family="Helvetica,sans-Serif" font-size="10.00">include/scenes/light</text>
<text text-anchor="middle" x="395.5" y="-63.5" font-family="Helvetica,sans-Serif" font-size="10.00">_scene.hpp</text>
</a>
</g>
</g>
<!-- Node2&#45;&gt;Node6 -->
<g id="edge5" class="edge">
<title>Node2&#45;&gt;Node6</title>
<path fill="none" stroke="midnightblue" d="M506.96,-124.62C483.44,-113.63 449.69,-97.84 425.5,-86.53"/>
<polygon fill="midnightblue" stroke="midnightblue" points="505.5,-127.8 516.04,-128.87 508.47,-121.46 505.5,-127.8"/>
</g>
<!-- Node7 -->
<g id="node7" class="node">
<title>Node7</title>
<g id="a_node7"><a xlink:href="random__scene_8hpp.html" target="_top" xlink:title="Header file for random scene example (unfinished)">
<polygon fill="white" stroke="black" points="470,-56.5 470,-86.5 599,-86.5 599,-56.5 470,-56.5"/>
<text text-anchor="start" x="478" y="-74.5" font-family="Helvetica,sans-Serif" font-size="10.00">include/scenes/random</text>
<text text-anchor="middle" x="534.5" y="-63.5" font-family="Helvetica,sans-Serif" font-size="10.00">_scene.hpp</text>
</a>
</g>
</g>
<!-- Node2&#45;&gt;Node7 -->
<g id="edge7" class="edge">
<title>Node2&#45;&gt;Node7</title>
<path fill="none" stroke="midnightblue" d="M534.5,-118.41C534.5,-108.22 534.5,-95.9 534.5,-86.59"/>
<polygon fill="midnightblue" stroke="midnightblue" points="531,-118.73 534.5,-128.73 538,-118.73 531,-118.73"/>
</g>
<!-- Node5 -->
<g id="node5" class="node">
<title>Node5</title>
<g id="a_node5"><a xlink:href="main_8cpp.html" target="_top" xlink:title="Main file for Serial ray tracer project.">
<polygon fill="white" stroke="black" points="364.5,-0.5 364.5,-19.5 426.5,-19.5 426.5,-0.5 364.5,-0.5"/>
<text text-anchor="middle" x="395.5" y="-7.5" font-family="Helvetica,sans-Serif" font-size="10.00">main.cpp</text>
</a>
</g>
</g>
<!-- Node4&#45;&gt;Node5 -->
<g id="edge4" class="edge">
<title>Node4&#45;&gt;Node5</title>
<path fill="none" stroke="midnightblue" d="M193.79,-54.8C249.22,-42.76 323,-26.74 364.23,-17.79"/>
<polygon fill="midnightblue" stroke="midnightblue" points="193.05,-51.38 184.02,-56.92 194.53,-58.22 193.05,-51.38"/>
</g>
<!-- Node6&#45;&gt;Node5 -->
<g id="edge6" class="edge">
<title>Node6&#45;&gt;Node5</title>
<path fill="none" stroke="midnightblue" d="M395.5,-46.29C395.5,-36.86 395.5,-26.65 395.5,-19.66"/>
<polygon fill="midnightblue" stroke="midnightblue" points="392,-46.4 395.5,-56.4 399,-46.4 392,-46.4"/>
</g>
<!-- Node7&#45;&gt;Node5 -->
<g id="edge8" class="edge">
<title>Node7&#45;&gt;Node5</title>
<path fill="none" stroke="midnightblue" d="M492.15,-52.37C466.78,-41.51 435.67,-28.2 415.73,-19.66"/>
<polygon fill="midnightblue" stroke="midnightblue" points="490.99,-55.68 501.56,-56.4 493.74,-49.25 490.99,-55.68"/>
</g>
<!-- Node9 -->
<g id="node9" class="node">
<title>Node9</title>
<g id="a_node9"><a xlink:href="diffuse_8hpp.html" target="_top" xlink:title="Object for diffuse (random) scattering. Subclass of material.">
<polygon fill="white" stroke="black" points="280.5,-129 280.5,-148 438.5,-148 438.5,-129 280.5,-129"/>
<text text-anchor="middle" x="359.5" y="-136" font-family="Helvetica,sans-Serif" font-size="10.00">include/materials/diffuse.hpp</text>
</a>
</g>
</g>
<!-- Node8&#45;&gt;Node9 -->
<g id="edge10" class="edge">
<title>Node8&#45;&gt;Node9</title>
<path fill="none" stroke="midnightblue" d="M292.23,-237.84C309.33,-212.86 340.45,-167.36 353.49,-148.28"/>
<polygon fill="midnightblue" stroke="midnightblue" points="289.19,-236.09 286.44,-246.32 294.97,-240.04 289.19,-236.09"/>
</g>
<!-- Node10 -->
<g id="node10" class="node">
<title>Node10</title>
<g id="a_node10"><a xlink:href="diffuse__light_8hpp.html" target="_top" xlink:title="Emissive diffuse light material.">
<polygon fill="white" stroke="black" points="125,-123.5 125,-153.5 262,-153.5 262,-123.5 125,-123.5"/>
<text text-anchor="start" x="133" y="-141.5" font-family="Helvetica,sans-Serif" font-size="10.00">include/materials/diffuse</text>
<text text-anchor="middle" x="193.5" y="-130.5" font-family="Helvetica,sans-Serif" font-size="10.00">_light.hpp</text>
</a>
</g>
</g>
<!-- Node8&#45;&gt;Node10 -->
<g id="edge15" class="edge">
<title>Node8&#45;&gt;Node10</title>
<path fill="none" stroke="midnightblue" d="M267.88,-238.24C250.67,-215.39 220.15,-174.88 204.08,-153.55"/>
<polygon fill="midnightblue" stroke="midnightblue" points="265.15,-240.44 273.96,-246.32 270.74,-236.23 265.15,-240.44"/>
</g>
<!-- Node11 -->
<g id="node11" class="node">
<title>Node11</title>
<g id="a_node11"><a xlink:href="isotropic_8hpp.html" target="_top" xlink:title="Isotropic fog material.">
<polygon fill="white" stroke="black" points="20,-190.5 20,-209.5 187,-209.5 187,-190.5 20,-190.5"/>
<text text-anchor="middle" x="103.5" y="-197.5" font-family="Helvetica,sans-Serif" font-size="10.00">include/materials/isotropic.hpp</text>
</a>
</g>
</g>
<!-- Node8&#45;&gt;Node11 -->
<g id="edge19" class="edge">
<title>Node8&#45;&gt;Node11</title>
<path fill="none" stroke="midnightblue" d="M242.6,-243.44C209.22,-233.26 161.4,-218.66 131.41,-209.52"/>
<polygon fill="midnightblue" stroke="midnightblue" points="241.87,-246.87 252.45,-246.44 243.91,-240.18 241.87,-246.87"/>
</g>
<!-- Node9&#45;&gt;Node3 -->
<g id="edge11" class="edge">
<title>Node9&#45;&gt;Node3</title>
<path fill="none" stroke="midnightblue" d="M337.87,-123.15C321.47,-112.27 299.05,-97.4 282.74,-86.59"/>
<polygon fill="midnightblue" stroke="midnightblue" points="336.02,-126.12 346.28,-128.73 339.88,-120.29 336.02,-126.12"/>
</g>
<!-- Node9&#45;&gt;Node4 -->
<g id="edge12" class="edge">
<title>Node9&#45;&gt;Node4</title>
<path fill="none" stroke="midnightblue" d="M318.12,-126.2C277.77,-115.18 216.31,-98.39 172.86,-86.53"/>
<polygon fill="midnightblue" stroke="midnightblue" points="317.33,-129.61 327.9,-128.87 319.17,-122.86 317.33,-129.61"/>
</g>
<!-- Node9&#45;&gt;Node6 -->
<g id="edge13" class="edge">
<title>Node9&#45;&gt;Node6</title>
<path fill="none" stroke="midnightblue" d="M369.35,-119.71C375.13,-109.29 382.32,-96.3 387.7,-86.59"/>
<polygon fill="midnightblue" stroke="midnightblue" points="366.14,-118.29 364.36,-128.73 372.26,-121.68 366.14,-118.29"/>
</g>
<!-- Node9&#45;&gt;Node7 -->
<g id="edge14" class="edge">
<title>Node9&#45;&gt;Node7</title>
<path fill="none" stroke="midnightblue" d="M392.22,-125.35C421.88,-114.33 465.6,-98.09 496.73,-86.53"/>
<polygon fill="midnightblue" stroke="midnightblue" points="390.89,-122.11 382.74,-128.87 393.33,-128.67 390.89,-122.11"/>
</g>
<!-- Node10&#45;&gt;Node3 -->
<g id="edge16" class="edge">
<title>Node10&#45;&gt;Node3</title>
<path fill="none" stroke="midnightblue" d="M215.67,-116.31C225.87,-106.56 237.69,-95.26 246.77,-86.58"/>
<polygon fill="midnightblue" stroke="midnightblue" points="213.07,-113.96 208.25,-123.4 217.9,-119.02 213.07,-113.96"/>
</g>
<!-- Node10&#45;&gt;Node4 -->
<g id="edge17" class="edge">
<title>Node10&#45;&gt;Node4</title>
<path fill="none" stroke="midnightblue" d="M170.35,-116.6C159.48,-106.78 146.8,-95.34 137.09,-86.58"/>
<polygon fill="midnightblue" stroke="midnightblue" points="168.11,-119.29 177.88,-123.4 172.8,-114.1 168.11,-119.29"/>
</g>
<!-- Node10&#45;&gt;Node6 -->
<g id="edge18" class="edge">
<title>Node10&#45;&gt;Node6</title>
<path fill="none" stroke="midnightblue" d="M247.18,-120.23C279.85,-109.71 321.07,-96.45 351.75,-86.58"/>
<polygon fill="midnightblue" stroke="midnightblue" points="245.78,-117 237.33,-123.4 247.92,-123.66 245.78,-117"/>
</g>
<!-- Node12 -->
<g id="node12" class="node">
<title>Node12</title>
<g id="a_node12"><a xlink:href="iso__fog_8hpp.html" target="_top" xlink:title="Isotropically scattering fog object.">
<polygon fill="white" stroke="black" points="0,-123.5 0,-153.5 107,-153.5 107,-123.5 0,-123.5"/>
<text text-anchor="start" x="8" y="-141.5" font-family="Helvetica,sans-Serif" font-size="10.00">include/objects/iso</text>
<text text-anchor="middle" x="53.5" y="-130.5" font-family="Helvetica,sans-Serif" font-size="10.00">_fog.hpp</text>
</a>
</g>
</g>
<!-- Node11&#45;&gt;Node12 -->
<g id="edge20" class="edge">
<title>Node11&#45;&gt;Node12</title>
<path fill="none" stroke="midnightblue" d="M89.9,-182.81C82.2,-173.65 72.66,-162.3 65.28,-153.52"/>
<polygon fill="midnightblue" stroke="midnightblue" points="87.22,-185.07 96.34,-190.48 92.58,-180.57 87.22,-185.07"/>
</g>
<!-- Node12&#45;&gt;Node3 -->
<g id="edge21" class="edge">
<title>Node12&#45;&gt;Node3</title>
<path fill="none" stroke="midnightblue" d="M108.08,-120.44C141.8,-109.91 184.54,-96.55 216.35,-86.61"/>
<polygon fill="midnightblue" stroke="midnightblue" points="106.88,-117.15 98.38,-123.48 108.97,-123.83 106.88,-117.15"/>
</g>
<!-- Node12&#45;&gt;Node4 -->
<g id="edge22" class="edge">
<title>Node12&#45;&gt;Node4</title>
<path fill="none" stroke="midnightblue" d="M75.67,-116.31C85.87,-106.56 97.69,-95.26 106.77,-86.58"/>
<polygon fill="midnightblue" stroke="midnightblue" points="73.07,-113.96 68.25,-123.4 77.9,-119.02 73.07,-113.96"/>
</g>
</g>
</svg>
