<?xml version="1.0" encoding="UTF-8" standalone="no"?>
<!DOCTYPE svg PUBLIC "-//W3C//DTD SVG 1.1//EN"
 "http://www.w3.org/Graphics/SVG/1.1/DTD/svg11.dtd">
<!-- Generated by graphviz version 2.43.0 (0)
 -->
<!-- Title: include/objects/translation.hpp Pages: 1 -->
<svg width="340pt" height="364pt"
 viewBox="0.00 0.00 340.00 364.00" xmlns="http://www.w3.org/2000/svg" xmlns:xlink="http://www.w3.org/1999/xlink">
<g id="graph0" class="graph" transform="scale(1 1) rotate(0) translate(4 360)">
<title>include/objects/translation.hpp</title>
<polygon fill="white" stroke="transparent" points="-4,4 -4,-360 336,-360 336,4 -4,4"/>
<!-- Node1 -->
<g id="node1" class="node">
<title>Node1</title>
<g id="a_node1"><a xlink:title="Class for translation of a hittable object.">
<polygon fill="#bfbfbf" stroke="black" points="0,-336.5 0,-355.5 167,-355.5 167,-336.5 0,-336.5"/>
<text text-anchor="middle" x="83.5" y="-343.5" font-family="Helvetica,sans-Serif" font-size="10.00">include/objects/translation.hpp</text>
</a>
</g>
</g>
<!-- Node2 -->
<g id="node2" class="node">
<title>Node2</title>
<g id="a_node2"><a xlink:href="hit_8hpp.html" target="_top" xlink:title="Abstract object that can be hit by a ray.">
<polygon fill="white" stroke="black" points="58.5,-280.5 58.5,-299.5 108.5,-299.5 108.5,-280.5 58.5,-280.5"/>
<text text-anchor="middle" x="83.5" y="-287.5" font-family="Helvetica,sans-Serif" font-size="10.00">hit.hpp</text>
</a>
</g>
</g>
<!-- Node1&#45;&gt;Node2 -->
<g id="edge1" class="edge">
<title>Node1&#45;&gt;Node2</title>
<path fill="none" stroke="midnightblue" d="M83.5,-336.08C83.5,-329.01 83.5,-318.86 83.5,-309.99"/>
<polygon fill="midnightblue" stroke="midnightblue" points="87,-309.75 83.5,-299.75 80,-309.75 87,-309.75"/>
</g>
<!-- Node3 -->
<g id="node3" class="node">
<title>Node3</title>
<g id="a_node3"><a xlink:href="bounding__box_8hpp.html" target="_top" xlink:title="Bounding box object, used to compute BVH tree.">
<polygon fill="white" stroke="black" points="30.5,-224.5 30.5,-243.5 136.5,-243.5 136.5,-224.5 30.5,-224.5"/>
<text text-anchor="middle" x="83.5" y="-231.5" font-family="Helvetica,sans-Serif" font-size="10.00">bounding_box.hpp</text>
</a>
</g>
</g>
<!-- Node2&#45;&gt;Node3 -->
<g id="edge2" class="edge">
<title>Node2&#45;&gt;Node3</title>
<path fill="none" stroke="midnightblue" d="M83.5,-280.08C83.5,-273.01 83.5,-262.86 83.5,-253.99"/>
<polygon fill="midnightblue" stroke="midnightblue" points="87,-253.75 83.5,-243.75 80,-253.75 87,-253.75"/>
</g>
<!-- Node4 -->
<g id="node4" class="node">
<title>Node4</title>
<g id="a_node4"><a xlink:title=" ">
<polygon fill="white" stroke="#bfbfbf" points="19,-168.5 19,-187.5 64,-187.5 64,-168.5 19,-168.5"/>
<text text-anchor="middle" x="41.5" y="-175.5" font-family="Helvetica,sans-Serif" font-size="10.00">utility</text>
</a>
</g>
</g>
<!-- Node3&#45;&gt;Node4 -->
<g id="edge3" class="edge">
<title>Node3&#45;&gt;Node4</title>
<path fill="none" stroke="midnightblue" d="M76.56,-224.08C70.57,-216.38 61.75,-205.03 54.45,-195.65"/>
<polygon fill="midnightblue" stroke="midnightblue" points="57.21,-193.5 48.31,-187.75 51.68,-197.79 57.21,-193.5"/>
</g>
<!-- Node5 -->
<g id="node5" class="node">
<title>Node5</title>
<g id="a_node5"><a xlink:href="ray_8hpp.html" target="_top" xlink:title="The ray object for our tracing algorithm.">
<polygon fill="white" stroke="black" points="82.5,-168.5 82.5,-187.5 168.5,-187.5 168.5,-168.5 82.5,-168.5"/>
<text text-anchor="middle" x="125.5" y="-175.5" font-family="Helvetica,sans-Serif" font-size="10.00">render/ray.hpp</text>
</a>
</g>
</g>
<!-- Node3&#45;&gt;Node5 -->
<g id="edge4" class="edge">
<title>Node3&#45;&gt;Node5</title>
<path fill="none" stroke="midnightblue" d="M90.44,-224.08C96.43,-216.38 105.25,-205.03 112.55,-195.65"/>
<polygon fill="midnightblue" stroke="midnightblue" points="115.32,-197.79 118.69,-187.75 109.79,-193.5 115.32,-197.79"/>
</g>
<!-- Node6 -->
<g id="node6" class="node">
<title>Node6</title>
<g id="a_node6"><a xlink:href="vec3_8hpp.html" target="_top" xlink:title="Custom 3D vector class for points, colours and rays.">
<polygon fill="white" stroke="black" points="95,-112.5 95,-131.5 156,-131.5 156,-112.5 95,-112.5"/>
<text text-anchor="middle" x="125.5" y="-119.5" font-family="Helvetica,sans-Serif" font-size="10.00">vec3.hpp</text>
</a>
</g>
</g>
<!-- Node5&#45;&gt;Node6 -->
<g id="edge5" class="edge">
<title>Node5&#45;&gt;Node6</title>
<path fill="none" stroke="midnightblue" d="M125.5,-168.08C125.5,-161.01 125.5,-150.86 125.5,-141.99"/>
<polygon fill="midnightblue" stroke="midnightblue" points="129,-141.75 125.5,-131.75 122,-141.75 129,-141.75"/>
</g>
<!-- Node7 -->
<g id="node7" class="node">
<title>Node7</title>
<g id="a_node7"><a xlink:title=" ">
<polygon fill="white" stroke="#bfbfbf" points="53.5,-56.5 53.5,-75.5 113.5,-75.5 113.5,-56.5 53.5,-56.5"/>
<text text-anchor="middle" x="83.5" y="-63.5" font-family="Helvetica,sans-Serif" font-size="10.00">iostream</text>
</a>
</g>
</g>
<!-- Node6&#45;&gt;Node7 -->
<g id="edge6" class="edge">
<title>Node6&#45;&gt;Node7</title>
<path fill="none" stroke="midnightblue" d="M118.56,-112.08C112.57,-104.38 103.75,-93.03 96.45,-83.65"/>
<polygon fill="midnightblue" stroke="midnightblue" points="99.21,-81.5 90.31,-75.75 93.68,-85.79 99.21,-81.5"/>
</g>
<!-- Node8 -->
<g id="node8" class="node">
<title>Node8</title>
<g id="a_node8"><a xlink:href="utilities_8hpp.html" target="_top" xlink:title="All the random functionality I am too lazy to organize elsewhere.">
<polygon fill="white" stroke="black" points="131.5,-56.5 131.5,-75.5 205.5,-75.5 205.5,-56.5 131.5,-56.5"/>
<text text-anchor="middle" x="168.5" y="-63.5" font-family="Helvetica,sans-Serif" font-size="10.00">utilities.hpp</text>
</a>
</g>
</g>
<!-- Node6&#45;&gt;Node8 -->
<g id="edge7" class="edge">
<title>Node6&#45;&gt;Node8</title>
<path fill="none" stroke="midnightblue" d="M132.6,-112.08C138.74,-104.38 147.77,-93.03 155.24,-83.65"/>
<polygon fill="midnightblue" stroke="midnightblue" points="158.04,-85.75 161.53,-75.75 152.56,-81.39 158.04,-85.75"/>
</g>
<!-- Node9 -->
<g id="node9" class="node">
<title>Node9</title>
<g id="a_node9"><a xlink:title=" ">
<polygon fill="white" stroke="#bfbfbf" points="14,-0.5 14,-19.5 61,-19.5 61,-0.5 14,-0.5"/>
<text text-anchor="middle" x="37.5" y="-7.5" font-family="Helvetica,sans-Serif" font-size="10.00">cmath</text>
</a>
</g>
</g>
<!-- Node8&#45;&gt;Node9 -->
<g id="edge8" class="edge">
<title>Node8&#45;&gt;Node9</title>
<path fill="none" stroke="midnightblue" d="M147.74,-56.44C126.18,-47.56 92.24,-33.56 67.71,-23.45"/>
<polygon fill="midnightblue" stroke="midnightblue" points="68.74,-20.09 58.16,-19.52 66.07,-26.56 68.74,-20.09"/>
</g>
<!-- Node10 -->
<g id="node10" class="node">
<title>Node10</title>
<g id="a_node10"><a xlink:title=" ">
<polygon fill="white" stroke="#bfbfbf" points="79,-0.5 79,-19.5 128,-19.5 128,-0.5 79,-0.5"/>
<text text-anchor="middle" x="103.5" y="-7.5" font-family="Helvetica,sans-Serif" font-size="10.00">cstdlib</text>
</a>
</g>
</g>
<!-- Node8&#45;&gt;Node10 -->
<g id="edge9" class="edge">
<title>Node8&#45;&gt;Node10</title>
<path fill="none" stroke="midnightblue" d="M158.06,-56.32C148.35,-48.26 133.68,-36.08 122,-26.37"/>
<polygon fill="midnightblue" stroke="midnightblue" points="124.06,-23.53 114.13,-19.83 119.59,-28.92 124.06,-23.53"/>
</g>
<!-- Node11 -->
<g id="node11" class="node">
<title>Node11</title>
<g id="a_node11"><a xlink:title=" ">
<polygon fill="white" stroke="#bfbfbf" points="146.5,-0.5 146.5,-19.5 190.5,-19.5 190.5,-0.5 146.5,-0.5"/>
<text text-anchor="middle" x="168.5" y="-7.5" font-family="Helvetica,sans-Serif" font-size="10.00">limits</text>
</a>
</g>
</g>
<!-- Node8&#45;&gt;Node11 -->
<g id="edge10" class="edge">
<title>Node8&#45;&gt;Node11</title>
<path fill="none" stroke="midnightblue" d="M168.5,-56.08C168.5,-49.01 168.5,-38.86 168.5,-29.99"/>
<polygon fill="midnightblue" stroke="midnightblue" points="172,-29.75 168.5,-19.75 165,-29.75 172,-29.75"/>
</g>
<!-- Node12 -->
<g id="node12" class="node">
<title>Node12</title>
<g id="a_node12"><a xlink:title=" ">
<polygon fill="white" stroke="#bfbfbf" points="208.5,-0.5 208.5,-19.5 266.5,-19.5 266.5,-0.5 208.5,-0.5"/>
<text text-anchor="middle" x="237.5" y="-7.5" font-family="Helvetica,sans-Serif" font-size="10.00">memory</text>
</a>
</g>
</g>
<!-- Node8&#45;&gt;Node12 -->
<g id="edge11" class="edge">
<title>Node8&#45;&gt;Node12</title>
<path fill="none" stroke="midnightblue" d="M179.59,-56.32C189.99,-48.18 205.76,-35.84 218.22,-26.09"/>
<polygon fill="midnightblue" stroke="midnightblue" points="220.49,-28.75 226.21,-19.83 216.18,-23.24 220.49,-28.75"/>
</g>
<!-- Node13 -->
<g id="node13" class="node">
<title>Node13</title>
<g id="a_node13"><a xlink:title=" ">
<polygon fill="white" stroke="#bfbfbf" points="285,-0.5 285,-19.5 332,-19.5 332,-0.5 285,-0.5"/>
<text text-anchor="middle" x="308.5" y="-7.5" font-family="Helvetica,sans-Serif" font-size="10.00">vector</text>
</a>
</g>
</g>
<!-- Node8&#45;&gt;Node13 -->
<g id="edge12" class="edge">
<title>Node8&#45;&gt;Node13</title>
<path fill="none" stroke="midnightblue" d="M190.68,-56.44C213.93,-47.48 250.65,-33.31 276.92,-23.18"/>
<polygon fill="midnightblue" stroke="midnightblue" points="278.35,-26.38 286.42,-19.52 275.83,-19.85 278.35,-26.38"/>
</g>
</g>
</svg>
