<?xml version="1.0" encoding="UTF-8" standalone="no"?>
<!DOCTYPE svg PUBLIC "-//W3C//DTD SVG 1.1//EN"
 "http://www.w3.org/Graphics/SVG/1.1/DTD/svg11.dtd">
<!-- Generated by graphviz version 2.43.0 (0)
 -->
<!-- Title: include/utilities.hpp Pages: 1 -->
<!--zoomable 509 -->
<svg id="main" version="1.1" xmlns="http://www.w3.org/2000/svg" xmlns:xlink="http://www.w3.org/1999/xlink" xml:space="preserve" onload="init(evt)">
<style type="text/css"><![CDATA[
.edge:hover path { stroke: red; }
.edge:hover polygon { stroke: red; fill: red; }
]]></style>
<script type="text/javascript"><![CDATA[
var edges = document.getElementsByTagName('g');
if (edges && edges.length) {
  for (var i=0;i<edges.length;i++) {
    if (edges[i].id.substr(0,4)=='edge') {
      edges[i].setAttribute('class','edge');
    }
  }
}
]]></script>
        <defs>
                <circle id="rim" cx="0" cy="0" r="7"/>
                <circle id="rim2" cx="0" cy="0" r="3.5"/>
                <g id="zoomPlus">
                        <use xlink:href="#rim" fill="#404040">
                                <set attributeName="fill" to="#808080" begin="zoomplus.mouseover" end="zoomplus.mouseout"/>
                        </use>
                        <path d="M-4,0h8M0,-4v8" fill="none" stroke="white" stroke-width="1.5" pointer-events="none"/>
                </g>
                <g id="zoomMin">
                        <use xlink:href="#rim" fill="#404040">
                                <set attributeName="fill" to="#808080" begin="zoomminus.mouseover" end="zoomminus.mouseout"/>
                        </use>
                        <path d="M-4,0h8" fill="none" stroke="white" stroke-width="1.5" pointer-events="none"/>
                </g>
                <g id="dirArrow">
                        <path fill="none" stroke="white" stroke-width="1.5" d="M0,-3.0v7 M-2.5,-0.5L0,-3.0L2.5,-0.5"/>
                </g>
               <g id="resetDef">
                       <use xlink:href="#rim2" fill="#404040">
                               <set attributeName="fill" to="#808080" begin="reset.mouseover" end="reset.mouseout"/>
                       </use>
               </g>
        </defs>

<script type="text/javascript">
var viewWidth = 2285;
var viewHeight = 509;
var sectionId = 'dynsection-1';
</script>
<script xlink:href="svgpan.js"/>
<svg id="graph" class="graph">
<g id="viewport">
<title>include/utilities.hpp</title>
<polygon fill="white" stroke="transparent" points="-4,4 -4,-505 2281,-505 2281,4 -4,4"/>
<!-- Node1 -->
<g id="node1" class="node">
<title>Node1</title>
<g id="a_node1"><a xlink:title="All the random functionality I am too lazy to organize elsewhere.">
<polygon fill="#bfbfbf" stroke="black" points="1921.5,-481.5 1921.5,-500.5 2034.5,-500.5 2034.5,-481.5 1921.5,-481.5"/>
<text text-anchor="middle" x="1978" y="-488.5" font-family="Helvetica,sans-Serif" font-size="10.00">include/utilities.hpp</text>
</a>
</g>
</g>
<!-- Node2 -->
<g id="node2" class="node">
<title>Node2</title>
<g id="a_node2"><a xlink:href="vec3_8hpp.html" target="_top" xlink:title="Custom 3D vector class for points, colours and rays.">
<polygon fill="white" stroke="black" points="1928.5,-425.5 1928.5,-444.5 2027.5,-444.5 2027.5,-425.5 1928.5,-425.5"/>
<text text-anchor="middle" x="1978" y="-432.5" font-family="Helvetica,sans-Serif" font-size="10.00">include/vec3.hpp</text>
</a>
</g>
</g>
<!-- Node1&#45;&gt;Node2 -->
<g id="edge1" class="edge">
<title>Node1&#45;&gt;Node2</title>
<path fill="none" stroke="midnightblue" d="M1978,-470.8C1978,-461.91 1978,-451.78 1978,-444.75"/>
<polygon fill="midnightblue" stroke="midnightblue" points="1974.5,-471.08 1978,-481.08 1981.5,-471.08 1974.5,-471.08"/>
</g>
<!-- Node3 -->
<g id="node3" class="node">
<title>Node3</title>
<g id="a_node3"><a xlink:href="config__parser_8hpp.html" target="_top" xlink:title="Configuration parser for render and camera settings.">
<polygon fill="white" stroke="black" points="2137,-369.5 2137,-388.5 2277,-388.5 2277,-369.5 2137,-369.5"/>
<text text-anchor="middle" x="2207" y="-376.5" font-family="Helvetica,sans-Serif" font-size="10.00">include/config_parser.hpp</text>
</a>
</g>
</g>
<!-- Node2&#45;&gt;Node3 -->
<g id="edge2" class="edge">
<title>Node2&#45;&gt;Node3</title>
<path fill="none" stroke="midnightblue" d="M2024.27,-423.09C2067.54,-412.89 2131.26,-397.86 2170.88,-388.52"/>
<polygon fill="midnightblue" stroke="midnightblue" points="2023.22,-419.74 2014.29,-425.44 2024.82,-426.55 2023.22,-419.74"/>
</g>
<!-- Node5 -->
<g id="node5" class="node">
<title>Node5</title>
<g id="a_node5"><a xlink:href="ray_8hpp.html" target="_top" xlink:title="The ray object for our tracing algorithm.">
<polygon fill="white" stroke="black" points="1841.5,-369.5 1841.5,-388.5 1966.5,-388.5 1966.5,-369.5 1841.5,-369.5"/>
<text text-anchor="middle" x="1904" y="-376.5" font-family="Helvetica,sans-Serif" font-size="10.00">include/render/ray.hpp</text>
</a>
</g>
</g>
<!-- Node2&#45;&gt;Node5 -->
<g id="edge4" class="edge">
<title>Node2&#45;&gt;Node5</title>
<path fill="none" stroke="midnightblue" d="M1957.97,-419.38C1944.59,-409.62 1927.44,-397.11 1916.11,-388.83"/>
<polygon fill="midnightblue" stroke="midnightblue" points="1955.97,-422.26 1966.11,-425.32 1960.1,-416.6 1955.97,-422.26"/>
</g>
<!-- Node30 -->
<g id="node30" class="node">
<title>Node30</title>
<g id="a_node30"><a xlink:href="color_8hpp.html" target="_top" xlink:title="Wrapper file for color writing.">
<polygon fill="white" stroke="black" points="1985,-369.5 1985,-388.5 2119,-388.5 2119,-369.5 1985,-369.5"/>
<text text-anchor="middle" x="2052" y="-376.5" font-family="Helvetica,sans-Serif" font-size="10.00">include/render/color.hpp</text>
</a>
</g>
</g>
<!-- Node2&#45;&gt;Node30 -->
<g id="edge68" class="edge">
<title>Node2&#45;&gt;Node30</title>
<path fill="none" stroke="midnightblue" d="M1998.03,-419.38C2011.41,-409.62 2028.56,-397.11 2039.89,-388.83"/>
<polygon fill="midnightblue" stroke="midnightblue" points="1995.9,-416.6 1989.89,-425.32 2000.03,-422.26 1995.9,-416.6"/>
</g>
<!-- Node31 -->
<g id="node31" class="node">
<title>Node31</title>
<g id="a_node31"><a xlink:href="texture_8hpp.html" target="_top" xlink:title="Bass class for textures.">
<polygon fill="white" stroke="black" points="1720.5,-308 1720.5,-327 1875.5,-327 1875.5,-308 1720.5,-308"/>
<text text-anchor="middle" x="1798" y="-315" font-family="Helvetica,sans-Serif" font-size="10.00">include/textures/texture.hpp</text>
</a>
</g>
</g>
<!-- Node2&#45;&gt;Node31 -->
<g id="edge70" class="edge">
<title>Node2&#45;&gt;Node31</title>
<path fill="none" stroke="midnightblue" d="M1918.5,-426.94C1889.65,-420.91 1856.11,-409.73 1832,-389 1812.63,-372.34 1803.37,-342.13 1799.82,-327.25"/>
<polygon fill="midnightblue" stroke="midnightblue" points="1918.01,-430.41 1928.49,-428.87 1919.33,-423.54 1918.01,-430.41"/>
</g>
<!-- Node4 -->
<g id="node4" class="node">
<title>Node4</title>
<g id="a_node4"><a xlink:href="main_8cpp.html" target="_top" xlink:title="Main file for Serial ray tracer project.">
<polygon fill="white" stroke="black" points="1490,-0.5 1490,-19.5 1552,-19.5 1552,-0.5 1490,-0.5"/>
<text text-anchor="middle" x="1521" y="-7.5" font-family="Helvetica,sans-Serif" font-size="10.00">main.cpp</text>
</a>
</g>
</g>
<!-- Node3&#45;&gt;Node4 -->
<g id="edge3" class="edge">
<title>Node3&#45;&gt;Node4</title>
<path fill="none" stroke="midnightblue" d="M2207,-359.44C2207,-335.69 2207,-293.29 2207,-257 2207,-257 2207,-257 2207,-137.5 2207,-85.48 2170.44,-77.33 2123,-56 2019.52,-9.48 1660.51,-9.46 1552.18,-10.56"/>
<polygon fill="midnightblue" stroke="midnightblue" points="2203.5,-359.49 2207,-369.49 2210.5,-359.49 2203.5,-359.49"/>
</g>
<!-- Node6 -->
<g id="node6" class="node">
<title>Node6</title>
<g id="a_node6"><a xlink:href="material_8hpp.html" target="_top" xlink:title="Base class for materials.">
<polygon fill="white" stroke="black" points="1580.5,-246.5 1580.5,-265.5 1747.5,-265.5 1747.5,-246.5 1580.5,-246.5"/>
<text text-anchor="middle" x="1664" y="-253.5" font-family="Helvetica,sans-Serif" font-size="10.00">include/materials/material.hpp</text>
</a>
</g>
</g>
<!-- Node5&#45;&gt;Node6 -->
<g id="edge5" class="edge">
<title>Node5&#45;&gt;Node6</title>
<path fill="none" stroke="midnightblue" d="M1904.32,-359.19C1903.54,-341.87 1899.53,-316.69 1884,-302 1864.32,-283.38 1801.15,-271.71 1747.52,-264.94"/>
<polygon fill="midnightblue" stroke="midnightblue" points="1900.82,-359.3 1904.45,-369.25 1907.82,-359.21 1900.82,-359.3"/>
</g>
<!-- Node17 -->
<g id="node17" class="node">
<title>Node17</title>
<g id="a_node17"><a xlink:href="bounding__box_8hpp.html" target="_top" xlink:title="Bounding box object, used to compute BVH tree.">
<polygon fill="white" stroke="black" points="1459,-302.5 1459,-332.5 1597,-332.5 1597,-302.5 1459,-302.5"/>
<text text-anchor="start" x="1467" y="-320.5" font-family="Helvetica,sans-Serif" font-size="10.00">include/objects/bounding</text>
<text text-anchor="middle" x="1528" y="-309.5" font-family="Helvetica,sans-Serif" font-size="10.00">_box.hpp</text>
</a>
</g>
</g>
<!-- Node5&#45;&gt;Node17 -->
<g id="edge32" class="edge">
<title>Node5&#45;&gt;Node17</title>
<path fill="none" stroke="midnightblue" d="M1840.05,-367.88C1772.54,-357.2 1666.49,-340.42 1597.1,-329.43"/>
<polygon fill="midnightblue" stroke="midnightblue" points="1839.7,-371.37 1850.13,-369.48 1840.8,-364.46 1839.7,-371.37"/>
</g>
<!-- Node29 -->
<g id="node29" class="node">
<title>Node29</title>
<g id="a_node29"><a xlink:href="camera_8hpp.html" target="_top" xlink:title="Camera object to render scene from.">
<polygon fill="white" stroke="black" points="1963.5,-308 1963.5,-327 2110.5,-327 2110.5,-308 1963.5,-308"/>
<text text-anchor="middle" x="2037" y="-315" font-family="Helvetica,sans-Serif" font-size="10.00">include/render/camera.hpp</text>
</a>
</g>
</g>
<!-- Node5&#45;&gt;Node29 -->
<g id="edge66" class="edge">
<title>Node5&#45;&gt;Node29</title>
<path fill="none" stroke="midnightblue" d="M1932.33,-365.33C1958.15,-353.78 1995.58,-337.03 2017.98,-327.01"/>
<polygon fill="midnightblue" stroke="midnightblue" points="1930.75,-362.2 1923.06,-369.48 1933.61,-368.59 1930.75,-362.2"/>
</g>
<!-- Node7 -->
<g id="node7" class="node">
<title>Node7</title>
<g id="a_node7"><a xlink:href="diffuse_8hpp.html" target="_top" xlink:title="Object for diffuse (random) scattering. Subclass of material.">
<polygon fill="white" stroke="black" points="1279,-129 1279,-148 1437,-148 1437,-129 1279,-129"/>
<text text-anchor="middle" x="1358" y="-136" font-family="Helvetica,sans-Serif" font-size="10.00">include/materials/diffuse.hpp</text>
</a>
</g>
</g>
<!-- Node6&#45;&gt;Node7 -->
<g id="edge6" class="edge">
<title>Node6&#45;&gt;Node7</title>
<path fill="none" stroke="midnightblue" d="M1634.71,-242.56C1602.77,-229.12 1550.04,-207.3 1504,-190 1462.32,-174.34 1413.31,-157.75 1383.99,-148.03"/>
<polygon fill="midnightblue" stroke="midnightblue" points="1633.35,-245.78 1643.93,-246.45 1636.08,-239.33 1633.35,-245.78"/>
</g>
<!-- Node12 -->
<g id="node12" class="node">
<title>Node12</title>
<g id="a_node12"><a xlink:href="diffuse__light_8hpp.html" target="_top" xlink:title="Emissive diffuse light material.">
<polygon fill="white" stroke="black" points="771.5,-123.5 771.5,-153.5 908.5,-153.5 908.5,-123.5 771.5,-123.5"/>
<text text-anchor="start" x="779.5" y="-141.5" font-family="Helvetica,sans-Serif" font-size="10.00">include/materials/diffuse</text>
<text text-anchor="middle" x="840" y="-130.5" font-family="Helvetica,sans-Serif" font-size="10.00">_light.hpp</text>
</a>
</g>
</g>
<!-- Node6&#45;&gt;Node12 -->
<g id="edge14" class="edge">
<title>Node6&#45;&gt;Node12</title>
<path fill="none" stroke="midnightblue" d="M1611.83,-244.11C1579.94,-236.53 1538.75,-225.08 1504,-210 1488.27,-203.17 1487.36,-195.15 1471,-190 1236.06,-116.05 1162.39,-184.56 918,-154 914.99,-153.62 911.93,-153.21 908.83,-152.75"/>
<polygon fill="midnightblue" stroke="midnightblue" points="1611.3,-247.58 1621.83,-246.43 1612.88,-240.76 1611.3,-247.58"/>
</g>
<!-- Node13 -->
<g id="node13" class="node">
<title>Node13</title>
<g id="a_node13"><a xlink:href="glass_8hpp.html" target="_top" xlink:title="A glass object that refracts/reflects using Snell&#39;s Law.">
<polygon fill="white" stroke="black" points="1777.5,-129 1777.5,-148 1928.5,-148 1928.5,-129 1777.5,-129"/>
<text text-anchor="middle" x="1853" y="-136" font-family="Helvetica,sans-Serif" font-size="10.00">include/materials/glass.hpp</text>
</a>
</g>
</g>
<!-- Node6&#45;&gt;Node13 -->
<g id="edge18" class="edge">
<title>Node6&#45;&gt;Node13</title>
<path fill="none" stroke="midnightblue" d="M1686.89,-241.01C1726.45,-216.83 1806.47,-167.93 1838.89,-148.12"/>
<polygon fill="midnightblue" stroke="midnightblue" points="1684.91,-238.12 1678.21,-246.32 1688.56,-244.09 1684.91,-238.12"/>
</g>
<!-- Node14 -->
<g id="node14" class="node">
<title>Node14</title>
<g id="a_node14"><a xlink:href="isotropic_8hpp.html" target="_top" xlink:title="Isotropic fog material.">
<polygon fill="white" stroke="black" points="1295.5,-190.5 1295.5,-209.5 1462.5,-209.5 1462.5,-190.5 1295.5,-190.5"/>
<text text-anchor="middle" x="1379" y="-197.5" font-family="Helvetica,sans-Serif" font-size="10.00">include/materials/isotropic.hpp</text>
</a>
</g>
</g>
<!-- Node6&#45;&gt;Node14 -->
<g id="edge23" class="edge">
<title>Node6&#45;&gt;Node14</title>
<path fill="none" stroke="midnightblue" d="M1608.78,-244.54C1554.92,-234.33 1474,-219 1423.95,-209.52"/>
<polygon fill="midnightblue" stroke="midnightblue" points="1608.36,-248.02 1618.84,-246.44 1609.67,-241.14 1608.36,-248.02"/>
</g>
<!-- Node16 -->
<g id="node16" class="node">
<title>Node16</title>
<g id="a_node16"><a xlink:href="metal_8hpp.html" target="_top" xlink:title="Reflective surface, with additional fuzzy scattering.">
<polygon fill="white" stroke="black" points="1605,-129 1605,-148 1759,-148 1759,-129 1605,-129"/>
<text text-anchor="middle" x="1682" y="-136" font-family="Helvetica,sans-Serif" font-size="10.00">include/materials/metal.hpp</text>
</a>
</g>
</g>
<!-- Node6&#45;&gt;Node16 -->
<g id="edge27" class="edge">
<title>Node6&#45;&gt;Node16</title>
<path fill="none" stroke="midnightblue" d="M1666.94,-236.16C1670.88,-210.87 1677.72,-166.94 1680.63,-148.28"/>
<polygon fill="midnightblue" stroke="midnightblue" points="1663.43,-235.9 1665.35,-246.32 1670.35,-236.98 1663.43,-235.9"/>
</g>
<!-- Node8 -->
<g id="node8" class="node">
<title>Node8</title>
<g id="a_node8"><a xlink:href="comb__scene_8hpp.html" target="_top" xlink:title="Header file for Combined scene example (unfinished)">
<polygon fill="white" stroke="black" points="932.5,-56.5 932.5,-86.5 1051.5,-86.5 1051.5,-56.5 932.5,-56.5"/>
<text text-anchor="start" x="940.5" y="-74.5" font-family="Helvetica,sans-Serif" font-size="10.00">include/scenes/comb</text>
<text text-anchor="middle" x="992" y="-63.5" font-family="Helvetica,sans-Serif" font-size="10.00">_scene.hpp</text>
</a>
</g>
</g>
<!-- Node7&#45;&gt;Node8 -->
<g id="edge7" class="edge">
<title>Node7&#45;&gt;Node8</title>
<path fill="none" stroke="midnightblue" d="M1299.67,-127.14C1231.71,-115.07 1120.04,-95.24 1051.56,-83.08"/>
<polygon fill="midnightblue" stroke="midnightblue" points="1299.32,-130.63 1309.78,-128.94 1300.54,-123.74 1299.32,-130.63"/>
</g>
<!-- Node9 -->
<g id="node9" class="node">
<title>Node9</title>
<g id="a_node9"><a xlink:href="cornell__box_8hpp.html" target="_top" xlink:title="Header file for cornell box scene examples (unfinished)">
<polygon fill="white" stroke="black" points="1086.5,-56.5 1086.5,-86.5 1211.5,-86.5 1211.5,-56.5 1086.5,-56.5"/>
<text text-anchor="start" x="1094.5" y="-74.5" font-family="Helvetica,sans-Serif" font-size="10.00">include/scenes/cornell</text>
<text text-anchor="middle" x="1149" y="-63.5" font-family="Helvetica,sans-Serif" font-size="10.00">_box.hpp</text>
</a>
</g>
</g>
<!-- Node7&#45;&gt;Node9 -->
<g id="edge8" class="edge">
<title>Node7&#45;&gt;Node9</title>
<path fill="none" stroke="midnightblue" d="M1320.3,-125.77C1284.86,-114.75 1231.78,-98.24 1194.11,-86.53"/>
<polygon fill="midnightblue" stroke="midnightblue" points="1319.66,-129.24 1330.25,-128.87 1321.74,-122.56 1319.66,-129.24"/>
</g>
<!-- Node10 -->
<g id="node10" class="node">
<title>Node10</title>
<g id="a_node10"><a xlink:href="light__scene_8hpp.html" target="_top" xlink:title="Header file for light scene example (unfinished)">
<polygon fill="white" stroke="black" points="1313.5,-56.5 1313.5,-86.5 1426.5,-86.5 1426.5,-56.5 1313.5,-56.5"/>
<text text-anchor="start" x="1321.5" y="-74.5" font-family="Helvetica,sans-Serif" font-size="10.00">include/scenes/light</text>
<text text-anchor="middle" x="1370" y="-63.5" font-family="Helvetica,sans-Serif" font-size="10.00">_scene.hpp</text>
</a>
</g>
</g>
<!-- Node7&#45;&gt;Node10 -->
<g id="edge10" class="edge">
<title>Node7&#45;&gt;Node10</title>
<path fill="none" stroke="midnightblue" d="M1361.46,-118.74C1363.36,-108.49 1365.66,-96 1367.4,-86.59"/>
<polygon fill="midnightblue" stroke="midnightblue" points="1357.99,-118.26 1359.62,-128.73 1364.88,-119.54 1357.99,-118.26"/>
</g>
<!-- Node11 -->
<g id="node11" class="node">
<title>Node11</title>
<g id="a_node11"><a xlink:href="random__scene_8hpp.html" target="_top" xlink:title="Header file for random scene example (unfinished)">
<polygon fill="white" stroke="black" points="1456.5,-56.5 1456.5,-86.5 1585.5,-86.5 1585.5,-56.5 1456.5,-56.5"/>
<text text-anchor="start" x="1464.5" y="-74.5" font-family="Helvetica,sans-Serif" font-size="10.00">include/scenes/random</text>
<text text-anchor="middle" x="1521" y="-63.5" font-family="Helvetica,sans-Serif" font-size="10.00">_scene.hpp</text>
</a>
</g>
</g>
<!-- Node7&#45;&gt;Node11 -->
<g id="edge12" class="edge">
<title>Node7&#45;&gt;Node11</title>
<path fill="none" stroke="midnightblue" d="M1389.2,-125.06C1416.81,-114.05 1457.07,-97.99 1485.82,-86.53"/>
<polygon fill="midnightblue" stroke="midnightblue" points="1387.64,-121.91 1379.65,-128.87 1390.23,-128.42 1387.64,-121.91"/>
</g>
<!-- Node9&#45;&gt;Node4 -->
<g id="edge9" class="edge">
<title>Node9&#45;&gt;Node4</title>
<path fill="none" stroke="midnightblue" d="M1221.87,-58.84C1303.32,-45.82 1431.44,-25.32 1489.97,-15.96"/>
<polygon fill="midnightblue" stroke="midnightblue" points="1221.01,-55.44 1211.68,-60.47 1222.11,-62.35 1221.01,-55.44"/>
</g>
<!-- Node10&#45;&gt;Node4 -->
<g id="edge11" class="edge">
<title>Node10&#45;&gt;Node4</title>
<path fill="none" stroke="midnightblue" d="M1415.28,-52.66C1442.97,-41.75 1477.17,-28.27 1499.03,-19.66"/>
<polygon fill="midnightblue" stroke="midnightblue" points="1413.81,-49.48 1405.78,-56.4 1416.37,-55.99 1413.81,-49.48"/>
</g>
<!-- Node11&#45;&gt;Node4 -->
<g id="edge13" class="edge">
<title>Node11&#45;&gt;Node4</title>
<path fill="none" stroke="midnightblue" d="M1521,-46.29C1521,-36.86 1521,-26.65 1521,-19.66"/>
<polygon fill="midnightblue" stroke="midnightblue" points="1517.5,-46.4 1521,-56.4 1524.5,-46.4 1517.5,-46.4"/>
</g>
<!-- Node12&#45;&gt;Node8 -->
<g id="edge15" class="edge">
<title>Node12&#45;&gt;Node8</title>
<path fill="none" stroke="midnightblue" d="M882.31,-119.41C906.58,-109.03 936.59,-96.2 959.08,-86.58"/>
<polygon fill="midnightblue" stroke="midnightblue" points="880.8,-116.25 872.98,-123.4 883.55,-122.68 880.8,-116.25"/>
</g>
<!-- Node12&#45;&gt;Node9 -->
<g id="edge16" class="edge">
<title>Node12&#45;&gt;Node9</title>
<path fill="none" stroke="midnightblue" d="M916.57,-121.39C968.89,-110.39 1037.35,-95.99 1086.4,-85.67"/>
<polygon fill="midnightblue" stroke="midnightblue" points="915.73,-117.99 906.67,-123.48 917.17,-124.84 915.73,-117.99"/>
</g>
<!-- Node12&#45;&gt;Node10 -->
<g id="edge17" class="edge">
<title>Node12&#45;&gt;Node10</title>
<path fill="none" stroke="midnightblue" d="M918.76,-122.98C1008.91,-110.18 1213.59,-88.62 1313.43,-78.3"/>
<polygon fill="midnightblue" stroke="midnightblue" points="918.25,-119.52 908.86,-124.42 919.26,-126.44 918.25,-119.52"/>
</g>
<!-- Node13&#45;&gt;Node8 -->
<g id="edge19" class="edge">
<title>Node13&#45;&gt;Node8</title>
<path fill="none" stroke="midnightblue" d="M1798.95,-127.31C1788.7,-125.65 1778.04,-124.11 1768,-123 1462.35,-89.09 1382.65,-120.91 1077,-87 1068.82,-86.09 1060.23,-84.9 1051.78,-83.6"/>
<polygon fill="midnightblue" stroke="midnightblue" points="1798.58,-130.79 1809.02,-128.99 1799.74,-123.89 1798.58,-130.79"/>
</g>
<!-- Node13&#45;&gt;Node9 -->
<g id="edge20" class="edge">
<title>Node13&#45;&gt;Node9</title>
<path fill="none" stroke="midnightblue" d="M1797.59,-127.29C1787.75,-125.7 1777.59,-124.19 1768,-123 1562.73,-97.58 1510.09,-104.63 1304,-87 1273.57,-84.4 1239.8,-81.27 1211.58,-78.58"/>
<polygon fill="midnightblue" stroke="midnightblue" points="1797.24,-130.78 1807.68,-128.98 1798.39,-123.88 1797.24,-130.78"/>
</g>
<!-- Node13&#45;&gt;Node10 -->
<g id="edge21" class="edge">
<title>Node13&#45;&gt;Node10</title>
<path fill="none" stroke="midnightblue" d="M1795.9,-127.3C1786.59,-125.77 1777.04,-124.28 1768,-123 1625.85,-102.92 1588.97,-108.3 1447,-87 1440.41,-86.01 1433.52,-84.87 1426.69,-83.67"/>
<polygon fill="midnightblue" stroke="midnightblue" points="1795.43,-130.77 1805.87,-128.97 1796.58,-123.86 1795.43,-130.77"/>
</g>
<!-- Node13&#45;&gt;Node11 -->
<g id="edge22" class="edge">
<title>Node13&#45;&gt;Node11</title>
<path fill="none" stroke="midnightblue" d="M1799.14,-126.96C1740.84,-115.54 1647.88,-97.34 1585.67,-85.16"/>
<polygon fill="midnightblue" stroke="midnightblue" points="1798.77,-130.45 1809.26,-128.94 1800.11,-123.58 1798.77,-130.45"/>
</g>
<!-- Node15 -->
<g id="node15" class="node">
<title>Node15</title>
<g id="a_node15"><a xlink:href="iso__fog_8hpp.html" target="_top" xlink:title="Isotropically scattering fog object.">
<polygon fill="white" stroke="black" points="646.5,-123.5 646.5,-153.5 753.5,-153.5 753.5,-123.5 646.5,-123.5"/>
<text text-anchor="start" x="654.5" y="-141.5" font-family="Helvetica,sans-Serif" font-size="10.00">include/objects/iso</text>
<text text-anchor="middle" x="700" y="-130.5" font-family="Helvetica,sans-Serif" font-size="10.00">_fog.hpp</text>
</a>
</g>
</g>
<!-- Node14&#45;&gt;Node15 -->
<g id="edge24" class="edge">
<title>Node14&#45;&gt;Node15</title>
<path fill="none" stroke="midnightblue" d="M1285.45,-196.74C1164.13,-192.77 946.21,-182.08 762,-154 759.27,-153.58 756.48,-153.11 753.67,-152.59"/>
<polygon fill="midnightblue" stroke="midnightblue" points="1285.35,-200.24 1295.46,-197.06 1285.57,-193.24 1285.35,-200.24"/>
</g>
<!-- Node15&#45;&gt;Node8 -->
<g id="edge25" class="edge">
<title>Node15&#45;&gt;Node8</title>
<path fill="none" stroke="midnightblue" d="M763.82,-122.6C826.48,-108.44 888.28,-94.92 932.38,-85.36"/>
<polygon fill="midnightblue" stroke="midnightblue" points="762.74,-119.26 753.76,-124.88 764.28,-126.08 762.74,-119.26"/>
</g>
<!-- Node15&#45;&gt;Node9 -->
<g id="edge26" class="edge">
<title>Node15&#45;&gt;Node9</title>
<path fill="none" stroke="midnightblue" d="M763.74,-122.8C895.12,-100.05 931.14,-105.27 1060,-87 1068.53,-85.79 1077.5,-84.43 1086.33,-83.04"/>
<polygon fill="midnightblue" stroke="midnightblue" points="762.94,-119.39 753.69,-124.56 764.15,-126.28 762.94,-119.39"/>
</g>
<!-- Node16&#45;&gt;Node8 -->
<g id="edge28" class="edge">
<title>Node16&#45;&gt;Node8</title>
<path fill="none" stroke="midnightblue" d="M1626.6,-127.34C1616.45,-125.71 1605.92,-124.18 1596,-123 1366.39,-95.75 1306.58,-114.48 1077,-87 1068.82,-86.02 1060.24,-84.79 1051.8,-83.47"/>
<polygon fill="midnightblue" stroke="midnightblue" points="1626.16,-130.82 1636.59,-128.99 1627.3,-123.91 1626.16,-130.82"/>
</g>
<!-- Node16&#45;&gt;Node9 -->
<g id="edge29" class="edge">
<title>Node16&#45;&gt;Node9</title>
<path fill="none" stroke="midnightblue" d="M1624.22,-127.31C1614.8,-125.78 1605.14,-124.29 1596,-123 1459.31,-103.77 1298.29,-87.02 1211.69,-78.49"/>
<polygon fill="midnightblue" stroke="midnightblue" points="1623.87,-130.8 1634.31,-128.98 1625.01,-123.9 1623.87,-130.8"/>
</g>
<!-- Node16&#45;&gt;Node10 -->
<g id="edge30" class="edge">
<title>Node16&#45;&gt;Node10</title>
<path fill="none" stroke="midnightblue" d="M1630.81,-126.84C1574.64,-115.13 1484.74,-96.4 1426.53,-84.28"/>
<polygon fill="midnightblue" stroke="midnightblue" points="1630.39,-130.32 1640.89,-128.94 1631.81,-123.47 1630.39,-130.32"/>
</g>
<!-- Node16&#45;&gt;Node11 -->
<g id="edge31" class="edge">
<title>Node16&#45;&gt;Node11</title>
<path fill="none" stroke="midnightblue" d="M1651.18,-125.06C1623.91,-114.05 1584.14,-97.99 1555.75,-86.53"/>
<polygon fill="midnightblue" stroke="midnightblue" points="1650.04,-128.37 1660.62,-128.87 1652.66,-121.88 1650.04,-128.37"/>
</g>
<!-- Node18 -->
<g id="node18" class="node">
<title>Node18</title>
<g id="a_node18"><a xlink:href="bvh_8hpp.html" target="_top" xlink:title="Class for our Bounding Volume Hierarchy. Acts as both tree and root.">
<polygon fill="white" stroke="black" points="1455,-129 1455,-148 1587,-148 1587,-129 1455,-129"/>
<text text-anchor="middle" x="1521" y="-136" font-family="Helvetica,sans-Serif" font-size="10.00">include/objects/bvh.hpp</text>
</a>
</g>
</g>
<!-- Node17&#45;&gt;Node18 -->
<g id="edge33" class="edge">
<title>Node17&#45;&gt;Node18</title>
<path fill="none" stroke="midnightblue" d="M1527.04,-292.12C1525.46,-252.16 1522.39,-174.56 1521.35,-148.37"/>
<polygon fill="midnightblue" stroke="midnightblue" points="1523.55,-292.46 1527.44,-302.31 1530.54,-292.18 1523.55,-292.46"/>
</g>
<!-- Node19 -->
<g id="node19" class="node">
<title>Node19</title>
<g id="a_node19"><a xlink:href="hit_8hpp.html" target="_top" xlink:title="Abstract object that can be hit by a ray.">
<polygon fill="white" stroke="black" points="617.5,-246.5 617.5,-265.5 744.5,-265.5 744.5,-246.5 617.5,-246.5"/>
<text text-anchor="middle" x="681" y="-253.5" font-family="Helvetica,sans-Serif" font-size="10.00">include/objects/hit.hpp</text>
</a>
</g>
</g>
<!-- Node17&#45;&gt;Node19 -->
<g id="edge38" class="edge">
<title>Node17&#45;&gt;Node19</title>
<path fill="none" stroke="midnightblue" d="M1448.48,-310.91C1281.38,-299.18 896.66,-272.15 744.56,-261.46"/>
<polygon fill="midnightblue" stroke="midnightblue" points="1448.47,-314.42 1458.69,-311.63 1448.96,-307.44 1448.47,-314.42"/>
</g>
<!-- Node18&#45;&gt;Node8 -->
<g id="edge34" class="edge">
<title>Node18&#45;&gt;Node8</title>
<path fill="none" stroke="midnightblue" d="M1470.74,-127.11C1462.49,-125.6 1454.02,-124.16 1446,-123 1282.93,-99.34 1240.32,-108.87 1077,-87 1068.84,-85.91 1060.26,-84.61 1051.82,-83.26"/>
<polygon fill="midnightblue" stroke="midnightblue" points="1470.16,-130.56 1480.64,-128.98 1471.46,-123.68 1470.16,-130.56"/>
</g>
<!-- Node18&#45;&gt;Node9 -->
<g id="edge35" class="edge">
<title>Node18&#45;&gt;Node9</title>
<path fill="none" stroke="midnightblue" d="M1467.89,-127.08C1460.54,-125.68 1453.09,-124.29 1446,-123 1365.21,-108.32 1271.81,-92.65 1211.65,-82.73"/>
<polygon fill="midnightblue" stroke="midnightblue" points="1467.32,-130.53 1477.8,-128.98 1468.64,-123.66 1467.32,-130.53"/>
</g>
<!-- Node18&#45;&gt;Node10 -->
<g id="edge36" class="edge">
<title>Node18&#45;&gt;Node10</title>
<path fill="none" stroke="midnightblue" d="M1491.76,-124.91C1466.19,-113.91 1429.1,-97.94 1402.59,-86.53"/>
<polygon fill="midnightblue" stroke="midnightblue" points="1490.38,-128.13 1500.95,-128.87 1493.15,-121.7 1490.38,-128.13"/>
</g>
<!-- Node18&#45;&gt;Node11 -->
<g id="edge37" class="edge">
<title>Node18&#45;&gt;Node11</title>
<path fill="none" stroke="midnightblue" d="M1521,-118.41C1521,-108.22 1521,-95.9 1521,-86.59"/>
<polygon fill="midnightblue" stroke="midnightblue" points="1517.5,-118.73 1521,-128.73 1524.5,-118.73 1517.5,-118.73"/>
</g>
<!-- Node19&#45;&gt;Node15 -->
<g id="edge47" class="edge">
<title>Node19&#45;&gt;Node15</title>
<path fill="none" stroke="midnightblue" d="M684.06,-236.38C687.87,-213.26 694.27,-174.32 697.69,-153.55"/>
<polygon fill="midnightblue" stroke="midnightblue" points="680.6,-235.88 682.43,-246.32 687.5,-237.02 680.6,-235.88"/>
</g>
<!-- Node20 -->
<g id="node20" class="node">
<title>Node20</title>
<g id="a_node20"><a xlink:href="rectangle_8hpp.html" target="_top" xlink:title="Rectangular plane object to be rendered.">
<polygon fill="white" stroke="black" points="728,-190.5 728,-209.5 888,-209.5 888,-190.5 728,-190.5"/>
<text text-anchor="middle" x="808" y="-197.5" font-family="Helvetica,sans-Serif" font-size="10.00">include/objects/rectangle.hpp</text>
</a>
</g>
</g>
<!-- Node19&#45;&gt;Node20 -->
<g id="edge39" class="edge">
<title>Node19&#45;&gt;Node20</title>
<path fill="none" stroke="midnightblue" d="M710.39,-242.5C734.2,-232.38 767.11,-218.39 787.97,-209.52"/>
<polygon fill="midnightblue" stroke="midnightblue" points="708.96,-239.31 701.12,-246.44 711.7,-245.75 708.96,-239.31"/>
</g>
<!-- Node22 -->
<g id="node22" class="node">
<title>Node22</title>
<g id="a_node22"><a xlink:href="hit__list_8hpp.html" target="_top" xlink:title="List of hittable objects.">
<polygon fill="white" stroke="black" points="0,-123.5 0,-153.5 106,-153.5 106,-123.5 0,-123.5"/>
<text text-anchor="start" x="8" y="-141.5" font-family="Helvetica,sans-Serif" font-size="10.00">include/objects/hit</text>
<text text-anchor="middle" x="53" y="-130.5" font-family="Helvetica,sans-Serif" font-size="10.00">_list.hpp</text>
</a>
</g>
</g>
<!-- Node19&#45;&gt;Node22 -->
<g id="edge44" class="edge">
<title>Node19&#45;&gt;Node22</title>
<path fill="none" stroke="midnightblue" d="M607.45,-252.8C520.58,-248.95 372.19,-238.45 248,-210 188.52,-196.37 122.32,-169.88 84.37,-153.54"/>
<polygon fill="midnightblue" stroke="midnightblue" points="607.33,-256.29 617.47,-253.22 607.63,-249.3 607.33,-256.29"/>
</g>
<!-- Node23 -->
<g id="node23" class="node">
<title>Node23</title>
<g id="a_node23"><a xlink:href="moving__sphere_8hpp.html" target="_top" xlink:title="Sphere object moving, for motion blur.">
<polygon fill="white" stroke="black" points="927,-123.5 927,-153.5 1057,-153.5 1057,-123.5 927,-123.5"/>
<text text-anchor="start" x="935" y="-141.5" font-family="Helvetica,sans-Serif" font-size="10.00">include/objects/moving</text>
<text text-anchor="middle" x="992" y="-130.5" font-family="Helvetica,sans-Serif" font-size="10.00">_sphere.hpp</text>
</a>
</g>
</g>
<!-- Node19&#45;&gt;Node23 -->
<g id="edge48" class="edge">
<title>Node19&#45;&gt;Node23</title>
<path fill="none" stroke="midnightblue" d="M754.77,-247.66C797.69,-241.45 852.03,-230.19 897,-210 928.48,-195.87 959.55,-169.92 977.2,-153.76"/>
<polygon fill="midnightblue" stroke="midnightblue" points="754.1,-244.22 744.67,-249.06 755.06,-251.15 754.1,-244.22"/>
</g>
<!-- Node24 -->
<g id="node24" class="node">
<title>Node24</title>
<g id="a_node24"><a xlink:href="sphere_8hpp.html" target="_top" xlink:title="Sphere object to be rendered.">
<polygon fill="white" stroke="black" points="1075.5,-129 1075.5,-148 1222.5,-148 1222.5,-129 1075.5,-129"/>
<text text-anchor="middle" x="1149" y="-136" font-family="Helvetica,sans-Serif" font-size="10.00">include/objects/sphere.hpp</text>
</a>
</g>
</g>
<!-- Node19&#45;&gt;Node24 -->
<g id="edge53" class="edge">
<title>Node19&#45;&gt;Node24</title>
<path fill="none" stroke="midnightblue" d="M749.86,-244.89C799.69,-236.98 868.45,-224.86 928,-210 1001.27,-191.72 1085.76,-162.4 1125.74,-148.02"/>
<polygon fill="midnightblue" stroke="midnightblue" points="749.18,-241.45 739.84,-246.46 750.26,-248.37 749.18,-241.45"/>
</g>
<!-- Node25 -->
<g id="node25" class="node">
<title>Node25</title>
<g id="a_node25"><a xlink:href="translation_8hpp.html" target="_top" xlink:title="Class for translation of a hittable object.">
<polygon fill="white" stroke="black" points="306.5,-129 306.5,-148 473.5,-148 473.5,-129 306.5,-129"/>
<text text-anchor="middle" x="390" y="-136" font-family="Helvetica,sans-Serif" font-size="10.00">include/objects/translation.hpp</text>
</a>
</g>
</g>
<!-- Node19&#45;&gt;Node25 -->
<g id="edge58" class="edge">
<title>Node19&#45;&gt;Node25</title>
<path fill="none" stroke="midnightblue" d="M674.74,-236.55C668.7,-221.65 658.1,-201.35 642,-190 626.02,-178.74 513.82,-159.23 444.63,-148.04"/>
<polygon fill="midnightblue" stroke="midnightblue" points="671.57,-238.08 678.33,-246.24 678.14,-235.65 671.57,-238.08"/>
</g>
<!-- Node26 -->
<g id="node26" class="node">
<title>Node26</title>
<g id="a_node26"><a xlink:href="x__rotation_8hpp.html" target="_top" xlink:title="Class for rotation of object around the x axis.">
<polygon fill="white" stroke="black" points="288,-190.5 288,-209.5 452,-209.5 452,-190.5 288,-190.5"/>
<text text-anchor="middle" x="370" y="-197.5" font-family="Helvetica,sans-Serif" font-size="10.00">include/objects/x_rotation.hpp</text>
</a>
</g>
</g>
<!-- Node19&#45;&gt;Node26 -->
<g id="edge61" class="edge">
<title>Node19&#45;&gt;Node26</title>
<path fill="none" stroke="midnightblue" d="M621.84,-244.73C563.07,-234.52 474,-219.06 419.05,-209.52"/>
<polygon fill="midnightblue" stroke="midnightblue" points="621.27,-248.18 631.72,-246.44 622.47,-241.28 621.27,-248.18"/>
</g>
<!-- Node27 -->
<g id="node27" class="node">
<title>Node27</title>
<g id="a_node27"><a xlink:href="y__rotation_8hpp.html" target="_top" xlink:title="Class for rotation of object around the y axis.">
<polygon fill="white" stroke="black" points="124,-129 124,-148 288,-148 288,-129 124,-129"/>
<text text-anchor="middle" x="206" y="-136" font-family="Helvetica,sans-Serif" font-size="10.00">include/objects/y_rotation.hpp</text>
</a>
</g>
</g>
<!-- Node19&#45;&gt;Node27 -->
<g id="edge62" class="edge">
<title>Node19&#45;&gt;Node27</title>
<path fill="none" stroke="midnightblue" d="M607.35,-252.41C507.6,-247.96 335.52,-236.59 279,-210 248.71,-195.75 223.17,-163.82 212.01,-148.3"/>
<polygon fill="midnightblue" stroke="midnightblue" points="607.22,-255.91 617.36,-252.85 607.53,-248.92 607.22,-255.91"/>
</g>
<!-- Node28 -->
<g id="node28" class="node">
<title>Node28</title>
<g id="a_node28"><a xlink:href="z__rotation_8hpp.html" target="_top" xlink:title="Class for rotation of object around the z axis.">
<polygon fill="white" stroke="black" points="470.5,-190.5 470.5,-209.5 633.5,-209.5 633.5,-190.5 470.5,-190.5"/>
<text text-anchor="middle" x="552" y="-197.5" font-family="Helvetica,sans-Serif" font-size="10.00">include/objects/z_rotation.hpp</text>
</a>
</g>
</g>
<!-- Node19&#45;&gt;Node28 -->
<g id="edge65" class="edge">
<title>Node19&#45;&gt;Node28</title>
<path fill="none" stroke="midnightblue" d="M651.15,-242.5C626.96,-232.38 593.54,-218.39 572.34,-209.52"/>
<polygon fill="midnightblue" stroke="midnightblue" points="649.98,-245.81 660.56,-246.44 652.69,-239.35 649.98,-245.81"/>
</g>
<!-- Node20&#45;&gt;Node10 -->
<g id="edge43" class="edge">
<title>Node20&#45;&gt;Node10</title>
<path fill="none" stroke="midnightblue" d="M898.09,-195.3C1003.97,-189.94 1172.66,-177.9 1231,-154 1251.49,-145.61 1251.35,-134.94 1270,-123 1291.78,-109.05 1317.92,-95.96 1338.01,-86.61"/>
<polygon fill="midnightblue" stroke="midnightblue" points="897.86,-191.81 888.04,-195.8 898.2,-198.8 897.86,-191.81"/>
</g>
<!-- Node21 -->
<g id="node21" class="node">
<title>Node21</title>
<g id="a_node21"><a xlink:href="cube_8hpp.html" target="_top" xlink:title="Cube object made of rectangles.">
<polygon fill="white" stroke="black" points="491.5,-129 491.5,-148 628.5,-148 628.5,-129 491.5,-129"/>
<text text-anchor="middle" x="560" y="-136" font-family="Helvetica,sans-Serif" font-size="10.00">include/objects/cube.hpp</text>
</a>
</g>
</g>
<!-- Node20&#45;&gt;Node21 -->
<g id="edge40" class="edge">
<title>Node20&#45;&gt;Node21</title>
<path fill="none" stroke="midnightblue" d="M762.63,-188.11C714.49,-176.57 639.45,-158.56 595.47,-148.01"/>
<polygon fill="midnightblue" stroke="midnightblue" points="761.93,-191.55 772.47,-190.48 763.56,-184.74 761.93,-191.55"/>
</g>
<!-- Node21&#45;&gt;Node8 -->
<g id="edge41" class="edge">
<title>Node21&#45;&gt;Node8</title>
<path fill="none" stroke="midnightblue" d="M613.4,-127.12C621.3,-125.68 629.36,-124.26 637,-123 740.49,-105.9 861.54,-89.43 932.2,-80.17"/>
<polygon fill="midnightblue" stroke="midnightblue" points="612.71,-123.69 603.51,-128.95 613.98,-130.58 612.71,-123.69"/>
</g>
<!-- Node21&#45;&gt;Node9 -->
<g id="edge42" class="edge">
<title>Node21&#45;&gt;Node9</title>
<path fill="none" stroke="midnightblue" d="M611.02,-127.14C619.67,-125.6 628.57,-124.15 637,-123 823.95,-97.51 872.75,-110.19 1060,-87 1068.55,-85.94 1077.53,-84.67 1086.36,-83.32"/>
<polygon fill="midnightblue" stroke="midnightblue" points="610.24,-123.73 601.03,-128.98 611.5,-130.61 610.24,-123.73"/>
</g>
<!-- Node22&#45;&gt;Node4 -->
<g id="edge46" class="edge">
<title>Node22&#45;&gt;Node4</title>
<path fill="none" stroke="midnightblue" d="M116.41,-122.92C472.7,-67.25 567.11,-84.15 923,-56 1139.92,-38.85 1401.23,-19.71 1489.87,-13.26"/>
<polygon fill="midnightblue" stroke="midnightblue" points="115.67,-119.49 106.34,-124.5 116.76,-126.41 115.67,-119.49"/>
</g>
<!-- Node22&#45;&gt;Node8 -->
<g id="edge45" class="edge">
<title>Node22&#45;&gt;Node8</title>
<path fill="none" stroke="midnightblue" d="M116.47,-123C292.34,-99.34 764.85,-80.68 932.27,-74.6"/>
<polygon fill="midnightblue" stroke="midnightblue" points="115.74,-119.56 106.32,-124.41 116.71,-126.5 115.74,-119.56"/>
</g>
<!-- Node23&#45;&gt;Node8 -->
<g id="edge49" class="edge">
<title>Node23&#45;&gt;Node8</title>
<path fill="none" stroke="midnightblue" d="M992,-113.11C992,-104.15 992,-94.32 992,-86.58"/>
<polygon fill="midnightblue" stroke="midnightblue" points="988.5,-113.4 992,-123.4 995.5,-113.4 988.5,-113.4"/>
</g>
<!-- Node23&#45;&gt;Node9 -->
<g id="edge50" class="edge">
<title>Node23&#45;&gt;Node9</title>
<path fill="none" stroke="midnightblue" d="M1035.37,-119.54C1060.49,-109.14 1091.66,-96.24 1115,-86.58"/>
<polygon fill="midnightblue" stroke="midnightblue" points="1033.97,-116.34 1026.07,-123.4 1036.64,-122.8 1033.97,-116.34"/>
</g>
<!-- Node23&#45;&gt;Node10 -->
<g id="edge51" class="edge">
<title>Node23&#45;&gt;Node10</title>
<path fill="none" stroke="midnightblue" d="M1067.36,-122.78C1159.07,-106.28 1254.35,-90.8 1313.33,-81.41"/>
<polygon fill="midnightblue" stroke="midnightblue" points="1066.57,-119.37 1057.35,-124.59 1067.81,-126.26 1066.57,-119.37"/>
</g>
<!-- Node23&#45;&gt;Node11 -->
<g id="edge52" class="edge">
<title>Node23&#45;&gt;Node11</title>
<path fill="none" stroke="midnightblue" d="M1067.23,-122.91C1230.75,-99.49 1274.85,-108.29 1435,-87 1441.9,-86.08 1449.1,-85.03 1456.27,-83.91"/>
<polygon fill="midnightblue" stroke="midnightblue" points="1066.71,-119.45 1057.31,-124.35 1067.71,-126.38 1066.71,-119.45"/>
</g>
<!-- Node24&#45;&gt;Node8 -->
<g id="edge54" class="edge">
<title>Node24&#45;&gt;Node8</title>
<path fill="none" stroke="midnightblue" d="M1118.6,-124.91C1092.01,-113.91 1053.45,-97.94 1025.88,-86.53"/>
<polygon fill="midnightblue" stroke="midnightblue" points="1117.57,-128.28 1128.15,-128.87 1120.25,-121.81 1117.57,-128.28"/>
</g>
<!-- Node24&#45;&gt;Node9 -->
<g id="edge55" class="edge">
<title>Node24&#45;&gt;Node9</title>
<path fill="none" stroke="midnightblue" d="M1149,-118.41C1149,-108.22 1149,-95.9 1149,-86.59"/>
<polygon fill="midnightblue" stroke="midnightblue" points="1145.5,-118.73 1149,-128.73 1152.5,-118.73 1145.5,-118.73"/>
</g>
<!-- Node24&#45;&gt;Node10 -->
<g id="edge56" class="edge">
<title>Node24&#45;&gt;Node10</title>
<path fill="none" stroke="midnightblue" d="M1188.38,-125.92C1225.86,-114.9 1282.3,-98.29 1322.3,-86.53"/>
<polygon fill="midnightblue" stroke="midnightblue" points="1186.95,-122.69 1178.35,-128.87 1188.93,-129.4 1186.95,-122.69"/>
</g>
<!-- Node24&#45;&gt;Node11 -->
<g id="edge57" class="edge">
<title>Node24&#45;&gt;Node11</title>
<path fill="none" stroke="midnightblue" d="M1208.09,-127.18C1275.76,-115.35 1386.28,-96.04 1456.24,-83.82"/>
<polygon fill="midnightblue" stroke="midnightblue" points="1207.26,-123.77 1198.02,-128.94 1208.47,-130.66 1207.26,-123.77"/>
</g>
<!-- Node25&#45;&gt;Node8 -->
<g id="edge59" class="edge">
<title>Node25&#45;&gt;Node8</title>
<path fill="none" stroke="midnightblue" d="M450.47,-127.46C460.97,-125.86 471.79,-124.31 482,-123 644.38,-102.18 836.81,-85.2 932.2,-77.3"/>
<polygon fill="midnightblue" stroke="midnightblue" points="449.89,-124.01 440.54,-129 450.96,-130.93 449.89,-124.01"/>
</g>
<!-- Node25&#45;&gt;Node9 -->
<g id="edge60" class="edge">
<title>Node25&#45;&gt;Node9</title>
<path fill="none" stroke="midnightblue" d="M448.6,-127.42C459.67,-125.75 471.17,-124.19 482,-123 737.85,-94.93 804.22,-115.73 1060,-87 1068.56,-86.04 1077.54,-84.82 1086.38,-83.5"/>
<polygon fill="midnightblue" stroke="midnightblue" points="447.93,-123.98 438.59,-128.97 449,-130.9 447.93,-123.98"/>
</g>
<!-- Node27&#45;&gt;Node8 -->
<g id="edge63" class="edge">
<title>Node27&#45;&gt;Node8</title>
<path fill="none" stroke="midnightblue" d="M264.67,-127.4C275.41,-125.76 286.52,-124.21 297,-123 531.34,-95.87 811.93,-80.77 932.34,-75.11"/>
<polygon fill="midnightblue" stroke="midnightblue" points="263.88,-123.98 254.54,-128.98 264.96,-130.89 263.88,-123.98"/>
</g>
<!-- Node27&#45;&gt;Node9 -->
<g id="edge64" class="edge">
<title>Node27&#45;&gt;Node9</title>
<path fill="none" stroke="midnightblue" d="M263.2,-127.39C274.38,-125.7 286.03,-124.13 297,-123 634.7,-88.24 722.36,-122.35 1060,-87 1068.56,-86.1 1077.56,-84.92 1086.4,-83.62"/>
<polygon fill="midnightblue" stroke="midnightblue" points="262.44,-123.97 253.1,-128.98 263.52,-130.89 262.44,-123.97"/>
</g>
<!-- Node29&#45;&gt;Node4 -->
<g id="edge67" class="edge">
<title>Node29&#45;&gt;Node4</title>
<path fill="none" stroke="midnightblue" d="M2060.12,-302.14C2087.95,-282.86 2131,-245.79 2131,-201 2131,-201 2131,-201 2131,-137.5 2131,-17.99 1676.39,-10.55 1552.09,-10.75"/>
<polygon fill="midnightblue" stroke="midnightblue" points="2058.06,-299.3 2051.69,-307.76 2061.95,-305.12 2058.06,-299.3"/>
</g>
<!-- Node30&#45;&gt;Node4 -->
<g id="edge69" class="edge">
<title>Node30&#45;&gt;Node4</title>
<path fill="none" stroke="midnightblue" d="M2079.7,-364.7C2114.3,-345.92 2169,-308.15 2169,-257 2169,-257 2169,-257 2169,-137.5 2169,-81.53 2124.71,-77.41 2073,-56 1977.72,-16.54 1654.57,-11.62 1552.3,-11.05"/>
<polygon fill="midnightblue" stroke="midnightblue" points="2077.78,-361.75 2070.54,-369.48 2081.02,-367.96 2077.78,-361.75"/>
</g>
<!-- Node32 -->
<g id="node32" class="node">
<title>Node32</title>
<g id="a_node32"><a xlink:href="checker_8hpp.html" target="_top" xlink:title="Two color checkered texture.">
<polygon fill="white" stroke="black" points="1947,-129 1947,-148 2103,-148 2103,-129 1947,-129"/>
<text text-anchor="middle" x="2025" y="-136" font-family="Helvetica,sans-Serif" font-size="10.00">include/textures/checker.hpp</text>
</a>
</g>
</g>
<!-- Node31&#45;&gt;Node32 -->
<g id="edge71" class="edge">
<title>Node31&#45;&gt;Node32</title>
<path fill="none" stroke="midnightblue" d="M1816.86,-301.79C1862.47,-266.23 1977.64,-176.43 2013.9,-148.16"/>
<polygon fill="midnightblue" stroke="midnightblue" points="1814.68,-299.05 1808.95,-307.96 1818.99,-304.57 1814.68,-299.05"/>
</g>
<!-- Node33 -->
<g id="node33" class="node">
<title>Node33</title>
<g id="a_node33"><a xlink:href="solid_8hpp.html" target="_top" xlink:title="Solid one color texture.">
<polygon fill="white" stroke="black" points="1252.5,-246.5 1252.5,-265.5 1395.5,-265.5 1395.5,-246.5 1252.5,-246.5"/>
<text text-anchor="middle" x="1324" y="-253.5" font-family="Helvetica,sans-Serif" font-size="10.00">include/textures/solid.hpp</text>
</a>
</g>
</g>
<!-- Node31&#45;&gt;Node33 -->
<g id="edge76" class="edge">
<title>Node31&#45;&gt;Node33</title>
<path fill="none" stroke="midnightblue" d="M1720.06,-306.72C1628.64,-295.24 1478.58,-276.4 1391.79,-265.51"/>
<polygon fill="midnightblue" stroke="midnightblue" points="1719.73,-310.2 1730.09,-307.98 1720.6,-303.26 1719.73,-310.2"/>
</g>
<!-- Node32&#45;&gt;Node8 -->
<g id="edge72" class="edge">
<title>Node32&#45;&gt;Node8</title>
<path fill="none" stroke="midnightblue" d="M1969.73,-127.34C1958.91,-125.65 1947.62,-124.09 1937,-123 1556.45,-83.83 1457.43,-127.25 1077,-87 1068.81,-86.13 1060.22,-84.97 1051.77,-83.68"/>
<polygon fill="midnightblue" stroke="midnightblue" points="1969.49,-130.85 1979.92,-128.99 1970.61,-123.94 1969.49,-130.85"/>
</g>
<!-- Node32&#45;&gt;Node9 -->
<g id="edge73" class="edge">
<title>Node32&#45;&gt;Node9</title>
<path fill="none" stroke="midnightblue" d="M1969,-127.36C1958.4,-125.7 1947.38,-124.15 1937,-123 1656.92,-92.05 1584.99,-108.13 1304,-87 1273.55,-84.71 1239.78,-81.62 1211.55,-78.88"/>
<polygon fill="midnightblue" stroke="midnightblue" points="1968.57,-130.83 1979,-128.97 1969.69,-123.92 1968.57,-130.83"/>
</g>
<!-- Node32&#45;&gt;Node10 -->
<g id="edge74" class="edge">
<title>Node32&#45;&gt;Node10</title>
<path fill="none" stroke="midnightblue" d="M1967.95,-127.33C1957.67,-125.72 1947.03,-124.19 1937,-123 1720.16,-97.22 1663.53,-115.25 1447,-87 1440.39,-86.14 1433.49,-85.07 1426.65,-83.92"/>
<polygon fill="midnightblue" stroke="midnightblue" points="1967.64,-130.83 1978.07,-128.96 1968.76,-123.92 1967.64,-130.83"/>
</g>
<!-- Node32&#45;&gt;Node11 -->
<g id="edge75" class="edge">
<title>Node32&#45;&gt;Node11</title>
<path fill="none" stroke="midnightblue" d="M1965.16,-127.29C1955.75,-125.78 1946.12,-124.3 1937,-123 1812.95,-105.26 1667.5,-88.53 1585.61,-79.48"/>
<polygon fill="midnightblue" stroke="midnightblue" points="1964.83,-130.78 1975.26,-128.93 1965.95,-123.87 1964.83,-130.78"/>
</g>
<!-- Node33&#45;&gt;Node7 -->
<g id="edge77" class="edge">
<title>Node33&#45;&gt;Node7</title>
<path fill="none" stroke="midnightblue" d="M1304.87,-239.43C1291.32,-226.41 1277.03,-207.26 1286,-190 1296.5,-169.82 1319.17,-156.02 1336.28,-148.01"/>
<polygon fill="midnightblue" stroke="midnightblue" points="1302.79,-242.27 1312.58,-246.32 1307.46,-237.05 1302.79,-242.27"/>
</g>
<!-- Node33&#45;&gt;Node12 -->
<g id="edge78" class="edge">
<title>Node33&#45;&gt;Node12</title>
<path fill="none" stroke="midnightblue" d="M1278.04,-244.03C1189.76,-222.97 996.61,-176.87 898.98,-153.58"/>
<polygon fill="midnightblue" stroke="midnightblue" points="1277.48,-247.5 1288.02,-246.41 1279.1,-240.69 1277.48,-247.5"/>
</g>
<!-- Node33&#45;&gt;Node14 -->
<g id="edge79" class="edge">
<title>Node33&#45;&gt;Node14</title>
<path fill="none" stroke="midnightblue" d="M1340.29,-239C1350.04,-229.43 1362.05,-217.64 1370.09,-209.75"/>
<polygon fill="midnightblue" stroke="midnightblue" points="1337.77,-236.58 1333.08,-246.08 1342.67,-241.57 1337.77,-236.58"/>
</g>
</g>
</svg>
        <g id="navigator" transform="translate(0 0)" fill="#404254">
                <rect fill="#f2f5e9" fill-opacity="0.5" stroke="#606060" stroke-width=".5" x="0" y="0" width="60" height="60"/>
                <use id="zoomplus" xlink:href="#zoomPlus" x="17" y="9" onmousedown="handleZoom(evt,'in')"/>
                <use id="zoomminus" xlink:href="#zoomMin" x="42" y="9" onmousedown="handleZoom(evt,'out')"/>
                <use id="reset" xlink:href="#resetDef" x="30" y="36" onmousedown="handleReset()"/>
                <g id="arrowUp" xlink:href="#dirArrow" transform="translate(30 24)" onmousedown="handlePan(0,-1)">
                  <use xlink:href="#rim" fill="#404040">
                        <set attributeName="fill" to="#808080" begin="arrowUp.mouseover" end="arrowUp.mouseout"/>
                  </use>
                  <path fill="none" stroke="white" stroke-width="1.5" d="M0,-3.0v7 M-2.5,-0.5L0,-3.0L2.5,-0.5"/>
                </g>
                <g id="arrowRight" xlink:href="#dirArrow" transform="rotate(90) translate(36 -43)" onmousedown="handlePan(1,0)">
                  <use xlink:href="#rim" fill="#404040">
                        <set attributeName="fill" to="#808080" begin="arrowRight.mouseover" end="arrowRight.mouseout"/>
                  </use>
                  <path fill="none" stroke="white" stroke-width="1.5" d="M0,-3.0v7 M-2.5,-0.5L0,-3.0L2.5,-0.5"/>
                </g>
                <g id="arrowDown" xlink:href="#dirArrow" transform="rotate(180) translate(-30 -48)" onmousedown="handlePan(0,1)">
                  <use xlink:href="#rim" fill="#404040">
                        <set attributeName="fill" to="#808080" begin="arrowDown.mouseover" end="arrowDown.mouseout"/>
                  </use>
                  <path fill="none" stroke="white" stroke-width="1.5" d="M0,-3.0v7 M-2.5,-0.5L0,-3.0L2.5,-0.5"/>
                </g>
                <g id="arrowLeft" xlink:href="#dirArrow" transform="rotate(270) translate(-36 17)" onmousedown="handlePan(-1,0)">
                  <use xlink:href="#rim" fill="#404040">
                        <set attributeName="fill" to="#808080" begin="arrowLeft.mouseover" end="arrowLeft.mouseout"/>
                  </use>
                  <path fill="none" stroke="white" stroke-width="1.5" d="M0,-3.0v7 M-2.5,-0.5L0,-3.0L2.5,-0.5"/>
                </g>
        </g>
        <svg viewBox="0 0 15 15" width="100%" height="30px" preserveAspectRatio="xMaxYMin meet">
         <g id="arrow_out" transform="scale(0.3 0.3)">
          <a xlink:href="utilities_8hpp__dep__incl_org.svg" target="_base">
           <rect id="button" ry="5" rx="5" y="6" x="6" height="38" width="38"
                fill="#f2f5e9" fill-opacity="0.5" stroke="#606060" stroke-width="1.0"/>
           <path id="arrow"
             d="M 11.500037,31.436501 C 11.940474,20.09759 22.043105,11.32322 32.158766,21.979434 L 37.068811,17.246167 C 37.068811,17.246167 37.088388,32 37.088388,32 L 22.160133,31.978069 C 22.160133,31.978069 26.997745,27.140456 26.997745,27.140456 C 18.528582,18.264221 13.291696,25.230495 11.500037,31.436501 z"
             style="fill:#404040;"/>
          </a>
         </g>
        </svg>
</svg>
