<?xml version="1.0" encoding="UTF-8" standalone="no"?>
<!DOCTYPE svg PUBLIC "-//W3C//DTD SVG 1.1//EN"
 "http://www.w3.org/Graphics/SVG/1.1/DTD/svg11.dtd">
<!-- Generated by graphviz version 2.43.0 (0)
 -->
<!-- Title: include/objects/y_rotation.hpp Pages: 1 -->
<svg width="339pt" height="364pt"
 viewBox="0.00 0.00 338.50 364.00" xmlns="http://www.w3.org/2000/svg" xmlns:xlink="http://www.w3.org/1999/xlink">
<g id="graph0" class="graph" transform="scale(1 1) rotate(0) translate(4 360)">
<title>include/objects/y_rotation.hpp</title>
<polygon fill="white" stroke="transparent" points="-4,4 -4,-360 334.5,-360 334.5,4 -4,4"/>
<!-- Node1 -->
<g id="node1" class="node">
<title>Node1</title>
<g id="a_node1"><a xlink:title="Class for rotation of object around the y axis.">
<polygon fill="#bfbfbf" stroke="black" points="0,-336.5 0,-355.5 164,-355.5 164,-336.5 0,-336.5"/>
<text text-anchor="middle" x="82" y="-343.5" font-family="Helvetica,sans-Serif" font-size="10.00">include/objects/y_rotation.hpp</text>
</a>
</g>
</g>
<!-- Node2 -->
<g id="node2" class="node">
<title>Node2</title>
<g id="a_node2"><a xlink:href="hit_8hpp.html" target="_top" xlink:title="Abstract object that can be hit by a ray.">
<polygon fill="white" stroke="black" points="57,-280.5 57,-299.5 107,-299.5 107,-280.5 57,-280.5"/>
<text text-anchor="middle" x="82" y="-287.5" font-family="Helvetica,sans-Serif" font-size="10.00">hit.hpp</text>
</a>
</g>
</g>
<!-- Node1&#45;&gt;Node2 -->
<g id="edge1" class="edge">
<title>Node1&#45;&gt;Node2</title>
<path fill="none" stroke="midnightblue" d="M82,-336.08C82,-329.01 82,-318.86 82,-309.99"/>
<polygon fill="midnightblue" stroke="midnightblue" points="85.5,-309.75 82,-299.75 78.5,-309.75 85.5,-309.75"/>
</g>
<!-- Node3 -->
<g id="node3" class="node">
<title>Node3</title>
<g id="a_node3"><a xlink:href="bounding__box_8hpp.html" target="_top" xlink:title="Bounding box object, used to compute BVH tree.">
<polygon fill="white" stroke="black" points="29,-224.5 29,-243.5 135,-243.5 135,-224.5 29,-224.5"/>
<text text-anchor="middle" x="82" y="-231.5" font-family="Helvetica,sans-Serif" font-size="10.00">bounding_box.hpp</text>
</a>
</g>
</g>
<!-- Node2&#45;&gt;Node3 -->
<g id="edge2" class="edge">
<title>Node2&#45;&gt;Node3</title>
<path fill="none" stroke="midnightblue" d="M82,-280.08C82,-273.01 82,-262.86 82,-253.99"/>
<polygon fill="midnightblue" stroke="midnightblue" points="85.5,-253.75 82,-243.75 78.5,-253.75 85.5,-253.75"/>
</g>
<!-- Node4 -->
<g id="node4" class="node">
<title>Node4</title>
<g id="a_node4"><a xlink:title=" ">
<polygon fill="white" stroke="#bfbfbf" points="17.5,-168.5 17.5,-187.5 62.5,-187.5 62.5,-168.5 17.5,-168.5"/>
<text text-anchor="middle" x="40" y="-175.5" font-family="Helvetica,sans-Serif" font-size="10.00">utility</text>
</a>
</g>
</g>
<!-- Node3&#45;&gt;Node4 -->
<g id="edge3" class="edge">
<title>Node3&#45;&gt;Node4</title>
<path fill="none" stroke="midnightblue" d="M75.06,-224.08C69.07,-216.38 60.25,-205.03 52.95,-195.65"/>
<polygon fill="midnightblue" stroke="midnightblue" points="55.71,-193.5 46.81,-187.75 50.18,-197.79 55.71,-193.5"/>
</g>
<!-- Node5 -->
<g id="node5" class="node">
<title>Node5</title>
<g id="a_node5"><a xlink:href="ray_8hpp.html" target="_top" xlink:title="The ray object for our tracing algorithm.">
<polygon fill="white" stroke="black" points="81,-168.5 81,-187.5 167,-187.5 167,-168.5 81,-168.5"/>
<text text-anchor="middle" x="124" y="-175.5" font-family="Helvetica,sans-Serif" font-size="10.00">render/ray.hpp</text>
</a>
</g>
</g>
<!-- Node3&#45;&gt;Node5 -->
<g id="edge4" class="edge">
<title>Node3&#45;&gt;Node5</title>
<path fill="none" stroke="midnightblue" d="M88.94,-224.08C94.93,-216.38 103.75,-205.03 111.05,-195.65"/>
<polygon fill="midnightblue" stroke="midnightblue" points="113.82,-197.79 117.19,-187.75 108.29,-193.5 113.82,-197.79"/>
</g>
<!-- Node6 -->
<g id="node6" class="node">
<title>Node6</title>
<g id="a_node6"><a xlink:href="vec3_8hpp.html" target="_top" xlink:title="Custom 3D vector class for points, colours and rays.">
<polygon fill="white" stroke="black" points="93.5,-112.5 93.5,-131.5 154.5,-131.5 154.5,-112.5 93.5,-112.5"/>
<text text-anchor="middle" x="124" y="-119.5" font-family="Helvetica,sans-Serif" font-size="10.00">vec3.hpp</text>
</a>
</g>
</g>
<!-- Node5&#45;&gt;Node6 -->
<g id="edge5" class="edge">
<title>Node5&#45;&gt;Node6</title>
<path fill="none" stroke="midnightblue" d="M124,-168.08C124,-161.01 124,-150.86 124,-141.99"/>
<polygon fill="midnightblue" stroke="midnightblue" points="127.5,-141.75 124,-131.75 120.5,-141.75 127.5,-141.75"/>
</g>
<!-- Node7 -->
<g id="node7" class="node">
<title>Node7</title>
<g id="a_node7"><a xlink:title=" ">
<polygon fill="white" stroke="#bfbfbf" points="52,-56.5 52,-75.5 112,-75.5 112,-56.5 52,-56.5"/>
<text text-anchor="middle" x="82" y="-63.5" font-family="Helvetica,sans-Serif" font-size="10.00">iostream</text>
</a>
</g>
</g>
<!-- Node6&#45;&gt;Node7 -->
<g id="edge6" class="edge">
<title>Node6&#45;&gt;Node7</title>
<path fill="none" stroke="midnightblue" d="M117.06,-112.08C111.07,-104.38 102.25,-93.03 94.95,-83.65"/>
<polygon fill="midnightblue" stroke="midnightblue" points="97.71,-81.5 88.81,-75.75 92.18,-85.79 97.71,-81.5"/>
</g>
<!-- Node8 -->
<g id="node8" class="node">
<title>Node8</title>
<g id="a_node8"><a xlink:href="utilities_8hpp.html" target="_top" xlink:title="All the random functionality I am too lazy to organize elsewhere.">
<polygon fill="white" stroke="black" points="130,-56.5 130,-75.5 204,-75.5 204,-56.5 130,-56.5"/>
<text text-anchor="middle" x="167" y="-63.5" font-family="Helvetica,sans-Serif" font-size="10.00">utilities.hpp</text>
</a>
</g>
</g>
<!-- Node6&#45;&gt;Node8 -->
<g id="edge7" class="edge">
<title>Node6&#45;&gt;Node8</title>
<path fill="none" stroke="midnightblue" d="M131.1,-112.08C137.24,-104.38 146.27,-93.03 153.74,-83.65"/>
<polygon fill="midnightblue" stroke="midnightblue" points="156.54,-85.75 160.03,-75.75 151.06,-81.39 156.54,-85.75"/>
</g>
<!-- Node9 -->
<g id="node9" class="node">
<title>Node9</title>
<g id="a_node9"><a xlink:title=" ">
<polygon fill="white" stroke="#bfbfbf" points="12.5,-0.5 12.5,-19.5 59.5,-19.5 59.5,-0.5 12.5,-0.5"/>
<text text-anchor="middle" x="36" y="-7.5" font-family="Helvetica,sans-Serif" font-size="10.00">cmath</text>
</a>
</g>
</g>
<!-- Node8&#45;&gt;Node9 -->
<g id="edge8" class="edge">
<title>Node8&#45;&gt;Node9</title>
<path fill="none" stroke="midnightblue" d="M146.24,-56.44C124.68,-47.56 90.74,-33.56 66.21,-23.45"/>
<polygon fill="midnightblue" stroke="midnightblue" points="67.24,-20.09 56.66,-19.52 64.57,-26.56 67.24,-20.09"/>
</g>
<!-- Node10 -->
<g id="node10" class="node">
<title>Node10</title>
<g id="a_node10"><a xlink:title=" ">
<polygon fill="white" stroke="#bfbfbf" points="77.5,-0.5 77.5,-19.5 126.5,-19.5 126.5,-0.5 77.5,-0.5"/>
<text text-anchor="middle" x="102" y="-7.5" font-family="Helvetica,sans-Serif" font-size="10.00">cstdlib</text>
</a>
</g>
</g>
<!-- Node8&#45;&gt;Node10 -->
<g id="edge9" class="edge">
<title>Node8&#45;&gt;Node10</title>
<path fill="none" stroke="midnightblue" d="M156.56,-56.32C146.85,-48.26 132.18,-36.08 120.5,-26.37"/>
<polygon fill="midnightblue" stroke="midnightblue" points="122.56,-23.53 112.63,-19.83 118.09,-28.92 122.56,-23.53"/>
</g>
<!-- Node11 -->
<g id="node11" class="node">
<title>Node11</title>
<g id="a_node11"><a xlink:title=" ">
<polygon fill="white" stroke="#bfbfbf" points="145,-0.5 145,-19.5 189,-19.5 189,-0.5 145,-0.5"/>
<text text-anchor="middle" x="167" y="-7.5" font-family="Helvetica,sans-Serif" font-size="10.00">limits</text>
</a>
</g>
</g>
<!-- Node8&#45;&gt;Node11 -->
<g id="edge10" class="edge">
<title>Node8&#45;&gt;Node11</title>
<path fill="none" stroke="midnightblue" d="M167,-56.08C167,-49.01 167,-38.86 167,-29.99"/>
<polygon fill="midnightblue" stroke="midnightblue" points="170.5,-29.75 167,-19.75 163.5,-29.75 170.5,-29.75"/>
</g>
<!-- Node12 -->
<g id="node12" class="node">
<title>Node12</title>
<g id="a_node12"><a xlink:title=" ">
<polygon fill="white" stroke="#bfbfbf" points="207,-0.5 207,-19.5 265,-19.5 265,-0.5 207,-0.5"/>
<text text-anchor="middle" x="236" y="-7.5" font-family="Helvetica,sans-Serif" font-size="10.00">memory</text>
</a>
</g>
</g>
<!-- Node8&#45;&gt;Node12 -->
<g id="edge11" class="edge">
<title>Node8&#45;&gt;Node12</title>
<path fill="none" stroke="midnightblue" d="M178.09,-56.32C188.49,-48.18 204.26,-35.84 216.72,-26.09"/>
<polygon fill="midnightblue" stroke="midnightblue" points="218.99,-28.75 224.71,-19.83 214.68,-23.24 218.99,-28.75"/>
</g>
<!-- Node13 -->
<g id="node13" class="node">
<title>Node13</title>
<g id="a_node13"><a xlink:title=" ">
<polygon fill="white" stroke="#bfbfbf" points="283.5,-0.5 283.5,-19.5 330.5,-19.5 330.5,-0.5 283.5,-0.5"/>
<text text-anchor="middle" x="307" y="-7.5" font-family="Helvetica,sans-Serif" font-size="10.00">vector</text>
</a>
</g>
</g>
<!-- Node8&#45;&gt;Node13 -->
<g id="edge12" class="edge">
<title>Node8&#45;&gt;Node13</title>
<path fill="none" stroke="midnightblue" d="M189.18,-56.44C212.43,-47.48 249.15,-33.31 275.42,-23.18"/>
<polygon fill="midnightblue" stroke="midnightblue" points="276.85,-26.38 284.92,-19.52 274.33,-19.85 276.85,-26.38"/>
</g>
</g>
</svg>
