<?xml version="1.0" encoding="UTF-8" standalone="no"?>
<!DOCTYPE svg PUBLIC "-//W3C//DTD SVG 1.1//EN"
 "http://www.w3.org/Graphics/SVG/1.1/DTD/svg11.dtd">
<!-- Generated by graphviz version 2.43.0 (0)
 -->
<!-- Title: include/objects/z_rotation.hpp Pages: 1 -->
<svg width="338pt" height="364pt"
 viewBox="0.00 0.00 338.00 364.00" xmlns="http://www.w3.org/2000/svg" xmlns:xlink="http://www.w3.org/1999/xlink">
<g id="graph0" class="graph" transform="scale(1 1) rotate(0) translate(4 360)">
<title>include/objects/z_rotation.hpp</title>
<polygon fill="white" stroke="transparent" points="-4,4 -4,-360 334,-360 334,4 -4,4"/>
<!-- Node1 -->
<g id="node1" class="node">
<title>Node1</title>
<g id="a_node1"><a xlink:title="Class for rotation of object around the z axis.">
<polygon fill="#bfbfbf" stroke="black" points="0,-336.5 0,-355.5 163,-355.5 163,-336.5 0,-336.5"/>
<text text-anchor="middle" x="81.5" y="-343.5" font-family="Helvetica,sans-Serif" font-size="10.00">include/objects/z_rotation.hpp</text>
</a>
</g>
</g>
<!-- Node2 -->
<g id="node2" class="node">
<title>Node2</title>
<g id="a_node2"><a xlink:href="hit_8hpp.html" target="_top" xlink:title="Abstract object that can be hit by a ray.">
<polygon fill="white" stroke="black" points="56.5,-280.5 56.5,-299.5 106.5,-299.5 106.5,-280.5 56.5,-280.5"/>
<text text-anchor="middle" x="81.5" y="-287.5" font-family="Helvetica,sans-Serif" font-size="10.00">hit.hpp</text>
</a>
</g>
</g>
<!-- Node1&#45;&gt;Node2 -->
<g id="edge1" class="edge">
<title>Node1&#45;&gt;Node2</title>
<path fill="none" stroke="midnightblue" d="M81.5,-336.08C81.5,-329.01 81.5,-318.86 81.5,-309.99"/>
<polygon fill="midnightblue" stroke="midnightblue" points="85,-309.75 81.5,-299.75 78,-309.75 85,-309.75"/>
</g>
<!-- Node3 -->
<g id="node3" class="node">
<title>Node3</title>
<g id="a_node3"><a xlink:href="bounding__box_8hpp.html" target="_top" xlink:title="Bounding box object, used to compute BVH tree.">
<polygon fill="white" stroke="black" points="28.5,-224.5 28.5,-243.5 134.5,-243.5 134.5,-224.5 28.5,-224.5"/>
<text text-anchor="middle" x="81.5" y="-231.5" font-family="Helvetica,sans-Serif" font-size="10.00">bounding_box.hpp</text>
</a>
</g>
</g>
<!-- Node2&#45;&gt;Node3 -->
<g id="edge2" class="edge">
<title>Node2&#45;&gt;Node3</title>
<path fill="none" stroke="midnightblue" d="M81.5,-280.08C81.5,-273.01 81.5,-262.86 81.5,-253.99"/>
<polygon fill="midnightblue" stroke="midnightblue" points="85,-253.75 81.5,-243.75 78,-253.75 85,-253.75"/>
</g>
<!-- Node4 -->
<g id="node4" class="node">
<title>Node4</title>
<g id="a_node4"><a xlink:title=" ">
<polygon fill="white" stroke="#bfbfbf" points="17,-168.5 17,-187.5 62,-187.5 62,-168.5 17,-168.5"/>
<text text-anchor="middle" x="39.5" y="-175.5" font-family="Helvetica,sans-Serif" font-size="10.00">utility</text>
</a>
</g>
</g>
<!-- Node3&#45;&gt;Node4 -->
<g id="edge3" class="edge">
<title>Node3&#45;&gt;Node4</title>
<path fill="none" stroke="midnightblue" d="M74.56,-224.08C68.57,-216.38 59.75,-205.03 52.45,-195.65"/>
<polygon fill="midnightblue" stroke="midnightblue" points="55.21,-193.5 46.31,-187.75 49.68,-197.79 55.21,-193.5"/>
</g>
<!-- Node5 -->
<g id="node5" class="node">
<title>Node5</title>
<g id="a_node5"><a xlink:href="ray_8hpp.html" target="_top" xlink:title="The ray object for our tracing algorithm.">
<polygon fill="white" stroke="black" points="80.5,-168.5 80.5,-187.5 166.5,-187.5 166.5,-168.5 80.5,-168.5"/>
<text text-anchor="middle" x="123.5" y="-175.5" font-family="Helvetica,sans-Serif" font-size="10.00">render/ray.hpp</text>
</a>
</g>
</g>
<!-- Node3&#45;&gt;Node5 -->
<g id="edge4" class="edge">
<title>Node3&#45;&gt;Node5</title>
<path fill="none" stroke="midnightblue" d="M88.44,-224.08C94.43,-216.38 103.25,-205.03 110.55,-195.65"/>
<polygon fill="midnightblue" stroke="midnightblue" points="113.32,-197.79 116.69,-187.75 107.79,-193.5 113.32,-197.79"/>
</g>
<!-- Node6 -->
<g id="node6" class="node">
<title>Node6</title>
<g id="a_node6"><a xlink:href="vec3_8hpp.html" target="_top" xlink:title="Custom 3D vector class for points, colours and rays.">
<polygon fill="white" stroke="black" points="93,-112.5 93,-131.5 154,-131.5 154,-112.5 93,-112.5"/>
<text text-anchor="middle" x="123.5" y="-119.5" font-family="Helvetica,sans-Serif" font-size="10.00">vec3.hpp</text>
</a>
</g>
</g>
<!-- Node5&#45;&gt;Node6 -->
<g id="edge5" class="edge">
<title>Node5&#45;&gt;Node6</title>
<path fill="none" stroke="midnightblue" d="M123.5,-168.08C123.5,-161.01 123.5,-150.86 123.5,-141.99"/>
<polygon fill="midnightblue" stroke="midnightblue" points="127,-141.75 123.5,-131.75 120,-141.75 127,-141.75"/>
</g>
<!-- Node7 -->
<g id="node7" class="node">
<title>Node7</title>
<g id="a_node7"><a xlink:title=" ">
<polygon fill="white" stroke="#bfbfbf" points="51.5,-56.5 51.5,-75.5 111.5,-75.5 111.5,-56.5 51.5,-56.5"/>
<text text-anchor="middle" x="81.5" y="-63.5" font-family="Helvetica,sans-Serif" font-size="10.00">iostream</text>
</a>
</g>
</g>
<!-- Node6&#45;&gt;Node7 -->
<g id="edge6" class="edge">
<title>Node6&#45;&gt;Node7</title>
<path fill="none" stroke="midnightblue" d="M116.56,-112.08C110.57,-104.38 101.75,-93.03 94.45,-83.65"/>
<polygon fill="midnightblue" stroke="midnightblue" points="97.21,-81.5 88.31,-75.75 91.68,-85.79 97.21,-81.5"/>
</g>
<!-- Node8 -->
<g id="node8" class="node">
<title>Node8</title>
<g id="a_node8"><a xlink:href="utilities_8hpp.html" target="_top" xlink:title="All the random functionality I am too lazy to organize elsewhere.">
<polygon fill="white" stroke="black" points="129.5,-56.5 129.5,-75.5 203.5,-75.5 203.5,-56.5 129.5,-56.5"/>
<text text-anchor="middle" x="166.5" y="-63.5" font-family="Helvetica,sans-Serif" font-size="10.00">utilities.hpp</text>
</a>
</g>
</g>
<!-- Node6&#45;&gt;Node8 -->
<g id="edge7" class="edge">
<title>Node6&#45;&gt;Node8</title>
<path fill="none" stroke="midnightblue" d="M130.6,-112.08C136.74,-104.38 145.77,-93.03 153.24,-83.65"/>
<polygon fill="midnightblue" stroke="midnightblue" points="156.04,-85.75 159.53,-75.75 150.56,-81.39 156.04,-85.75"/>
</g>
<!-- Node9 -->
<g id="node9" class="node">
<title>Node9</title>
<g id="a_node9"><a xlink:title=" ">
<polygon fill="white" stroke="#bfbfbf" points="12,-0.5 12,-19.5 59,-19.5 59,-0.5 12,-0.5"/>
<text text-anchor="middle" x="35.5" y="-7.5" font-family="Helvetica,sans-Serif" font-size="10.00">cmath</text>
</a>
</g>
</g>
<!-- Node8&#45;&gt;Node9 -->
<g id="edge8" class="edge">
<title>Node8&#45;&gt;Node9</title>
<path fill="none" stroke="midnightblue" d="M145.74,-56.44C124.18,-47.56 90.24,-33.56 65.71,-23.45"/>
<polygon fill="midnightblue" stroke="midnightblue" points="66.74,-20.09 56.16,-19.52 64.07,-26.56 66.74,-20.09"/>
</g>
<!-- Node10 -->
<g id="node10" class="node">
<title>Node10</title>
<g id="a_node10"><a xlink:title=" ">
<polygon fill="white" stroke="#bfbfbf" points="77,-0.5 77,-19.5 126,-19.5 126,-0.5 77,-0.5"/>
<text text-anchor="middle" x="101.5" y="-7.5" font-family="Helvetica,sans-Serif" font-size="10.00">cstdlib</text>
</a>
</g>
</g>
<!-- Node8&#45;&gt;Node10 -->
<g id="edge9" class="edge">
<title>Node8&#45;&gt;Node10</title>
<path fill="none" stroke="midnightblue" d="M156.06,-56.32C146.35,-48.26 131.68,-36.08 120,-26.37"/>
<polygon fill="midnightblue" stroke="midnightblue" points="122.06,-23.53 112.13,-19.83 117.59,-28.92 122.06,-23.53"/>
</g>
<!-- Node11 -->
<g id="node11" class="node">
<title>Node11</title>
<g id="a_node11"><a xlink:title=" ">
<polygon fill="white" stroke="#bfbfbf" points="144.5,-0.5 144.5,-19.5 188.5,-19.5 188.5,-0.5 144.5,-0.5"/>
<text text-anchor="middle" x="166.5" y="-7.5" font-family="Helvetica,sans-Serif" font-size="10.00">limits</text>
</a>
</g>
</g>
<!-- Node8&#45;&gt;Node11 -->
<g id="edge10" class="edge">
<title>Node8&#45;&gt;Node11</title>
<path fill="none" stroke="midnightblue" d="M166.5,-56.08C166.5,-49.01 166.5,-38.86 166.5,-29.99"/>
<polygon fill="midnightblue" stroke="midnightblue" points="170,-29.75 166.5,-19.75 163,-29.75 170,-29.75"/>
</g>
<!-- Node12 -->
<g id="node12" class="node">
<title>Node12</title>
<g id="a_node12"><a xlink:title=" ">
<polygon fill="white" stroke="#bfbfbf" points="206.5,-0.5 206.5,-19.5 264.5,-19.5 264.5,-0.5 206.5,-0.5"/>
<text text-anchor="middle" x="235.5" y="-7.5" font-family="Helvetica,sans-Serif" font-size="10.00">memory</text>
</a>
</g>
</g>
<!-- Node8&#45;&gt;Node12 -->
<g id="edge11" class="edge">
<title>Node8&#45;&gt;Node12</title>
<path fill="none" stroke="midnightblue" d="M177.59,-56.32C187.99,-48.18 203.76,-35.84 216.22,-26.09"/>
<polygon fill="midnightblue" stroke="midnightblue" points="218.49,-28.75 224.21,-19.83 214.18,-23.24 218.49,-28.75"/>
</g>
<!-- Node13 -->
<g id="node13" class="node">
<title>Node13</title>
<g id="a_node13"><a xlink:title=" ">
<polygon fill="white" stroke="#bfbfbf" points="283,-0.5 283,-19.5 330,-19.5 330,-0.5 283,-0.5"/>
<text text-anchor="middle" x="306.5" y="-7.5" font-family="Helvetica,sans-Serif" font-size="10.00">vector</text>
</a>
</g>
</g>
<!-- Node8&#45;&gt;Node13 -->
<g id="edge12" class="edge">
<title>Node8&#45;&gt;Node13</title>
<path fill="none" stroke="midnightblue" d="M188.68,-56.44C211.93,-47.48 248.65,-33.31 274.92,-23.18"/>
<polygon fill="midnightblue" stroke="midnightblue" points="276.35,-26.38 284.42,-19.52 273.83,-19.85 276.35,-26.38"/>
</g>
</g>
</svg>
